<?xml version="1.0" encoding="us-ascii" standalone="no"?><svg xmlns="http://www.w3.org/2000/svg" xmlns:xlink="http://www.w3.org/1999/xlink" contentStyleType="text/css" height="731px" preserveAspectRatio="none" style="width:1126px;height:731px;background:#FFFFFF;" version="1.1" viewBox="0 0 1126 731" width="1126px" zoomAndPan="magnify"><defs/><g><!--cluster ui--><g id="cluster_ui"><path d="M554.5,6.0137 L568.5,6.0137 A3.75,3.75 0 0 1 571,8.5137 L578,30.6348 L725.5,30.6348 A2.5,2.5 0 0 1 728,33.1348 L728,123.5137 A2.5,2.5 0 0 1 725.5,126.0137 L554.5,126.0137 A2.5,2.5 0 0 1 552,123.5137 L552,8.5137 A2.5,2.5 0 0 1 554.5,6.0137 " fill="none" style="stroke:#000000;stroke-width:1.5;"/><line style="stroke:#000000;stroke-width:1.5;" x1="552" x2="578" y1="30.6348" y2="30.6348"/><text fill="#000000" font-family="sans-serif" font-size="14" font-weight="bold" lengthAdjust="spacing" textLength="13" x="556" y="23.1211">ui</text></g><!--cluster controller--><g id="cluster_controller"><path d="M532.5,150.0137 L602.5,150.0137 A3.75,3.75 0 0 1 605,152.5137 L612,174.6348 L747.5,174.6348 A2.5,2.5 0 0 1 750,177.1348 L750,322.5137 A2.5,2.5 0 0 1 747.5,325.0137 L532.5,325.0137 A2.5,2.5 0 0 1 530,322.5137 L530,152.5137 A2.5,2.5 0 0 1 532.5,150.0137 " fill="none" style="stroke:#000000;stroke-width:1.5;"/><line style="stroke:#000000;stroke-width:1.5;" x1="530" x2="612" y1="174.6348" y2="174.6348"/><text fill="#000000" font-family="sans-serif" font-size="14" font-weight="bold" lengthAdjust="spacing" textLength="69" x="534" y="167.1211">controller</text></g><!--cluster service--><g id="cluster_service"><path d="M531.5,377.0137 L585.5,377.0137 A3.75,3.75 0 0 1 588,379.5137 L595,401.6348 L748.5,401.6348 A2.5,2.5 0 0 1 751,404.1348 L751,512.5137 A2.5,2.5 0 0 1 748.5,515.0137 L531.5,515.0137 A2.5,2.5 0 0 1 529,512.5137 L529,379.5137 A2.5,2.5 0 0 1 531.5,377.0137 " fill="none" style="stroke:#000000;stroke-width:1.5;"/><line style="stroke:#000000;stroke-width:1.5;" x1="529" x2="595" y1="401.6348" y2="401.6348"/><text fill="#000000" font-family="sans-serif" font-size="14" font-weight="bold" lengthAdjust="spacing" textLength="53" x="533" y="394.1211">service</text></g><!--cluster repositories--><g id="cluster_repositories"><path d="M777.5,349.0137 L864.5,349.0137 A3.75,3.75 0 0 1 867,351.5137 L874,373.6348 L1116.5,373.6348 A2.5,2.5 0 0 1 1119,376.1348 L1119,540.5137 A2.5,2.5 0 0 1 1116.5,543.0137 L777.5,543.0137 A2.5,2.5 0 0 1 775,540.5137 L775,351.5137 A2.5,2.5 0 0 1 777.5,349.0137 " fill="none" style="stroke:#000000;stroke-width:1.5;"/><line style="stroke:#000000;stroke-width:1.5;" x1="775" x2="874" y1="373.6348" y2="373.6348"/><text fill="#000000" font-family="sans-serif" font-size="14" font-weight="bold" lengthAdjust="spacing" textLength="86" x="779" y="366.1211">repositories</text></g><!--cluster persistence--><g id="cluster_persistence"><path d="M810.5,567.0137 L895.5,567.0137 A3.75,3.75 0 0 1 898,569.5137 L905,591.6348 L1083.5,591.6348 A2.5,2.5 0 0 1 1086,594.1348 L1086,721.5137 A2.5,2.5 0 0 1 1083.5,724.0137 L810.5,724.0137 A2.5,2.5 0 0 1 808,721.5137 L808,569.5137 A2.5,2.5 0 0 1 810.5,567.0137 " fill="none" style="stroke:#000000;stroke-width:1.5;"/><line style="stroke:#000000;stroke-width:1.5;" x1="808" x2="905" y1="591.6348" y2="591.6348"/><text fill="#000000" font-family="sans-serif" font-size="14" font-weight="bold" lengthAdjust="spacing" textLength="84" x="812" y="584.1211">persistence</text></g><!--cluster infrastructure--><g id="cluster_infrastructure"><path d="M8.5,367.5137 L106.5,367.5137 A3.75,3.75 0 0 1 109,370.0137 L116,392.1348 L502.5,392.1348 A2.5,2.5 0 0 1 505,394.6348 L505,522.0137 A2.5,2.5 0 0 1 502.5,524.5137 L8.5,524.5137 A2.5,2.5 0 0 1 6,522.0137 L6,370.0137 A2.5,2.5 0 0 1 8.5,367.5137 " fill="none" style="stroke:#000000;stroke-width:1.5;"/><line style="stroke:#000000;stroke-width:1.5;" x1="6" x2="116" y1="392.1348" y2="392.1348"/><text fill="#000000" font-family="sans-serif" font-size="14" font-weight="bold" lengthAdjust="spacing" textLength="97" x="10" y="384.6211">infrastructure</text></g><!--class CancelMeetingUI--><g id="elem_CancelMeetingUI"><rect codeLine="2" fill="#F1F1F1" height="66.6211" id="CancelMeetingUI" rx="2.5" ry="2.5" style="stroke:#181818;stroke-width:0.5;" width="143" x="568.5" y="43.0137"/><ellipse cx="585.75" cy="59.0137" fill="#ADD1B2" rx="11" ry="11" style="stroke:#181818;stroke-width:1.0;"/><path d="M588.5156,54.8887 Q588.6719,54.6699 588.8594,54.5605 Q589.0469,54.4512 589.2656,54.4512 Q589.6406,54.4512 589.875,54.7168 Q590.1094,54.9668 590.1094,55.5762 L590.1094,57.0293 Q590.1094,57.6387 589.875,57.9043 Q589.6406,58.1699 589.2656,58.1699 Q588.9219,58.1699 588.7188,57.9668 Q588.5156,57.7793 588.4063,57.2637 Q588.3594,56.9043 588.1719,56.7168 Q587.8438,56.3418 587.2344,56.123 Q586.625,55.9043 586,55.9043 Q585.2344,55.9043 584.5938,56.2324 Q583.9688,56.5605 583.4688,57.3105 Q582.9844,58.0605 582.9844,59.0918 L582.9844,60.1855 Q582.9844,61.4199 583.875,62.248 Q584.7656,63.0605 586.3594,63.0605 Q587.2969,63.0605 587.9531,62.8105 Q588.3438,62.6543 588.7656,62.2168 Q589.0313,61.9512 589.1719,61.873 Q589.3281,61.7949 589.5313,61.7949 Q589.8594,61.7949 590.1094,62.0605 Q590.375,62.3105 590.375,62.6543 Q590.375,62.998 590.0313,63.4043 Q589.5313,63.9824 588.7344,64.3105 Q587.6563,64.7637 586.3594,64.7637 Q584.8438,64.7637 583.6406,64.1387 Q582.6563,63.6387 581.9688,62.5762 Q581.2813,61.498 581.2813,60.2168 L581.2813,59.0605 Q581.2813,57.7324 581.8906,56.5918 Q582.5156,55.4355 583.6094,54.8262 Q584.7031,54.2012 585.9375,54.2012 Q586.6719,54.2012 587.3125,54.373 Q587.9688,54.5293 588.5156,54.8887 Z " fill="#000000"/><text fill="#000000" font-family="sans-serif" font-size="14" lengthAdjust="spacing" textLength="106" x="600.25" y="64.8105">CancelMeetingUI</text><line style="stroke:#181818;stroke-width:0.5;" x1="569.5" x2="710.5" y1="75.0137" y2="75.0137"/><line style="stroke:#181818;stroke-width:0.5;" x1="569.5" x2="710.5" y1="83.0137" y2="83.0137"/><ellipse cx="579.5" cy="97.8242" fill="#84BE84" rx="3" ry="3" style="stroke:#038048;stroke-width:1.0;"/><text fill="#000000" font-family="sans-serif" font-size="14" lengthAdjust="spacing" textLength="117" x="588.5" y="102.1211">showMyMeetings()</text></g><!--class CancelMeetingController--><g id="elem_CancelMeetingController"><rect codeLine="8" fill="#F1F1F1" height="122.4844" id="CancelMeetingController" rx="2.5" ry="2.5" style="stroke:#181818;stroke-width:0.5;" width="188" x="546" y="187.0137"/><ellipse cx="561" cy="203.0137" fill="#ADD1B2" rx="11" ry="11" style="stroke:#181818;stroke-width:1.0;"/><path d="M563.7656,198.8887 Q563.9219,198.6699 564.1094,198.5605 Q564.2969,198.4512 564.5156,198.4512 Q564.8906,198.4512 565.125,198.7168 Q565.3594,198.9668 565.3594,199.5762 L565.3594,201.0293 Q565.3594,201.6387 565.125,201.9043 Q564.8906,202.1699 564.5156,202.1699 Q564.1719,202.1699 563.9688,201.9668 Q563.7656,201.7793 563.6563,201.2637 Q563.6094,200.9043 563.4219,200.7168 Q563.0938,200.3418 562.4844,200.123 Q561.875,199.9043 561.25,199.9043 Q560.4844,199.9043 559.8438,200.2324 Q559.2188,200.5605 558.7188,201.3105 Q558.2344,202.0605 558.2344,203.0918 L558.2344,204.1855 Q558.2344,205.4199 559.125,206.248 Q560.0156,207.0605 561.6094,207.0605 Q562.5469,207.0605 563.2031,206.8105 Q563.5938,206.6543 564.0156,206.2168 Q564.2813,205.9512 564.4219,205.873 Q564.5781,205.7949 564.7813,205.7949 Q565.1094,205.7949 565.3594,206.0605 Q565.625,206.3105 565.625,206.6543 Q565.625,206.998 565.2813,207.4043 Q564.7813,207.9824 563.9844,208.3105 Q562.9063,208.7637 561.6094,208.7637 Q560.0938,208.7637 558.8906,208.1387 Q557.9063,207.6387 557.2188,206.5762 Q556.5313,205.498 556.5313,204.2168 L556.5313,203.0605 Q556.5313,201.7324 557.1406,200.5918 Q557.7656,199.4355 558.8594,198.8262 Q559.9531,198.2012 561.1875,198.2012 Q561.9219,198.2012 562.5625,198.373 Q563.2188,198.5293 563.7656,198.8887 Z " fill="#000000"/><text fill="#000000" font-family="sans-serif" font-size="14" lengthAdjust="spacing" textLength="156" x="575" y="208.8105">CancelMeetingController</text><line style="stroke:#181818;stroke-width:0.5;" x1="547" x2="733" y1="219.0137" y2="219.0137"/><line style="stroke:#181818;stroke-width:0.5;" x1="547" x2="733" y1="227.0137" y2="227.0137"/><ellipse cx="557" cy="241.8242" fill="#84BE84" rx="3" ry="3" style="stroke:#038048;stroke-width:1.0;"/><text fill="#000000" font-family="sans-serif" font-size="14" lengthAdjust="spacing" textLength="83" x="566" y="246.1211">activeUsers()</text><ellipse cx="557" cy="260.4453" fill="#84BE84" rx="3" ry="3" style="stroke:#038048;stroke-width:1.0;"/><text fill="#000000" font-family="sans-serif" font-size="14" lengthAdjust="spacing" textLength="84" x="566" y="264.7422">currentUser()</text><ellipse cx="557" cy="279.0664" fill="#84BE84" rx="3" ry="3" style="stroke:#038048;stroke-width:1.0;"/><text fill="#000000" font-family="sans-serif" font-size="14" lengthAdjust="spacing" textLength="151" x="566" y="283.3633">cancelMeeting(Meeting)</text><ellipse cx="557" cy="297.6875" fill="#84BE84" rx="3" ry="3" style="stroke:#038048;stroke-width:1.0;"/><text fill="#000000" font-family="sans-serif" font-size="14" lengthAdjust="spacing" textLength="102" x="566" y="301.9844">listMyMeetings()</text></g><!--class UserManagementService--><g id="elem_UserManagementService"><rect codeLine="17" fill="#F1F1F1" height="85.2422" id="UserManagementService" rx="2.5" ry="2.5" style="stroke:#181818;stroke-width:0.5;" width="190" x="545" y="414.0137"/><ellipse cx="560" cy="430.0137" fill="#ADD1B2" rx="11" ry="11" style="stroke:#181818;stroke-width:1.0;"/><path d="M562.7656,425.8887 Q562.9219,425.6699 563.1094,425.5605 Q563.2969,425.4512 563.5156,425.4512 Q563.8906,425.4512 564.125,425.7168 Q564.3594,425.9668 564.3594,426.5762 L564.3594,428.0293 Q564.3594,428.6387 564.125,428.9043 Q563.8906,429.1699 563.5156,429.1699 Q563.1719,429.1699 562.9688,428.9668 Q562.7656,428.7793 562.6563,428.2637 Q562.6094,427.9043 562.4219,427.7168 Q562.0938,427.3418 561.4844,427.123 Q560.875,426.9043 560.25,426.9043 Q559.4844,426.9043 558.8438,427.2324 Q558.2188,427.5605 557.7188,428.3105 Q557.2344,429.0605 557.2344,430.0918 L557.2344,431.1855 Q557.2344,432.4199 558.125,433.248 Q559.0156,434.0605 560.6094,434.0605 Q561.5469,434.0605 562.2031,433.8105 Q562.5938,433.6543 563.0156,433.2168 Q563.2813,432.9512 563.4219,432.873 Q563.5781,432.7949 563.7813,432.7949 Q564.1094,432.7949 564.3594,433.0605 Q564.625,433.3105 564.625,433.6543 Q564.625,433.998 564.2813,434.4043 Q563.7813,434.9824 562.9844,435.3105 Q561.9063,435.7637 560.6094,435.7637 Q559.0938,435.7637 557.8906,435.1387 Q556.9063,434.6387 556.2188,433.5762 Q555.5313,432.498 555.5313,431.2168 L555.5313,430.0605 Q555.5313,428.7324 556.1406,427.5918 Q556.7656,426.4355 557.8594,425.8262 Q558.9531,425.2012 560.1875,425.2012 Q560.9219,425.2012 561.5625,425.373 Q562.2188,425.5293 562.7656,425.8887 Z " fill="#000000"/><text fill="#000000" font-family="sans-serif" font-size="14" lengthAdjust="spacing" textLength="158" x="574" y="435.8105">UserManagementService</text><line style="stroke:#181818;stroke-width:0.5;" x1="546" x2="734" y1="446.0137" y2="446.0137"/><line style="stroke:#181818;stroke-width:0.5;" x1="546" x2="734" y1="454.0137" y2="454.0137"/><ellipse cx="556" cy="468.8242" fill="#84BE84" rx="3" ry="3" style="stroke:#038048;stroke-width:1.0;"/><text fill="#000000" font-family="sans-serif" font-size="14" lengthAdjust="spacing" textLength="83" x="565" y="473.1211">activeUsers()</text><ellipse cx="556" cy="487.4453" fill="#84BE84" rx="3" ry="3" style="stroke:#038048;stroke-width:1.0;"/><text fill="#000000" font-family="sans-serif" font-size="14" lengthAdjust="spacing" textLength="98" x="565" y="491.7422">userOfIdentity()</text></g><!--class MeetingRepository--><g id="elem_MeetingRepository"><rect codeLine="24" fill="#F1F1F1" height="141.1055" id="MeetingRepository" rx="2.5" ry="2.5" style="stroke:#181818;stroke-width:0.5;" width="311" x="791.5" y="386.0137"/><ellipse cx="883.75" cy="402.0137" fill="#ADD1B2" rx="11" ry="11" style="stroke:#181818;stroke-width:1.0;"/><path d="M886.5156,397.8887 Q886.6719,397.6699 886.8594,397.5605 Q887.0469,397.4512 887.2656,397.4512 Q887.6406,397.4512 887.875,397.7168 Q888.1094,397.9668 888.1094,398.5762 L888.1094,400.0293 Q888.1094,400.6387 887.875,400.9043 Q887.6406,401.1699 887.2656,401.1699 Q886.9219,401.1699 886.7188,400.9668 Q886.5156,400.7793 886.4063,400.2637 Q886.3594,399.9043 886.1719,399.7168 Q885.8438,399.3418 885.2344,399.123 Q884.625,398.9043 884,398.9043 Q883.2344,398.9043 882.5938,399.2324 Q881.9688,399.5605 881.4688,400.3105 Q880.9844,401.0605 880.9844,402.0918 L880.9844,403.1855 Q880.9844,404.4199 881.875,405.248 Q882.7656,406.0605 884.3594,406.0605 Q885.2969,406.0605 885.9531,405.8105 Q886.3438,405.6543 886.7656,405.2168 Q887.0313,404.9512 887.1719,404.873 Q887.3281,404.7949 887.5313,404.7949 Q887.8594,404.7949 888.1094,405.0605 Q888.375,405.3105 888.375,405.6543 Q888.375,405.998 888.0313,406.4043 Q887.5313,406.9824 886.7344,407.3105 Q885.6563,407.7637 884.3594,407.7637 Q882.8438,407.7637 881.6406,407.1387 Q880.6563,406.6387 879.9688,405.5762 Q879.2813,404.498 879.2813,403.2168 L879.2813,402.0605 Q879.2813,400.7324 879.8906,399.5918 Q880.5156,398.4355 881.6094,397.8262 Q882.7031,397.2012 883.9375,397.2012 Q884.6719,397.2012 885.3125,397.373 Q885.9688,397.5293 886.5156,397.8887 Z " fill="#000000"/><text fill="#000000" font-family="sans-serif" font-size="14" lengthAdjust="spacing" textLength="118" x="904.25" y="407.8105">MeetingRepository</text><line style="stroke:#181818;stroke-width:0.5;" x1="792.5" x2="1101.5" y1="418.0137" y2="418.0137"/><line style="stroke:#181818;stroke-width:0.5;" x1="792.5" x2="1101.5" y1="426.0137" y2="426.0137"/><ellipse cx="802.5" cy="440.8242" fill="#84BE84" rx="3" ry="3" style="stroke:#038048;stroke-width:1.0;"/><text fill="#000000" font-family="sans-serif" font-size="14" lengthAdjust="spacing" textLength="210" x="811.5" y="445.1211">findMeetingsByUser(SystemUser)</text><ellipse cx="802.5" cy="459.4453" fill="#84BE84" rx="3" ry="3" style="stroke:#038048;stroke-width:1.0;"/><text fill="#000000" font-family="sans-serif" font-size="14" lengthAdjust="spacing" textLength="270" x="811.5" y="463.7422">findByDayAndUser(Calendar,SystemUser))</text><ellipse cx="802.5" cy="478.0664" fill="#84BE84" rx="3" ry="3" style="stroke:#038048;stroke-width:1.0;"/><text fill="#000000" font-family="sans-serif" font-size="14" lengthAdjust="spacing" textLength="285" x="811.5" y="482.3633">findParticipantsByDay(Calendar,SystemUser)</text><ellipse cx="802.5" cy="496.6875" fill="#84BE84" rx="3" ry="3" style="stroke:#038048;stroke-width:1.0;"/><text fill="#000000" font-family="sans-serif" font-size="14" lengthAdjust="spacing" textLength="90" x="811.5" y="500.9844">save(Meeting)</text><ellipse cx="802.5" cy="515.3086" fill="#84BE84" rx="3" ry="3" style="stroke:#038048;stroke-width:1.0;"/><text fill="#000000" font-family="sans-serif" font-size="14" lengthAdjust="spacing" textLength="99" x="811.5" y="519.6055">delete(Meeting)</text></g><!--class JpaMeetingRepository--><g id="elem_JpaMeetingRepository"><rect codeLine="34" fill="#F1F1F1" height="103.8633" id="JpaMeetingRepository" rx="2.5" ry="2.5" style="stroke:#181818;stroke-width:0.5;" width="245" x="824.5" y="604.0137"/><ellipse cx="872.75" cy="620.0137" fill="#ADD1B2" rx="11" ry="11" style="stroke:#181818;stroke-width:1.0;"/><path d="M875.5156,615.8887 Q875.6719,615.6699 875.8594,615.5605 Q876.0469,615.4512 876.2656,615.4512 Q876.6406,615.4512 876.875,615.7168 Q877.1094,615.9668 877.1094,616.5762 L877.1094,618.0293 Q877.1094,618.6387 876.875,618.9043 Q876.6406,619.1699 876.2656,619.1699 Q875.9219,619.1699 875.7188,618.9668 Q875.5156,618.7793 875.4063,618.2637 Q875.3594,617.9043 875.1719,617.7168 Q874.8438,617.3418 874.2344,617.123 Q873.625,616.9043 873,616.9043 Q872.2344,616.9043 871.5938,617.2324 Q870.9688,617.5605 870.4688,618.3105 Q869.9844,619.0605 869.9844,620.0918 L869.9844,621.1855 Q869.9844,622.4199 870.875,623.248 Q871.7656,624.0605 873.3594,624.0605 Q874.2969,624.0605 874.9531,623.8105 Q875.3438,623.6543 875.7656,623.2168 Q876.0313,622.9512 876.1719,622.873 Q876.3281,622.7949 876.5313,622.7949 Q876.8594,622.7949 877.1094,623.0605 Q877.375,623.3105 877.375,623.6543 Q877.375,623.998 877.0313,624.4043 Q876.5313,624.9824 875.7344,625.3105 Q874.6563,625.7637 873.3594,625.7637 Q871.8438,625.7637 870.6406,625.1387 Q869.6563,624.6387 868.9688,623.5762 Q868.2813,622.498 868.2813,621.2168 L868.2813,620.0605 Q868.2813,618.7324 868.8906,617.5918 Q869.5156,616.4355 870.6094,615.8262 Q871.7031,615.2012 872.9375,615.2012 Q873.6719,615.2012 874.3125,615.373 Q874.9688,615.5293 875.5156,615.8887 Z " fill="#000000"/><text fill="#000000" font-family="sans-serif" font-size="14" lengthAdjust="spacing" textLength="140" x="893.25" y="625.8105">JpaMeetingRepository</text><line style="stroke:#181818;stroke-width:0.5;" x1="825.5" x2="1068.5" y1="636.0137" y2="636.0137"/><line style="stroke:#181818;stroke-width:0.5;" x1="825.5" x2="1068.5" y1="644.0137" y2="644.0137"/><ellipse cx="835.5" cy="658.8242" fill="#84BE84" rx="3" ry="3" style="stroke:#038048;stroke-width:1.0;"/><text fill="#000000" font-family="sans-serif" font-size="14" lengthAdjust="spacing" textLength="90" x="844.5" y="663.1211">save(Meeting)</text><ellipse cx="835.5" cy="677.4453" fill="#84BE84" rx="3" ry="3" style="stroke:#038048;stroke-width:1.0;"/><text fill="#000000" font-family="sans-serif" font-size="14" lengthAdjust="spacing" textLength="210" x="844.5" y="681.7422">findMeetingsByUser(SystemUser)</text><ellipse cx="835.5" cy="696.0664" fill="#84BE84" rx="3" ry="3" style="stroke:#038048;stroke-width:1.0;"/><text fill="#000000" font-family="sans-serif" font-size="14" lengthAdjust="spacing" textLength="219" x="844.5" y="700.3633">findByDayAndUser(Calendar,User)</text></g><!--class AuthorizationService--><g id="elem_AuthorizationService"><rect codeLine="44" fill="#F1F1F1" height="85.2422" id="AuthorizationService" rx="2.5" ry="2.5" style="stroke:#181818;stroke-width:0.5;" width="259" x="229.5" y="414.0137"/><ellipse cx="290.25" cy="430.0137" fill="#ADD1B2" rx="11" ry="11" style="stroke:#181818;stroke-width:1.0;"/><path d="M293.0156,425.8887 Q293.1719,425.6699 293.3594,425.5605 Q293.5469,425.4512 293.7656,425.4512 Q294.1406,425.4512 294.375,425.7168 Q294.6094,425.9668 294.6094,426.5762 L294.6094,428.0293 Q294.6094,428.6387 294.375,428.9043 Q294.1406,429.1699 293.7656,429.1699 Q293.4219,429.1699 293.2188,428.9668 Q293.0156,428.7793 292.9063,428.2637 Q292.8594,427.9043 292.6719,427.7168 Q292.3438,427.3418 291.7344,427.123 Q291.125,426.9043 290.5,426.9043 Q289.7344,426.9043 289.0938,427.2324 Q288.4688,427.5605 287.9688,428.3105 Q287.4844,429.0605 287.4844,430.0918 L287.4844,431.1855 Q287.4844,432.4199 288.375,433.248 Q289.2656,434.0605 290.8594,434.0605 Q291.7969,434.0605 292.4531,433.8105 Q292.8438,433.6543 293.2656,433.2168 Q293.5313,432.9512 293.6719,432.873 Q293.8281,432.7949 294.0313,432.7949 Q294.3594,432.7949 294.6094,433.0605 Q294.875,433.3105 294.875,433.6543 Q294.875,433.998 294.5313,434.4043 Q294.0313,434.9824 293.2344,435.3105 Q292.1563,435.7637 290.8594,435.7637 Q289.3438,435.7637 288.1406,435.1387 Q287.1563,434.6387 286.4688,433.5762 Q285.7813,432.498 285.7813,431.2168 L285.7813,430.0605 Q285.7813,428.7324 286.3906,427.5918 Q287.0156,426.4355 288.1094,425.8262 Q289.2031,425.2012 290.4375,425.2012 Q291.1719,425.2012 291.8125,425.373 Q292.4688,425.5293 293.0156,425.8887 Z " fill="#000000"/><text fill="#000000" font-family="sans-serif" font-size="14" lengthAdjust="spacing" textLength="129" x="310.75" y="435.8105">AuthorizationService</text><line style="stroke:#181818;stroke-width:0.5;" x1="230.5" x2="487.5" y1="446.0137" y2="446.0137"/><line style="stroke:#181818;stroke-width:0.5;" x1="230.5" x2="487.5" y1="454.0137" y2="454.0137"/><ellipse cx="240.5" cy="468.8242" fill="#84BE84" rx="3" ry="3" style="stroke:#038048;stroke-width:1.0;"/><text fill="#000000" font-family="sans-serif" font-size="14" lengthAdjust="spacing" textLength="233" x="249.5" y="473.1211">ensureAuthenticatedUserHasAnyOf()</text><ellipse cx="240.5" cy="487.4453" fill="#84BE84" rx="3" ry="3" style="stroke:#038048;stroke-width:1.0;"/><text fill="#000000" font-family="sans-serif" font-size="14" lengthAdjust="spacing" textLength="58" x="249.5" y="491.7422">session()</text></g><!--class AuthzRegistry--><g id="elem_AuthzRegistry"><rect codeLine="48" fill="#F1F1F1" height="103.8633" id="AuthzRegistry" rx="2.5" ry="2.5" style="stroke:#181818;stroke-width:0.5;" width="172" x="22" y="404.5137"/><ellipse cx="60.85" cy="420.5137" fill="#ADD1B2" rx="11" ry="11" style="stroke:#181818;stroke-width:1.0;"/><path d="M63.6156,416.3887 Q63.7719,416.1699 63.9594,416.0605 Q64.1469,415.9512 64.3656,415.9512 Q64.7406,415.9512 64.975,416.2168 Q65.2094,416.4668 65.2094,417.0762 L65.2094,418.5293 Q65.2094,419.1387 64.975,419.4043 Q64.7406,419.6699 64.3656,419.6699 Q64.0219,419.6699 63.8188,419.4668 Q63.6156,419.2793 63.5063,418.7637 Q63.4594,418.4043 63.2719,418.2168 Q62.9438,417.8418 62.3344,417.623 Q61.725,417.4043 61.1,417.4043 Q60.3344,417.4043 59.6938,417.7324 Q59.0688,418.0605 58.5688,418.8105 Q58.0844,419.5605 58.0844,420.5918 L58.0844,421.6855 Q58.0844,422.9199 58.975,423.748 Q59.8656,424.5605 61.4594,424.5605 Q62.3969,424.5605 63.0531,424.3105 Q63.4438,424.1543 63.8656,423.7168 Q64.1313,423.4512 64.2719,423.373 Q64.4281,423.2949 64.6313,423.2949 Q64.9594,423.2949 65.2094,423.5605 Q65.475,423.8105 65.475,424.1543 Q65.475,424.498 65.1313,424.9043 Q64.6313,425.4824 63.8344,425.8105 Q62.7563,426.2637 61.4594,426.2637 Q59.9438,426.2637 58.7406,425.6387 Q57.7563,425.1387 57.0688,424.0762 Q56.3813,422.998 56.3813,421.7168 L56.3813,420.5605 Q56.3813,419.2324 56.9906,418.0918 Q57.6156,416.9355 58.7094,416.3262 Q59.8031,415.7012 61.0375,415.7012 Q61.7719,415.7012 62.4125,415.873 Q63.0688,416.0293 63.6156,416.3887 Z " fill="#000000"/><text fill="#000000" font-family="sans-serif" font-size="14" lengthAdjust="spacing" textLength="87" x="80.15" y="426.3105">AuthzRegistry</text><line style="stroke:#181818;stroke-width:0.5;" x1="23" x2="193" y1="436.5137" y2="436.5137"/><line style="stroke:#181818;stroke-width:0.5;" x1="23" x2="193" y1="444.5137" y2="444.5137"/><ellipse cx="33" cy="459.3242" fill="#84BE84" rx="3" ry="3" style="stroke:#038048;stroke-width:1.0;"/><text fill="#000000" font-family="sans-serif" font-size="14" lengthAdjust="spacing" textLength="85" x="42" y="463.6211">userService()</text><ellipse cx="33" cy="477.9453" fill="#84BE84" rx="3" ry="3" style="stroke:#038048;stroke-width:1.0;"/><text fill="#000000" font-family="sans-serif" font-size="14" lengthAdjust="spacing" textLength="146" x="42" y="482.2422">authenticationService()</text><ellipse cx="33" cy="496.5664" fill="#84BE84" rx="3" ry="3" style="stroke:#038048;stroke-width:1.0;"/><text fill="#000000" font-family="sans-serif" font-size="14" lengthAdjust="spacing" textLength="138" x="42" y="500.8633">authorizationService()</text></g><!--link CancelMeetingUI to CancelMeetingController--><g id="link_CancelMeetingUI_CancelMeetingController"><path codeLine="56" d="M640,110.1937 C640,130.4937 640,157.2937 640,181.7937 " fill="none" id="CancelMeetingUI-to-CancelMeetingController" style="stroke:#181818;stroke-width:1.0;stroke-dasharray:7.0,7.0;"/><polygon fill="#181818" points="640,186.9837,644,177.9837,640,181.9837,636,177.9837,640,186.9837" style="stroke:#181818;stroke-width:1.0;"/></g><!--link CancelMeetingController to UserManagementService--><g id="link_CancelMeetingController_UserManagementService"><path codeLine="57" d="M640,309.0237 C640,340.7637 640,379.1637 640,408.6837 " fill="none" id="CancelMeetingController-to-UserManagementService" style="stroke:#181818;stroke-width:1.0;"/><polygon fill="#181818" points="640,413.7137,644,404.7137,640,408.7137,636,404.7137,640,413.7137" style="stroke:#181818;stroke-width:1.0;"/></g><!--link CancelMeetingController to MeetingRepository--><g id="link_CancelMeetingController_MeetingRepository"><path codeLine="58" d="M729.21,309.0237 C763.57,332.1337 803.19,358.7737 839.13,382.9537 " fill="none" id="CancelMeetingController-to-MeetingRepository" style="stroke:#181818;stroke-width:1.0;"/><polygon fill="#181818" points="843.49,385.8937,838.2599,377.5483,839.343,383.1005,833.7907,384.1835,843.49,385.8937" style="stroke:#181818;stroke-width:1.0;"/></g><!--link CancelMeetingController to AuthorizationService--><g id="link_CancelMeetingController_AuthorizationService"><path codeLine="59" d="M558.35,309.0237 C514.26,341.4237 460.73,380.7537 420.25,410.5037 " fill="none" id="CancelMeetingController-to-AuthorizationService" style="stroke:#181818;stroke-width:1.0;"/><polygon fill="#181818" points="415.88,413.7137,425.5021,411.6126,419.9107,410.755,420.7682,405.1635,415.88,413.7137" style="stroke:#181818;stroke-width:1.0;"/></g><!--link AuthzRegistry to AuthorizationService--><g id="link_AuthzRegistry_AuthorizationService"><path codeLine="60" d="M194.28,456.5137 C204.24,456.5137 214.19,456.5137 224.14,456.5137 " fill="none" id="AuthzRegistry-to-AuthorizationService" style="stroke:#181818;stroke-width:1.0;"/><polygon fill="#181818" points="229.35,456.5137,220.35,452.5137,224.35,456.5137,220.35,460.5137,229.35,456.5137" style="stroke:#181818;stroke-width:1.0;"/></g><!--link MeetingRepository to JpaMeetingRepository--><g id="link_MeetingRepository_JpaMeetingRepository"><path codeLine="61" d="M947,527.1437 C947,550.6837 947,576.6537 947,598.9937 " fill="none" id="MeetingRepository-to-JpaMeetingRepository" style="stroke:#181818;stroke-width:1.0;"/><polygon fill="#181818" points="947,604.0037,951,595.0037,947,599.0037,943,595.0037,947,604.0037" style="stroke:#181818;stroke-width:1.0;"/></g><!--SRC=[fLFRRi8m37tlL-GHnE0Ja80zR9CG4uWFi58NefMqYbEcWFZt9MrwIMbv6I-0VNnyVEpam7_WXAmGx1un- -4f4B4DI8xf5b4BUJf-LgaPdRFVhV5HcapBw2DwH57kQNWcjShI5DKutQR1U5hWMbpnIAXgpXalb4AfNQm9TJac_jldKa7wjJ1BT1KS0rMEVGlIfY-srw52L81XMIvQsF-xv3Es5KARDX5qKvXd97Ic15BGqalSrtdZBKY4Z6lvQrEEVJ2ayU9-JblCsho3MScuH6mWHHc3Ukj0EzXlK5fmaOFKLDOD5lZDmXLxdiQOeku5Wo5pQupr7MNFrgySdiPazz4-_nkz0hNY6dL29Wf8guBhGeK2LuK-szNSG8jC7eB3cA4a2tS8js0E6ik67q0hQNP9VOo4HBQukRIG_BR7atMcsQwx6T-d9e2sGokYc-mBR5gvANlFaoqMox4t5et4sNo-77u1BokUDliIFUHq53Z4nb3F9-G8Xsuh-WC0]--></g></svg>