<?xml version="1.0" encoding="us-ascii" standalone="no"?><svg xmlns="http://www.w3.org/2000/svg" xmlns:xlink="http://www.w3.org/1999/xlink" contentStyleType="text/css" height="676px" preserveAspectRatio="none" style="width:1472px;height:676px;background:#FFFFFF;" version="1.1" viewBox="0 0 1472 676" width="1472px" zoomAndPan="magnify"><defs/><g><!--cluster ui--><g id="cluster_ui"><path d="M684.5,6.0137 L698.5,6.0137 A3.75,3.75 0 0 1 701,8.5137 L708,30.6348 L901.5,30.6348 A2.5,2.5 0 0 1 904,33.1348 L904,123.5137 A2.5,2.5 0 0 1 901.5,126.0137 L684.5,126.0137 A2.5,2.5 0 0 1 682,123.5137 L682,8.5137 A2.5,2.5 0 0 1 684.5,6.0137 " fill="none" style="stroke:#000000;stroke-width:1.5;"/><line style="stroke:#000000;stroke-width:1.5;" x1="682" x2="708" y1="30.6348" y2="30.6348"/><text fill="#000000" font-family="sans-serif" font-size="14" font-weight="bold" lengthAdjust="spacing" textLength="13" x="686" y="23.1211">ui</text></g><!--cluster controller--><g id="cluster_controller"><path d="M696.5,150.0137 L766.5,150.0137 A3.75,3.75 0 0 1 769,152.5137 L776,174.6348 L889.5,174.6348 A2.5,2.5 0 0 1 892,177.1348 L892,304.5137 A2.5,2.5 0 0 1 889.5,307.0137 L696.5,307.0137 A2.5,2.5 0 0 1 694,304.5137 L694,152.5137 A2.5,2.5 0 0 1 696.5,150.0137 " fill="none" style="stroke:#000000;stroke-width:1.5;"/><line style="stroke:#000000;stroke-width:1.5;" x1="694" x2="776" y1="174.6348" y2="174.6348"/><text fill="#000000" font-family="sans-serif" font-size="14" font-weight="bold" lengthAdjust="spacing" textLength="69" x="698" y="167.1211">controller</text></g><!--cluster service--><g id="cluster_service"><path d="M531.5,340.5137 L585.5,340.5137 A3.75,3.75 0 0 1 588,343.0137 L595,365.1348 L748.5,365.1348 A2.5,2.5 0 0 1 751,367.6348 L751,476.0137 A2.5,2.5 0 0 1 748.5,478.5137 L531.5,478.5137 A2.5,2.5 0 0 1 529,476.0137 L529,343.0137 A2.5,2.5 0 0 1 531.5,340.5137 " fill="none" style="stroke:#000000;stroke-width:1.5;"/><line style="stroke:#000000;stroke-width:1.5;" x1="529" x2="595" y1="365.1348" y2="365.1348"/><text fill="#000000" font-family="sans-serif" font-size="14" font-weight="bold" lengthAdjust="spacing" textLength="53" x="533" y="357.6211">service</text></g><!--cluster repositories--><g id="cluster_repositories"><path d="M777.5,331.0137 L864.5,331.0137 A3.75,3.75 0 0 1 867,333.5137 L874,355.6348 L1462.5,355.6348 A2.5,2.5 0 0 1 1465,358.1348 L1465,485.5137 A2.5,2.5 0 0 1 1462.5,488.0137 L777.5,488.0137 A2.5,2.5 0 0 1 775,485.5137 L775,333.5137 A2.5,2.5 0 0 1 777.5,331.0137 " fill="none" style="stroke:#000000;stroke-width:1.5;"/><line style="stroke:#000000;stroke-width:1.5;" x1="775" x2="874" y1="355.6348" y2="355.6348"/><text fill="#000000" font-family="sans-serif" font-size="14" font-weight="bold" lengthAdjust="spacing" textLength="86" x="779" y="348.1211">repositories</text></g><!--cluster persistence--><g id="cluster_persistence"><path d="M793.5,512.0137 L878.5,512.0137 A3.75,3.75 0 0 1 881,514.5137 L888,536.6348 L1412.5,536.6348 A2.5,2.5 0 0 1 1415,539.1348 L1415,666.5137 A2.5,2.5 0 0 1 1412.5,669.0137 L793.5,669.0137 A2.5,2.5 0 0 1 791,666.5137 L791,514.5137 A2.5,2.5 0 0 1 793.5,512.0137 " fill="none" style="stroke:#000000;stroke-width:1.5;"/><line style="stroke:#000000;stroke-width:1.5;" x1="791" x2="888" y1="536.6348" y2="536.6348"/><text fill="#000000" font-family="sans-serif" font-size="14" font-weight="bold" lengthAdjust="spacing" textLength="84" x="795" y="529.1211">persistence</text></g><!--cluster infrastructure--><g id="cluster_infrastructure"><path d="M8.5,331.0137 L106.5,331.0137 A3.75,3.75 0 0 1 109,333.5137 L116,355.6348 L502.5,355.6348 A2.5,2.5 0 0 1 505,358.1348 L505,485.5137 A2.5,2.5 0 0 1 502.5,488.0137 L8.5,488.0137 A2.5,2.5 0 0 1 6,485.5137 L6,333.5137 A2.5,2.5 0 0 1 8.5,331.0137 " fill="none" style="stroke:#000000;stroke-width:1.5;"/><line style="stroke:#000000;stroke-width:1.5;" x1="6" x2="116" y1="355.6348" y2="355.6348"/><text fill="#000000" font-family="sans-serif" font-size="14" font-weight="bold" lengthAdjust="spacing" textLength="97" x="10" y="348.1211">infrastructure</text></g><!--class ListMeetingParticipantsUI--><g id="elem_ListMeetingParticipantsUI"><rect codeLine="2" fill="#F1F1F1" height="66.6211" id="ListMeetingParticipantsUI" rx="2.5" ry="2.5" style="stroke:#181818;stroke-width:0.5;" width="190" x="698" y="43.0137"/><ellipse cx="713" cy="59.0137" fill="#ADD1B2" rx="11" ry="11" style="stroke:#181818;stroke-width:1.0;"/><path d="M715.7656,54.8887 Q715.9219,54.6699 716.1094,54.5605 Q716.2969,54.4512 716.5156,54.4512 Q716.8906,54.4512 717.125,54.7168 Q717.3594,54.9668 717.3594,55.5762 L717.3594,57.0293 Q717.3594,57.6387 717.125,57.9043 Q716.8906,58.1699 716.5156,58.1699 Q716.1719,58.1699 715.9688,57.9668 Q715.7656,57.7793 715.6563,57.2637 Q715.6094,56.9043 715.4219,56.7168 Q715.0938,56.3418 714.4844,56.123 Q713.875,55.9043 713.25,55.9043 Q712.4844,55.9043 711.8438,56.2324 Q711.2188,56.5605 710.7188,57.3105 Q710.2344,58.0605 710.2344,59.0918 L710.2344,60.1855 Q710.2344,61.4199 711.125,62.248 Q712.0156,63.0605 713.6094,63.0605 Q714.5469,63.0605 715.2031,62.8105 Q715.5938,62.6543 716.0156,62.2168 Q716.2813,61.9512 716.4219,61.873 Q716.5781,61.7949 716.7813,61.7949 Q717.1094,61.7949 717.3594,62.0605 Q717.625,62.3105 717.625,62.6543 Q717.625,62.998 717.2813,63.4043 Q716.7813,63.9824 715.9844,64.3105 Q714.9063,64.7637 713.6094,64.7637 Q712.0938,64.7637 710.8906,64.1387 Q709.9063,63.6387 709.2188,62.5762 Q708.5313,61.498 708.5313,60.2168 L708.5313,59.0605 Q708.5313,57.7324 709.1406,56.5918 Q709.7656,55.4355 710.8594,54.8262 Q711.9531,54.2012 713.1875,54.2012 Q713.9219,54.2012 714.5625,54.373 Q715.2188,54.5293 715.7656,54.8887 Z " fill="#000000"/><text fill="#000000" font-family="sans-serif" font-size="14" lengthAdjust="spacing" textLength="158" x="727" y="64.8105">ListMeetingParticipantsUI</text><line style="stroke:#181818;stroke-width:0.5;" x1="699" x2="887" y1="75.0137" y2="75.0137"/><line style="stroke:#181818;stroke-width:0.5;" x1="699" x2="887" y1="83.0137" y2="83.0137"/><ellipse cx="709" cy="97.8242" fill="#84BE84" rx="3" ry="3" style="stroke:#038048;stroke-width:1.0;"/><text fill="#000000" font-family="sans-serif" font-size="14" lengthAdjust="spacing" textLength="115" x="718" y="102.1211">selectMyMeeting()</text></g><!--class ListMeetingController--><g id="elem_ListMeetingController"><rect codeLine="8" fill="#F1F1F1" height="103.8633" id="ListMeetingController" rx="2.5" ry="2.5" style="stroke:#181818;stroke-width:0.5;" width="166" x="710" y="187.0137"/><ellipse cx="725" cy="203.0137" fill="#ADD1B2" rx="11" ry="11" style="stroke:#181818;stroke-width:1.0;"/><path d="M727.7656,198.8887 Q727.9219,198.6699 728.1094,198.5605 Q728.2969,198.4512 728.5156,198.4512 Q728.8906,198.4512 729.125,198.7168 Q729.3594,198.9668 729.3594,199.5762 L729.3594,201.0293 Q729.3594,201.6387 729.125,201.9043 Q728.8906,202.1699 728.5156,202.1699 Q728.1719,202.1699 727.9688,201.9668 Q727.7656,201.7793 727.6563,201.2637 Q727.6094,200.9043 727.4219,200.7168 Q727.0938,200.3418 726.4844,200.123 Q725.875,199.9043 725.25,199.9043 Q724.4844,199.9043 723.8438,200.2324 Q723.2188,200.5605 722.7188,201.3105 Q722.2344,202.0605 722.2344,203.0918 L722.2344,204.1855 Q722.2344,205.4199 723.125,206.248 Q724.0156,207.0605 725.6094,207.0605 Q726.5469,207.0605 727.2031,206.8105 Q727.5938,206.6543 728.0156,206.2168 Q728.2813,205.9512 728.4219,205.873 Q728.5781,205.7949 728.7813,205.7949 Q729.1094,205.7949 729.3594,206.0605 Q729.625,206.3105 729.625,206.6543 Q729.625,206.998 729.2813,207.4043 Q728.7813,207.9824 727.9844,208.3105 Q726.9063,208.7637 725.6094,208.7637 Q724.0938,208.7637 722.8906,208.1387 Q721.9063,207.6387 721.2188,206.5762 Q720.5313,205.498 720.5313,204.2168 L720.5313,203.0605 Q720.5313,201.7324 721.1406,200.5918 Q721.7656,199.4355 722.8594,198.8262 Q723.9531,198.2012 725.1875,198.2012 Q725.9219,198.2012 726.5625,198.373 Q727.2188,198.5293 727.7656,198.8887 Z " fill="#000000"/><text fill="#000000" font-family="sans-serif" font-size="14" lengthAdjust="spacing" textLength="134" x="739" y="208.8105">ListMeetingController</text><line style="stroke:#181818;stroke-width:0.5;" x1="711" x2="875" y1="219.0137" y2="219.0137"/><line style="stroke:#181818;stroke-width:0.5;" x1="711" x2="875" y1="227.0137" y2="227.0137"/><ellipse cx="721" cy="241.8242" fill="#84BE84" rx="3" ry="3" style="stroke:#038048;stroke-width:1.0;"/><text fill="#000000" font-family="sans-serif" font-size="14" lengthAdjust="spacing" textLength="84" x="730" y="246.1211">currentUser()</text><ellipse cx="721" cy="260.4453" fill="#84BE84" rx="3" ry="3" style="stroke:#038048;stroke-width:1.0;"/><text fill="#000000" font-family="sans-serif" font-size="14" lengthAdjust="spacing" textLength="101" x="730" y="264.7422">listParticipants()</text><ellipse cx="721" cy="279.0664" fill="#84BE84" rx="3" ry="3" style="stroke:#038048;stroke-width:1.0;"/><text fill="#000000" font-family="sans-serif" font-size="14" lengthAdjust="spacing" textLength="102" x="730" y="283.3633">listMyMeetings()</text></g><!--class UserManagementService--><g id="elem_UserManagementService"><rect codeLine="16" fill="#F1F1F1" height="85.2422" id="UserManagementService" rx="2.5" ry="2.5" style="stroke:#181818;stroke-width:0.5;" width="190" x="545" y="377.5137"/><ellipse cx="560" cy="393.5137" fill="#ADD1B2" rx="11" ry="11" style="stroke:#181818;stroke-width:1.0;"/><path d="M562.7656,389.3887 Q562.9219,389.1699 563.1094,389.0605 Q563.2969,388.9512 563.5156,388.9512 Q563.8906,388.9512 564.125,389.2168 Q564.3594,389.4668 564.3594,390.0762 L564.3594,391.5293 Q564.3594,392.1387 564.125,392.4043 Q563.8906,392.6699 563.5156,392.6699 Q563.1719,392.6699 562.9688,392.4668 Q562.7656,392.2793 562.6563,391.7637 Q562.6094,391.4043 562.4219,391.2168 Q562.0938,390.8418 561.4844,390.623 Q560.875,390.4043 560.25,390.4043 Q559.4844,390.4043 558.8438,390.7324 Q558.2188,391.0605 557.7188,391.8105 Q557.2344,392.5605 557.2344,393.5918 L557.2344,394.6855 Q557.2344,395.9199 558.125,396.748 Q559.0156,397.5605 560.6094,397.5605 Q561.5469,397.5605 562.2031,397.3105 Q562.5938,397.1543 563.0156,396.7168 Q563.2813,396.4512 563.4219,396.373 Q563.5781,396.2949 563.7813,396.2949 Q564.1094,396.2949 564.3594,396.5605 Q564.625,396.8105 564.625,397.1543 Q564.625,397.498 564.2813,397.9043 Q563.7813,398.4824 562.9844,398.8105 Q561.9063,399.2637 560.6094,399.2637 Q559.0938,399.2637 557.8906,398.6387 Q556.9063,398.1387 556.2188,397.0762 Q555.5313,395.998 555.5313,394.7168 L555.5313,393.5605 Q555.5313,392.2324 556.1406,391.0918 Q556.7656,389.9355 557.8594,389.3262 Q558.9531,388.7012 560.1875,388.7012 Q560.9219,388.7012 561.5625,388.873 Q562.2188,389.0293 562.7656,389.3887 Z " fill="#000000"/><text fill="#000000" font-family="sans-serif" font-size="14" lengthAdjust="spacing" textLength="158" x="574" y="399.3105">UserManagementService</text><line style="stroke:#181818;stroke-width:0.5;" x1="546" x2="734" y1="409.5137" y2="409.5137"/><line style="stroke:#181818;stroke-width:0.5;" x1="546" x2="734" y1="417.5137" y2="417.5137"/><ellipse cx="556" cy="432.3242" fill="#84BE84" rx="3" ry="3" style="stroke:#038048;stroke-width:1.0;"/><text fill="#000000" font-family="sans-serif" font-size="14" lengthAdjust="spacing" textLength="83" x="565" y="436.6211">activeUsers()</text><ellipse cx="556" cy="450.9453" fill="#84BE84" rx="3" ry="3" style="stroke:#038048;stroke-width:1.0;"/><text fill="#000000" font-family="sans-serif" font-size="14" lengthAdjust="spacing" textLength="98" x="565" y="455.2422">userOfIdentity()</text></g><!--class MeetingRepository--><g id="elem_MeetingRepository"><rect codeLine="23" fill="#F1F1F1" height="103.8633" id="MeetingRepository" rx="2.5" ry="2.5" style="stroke:#181818;stroke-width:0.5;" width="311" x="1137.5" y="368.0137"/><ellipse cx="1229.75" cy="384.0137" fill="#ADD1B2" rx="11" ry="11" style="stroke:#181818;stroke-width:1.0;"/><path d="M1232.5156,379.8887 Q1232.6719,379.6699 1232.8594,379.5605 Q1233.0469,379.4512 1233.2656,379.4512 Q1233.6406,379.4512 1233.875,379.7168 Q1234.1094,379.9668 1234.1094,380.5762 L1234.1094,382.0293 Q1234.1094,382.6387 1233.875,382.9043 Q1233.6406,383.1699 1233.2656,383.1699 Q1232.9219,383.1699 1232.7188,382.9668 Q1232.5156,382.7793 1232.4063,382.2637 Q1232.3594,381.9043 1232.1719,381.7168 Q1231.8438,381.3418 1231.2344,381.123 Q1230.625,380.9043 1230,380.9043 Q1229.2344,380.9043 1228.5938,381.2324 Q1227.9688,381.5605 1227.4688,382.3105 Q1226.9844,383.0605 1226.9844,384.0918 L1226.9844,385.1855 Q1226.9844,386.4199 1227.875,387.248 Q1228.7656,388.0605 1230.3594,388.0605 Q1231.2969,388.0605 1231.9531,387.8105 Q1232.3438,387.6543 1232.7656,387.2168 Q1233.0313,386.9512 1233.1719,386.873 Q1233.3281,386.7949 1233.5313,386.7949 Q1233.8594,386.7949 1234.1094,387.0605 Q1234.375,387.3105 1234.375,387.6543 Q1234.375,387.998 1234.0313,388.4043 Q1233.5313,388.9824 1232.7344,389.3105 Q1231.6563,389.7637 1230.3594,389.7637 Q1228.8438,389.7637 1227.6406,389.1387 Q1226.6563,388.6387 1225.9688,387.5762 Q1225.2813,386.498 1225.2813,385.2168 L1225.2813,384.0605 Q1225.2813,382.7324 1225.8906,381.5918 Q1226.5156,380.4355 1227.6094,379.8262 Q1228.7031,379.2012 1229.9375,379.2012 Q1230.6719,379.2012 1231.3125,379.373 Q1231.9688,379.5293 1232.5156,379.8887 Z " fill="#000000"/><text fill="#000000" font-family="sans-serif" font-size="14" lengthAdjust="spacing" textLength="118" x="1250.25" y="389.8105">MeetingRepository</text><line style="stroke:#181818;stroke-width:0.5;" x1="1138.5" x2="1447.5" y1="400.0137" y2="400.0137"/><line style="stroke:#181818;stroke-width:0.5;" x1="1138.5" x2="1447.5" y1="408.0137" y2="408.0137"/><ellipse cx="1148.5" cy="422.8242" fill="#84BE84" rx="3" ry="3" style="stroke:#038048;stroke-width:1.0;"/><text fill="#000000" font-family="sans-serif" font-size="14" lengthAdjust="spacing" textLength="210" x="1157.5" y="427.1211">findMeetingsByUser(SystemUser)</text><ellipse cx="1148.5" cy="441.4453" fill="#84BE84" rx="3" ry="3" style="stroke:#038048;stroke-width:1.0;"/><text fill="#000000" font-family="sans-serif" font-size="14" lengthAdjust="spacing" textLength="270" x="1157.5" y="445.7422">findByDayAndUser(Calendar,SystemUser))</text><ellipse cx="1148.5" cy="460.0664" fill="#84BE84" rx="3" ry="3" style="stroke:#038048;stroke-width:1.0;"/><text fill="#000000" font-family="sans-serif" font-size="14" lengthAdjust="spacing" textLength="285" x="1157.5" y="464.3633">findParticipantsByDay(Calendar,SystemUser)</text></g><!--class MeetingParticipantRepository--><g id="elem_MeetingParticipantRepository"><rect codeLine="28" fill="#F1F1F1" height="66.6211" id="MeetingParticipantRepository" rx="2.5" ry="2.5" style="stroke:#181818;stroke-width:0.5;" width="311" x="791.5" y="386.5137"/><ellipse cx="850.25" cy="402.5137" fill="#ADD1B2" rx="11" ry="11" style="stroke:#181818;stroke-width:1.0;"/><path d="M853.0156,398.3887 Q853.1719,398.1699 853.3594,398.0605 Q853.5469,397.9512 853.7656,397.9512 Q854.1406,397.9512 854.375,398.2168 Q854.6094,398.4668 854.6094,399.0762 L854.6094,400.5293 Q854.6094,401.1387 854.375,401.4043 Q854.1406,401.6699 853.7656,401.6699 Q853.4219,401.6699 853.2188,401.4668 Q853.0156,401.2793 852.9063,400.7637 Q852.8594,400.4043 852.6719,400.2168 Q852.3438,399.8418 851.7344,399.623 Q851.125,399.4043 850.5,399.4043 Q849.7344,399.4043 849.0938,399.7324 Q848.4688,400.0605 847.9688,400.8105 Q847.4844,401.5605 847.4844,402.5918 L847.4844,403.6855 Q847.4844,404.9199 848.375,405.748 Q849.2656,406.5605 850.8594,406.5605 Q851.7969,406.5605 852.4531,406.3105 Q852.8438,406.1543 853.2656,405.7168 Q853.5313,405.4512 853.6719,405.373 Q853.8281,405.2949 854.0313,405.2949 Q854.3594,405.2949 854.6094,405.5605 Q854.875,405.8105 854.875,406.1543 Q854.875,406.498 854.5313,406.9043 Q854.0313,407.4824 853.2344,407.8105 Q852.1563,408.2637 850.8594,408.2637 Q849.3438,408.2637 848.1406,407.6387 Q847.1563,407.1387 846.4688,406.0762 Q845.7813,404.998 845.7813,403.7168 L845.7813,402.5605 Q845.7813,401.2324 846.3906,400.0918 Q847.0156,398.9355 848.1094,398.3262 Q849.2031,397.7012 850.4375,397.7012 Q851.1719,397.7012 851.8125,397.873 Q852.4688,398.0293 853.0156,398.3887 Z " fill="#000000"/><text fill="#000000" font-family="sans-serif" font-size="14" lengthAdjust="spacing" textLength="185" x="870.75" y="408.3105">MeetingParticipantRepository</text><line style="stroke:#181818;stroke-width:0.5;" x1="792.5" x2="1101.5" y1="418.5137" y2="418.5137"/><line style="stroke:#181818;stroke-width:0.5;" x1="792.5" x2="1101.5" y1="426.5137" y2="426.5137"/><ellipse cx="802.5" cy="441.3242" fill="#84BE84" rx="3" ry="3" style="stroke:#038048;stroke-width:1.0;"/><text fill="#000000" font-family="sans-serif" font-size="14" lengthAdjust="spacing" textLength="285" x="811.5" y="445.6211">findParticipantsByDay(Calendar,SystemUser)</text></g><!--class JpaMeetingRepository--><g id="elem_JpaMeetingRepository"><rect codeLine="34" fill="#F1F1F1" height="103.8633" id="JpaMeetingRepository" rx="2.5" ry="2.5" style="stroke:#181818;stroke-width:0.5;" width="245" x="1153.5" y="549.0137"/><ellipse cx="1201.75" cy="565.0137" fill="#ADD1B2" rx="11" ry="11" style="stroke:#181818;stroke-width:1.0;"/><path d="M1204.5156,560.8887 Q1204.6719,560.6699 1204.8594,560.5605 Q1205.0469,560.4512 1205.2656,560.4512 Q1205.6406,560.4512 1205.875,560.7168 Q1206.1094,560.9668 1206.1094,561.5762 L1206.1094,563.0293 Q1206.1094,563.6387 1205.875,563.9043 Q1205.6406,564.1699 1205.2656,564.1699 Q1204.9219,564.1699 1204.7188,563.9668 Q1204.5156,563.7793 1204.4063,563.2637 Q1204.3594,562.9043 1204.1719,562.7168 Q1203.8438,562.3418 1203.2344,562.123 Q1202.625,561.9043 1202,561.9043 Q1201.2344,561.9043 1200.5938,562.2324 Q1199.9688,562.5605 1199.4688,563.3105 Q1198.9844,564.0605 1198.9844,565.0918 L1198.9844,566.1855 Q1198.9844,567.4199 1199.875,568.248 Q1200.7656,569.0605 1202.3594,569.0605 Q1203.2969,569.0605 1203.9531,568.8105 Q1204.3438,568.6543 1204.7656,568.2168 Q1205.0313,567.9512 1205.1719,567.873 Q1205.3281,567.7949 1205.5313,567.7949 Q1205.8594,567.7949 1206.1094,568.0605 Q1206.375,568.3105 1206.375,568.6543 Q1206.375,568.998 1206.0313,569.4043 Q1205.5313,569.9824 1204.7344,570.3105 Q1203.6563,570.7637 1202.3594,570.7637 Q1200.8438,570.7637 1199.6406,570.1387 Q1198.6563,569.6387 1197.9688,568.5762 Q1197.2813,567.498 1197.2813,566.2168 L1197.2813,565.0605 Q1197.2813,563.7324 1197.8906,562.5918 Q1198.5156,561.4355 1199.6094,560.8262 Q1200.7031,560.2012 1201.9375,560.2012 Q1202.6719,560.2012 1203.3125,560.373 Q1203.9688,560.5293 1204.5156,560.8887 Z " fill="#000000"/><text fill="#000000" font-family="sans-serif" font-size="14" lengthAdjust="spacing" textLength="140" x="1222.25" y="570.8105">JpaMeetingRepository</text><line style="stroke:#181818;stroke-width:0.5;" x1="1154.5" x2="1397.5" y1="581.0137" y2="581.0137"/><line style="stroke:#181818;stroke-width:0.5;" x1="1154.5" x2="1397.5" y1="589.0137" y2="589.0137"/><ellipse cx="1164.5" cy="603.8242" fill="#84BE84" rx="3" ry="3" style="stroke:#038048;stroke-width:1.0;"/><text fill="#000000" font-family="sans-serif" font-size="14" lengthAdjust="spacing" textLength="90" x="1173.5" y="608.1211">save(Meeting)</text><ellipse cx="1164.5" cy="622.4453" fill="#84BE84" rx="3" ry="3" style="stroke:#038048;stroke-width:1.0;"/><text fill="#000000" font-family="sans-serif" font-size="14" lengthAdjust="spacing" textLength="210" x="1173.5" y="626.7422">findMeetingsByUser(SystemUser)</text><ellipse cx="1164.5" cy="641.0664" fill="#84BE84" rx="3" ry="3" style="stroke:#038048;stroke-width:1.0;"/><text fill="#000000" font-family="sans-serif" font-size="14" lengthAdjust="spacing" textLength="219" x="1173.5" y="645.3633">findByDayAndUser(Calendar,User)</text></g><!--class JpaMeetingParticipantRepository--><g id="elem_JpaMeetingParticipantRepository"><rect codeLine="39" fill="#F1F1F1" height="85.2422" id="JpaMeetingParticipantRepository" rx="2.5" ry="2.5" style="stroke:#181818;stroke-width:0.5;" width="311" x="807.5" y="558.5137"/><ellipse cx="855.25" cy="574.5137" fill="#ADD1B2" rx="11" ry="11" style="stroke:#181818;stroke-width:1.0;"/><path d="M858.0156,570.3887 Q858.1719,570.1699 858.3594,570.0605 Q858.5469,569.9512 858.7656,569.9512 Q859.1406,569.9512 859.375,570.2168 Q859.6094,570.4668 859.6094,571.0762 L859.6094,572.5293 Q859.6094,573.1387 859.375,573.4043 Q859.1406,573.6699 858.7656,573.6699 Q858.4219,573.6699 858.2188,573.4668 Q858.0156,573.2793 857.9063,572.7637 Q857.8594,572.4043 857.6719,572.2168 Q857.3438,571.8418 856.7344,571.623 Q856.125,571.4043 855.5,571.4043 Q854.7344,571.4043 854.0938,571.7324 Q853.4688,572.0605 852.9688,572.8105 Q852.4844,573.5605 852.4844,574.5918 L852.4844,575.6855 Q852.4844,576.9199 853.375,577.748 Q854.2656,578.5605 855.8594,578.5605 Q856.7969,578.5605 857.4531,578.3105 Q857.8438,578.1543 858.2656,577.7168 Q858.5313,577.4512 858.6719,577.373 Q858.8281,577.2949 859.0313,577.2949 Q859.3594,577.2949 859.6094,577.5605 Q859.875,577.8105 859.875,578.1543 Q859.875,578.498 859.5313,578.9043 Q859.0313,579.4824 858.2344,579.8105 Q857.1563,580.2637 855.8594,580.2637 Q854.3438,580.2637 853.1406,579.6387 Q852.1563,579.1387 851.4688,578.0762 Q850.7813,576.998 850.7813,575.7168 L850.7813,574.5605 Q850.7813,573.2324 851.3906,572.0918 Q852.0156,570.9355 853.1094,570.3262 Q854.2031,569.7012 855.4375,569.7012 Q856.1719,569.7012 856.8125,569.873 Q857.4688,570.0293 858.0156,570.3887 Z " fill="#000000"/><text fill="#000000" font-family="sans-serif" font-size="14" lengthAdjust="spacing" textLength="207" x="875.75" y="580.3105">JpaMeetingParticipantRepository</text><line style="stroke:#181818;stroke-width:0.5;" x1="808.5" x2="1117.5" y1="590.5137" y2="590.5137"/><line style="stroke:#181818;stroke-width:0.5;" x1="808.5" x2="1117.5" y1="598.5137" y2="598.5137"/><ellipse cx="818.5" cy="613.3242" fill="#84BE84" rx="3" ry="3" style="stroke:#038048;stroke-width:1.0;"/><text fill="#000000" font-family="sans-serif" font-size="14" lengthAdjust="spacing" textLength="157" x="827.5" y="617.6211">save(MeetingParticipant)</text><ellipse cx="818.5" cy="631.9453" fill="#84BE84" rx="3" ry="3" style="stroke:#038048;stroke-width:1.0;"/><text fill="#000000" font-family="sans-serif" font-size="14" lengthAdjust="spacing" textLength="285" x="827.5" y="636.2422">findParticipantsByDay(Calendar,SystemUser)</text></g><!--class AuthorizationService--><g id="elem_AuthorizationService"><rect codeLine="47" fill="#F1F1F1" height="85.2422" id="AuthorizationService" rx="2.5" ry="2.5" style="stroke:#181818;stroke-width:0.5;" width="259" x="229.5" y="377.5137"/><ellipse cx="290.25" cy="393.5137" fill="#ADD1B2" rx="11" ry="11" style="stroke:#181818;stroke-width:1.0;"/><path d="M293.0156,389.3887 Q293.1719,389.1699 293.3594,389.0605 Q293.5469,388.9512 293.7656,388.9512 Q294.1406,388.9512 294.375,389.2168 Q294.6094,389.4668 294.6094,390.0762 L294.6094,391.5293 Q294.6094,392.1387 294.375,392.4043 Q294.1406,392.6699 293.7656,392.6699 Q293.4219,392.6699 293.2188,392.4668 Q293.0156,392.2793 292.9063,391.7637 Q292.8594,391.4043 292.6719,391.2168 Q292.3438,390.8418 291.7344,390.623 Q291.125,390.4043 290.5,390.4043 Q289.7344,390.4043 289.0938,390.7324 Q288.4688,391.0605 287.9688,391.8105 Q287.4844,392.5605 287.4844,393.5918 L287.4844,394.6855 Q287.4844,395.9199 288.375,396.748 Q289.2656,397.5605 290.8594,397.5605 Q291.7969,397.5605 292.4531,397.3105 Q292.8438,397.1543 293.2656,396.7168 Q293.5313,396.4512 293.6719,396.373 Q293.8281,396.2949 294.0313,396.2949 Q294.3594,396.2949 294.6094,396.5605 Q294.875,396.8105 294.875,397.1543 Q294.875,397.498 294.5313,397.9043 Q294.0313,398.4824 293.2344,398.8105 Q292.1563,399.2637 290.8594,399.2637 Q289.3438,399.2637 288.1406,398.6387 Q287.1563,398.1387 286.4688,397.0762 Q285.7813,395.998 285.7813,394.7168 L285.7813,393.5605 Q285.7813,392.2324 286.3906,391.0918 Q287.0156,389.9355 288.1094,389.3262 Q289.2031,388.7012 290.4375,388.7012 Q291.1719,388.7012 291.8125,388.873 Q292.4688,389.0293 293.0156,389.3887 Z " fill="#000000"/><text fill="#000000" font-family="sans-serif" font-size="14" lengthAdjust="spacing" textLength="129" x="310.75" y="399.3105">AuthorizationService</text><line style="stroke:#181818;stroke-width:0.5;" x1="230.5" x2="487.5" y1="409.5137" y2="409.5137"/><line style="stroke:#181818;stroke-width:0.5;" x1="230.5" x2="487.5" y1="417.5137" y2="417.5137"/><ellipse cx="240.5" cy="432.3242" fill="#84BE84" rx="3" ry="3" style="stroke:#038048;stroke-width:1.0;"/><text fill="#000000" font-family="sans-serif" font-size="14" lengthAdjust="spacing" textLength="233" x="249.5" y="436.6211">ensureAuthenticatedUserHasAnyOf()</text><ellipse cx="240.5" cy="450.9453" fill="#84BE84" rx="3" ry="3" style="stroke:#038048;stroke-width:1.0;"/><text fill="#000000" font-family="sans-serif" font-size="14" lengthAdjust="spacing" textLength="58" x="249.5" y="455.2422">session()</text></g><!--class AuthzRegistry--><g id="elem_AuthzRegistry"><rect codeLine="51" fill="#F1F1F1" height="103.8633" id="AuthzRegistry" rx="2.5" ry="2.5" style="stroke:#181818;stroke-width:0.5;" width="172" x="22" y="368.0137"/><ellipse cx="60.85" cy="384.0137" fill="#ADD1B2" rx="11" ry="11" style="stroke:#181818;stroke-width:1.0;"/><path d="M63.6156,379.8887 Q63.7719,379.6699 63.9594,379.5605 Q64.1469,379.4512 64.3656,379.4512 Q64.7406,379.4512 64.975,379.7168 Q65.2094,379.9668 65.2094,380.5762 L65.2094,382.0293 Q65.2094,382.6387 64.975,382.9043 Q64.7406,383.1699 64.3656,383.1699 Q64.0219,383.1699 63.8188,382.9668 Q63.6156,382.7793 63.5063,382.2637 Q63.4594,381.9043 63.2719,381.7168 Q62.9438,381.3418 62.3344,381.123 Q61.725,380.9043 61.1,380.9043 Q60.3344,380.9043 59.6938,381.2324 Q59.0688,381.5605 58.5688,382.3105 Q58.0844,383.0605 58.0844,384.0918 L58.0844,385.1855 Q58.0844,386.4199 58.975,387.248 Q59.8656,388.0605 61.4594,388.0605 Q62.3969,388.0605 63.0531,387.8105 Q63.4438,387.6543 63.8656,387.2168 Q64.1313,386.9512 64.2719,386.873 Q64.4281,386.7949 64.6313,386.7949 Q64.9594,386.7949 65.2094,387.0605 Q65.475,387.3105 65.475,387.6543 Q65.475,387.998 65.1313,388.4043 Q64.6313,388.9824 63.8344,389.3105 Q62.7563,389.7637 61.4594,389.7637 Q59.9438,389.7637 58.7406,389.1387 Q57.7563,388.6387 57.0688,387.5762 Q56.3813,386.498 56.3813,385.2168 L56.3813,384.0605 Q56.3813,382.7324 56.9906,381.5918 Q57.6156,380.4355 58.7094,379.8262 Q59.8031,379.2012 61.0375,379.2012 Q61.7719,379.2012 62.4125,379.373 Q63.0688,379.5293 63.6156,379.8887 Z " fill="#000000"/><text fill="#000000" font-family="sans-serif" font-size="14" lengthAdjust="spacing" textLength="87" x="80.15" y="389.8105">AuthzRegistry</text><line style="stroke:#181818;stroke-width:0.5;" x1="23" x2="193" y1="400.0137" y2="400.0137"/><line style="stroke:#181818;stroke-width:0.5;" x1="23" x2="193" y1="408.0137" y2="408.0137"/><ellipse cx="33" cy="422.8242" fill="#84BE84" rx="3" ry="3" style="stroke:#038048;stroke-width:1.0;"/><text fill="#000000" font-family="sans-serif" font-size="14" lengthAdjust="spacing" textLength="85" x="42" y="427.1211">userService()</text><ellipse cx="33" cy="441.4453" fill="#84BE84" rx="3" ry="3" style="stroke:#038048;stroke-width:1.0;"/><text fill="#000000" font-family="sans-serif" font-size="14" lengthAdjust="spacing" textLength="146" x="42" y="445.7422">authenticationService()</text><ellipse cx="33" cy="460.0664" fill="#84BE84" rx="3" ry="3" style="stroke:#038048;stroke-width:1.0;"/><text fill="#000000" font-family="sans-serif" font-size="14" lengthAdjust="spacing" textLength="138" x="42" y="464.3633">authorizationService()</text></g><!--link ListMeetingParticipantsUI to ListMeetingController--><g id="link_ListMeetingParticipantsUI_ListMeetingController"><path codeLine="59" d="M793,110.3837 C793,130.9337 793,157.9337 793,181.8137 " fill="none" id="ListMeetingParticipantsUI-to-ListMeetingController" style="stroke:#181818;stroke-width:1.0;stroke-dasharray:7.0,7.0;"/><polygon fill="#181818" points="793,186.8537,797,177.8537,793,181.8537,789,177.8537,793,186.8537" style="stroke:#181818;stroke-width:1.0;"/></g><!--link ListMeetingController to UserManagementService--><g id="link_ListMeetingController_UserManagementService"><path codeLine="60" d="M749.16,291.3037 C727.03,317.1937 700.41,348.3337 679,373.3837 " fill="none" id="ListMeetingController-to-UserManagementService" style="stroke:#181818;stroke-width:1.0;"/><polygon fill="#181818" points="675.61,377.3537,684.4949,373.1042,678.8557,373.5503,678.4096,367.9111,675.61,377.3537" style="stroke:#181818;stroke-width:1.0;"/></g><!--link ListMeetingController to MeetingRepository--><g id="link_ListMeetingController_MeetingRepository"><path codeLine="61" d="M876.15,254.9437 C943.37,268.4637 1039.69,291.1637 1120,323.0137 C1149.13,334.5637 1179.46,350.0737 1206.45,365.2537 " fill="none" id="ListMeetingController-to-MeetingRepository" style="stroke:#181818;stroke-width:1.0;"/><polygon fill="#181818" points="1211.1,367.8837,1205.2563,359.9558,1206.7544,365.4107,1201.2995,366.9088,1211.1,367.8837" style="stroke:#181818;stroke-width:1.0;"/></g><!--link ListMeetingController to MeetingParticipantRepository--><g id="link_ListMeetingController_MeetingParticipantRepository"><path codeLine="62" d="M837.13,291.3037 C862.21,320.4537 893.01,356.2537 915.61,382.5237 " fill="none" id="ListMeetingController-to-MeetingParticipantRepository" style="stroke:#181818;stroke-width:1.0;"/><polygon fill="#181818" points="918.88,386.3337,916.0423,376.9025,915.619,382.5435,909.978,382.1201,918.88,386.3337" style="stroke:#181818;stroke-width:1.0;"/></g><!--link MeetingParticipantRepository to JpaMeetingParticipantRepository--><g id="link_MeetingParticipantRepository_JpaMeetingParticipantRepository"><path codeLine="63" d="M949.93,453.8437 C952.42,481.6137 956,521.7337 958.79,552.9237 " fill="none" id="MeetingParticipantRepository-to-JpaMeetingParticipantRepository" style="stroke:#181818;stroke-width:1.0;"/><polygon fill="#181818" points="959.27,558.2437,962.4557,548.9243,958.8264,553.2634,954.4872,549.6341,959.27,558.2437" style="stroke:#181818;stroke-width:1.0;"/></g><!--link ListMeetingController to AuthorizationService--><g id="link_ListMeetingController_AuthorizationService"><path codeLine="64" d="M709.92,261.3037 C657.11,276.0137 587.84,297.4837 529,323.0137 C495.21,337.6737 459.48,357.1837 429.54,374.7837 " fill="none" id="ListMeetingController-to-AuthorizationService" style="stroke:#181818;stroke-width:1.0;"/><polygon fill="#181818" points="425.17,377.3637,434.9545,376.2397,429.4775,374.8248,430.8924,369.3478,425.17,377.3637" style="stroke:#181818;stroke-width:1.0;"/></g><!--link AuthzRegistry to AuthorizationService--><g id="link_AuthzRegistry_AuthorizationService"><path codeLine="65" d="M194.28,420.0137 C204.24,420.0137 214.19,420.0137 224.14,420.0137 " fill="none" id="AuthzRegistry-to-AuthorizationService" style="stroke:#181818;stroke-width:1.0;"/><polygon fill="#181818" points="229.35,420.0137,220.35,416.0137,224.35,420.0137,220.35,424.0137,229.35,420.0137" style="stroke:#181818;stroke-width:1.0;"/></g><!--link MeetingRepository to JpaMeetingRepository--><g id="link_MeetingRepository_JpaMeetingRepository"><path codeLine="66" d="M1288.13,472.3037 C1286.01,494.5937 1283.53,520.7637 1281.36,543.5937 " fill="none" id="MeetingRepository-to-JpaMeetingRepository" style="stroke:#181818;stroke-width:1.0;"/><polygon fill="#181818" points="1280.87,548.7137,1285.6995,540.1302,1281.3407,543.7359,1277.735,539.3771,1280.87,548.7137" style="stroke:#181818;stroke-width:1.0;"/></g><!--SRC=[hLJBRi8m4BpdAtmaekKJa80UIbL41U83Liw6MWrEP6-GGiM_rmvEuX03QjMS4k_ipEp3AO1_mHvPATXtnCp3Cz2QlGjDAqGISly1YWGN1KZIk-K5DDQO8QTLvJ2Zk3u-H-SeAXmZpoMfFCjGtM9Uj0Z7oakbKD9EetACuyp0VGV-UIklG_g6v2WuziGjymga2H-CplQ2k00iAN0IHxIWXj6UbkPxdIuJao6ewW8zDOL5hWNbIg3kIJgBcoPUkLfJ8PF6_hogIzvMcl1WN-CECwzUe9h9f4Oi84EPW7hoe1xMRrIT5qnmhHfOzBA3Rd_5xhMcCEqqqq9vDOot0WRDOSr-mH57BXh_HyF2bNSMWiM7t7Z0-E-zQPiZPAf0aoevbQhVdrb9dsQVJa0YbzlUDezHQWEt2BkL70ZhUbz1psIrJfjReb5hapmQLcvJJnlScy6qGxQBxdGQ0kWKEXD-yDfWAsMhlFaNOPF9DFmdY8AdxFbv6hwyT_23vNgC3Mv1T7T5RFQ3DRgZ6vfnr9iDkuKQtfs-5K__1m00]--></g></svg>