<?xml version="1.0" encoding="us-ascii" standalone="no"?><svg xmlns="http://www.w3.org/2000/svg" xmlns:xlink="http://www.w3.org/1999/xlink" contentStyleType="text/css" height="566px" preserveAspectRatio="none" style="width:1714px;height:566px;background:#FFFFFF;" version="1.1" viewBox="0 0 1714 566" width="1714px" zoomAndPan="magnify"><defs/><g><!--class AuthenticationService--><g id="elem_AuthenticationService"><rect codeLine="3" fill="#F1F1F1" height="60.582" id="AuthenticationService" rx="2.5" ry="2.5" style="stroke:#181818;stroke-width:0.5;" width="169" x="7" y="369"/><ellipse cx="22" cy="391.291" fill="#ADD1B2" rx="11" ry="11" style="stroke:#181818;stroke-width:1.0;"/><path d="M24.7656,387.166 Q24.9219,386.9473 25.1094,386.8379 Q25.2969,386.7285 25.5156,386.7285 Q25.8906,386.7285 26.125,386.9941 Q26.3594,387.2441 26.3594,387.8535 L26.3594,389.3066 Q26.3594,389.916 26.125,390.1816 Q25.8906,390.4473 25.5156,390.4473 Q25.1719,390.4473 24.9688,390.2441 Q24.7656,390.0566 24.6563,389.541 Q24.6094,389.1816 24.4219,388.9941 Q24.0938,388.6191 23.4844,388.4004 Q22.875,388.1816 22.25,388.1816 Q21.4844,388.1816 20.8438,388.5098 Q20.2188,388.8379 19.7188,389.5879 Q19.2344,390.3379 19.2344,391.3691 L19.2344,392.4629 Q19.2344,393.6973 20.125,394.5254 Q21.0156,395.3379 22.6094,395.3379 Q23.5469,395.3379 24.2031,395.0879 Q24.5938,394.9316 25.0156,394.4941 Q25.2813,394.2285 25.4219,394.1504 Q25.5781,394.0723 25.7813,394.0723 Q26.1094,394.0723 26.3594,394.3379 Q26.625,394.5879 26.625,394.9316 Q26.625,395.2754 26.2813,395.6816 Q25.7813,396.2598 24.9844,396.5879 Q23.9063,397.041 22.6094,397.041 Q21.0938,397.041 19.8906,396.416 Q18.9063,395.916 18.2188,394.8535 Q17.5313,393.7754 17.5313,392.4941 L17.5313,391.3379 Q17.5313,390.0098 18.1406,388.8691 Q18.7656,387.7129 19.8594,387.1035 Q20.9531,386.4785 22.1875,386.4785 Q22.9219,386.4785 23.5625,386.6504 Q24.2188,386.8066 24.7656,387.166 Z " fill="#000000"/><text fill="#000000" font-family="sans-serif" font-size="12" font-style="italic" lengthAdjust="spacing" textLength="53" x="78" y="386.9492">&#171;service&#187;</text><text fill="#000000" font-family="sans-serif" font-size="14" lengthAdjust="spacing" textLength="137" x="36" y="405.0684">AuthenticationService</text><line style="stroke:#181818;stroke-width:0.5;" x1="8" x2="175" y1="413.582" y2="413.582"/><line style="stroke:#181818;stroke-width:0.5;" x1="8" x2="175" y1="421.582" y2="421.582"/></g><!--class Session--><g id="elem_Session"><rect codeLine="4" fill="#F1F1F1" height="60.582" id="Session" rx="2.5" ry="2.5" style="stroke:#181818;stroke-width:0.5;" width="82" x="211.5" y="369"/><ellipse cx="226.5" cy="391.291" fill="#ADD1B2" rx="11" ry="11" style="stroke:#181818;stroke-width:1.0;"/><path d="M229.2656,387.166 Q229.4219,386.9473 229.6094,386.8379 Q229.7969,386.7285 230.0156,386.7285 Q230.3906,386.7285 230.625,386.9941 Q230.8594,387.2441 230.8594,387.8535 L230.8594,389.3066 Q230.8594,389.916 230.625,390.1816 Q230.3906,390.4473 230.0156,390.4473 Q229.6719,390.4473 229.4688,390.2441 Q229.2656,390.0566 229.1563,389.541 Q229.1094,389.1816 228.9219,388.9941 Q228.5938,388.6191 227.9844,388.4004 Q227.375,388.1816 226.75,388.1816 Q225.9844,388.1816 225.3438,388.5098 Q224.7188,388.8379 224.2188,389.5879 Q223.7344,390.3379 223.7344,391.3691 L223.7344,392.4629 Q223.7344,393.6973 224.625,394.5254 Q225.5156,395.3379 227.1094,395.3379 Q228.0469,395.3379 228.7031,395.0879 Q229.0938,394.9316 229.5156,394.4941 Q229.7813,394.2285 229.9219,394.1504 Q230.0781,394.0723 230.2813,394.0723 Q230.6094,394.0723 230.8594,394.3379 Q231.125,394.5879 231.125,394.9316 Q231.125,395.2754 230.7813,395.6816 Q230.2813,396.2598 229.4844,396.5879 Q228.4063,397.041 227.1094,397.041 Q225.5938,397.041 224.3906,396.416 Q223.4063,395.916 222.7188,394.8535 Q222.0313,393.7754 222.0313,392.4941 L222.0313,391.3379 Q222.0313,390.0098 222.6406,388.8691 Q223.2656,387.7129 224.3594,387.1035 Q225.4531,386.4785 226.6875,386.4785 Q227.4219,386.4785 228.0625,386.6504 Q228.7188,386.8066 229.2656,387.166 Z " fill="#000000"/><text fill="#000000" font-family="sans-serif" font-size="12" font-style="italic" lengthAdjust="spacing" textLength="44" x="243.5" y="386.9492">&#171;value&#187;</text><text fill="#000000" font-family="sans-serif" font-size="14" lengthAdjust="spacing" textLength="50" x="240.5" y="405.0684">Session</text><line style="stroke:#181818;stroke-width:0.5;" x1="212.5" x2="292.5" y1="413.582" y2="413.582"/><line style="stroke:#181818;stroke-width:0.5;" x1="212.5" x2="292.5" y1="421.582" y2="421.582"/></g><!--class Manager--><g id="elem_Manager"><rect codeLine="5" fill="#F1F1F1" height="60.582" id="Manager" rx="2.5" ry="2.5" style="stroke:#181818;stroke-width:0.5;" width="88" x="328.5" y="369"/><ellipse cx="343.5" cy="391.291" fill="#ADD1B2" rx="11" ry="11" style="stroke:#181818;stroke-width:1.0;"/><path d="M346.2656,387.166 Q346.4219,386.9473 346.6094,386.8379 Q346.7969,386.7285 347.0156,386.7285 Q347.3906,386.7285 347.625,386.9941 Q347.8594,387.2441 347.8594,387.8535 L347.8594,389.3066 Q347.8594,389.916 347.625,390.1816 Q347.3906,390.4473 347.0156,390.4473 Q346.6719,390.4473 346.4688,390.2441 Q346.2656,390.0566 346.1563,389.541 Q346.1094,389.1816 345.9219,388.9941 Q345.5938,388.6191 344.9844,388.4004 Q344.375,388.1816 343.75,388.1816 Q342.9844,388.1816 342.3438,388.5098 Q341.7188,388.8379 341.2188,389.5879 Q340.7344,390.3379 340.7344,391.3691 L340.7344,392.4629 Q340.7344,393.6973 341.625,394.5254 Q342.5156,395.3379 344.1094,395.3379 Q345.0469,395.3379 345.7031,395.0879 Q346.0938,394.9316 346.5156,394.4941 Q346.7813,394.2285 346.9219,394.1504 Q347.0781,394.0723 347.2813,394.0723 Q347.6094,394.0723 347.8594,394.3379 Q348.125,394.5879 348.125,394.9316 Q348.125,395.2754 347.7813,395.6816 Q347.2813,396.2598 346.4844,396.5879 Q345.4063,397.041 344.1094,397.041 Q342.5938,397.041 341.3906,396.416 Q340.4063,395.916 339.7188,394.8535 Q339.0313,393.7754 339.0313,392.4941 L339.0313,391.3379 Q339.0313,390.0098 339.6406,388.8691 Q340.2656,387.7129 341.3594,387.1035 Q342.4531,386.4785 343.6875,386.4785 Q344.4219,386.4785 345.0625,386.6504 Q345.7188,386.8066 346.2656,387.166 Z " fill="#000000"/><text fill="#000000" font-family="sans-serif" font-size="12" font-style="italic" lengthAdjust="spacing" textLength="56" x="357.5" y="386.9492">&#171;domain&#187;</text><text fill="#000000" font-family="sans-serif" font-size="14" lengthAdjust="spacing" textLength="56" x="357.5" y="405.0684">Manager</text><line style="stroke:#181818;stroke-width:0.5;" x1="329.5" x2="415.5" y1="413.582" y2="413.582"/><line style="stroke:#181818;stroke-width:0.5;" x1="329.5" x2="415.5" y1="421.582" y2="421.582"/></g><!--class User--><g id="elem_User"><rect codeLine="6" fill="#F1F1F1" height="60.582" id="User" rx="2.5" ry="2.5" style="stroke:#181818;stroke-width:0.5;" width="84" x="189.5" y="499"/><ellipse cx="204.5" cy="521.291" fill="#ADD1B2" rx="11" ry="11" style="stroke:#181818;stroke-width:1.0;"/><path d="M207.2656,517.166 Q207.4219,516.9473 207.6094,516.8379 Q207.7969,516.7285 208.0156,516.7285 Q208.3906,516.7285 208.625,516.9941 Q208.8594,517.2441 208.8594,517.8535 L208.8594,519.3066 Q208.8594,519.916 208.625,520.1816 Q208.3906,520.4473 208.0156,520.4473 Q207.6719,520.4473 207.4688,520.2441 Q207.2656,520.0566 207.1563,519.541 Q207.1094,519.1816 206.9219,518.9941 Q206.5938,518.6191 205.9844,518.4004 Q205.375,518.1816 204.75,518.1816 Q203.9844,518.1816 203.3438,518.5098 Q202.7188,518.8379 202.2188,519.5879 Q201.7344,520.3379 201.7344,521.3691 L201.7344,522.4629 Q201.7344,523.6973 202.625,524.5254 Q203.5156,525.3379 205.1094,525.3379 Q206.0469,525.3379 206.7031,525.0879 Q207.0938,524.9316 207.5156,524.4941 Q207.7813,524.2285 207.9219,524.1504 Q208.0781,524.0723 208.2813,524.0723 Q208.6094,524.0723 208.8594,524.3379 Q209.125,524.5879 209.125,524.9316 Q209.125,525.2754 208.7813,525.6816 Q208.2813,526.2598 207.4844,526.5879 Q206.4063,527.041 205.1094,527.041 Q203.5938,527.041 202.3906,526.416 Q201.4063,525.916 200.7188,524.8535 Q200.0313,523.7754 200.0313,522.4941 L200.0313,521.3379 Q200.0313,520.0098 200.6406,518.8691 Q201.2656,517.7129 202.3594,517.1035 Q203.4531,516.4785 204.6875,516.4785 Q205.4219,516.4785 206.0625,516.6504 Q206.7188,516.8066 207.2656,517.166 Z " fill="#000000"/><text fill="#000000" font-family="sans-serif" font-size="12" font-style="italic" lengthAdjust="spacing" textLength="56" x="216.5" y="516.9492">&#171;domain&#187;</text><text fill="#000000" font-family="sans-serif" font-size="14" lengthAdjust="spacing" textLength="29" x="230" y="535.0684">User</text><line style="stroke:#181818;stroke-width:0.5;" x1="190.5" x2="272.5" y1="543.582" y2="543.582"/><line style="stroke:#181818;stroke-width:0.5;" x1="190.5" x2="272.5" y1="551.582" y2="551.582"/></g><!--class SetCourseTeachersController--><g id="elem_SetCourseTeachersController"><rect codeLine="7" fill="#F1F1F1" height="172.3086" id="SetCourseTeachersController" rx="2.5" ry="2.5" style="stroke:#181818;stroke-width:0.5;" width="221" x="443" y="128"/><ellipse cx="458" cy="150.291" fill="#ADD1B2" rx="11" ry="11" style="stroke:#181818;stroke-width:1.0;"/><path d="M460.7656,146.166 Q460.9219,145.9473 461.1094,145.8379 Q461.2969,145.7285 461.5156,145.7285 Q461.8906,145.7285 462.125,145.9941 Q462.3594,146.2441 462.3594,146.8535 L462.3594,148.3066 Q462.3594,148.916 462.125,149.1816 Q461.8906,149.4473 461.5156,149.4473 Q461.1719,149.4473 460.9688,149.2441 Q460.7656,149.0566 460.6563,148.541 Q460.6094,148.1816 460.4219,147.9941 Q460.0938,147.6191 459.4844,147.4004 Q458.875,147.1816 458.25,147.1816 Q457.4844,147.1816 456.8438,147.5098 Q456.2188,147.8379 455.7188,148.5879 Q455.2344,149.3379 455.2344,150.3691 L455.2344,151.4629 Q455.2344,152.6973 456.125,153.5254 Q457.0156,154.3379 458.6094,154.3379 Q459.5469,154.3379 460.2031,154.0879 Q460.5938,153.9316 461.0156,153.4941 Q461.2813,153.2285 461.4219,153.1504 Q461.5781,153.0723 461.7813,153.0723 Q462.1094,153.0723 462.3594,153.3379 Q462.625,153.5879 462.625,153.9316 Q462.625,154.2754 462.2813,154.6816 Q461.7813,155.2598 460.9844,155.5879 Q459.9063,156.041 458.6094,156.041 Q457.0938,156.041 455.8906,155.416 Q454.9063,154.916 454.2188,153.8535 Q453.5313,152.7754 453.5313,151.4941 L453.5313,150.3379 Q453.5313,149.0098 454.1406,147.8691 Q454.7656,146.7129 455.8594,146.1035 Q456.9531,145.4785 458.1875,145.4785 Q458.9219,145.4785 459.5625,145.6504 Q460.2188,145.8066 460.7656,146.166 Z " fill="#000000"/><text fill="#000000" font-family="sans-serif" font-size="12" font-style="italic" lengthAdjust="spacing" textLength="74" x="529.5" y="145.9492">&#171;application&#187;</text><text fill="#000000" font-family="sans-serif" font-size="14" lengthAdjust="spacing" textLength="189" x="472" y="164.0684">SetCourseTeachersController</text><line style="stroke:#181818;stroke-width:0.5;" x1="444" x2="663" y1="172.582" y2="172.582"/><line style="stroke:#181818;stroke-width:0.5;" x1="444" x2="663" y1="180.582" y2="180.582"/><ellipse cx="454" cy="195.3926" fill="#84BE84" rx="3" ry="3" style="stroke:#038048;stroke-width:1.0;"/><text fill="#000000" font-family="sans-serif" font-size="14" lengthAdjust="spacing" textLength="83" x="463" y="199.6895">getCourses()</text><ellipse cx="454" cy="214.0137" fill="#84BE84" rx="3" ry="3" style="stroke:#038048;stroke-width:1.0;"/><text fill="#000000" font-family="sans-serif" font-size="14" lengthAdjust="spacing" textLength="90" x="463" y="218.3105">getTeachers()</text><ellipse cx="454" cy="232.6348" fill="#84BE84" rx="3" ry="3" style="stroke:#038048;stroke-width:1.0;"/><text fill="#000000" font-family="sans-serif" font-size="14" lengthAdjust="spacing" textLength="118" x="463" y="236.9316">setCourse(course)</text><ellipse cx="454" cy="251.2559" fill="#84BE84" rx="3" ry="3" style="stroke:#038048;stroke-width:1.0;"/><text fill="#000000" font-family="sans-serif" font-size="14" lengthAdjust="spacing" textLength="163" x="463" y="255.5527">setHeadTeacher(teacher)</text><ellipse cx="454" cy="269.877" fill="#84BE84" rx="3" ry="3" style="stroke:#038048;stroke-width:1.0;"/><text fill="#000000" font-family="sans-serif" font-size="14" lengthAdjust="spacing" textLength="130" x="463" y="274.1738">setTeacher(teacher)</text><ellipse cx="454" cy="288.498" fill="#84BE84" rx="3" ry="3" style="stroke:#038048;stroke-width:1.0;"/><text fill="#000000" font-family="sans-serif" font-size="14" lengthAdjust="spacing" textLength="180" x="463" y="292.7949">saveTeachersAssignments()</text></g><!--class SetCourseTeachersUI--><g id="elem_SetCourseTeachersUI"><rect codeLine="15" fill="#F1F1F1" height="60.582" id="SetCourseTeachersUI" rx="2.5" ry="2.5" style="stroke:#181818;stroke-width:0.5;" width="171" x="468" y="7"/><ellipse cx="483" cy="29.291" fill="#ADD1B2" rx="11" ry="11" style="stroke:#181818;stroke-width:1.0;"/><path d="M485.7656,25.166 Q485.9219,24.9473 486.1094,24.8379 Q486.2969,24.7285 486.5156,24.7285 Q486.8906,24.7285 487.125,24.9941 Q487.3594,25.2441 487.3594,25.8535 L487.3594,27.3066 Q487.3594,27.916 487.125,28.1816 Q486.8906,28.4473 486.5156,28.4473 Q486.1719,28.4473 485.9688,28.2441 Q485.7656,28.0566 485.6563,27.541 Q485.6094,27.1816 485.4219,26.9941 Q485.0938,26.6191 484.4844,26.4004 Q483.875,26.1816 483.25,26.1816 Q482.4844,26.1816 481.8438,26.5098 Q481.2188,26.8379 480.7188,27.5879 Q480.2344,28.3379 480.2344,29.3691 L480.2344,30.4629 Q480.2344,31.6973 481.125,32.5254 Q482.0156,33.3379 483.6094,33.3379 Q484.5469,33.3379 485.2031,33.0879 Q485.5938,32.9316 486.0156,32.4941 Q486.2813,32.2285 486.4219,32.1504 Q486.5781,32.0723 486.7813,32.0723 Q487.1094,32.0723 487.3594,32.3379 Q487.625,32.5879 487.625,32.9316 Q487.625,33.2754 487.2813,33.6816 Q486.7813,34.2598 485.9844,34.5879 Q484.9063,35.041 483.6094,35.041 Q482.0938,35.041 480.8906,34.416 Q479.9063,33.916 479.2188,32.8535 Q478.5313,31.7754 478.5313,30.4941 L478.5313,29.3379 Q478.5313,28.0098 479.1406,26.8691 Q479.7656,25.7129 480.8594,25.1035 Q481.9531,24.4785 483.1875,24.4785 Q483.9219,24.4785 484.5625,24.6504 Q485.2188,24.8066 485.7656,25.166 Z " fill="#000000"/><text fill="#000000" font-family="sans-serif" font-size="12" font-style="italic" lengthAdjust="spacing" textLength="82" x="525.5" y="24.9492">&#171;presentation&#187;</text><text fill="#000000" font-family="sans-serif" font-size="14" lengthAdjust="spacing" textLength="139" x="497" y="43.0684">SetCourseTeachersUI</text><line style="stroke:#181818;stroke-width:0.5;" x1="469" x2="638" y1="51.582" y2="51.582"/><line style="stroke:#181818;stroke-width:0.5;" x1="469" x2="638" y1="59.582" y2="59.582"/></g><!--class PersistenceContext--><g id="elem_PersistenceContext"><rect codeLine="19" fill="#F1F1F1" height="79.2031" id="PersistenceContext" rx="2.5" ry="2.5" style="stroke:#181818;stroke-width:0.5;" width="154" x="908.5" y="174.5"/><ellipse cx="923.5" cy="196.791" fill="#B4A7E5" rx="11" ry="11" style="stroke:#181818;stroke-width:1.0;"/><path d="M924.4531,193.4316 L924.4531,200.0879 L926.1719,200.0879 Q926.7813,200.0879 927.0469,200.3223 Q927.3125,200.5566 927.3125,200.9473 Q927.3125,201.3223 927.0469,201.5566 Q926.7813,201.791 926.1719,201.791 L921.0313,201.791 Q920.4219,201.791 920.1563,201.5566 Q919.8906,201.3223 919.8906,200.9316 Q919.8906,200.5566 920.1563,200.3223 Q920.4219,200.0879 921.0313,200.0879 L922.75,200.0879 L922.75,193.4316 L921.0313,193.4316 Q920.4219,193.4316 920.1563,193.1973 Q919.8906,192.9629 919.8906,192.5723 Q919.8906,192.1973 920.1563,191.9629 Q920.4219,191.7285 921.0313,191.7285 L926.1719,191.7285 Q926.7813,191.7285 927.0469,191.9629 Q927.3125,192.1973 927.3125,192.5723 Q927.3125,192.9629 927.0469,193.1973 Q926.7813,193.4316 926.1719,193.4316 L924.4531,193.4316 Z " fill="#000000"/><text fill="#000000" font-family="sans-serif" font-size="12" font-style="italic" lengthAdjust="spacing" textLength="77" x="960" y="192.4492">&#171;persistence&#187;</text><text fill="#000000" font-family="sans-serif" font-size="14" font-style="italic" lengthAdjust="spacing" textLength="122" x="937.5" y="210.5684">PersistenceContext</text><line style="stroke:#181818;stroke-width:0.5;" x1="909.5" x2="1061.5" y1="219.082" y2="219.082"/><line style="stroke:#181818;stroke-width:0.5;" x1="909.5" x2="1061.5" y1="227.082" y2="227.082"/><ellipse cx="919.5" cy="241.8926" fill="#84BE84" rx="3" ry="3" style="stroke:#038048;stroke-width:1.0;"/><text fill="#000000" font-family="sans-serif" font-size="14" lengthAdjust="spacing" textLength="84" x="928.5" y="246.1895">repositories()</text></g><!--class RepositoryFactory--><g id="elem_RepositoryFactory"><rect codeLine="23" fill="#F1F1F1" height="116.4453" id="RepositoryFactory" rx="2.5" ry="2.5" style="stroke:#181818;stroke-width:0.5;" width="225" x="1192" y="156"/><ellipse cx="1242.25" cy="178.291" fill="#ADD1B2" rx="11" ry="11" style="stroke:#181818;stroke-width:1.0;"/><path d="M1245.0156,174.166 Q1245.1719,173.9473 1245.3594,173.8379 Q1245.5469,173.7285 1245.7656,173.7285 Q1246.1406,173.7285 1246.375,173.9941 Q1246.6094,174.2441 1246.6094,174.8535 L1246.6094,176.3066 Q1246.6094,176.916 1246.375,177.1816 Q1246.1406,177.4473 1245.7656,177.4473 Q1245.4219,177.4473 1245.2188,177.2441 Q1245.0156,177.0566 1244.9063,176.541 Q1244.8594,176.1816 1244.6719,175.9941 Q1244.3438,175.6191 1243.7344,175.4004 Q1243.125,175.1816 1242.5,175.1816 Q1241.7344,175.1816 1241.0938,175.5098 Q1240.4688,175.8379 1239.9688,176.5879 Q1239.4844,177.3379 1239.4844,178.3691 L1239.4844,179.4629 Q1239.4844,180.6973 1240.375,181.5254 Q1241.2656,182.3379 1242.8594,182.3379 Q1243.7969,182.3379 1244.4531,182.0879 Q1244.8438,181.9316 1245.2656,181.4941 Q1245.5313,181.2285 1245.6719,181.1504 Q1245.8281,181.0723 1246.0313,181.0723 Q1246.3594,181.0723 1246.6094,181.3379 Q1246.875,181.5879 1246.875,181.9316 Q1246.875,182.2754 1246.5313,182.6816 Q1246.0313,183.2598 1245.2344,183.5879 Q1244.1563,184.041 1242.8594,184.041 Q1241.3438,184.041 1240.1406,183.416 Q1239.1563,182.916 1238.4688,181.8535 Q1237.7813,180.7754 1237.7813,179.4941 L1237.7813,178.3379 Q1237.7813,177.0098 1238.3906,175.8691 Q1239.0156,174.7129 1240.1094,174.1035 Q1241.2031,173.4785 1242.4375,173.4785 Q1243.1719,173.4785 1243.8125,173.6504 Q1244.4688,173.8066 1245.0156,174.166 Z " fill="#000000"/><text fill="#000000" font-family="sans-serif" font-size="12" font-style="italic" lengthAdjust="spacing" textLength="50" x="1295.75" y="173.9492">&#171;factory&#187;</text><text fill="#000000" font-family="sans-serif" font-size="14" lengthAdjust="spacing" textLength="116" x="1262.75" y="192.0684">RepositoryFactory</text><line style="stroke:#181818;stroke-width:0.5;" x1="1193" x2="1416" y1="200.582" y2="200.582"/><line style="stroke:#181818;stroke-width:0.5;" x1="1193" x2="1416" y1="208.582" y2="208.582"/><ellipse cx="1203" cy="223.3926" fill="#84BE84" rx="3" ry="3" style="stroke:#038048;stroke-width:1.0;"/><text fill="#000000" font-family="sans-serif" font-size="14" lengthAdjust="spacing" textLength="121" x="1212" y="227.6895">courseRepository()</text><ellipse cx="1203" cy="242.0137" fill="#84BE84" rx="3" ry="3" style="stroke:#038048;stroke-width:1.0;"/><text fill="#000000" font-family="sans-serif" font-size="14" lengthAdjust="spacing" textLength="133" x="1212" y="246.3105">teachersRepository()</text><ellipse cx="1203" cy="260.6348" fill="#84BE84" rx="3" ry="3" style="stroke:#038048;stroke-width:1.0;"/><text fill="#000000" font-family="sans-serif" font-size="14" lengthAdjust="spacing" textLength="199" x="1212" y="264.9316">teacherAssignmentRepository()</text></g><!--class TeacherAssignmentRepository--><g id="elem_TeacherAssignmentRepository"><rect codeLine="29" fill="#F1F1F1" height="79.2031" id="TeacherAssignmentRepository" rx="2.5" ry="2.5" style="stroke:#181818;stroke-width:0.5;" width="226" x="1077.5" y="360"/><ellipse cx="1092.5" cy="382.291" fill="#ADD1B2" rx="11" ry="11" style="stroke:#181818;stroke-width:1.0;"/><path d="M1095.2656,378.166 Q1095.4219,377.9473 1095.6094,377.8379 Q1095.7969,377.7285 1096.0156,377.7285 Q1096.3906,377.7285 1096.625,377.9941 Q1096.8594,378.2441 1096.8594,378.8535 L1096.8594,380.3066 Q1096.8594,380.916 1096.625,381.1816 Q1096.3906,381.4473 1096.0156,381.4473 Q1095.6719,381.4473 1095.4688,381.2441 Q1095.2656,381.0566 1095.1563,380.541 Q1095.1094,380.1816 1094.9219,379.9941 Q1094.5938,379.6191 1093.9844,379.4004 Q1093.375,379.1816 1092.75,379.1816 Q1091.9844,379.1816 1091.3438,379.5098 Q1090.7188,379.8379 1090.2188,380.5879 Q1089.7344,381.3379 1089.7344,382.3691 L1089.7344,383.4629 Q1089.7344,384.6973 1090.625,385.5254 Q1091.5156,386.3379 1093.1094,386.3379 Q1094.0469,386.3379 1094.7031,386.0879 Q1095.0938,385.9316 1095.5156,385.4941 Q1095.7813,385.2285 1095.9219,385.1504 Q1096.0781,385.0723 1096.2813,385.0723 Q1096.6094,385.0723 1096.8594,385.3379 Q1097.125,385.5879 1097.125,385.9316 Q1097.125,386.2754 1096.7813,386.6816 Q1096.2813,387.2598 1095.4844,387.5879 Q1094.4063,388.041 1093.1094,388.041 Q1091.5938,388.041 1090.3906,387.416 Q1089.4063,386.916 1088.7188,385.8535 Q1088.0313,384.7754 1088.0313,383.4941 L1088.0313,382.3379 Q1088.0313,381.0098 1088.6406,379.8691 Q1089.2656,378.7129 1090.3594,378.1035 Q1091.4531,377.4785 1092.6875,377.4785 Q1093.4219,377.4785 1094.0625,377.6504 Q1094.7188,377.8066 1095.2656,378.166 Z " fill="#000000"/><text fill="#000000" font-family="sans-serif" font-size="12" font-style="italic" lengthAdjust="spacing" textLength="68" x="1169.5" y="377.9492">&#171;repository&#187;</text><text fill="#000000" font-family="sans-serif" font-size="14" lengthAdjust="spacing" textLength="194" x="1106.5" y="396.0684">TeacherAssignmentRepository</text><line style="stroke:#181818;stroke-width:0.5;" x1="1078.5" x2="1302.5" y1="404.582" y2="404.582"/><line style="stroke:#181818;stroke-width:0.5;" x1="1078.5" x2="1302.5" y1="412.582" y2="412.582"/><ellipse cx="1088.5" cy="427.3926" fill="#84BE84" rx="3" ry="3" style="stroke:#038048;stroke-width:1.0;"/><text fill="#000000" font-family="sans-serif" font-size="14" lengthAdjust="spacing" textLength="191" x="1097.5" y="431.6895">save(newTeacherAssignment)</text></g><!--class CourseRepository--><g id="elem_CourseRepository"><rect codeLine="33" fill="#F1F1F1" height="79.2031" id="CourseRepository" rx="2.5" ry="2.5" style="stroke:#181818;stroke-width:0.5;" width="162" x="1338.5" y="360"/><ellipse cx="1360.7" cy="382.291" fill="#ADD1B2" rx="11" ry="11" style="stroke:#181818;stroke-width:1.0;"/><path d="M1363.4656,378.166 Q1363.6219,377.9473 1363.8094,377.8379 Q1363.9969,377.7285 1364.2156,377.7285 Q1364.5906,377.7285 1364.825,377.9941 Q1365.0594,378.2441 1365.0594,378.8535 L1365.0594,380.3066 Q1365.0594,380.916 1364.825,381.1816 Q1364.5906,381.4473 1364.2156,381.4473 Q1363.8719,381.4473 1363.6688,381.2441 Q1363.4656,381.0566 1363.3563,380.541 Q1363.3094,380.1816 1363.1219,379.9941 Q1362.7938,379.6191 1362.1844,379.4004 Q1361.575,379.1816 1360.95,379.1816 Q1360.1844,379.1816 1359.5438,379.5098 Q1358.9188,379.8379 1358.4188,380.5879 Q1357.9344,381.3379 1357.9344,382.3691 L1357.9344,383.4629 Q1357.9344,384.6973 1358.825,385.5254 Q1359.7156,386.3379 1361.3094,386.3379 Q1362.2469,386.3379 1362.9031,386.0879 Q1363.2938,385.9316 1363.7156,385.4941 Q1363.9813,385.2285 1364.1219,385.1504 Q1364.2781,385.0723 1364.4813,385.0723 Q1364.8094,385.0723 1365.0594,385.3379 Q1365.325,385.5879 1365.325,385.9316 Q1365.325,386.2754 1364.9813,386.6816 Q1364.4813,387.2598 1363.6844,387.5879 Q1362.6063,388.041 1361.3094,388.041 Q1359.7938,388.041 1358.5906,387.416 Q1357.6063,386.916 1356.9188,385.8535 Q1356.2313,384.7754 1356.2313,383.4941 L1356.2313,382.3379 Q1356.2313,381.0098 1356.8406,379.8691 Q1357.4656,378.7129 1358.5594,378.1035 Q1359.6531,377.4785 1360.8875,377.4785 Q1361.6219,377.4785 1362.2625,377.6504 Q1362.9188,377.8066 1363.4656,378.166 Z " fill="#000000"/><text fill="#000000" font-family="sans-serif" font-size="12" font-style="italic" lengthAdjust="spacing" textLength="68" x="1399.3" y="377.9492">&#171;repository&#187;</text><text fill="#000000" font-family="sans-serif" font-size="14" lengthAdjust="spacing" textLength="114" x="1376.3" y="396.0684">CourseRepository</text><line style="stroke:#181818;stroke-width:0.5;" x1="1339.5" x2="1499.5" y1="404.582" y2="404.582"/><line style="stroke:#181818;stroke-width:0.5;" x1="1339.5" x2="1499.5" y1="412.582" y2="412.582"/><ellipse cx="1349.5" cy="427.3926" fill="#84BE84" rx="3" ry="3" style="stroke:#038048;stroke-width:1.0;"/><text fill="#000000" font-family="sans-serif" font-size="14" lengthAdjust="spacing" textLength="136" x="1358.5" y="431.6895">findAllOpenCourses()</text></g><!--class TeacherRepository--><g id="elem_TeacherRepository"><rect codeLine="37" fill="#F1F1F1" height="79.2031" id="TeacherRepository" rx="2.5" ry="2.5" style="stroke:#181818;stroke-width:0.5;" width="172" x="1535.5" y="360"/><ellipse cx="1559.05" cy="382.291" fill="#ADD1B2" rx="11" ry="11" style="stroke:#181818;stroke-width:1.0;"/><path d="M1561.8156,378.166 Q1561.9719,377.9473 1562.1594,377.8379 Q1562.3469,377.7285 1562.5656,377.7285 Q1562.9406,377.7285 1563.175,377.9941 Q1563.4094,378.2441 1563.4094,378.8535 L1563.4094,380.3066 Q1563.4094,380.916 1563.175,381.1816 Q1562.9406,381.4473 1562.5656,381.4473 Q1562.2219,381.4473 1562.0188,381.2441 Q1561.8156,381.0566 1561.7063,380.541 Q1561.6594,380.1816 1561.4719,379.9941 Q1561.1438,379.6191 1560.5344,379.4004 Q1559.925,379.1816 1559.3,379.1816 Q1558.5344,379.1816 1557.8938,379.5098 Q1557.2688,379.8379 1556.7688,380.5879 Q1556.2844,381.3379 1556.2844,382.3691 L1556.2844,383.4629 Q1556.2844,384.6973 1557.175,385.5254 Q1558.0656,386.3379 1559.6594,386.3379 Q1560.5969,386.3379 1561.2531,386.0879 Q1561.6438,385.9316 1562.0656,385.4941 Q1562.3313,385.2285 1562.4719,385.1504 Q1562.6281,385.0723 1562.8313,385.0723 Q1563.1594,385.0723 1563.4094,385.3379 Q1563.675,385.5879 1563.675,385.9316 Q1563.675,386.2754 1563.3313,386.6816 Q1562.8313,387.2598 1562.0344,387.5879 Q1560.9563,388.041 1559.6594,388.041 Q1558.1438,388.041 1556.9406,387.416 Q1555.9563,386.916 1555.2688,385.8535 Q1554.5813,384.7754 1554.5813,383.4941 L1554.5813,382.3379 Q1554.5813,381.0098 1555.1906,379.8691 Q1555.8156,378.7129 1556.9094,378.1035 Q1558.0031,377.4785 1559.2375,377.4785 Q1559.9719,377.4785 1560.6125,377.6504 Q1561.2688,377.8066 1561.8156,378.166 Z " fill="#000000"/><text fill="#000000" font-family="sans-serif" font-size="12" font-style="italic" lengthAdjust="spacing" textLength="68" x="1601.45" y="377.9492">&#171;repository&#187;</text><text fill="#000000" font-family="sans-serif" font-size="14" lengthAdjust="spacing" textLength="121" x="1574.95" y="396.0684">TeacherRepository</text><line style="stroke:#181818;stroke-width:0.5;" x1="1536.5" x2="1706.5" y1="404.582" y2="404.582"/><line style="stroke:#181818;stroke-width:0.5;" x1="1536.5" x2="1706.5" y1="412.582" y2="412.582"/><ellipse cx="1546.5" cy="427.3926" fill="#84BE84" rx="3" ry="3" style="stroke:#038048;stroke-width:1.0;"/><text fill="#000000" font-family="sans-serif" font-size="14" lengthAdjust="spacing" textLength="146" x="1555.5" y="431.6895">findAllActiveTeachers()</text></g><!--class Course--><g id="elem_Course"><rect codeLine="41" fill="#F1F1F1" height="60.582" id="Course" rx="2.5" ry="2.5" style="stroke:#181818;stroke-width:0.5;" width="84" x="451.5" y="369"/><ellipse cx="466.5" cy="391.291" fill="#ADD1B2" rx="11" ry="11" style="stroke:#181818;stroke-width:1.0;"/><path d="M469.2656,387.166 Q469.4219,386.9473 469.6094,386.8379 Q469.7969,386.7285 470.0156,386.7285 Q470.3906,386.7285 470.625,386.9941 Q470.8594,387.2441 470.8594,387.8535 L470.8594,389.3066 Q470.8594,389.916 470.625,390.1816 Q470.3906,390.4473 470.0156,390.4473 Q469.6719,390.4473 469.4688,390.2441 Q469.2656,390.0566 469.1563,389.541 Q469.1094,389.1816 468.9219,388.9941 Q468.5938,388.6191 467.9844,388.4004 Q467.375,388.1816 466.75,388.1816 Q465.9844,388.1816 465.3438,388.5098 Q464.7188,388.8379 464.2188,389.5879 Q463.7344,390.3379 463.7344,391.3691 L463.7344,392.4629 Q463.7344,393.6973 464.625,394.5254 Q465.5156,395.3379 467.1094,395.3379 Q468.0469,395.3379 468.7031,395.0879 Q469.0938,394.9316 469.5156,394.4941 Q469.7813,394.2285 469.9219,394.1504 Q470.0781,394.0723 470.2813,394.0723 Q470.6094,394.0723 470.8594,394.3379 Q471.125,394.5879 471.125,394.9316 Q471.125,395.2754 470.7813,395.6816 Q470.2813,396.2598 469.4844,396.5879 Q468.4063,397.041 467.1094,397.041 Q465.5938,397.041 464.3906,396.416 Q463.4063,395.916 462.7188,394.8535 Q462.0313,393.7754 462.0313,392.4941 L462.0313,391.3379 Q462.0313,390.0098 462.6406,388.8691 Q463.2656,387.7129 464.3594,387.1035 Q465.4531,386.4785 466.6875,386.4785 Q467.4219,386.4785 468.0625,386.6504 Q468.7188,386.8066 469.2656,387.166 Z " fill="#000000"/><text fill="#000000" font-family="sans-serif" font-size="12" font-style="italic" lengthAdjust="spacing" textLength="56" x="478.5" y="386.9492">&#171;domain&#187;</text><text fill="#000000" font-family="sans-serif" font-size="14" lengthAdjust="spacing" textLength="46" x="483.5" y="405.0684">Course</text><line style="stroke:#181818;stroke-width:0.5;" x1="452.5" x2="534.5" y1="413.582" y2="413.582"/><line style="stroke:#181818;stroke-width:0.5;" x1="452.5" x2="534.5" y1="421.582" y2="421.582"/></g><!--class Teacher--><g id="elem_Teacher"><rect codeLine="44" fill="#F1F1F1" height="60.582" id="Teacher" rx="2.5" ry="2.5" style="stroke:#181818;stroke-width:0.5;" width="85" x="571" y="369"/><ellipse cx="586" cy="391.291" fill="#ADD1B2" rx="11" ry="11" style="stroke:#181818;stroke-width:1.0;"/><path d="M588.7656,387.166 Q588.9219,386.9473 589.1094,386.8379 Q589.2969,386.7285 589.5156,386.7285 Q589.8906,386.7285 590.125,386.9941 Q590.3594,387.2441 590.3594,387.8535 L590.3594,389.3066 Q590.3594,389.916 590.125,390.1816 Q589.8906,390.4473 589.5156,390.4473 Q589.1719,390.4473 588.9688,390.2441 Q588.7656,390.0566 588.6563,389.541 Q588.6094,389.1816 588.4219,388.9941 Q588.0938,388.6191 587.4844,388.4004 Q586.875,388.1816 586.25,388.1816 Q585.4844,388.1816 584.8438,388.5098 Q584.2188,388.8379 583.7188,389.5879 Q583.2344,390.3379 583.2344,391.3691 L583.2344,392.4629 Q583.2344,393.6973 584.125,394.5254 Q585.0156,395.3379 586.6094,395.3379 Q587.5469,395.3379 588.2031,395.0879 Q588.5938,394.9316 589.0156,394.4941 Q589.2813,394.2285 589.4219,394.1504 Q589.5781,394.0723 589.7813,394.0723 Q590.1094,394.0723 590.3594,394.3379 Q590.625,394.5879 590.625,394.9316 Q590.625,395.2754 590.2813,395.6816 Q589.7813,396.2598 588.9844,396.5879 Q587.9063,397.041 586.6094,397.041 Q585.0938,397.041 583.8906,396.416 Q582.9063,395.916 582.2188,394.8535 Q581.5313,393.7754 581.5313,392.4941 L581.5313,391.3379 Q581.5313,390.0098 582.1406,388.8691 Q582.7656,387.7129 583.8594,387.1035 Q584.9531,386.4785 586.1875,386.4785 Q586.9219,386.4785 587.5625,386.6504 Q588.2188,386.8066 588.7656,387.166 Z " fill="#000000"/><text fill="#000000" font-family="sans-serif" font-size="12" font-style="italic" lengthAdjust="spacing" textLength="56" x="598.5" y="386.9492">&#171;domain&#187;</text><text fill="#000000" font-family="sans-serif" font-size="14" lengthAdjust="spacing" textLength="53" x="600" y="405.0684">Teacher</text><line style="stroke:#181818;stroke-width:0.5;" x1="572" x2="655" y1="413.582" y2="413.582"/><line style="stroke:#181818;stroke-width:0.5;" x1="572" x2="655" y1="421.582" y2="421.582"/></g><!--class TeacherAssignment--><g id="elem_TeacherAssignment"><rect codeLine="47" fill="#F1F1F1" height="79.2031" id="TeacherAssignment" rx="2.5" ry="2.5" style="stroke:#181818;stroke-width:0.5;" width="351" x="691" y="360"/><ellipse cx="799.25" cy="382.291" fill="#ADD1B2" rx="11" ry="11" style="stroke:#181818;stroke-width:1.0;"/><path d="M802.0156,378.166 Q802.1719,377.9473 802.3594,377.8379 Q802.5469,377.7285 802.7656,377.7285 Q803.1406,377.7285 803.375,377.9941 Q803.6094,378.2441 803.6094,378.8535 L803.6094,380.3066 Q803.6094,380.916 803.375,381.1816 Q803.1406,381.4473 802.7656,381.4473 Q802.4219,381.4473 802.2188,381.2441 Q802.0156,381.0566 801.9063,380.541 Q801.8594,380.1816 801.6719,379.9941 Q801.3438,379.6191 800.7344,379.4004 Q800.125,379.1816 799.5,379.1816 Q798.7344,379.1816 798.0938,379.5098 Q797.4688,379.8379 796.9688,380.5879 Q796.4844,381.3379 796.4844,382.3691 L796.4844,383.4629 Q796.4844,384.6973 797.375,385.5254 Q798.2656,386.3379 799.8594,386.3379 Q800.7969,386.3379 801.4531,386.0879 Q801.8438,385.9316 802.2656,385.4941 Q802.5313,385.2285 802.6719,385.1504 Q802.8281,385.0723 803.0313,385.0723 Q803.3594,385.0723 803.6094,385.3379 Q803.875,385.5879 803.875,385.9316 Q803.875,386.2754 803.5313,386.6816 Q803.0313,387.2598 802.2344,387.5879 Q801.1563,388.041 799.8594,388.041 Q798.3438,388.041 797.1406,387.416 Q796.1563,386.916 795.4688,385.8535 Q794.7813,384.7754 794.7813,383.4941 L794.7813,382.3379 Q794.7813,381.0098 795.3906,379.8691 Q796.0156,378.7129 797.1094,378.1035 Q798.2031,377.4785 799.4375,377.4785 Q800.1719,377.4785 800.8125,377.6504 Q801.4688,377.8066 802.0156,378.166 Z " fill="#000000"/><text fill="#000000" font-family="sans-serif" font-size="12" font-style="italic" lengthAdjust="spacing" textLength="56" x="854.75" y="377.9492">&#171;domain&#187;</text><text fill="#000000" font-family="sans-serif" font-size="14" lengthAdjust="spacing" textLength="126" x="819.75" y="396.0684">TeacherAssignment</text><line style="stroke:#181818;stroke-width:0.5;" x1="692" x2="1041" y1="404.582" y2="404.582"/><line style="stroke:#181818;stroke-width:0.5;" x1="692" x2="1041" y1="412.582" y2="412.582"/><ellipse cx="702" cy="427.3926" fill="#84BE84" rx="3" ry="3" style="stroke:#038048;stroke-width:1.0;"/><text fill="#000000" font-family="sans-serif" font-size="14" lengthAdjust="spacing" textLength="325" x="711" y="431.6895">TeacherAssignment(teacher, course, responsibility)</text></g><!--link SetCourseTeachersUI to SetCourseTeachersController--><g id="link_SetCourseTeachersUI_SetCourseTeachersController"><path codeLine="53" d="M553.5,68.1 C553.5,83.43 553.5,103.06 553.5,122.88 " fill="none" id="SetCourseTeachersUI-to-SetCourseTeachersController" style="stroke:#181818;stroke-width:1.0;stroke-dasharray:7.0,7.0;"/><polygon fill="#181818" points="553.5,127.92,557.5,118.92,553.5,122.92,549.5,118.92,553.5,127.92" style="stroke:#181818;stroke-width:1.0;"/></g><!--link SetCourseTeachersController to Manager--><g id="link_SetCourseTeachersController_Manager"><path codeLine="54" d="M469.62,300.04 C446.74,323.24 423.28,347.02 405.16,365.39 " fill="none" id="SetCourseTeachersController-to-Manager" style="stroke:#181818;stroke-width:1.0;stroke-dasharray:7.0,7.0;"/><polygon fill="#181818" points="401.6,369,410.7635,365.3902,405.1068,365.436,405.061,359.7793,401.6,369" style="stroke:#181818;stroke-width:1.0;"/></g><!--link SetCourseTeachersController to TeacherAssignment--><g id="link_SetCourseTeachersController_TeacherAssignment"><path codeLine="56" d="M664.29,279.95 C708.06,305.61 757.06,334.34 795.86,357.09 " fill="none" id="SetCourseTeachersController-to-TeacherAssignment" style="stroke:#181818;stroke-width:1.0;"/><polygon fill="#181818" points="800.54,359.83,794.7979,351.8282,796.2263,357.3018,790.7527,358.7301,800.54,359.83" style="stroke:#181818;stroke-width:1.0;"/></g><!--link SetCourseTeachersController to Teacher--><g id="link_SetCourseTeachersController_Teacher"><path codeLine="57" d="M581.3,300.04 C588.7,322.66 596.28,345.83 602.22,364.01 " fill="none" id="SetCourseTeachersController-to-Teacher" style="stroke:#181818;stroke-width:1.0;"/><polygon fill="#181818" points="603.85,369,604.843,359.2013,602.2903,364.2495,597.2422,361.6968,603.85,369" style="stroke:#181818;stroke-width:1.0;"/></g><!--link SetCourseTeachersController to Course--><g id="link_SetCourseTeachersController_Course"><path codeLine="58" d="M525.7,300.04 C518.3,322.66 510.72,345.83 504.78,364.01 " fill="none" id="SetCourseTeachersController-to-Course" style="stroke:#181818;stroke-width:1.0;"/><polygon fill="#181818" points="503.15,369,509.7578,361.6968,504.7097,364.2495,502.157,359.2013,503.15,369" style="stroke:#181818;stroke-width:1.0;"/></g><!--link SetCourseTeachersController to AuthenticationService--><g id="link_SetCourseTeachersController_AuthenticationService"><path codeLine="60" d="M442.84,258.95 C358.99,292.26 245.79,337.22 170.81,367 " fill="none" id="SetCourseTeachersController-to-AuthenticationService" style="stroke:#181818;stroke-width:1.0;stroke-dasharray:7.0,7.0;"/><polygon fill="#181818" points="165.93,368.94,175.7708,369.3375,170.5773,367.0954,172.8194,361.9018,165.93,368.94" style="stroke:#181818;stroke-width:1.0;"/></g><!--link SetCourseTeachersController to PersistenceContext--><g id="link_SetCourseTeachersController_PersistenceContext"><path codeLine="61" d="M664.03,214 C743.7,214 823.36,214 903.02,214 " fill="none" id="SetCourseTeachersController-to-PersistenceContext" style="stroke:#181818;stroke-width:1.0;stroke-dasharray:7.0,7.0;"/><polygon fill="#181818" points="908.27,214,899.27,210,903.27,214,899.27,218,908.27,214" style="stroke:#181818;stroke-width:1.0;"/></g><!--link PersistenceContext to RepositoryFactory--><g id="link_PersistenceContext_RepositoryFactory"><path codeLine="62" d="M1062.76,214 C1104.05,214 1145.33,214 1186.62,214 " fill="none" id="PersistenceContext-to-RepositoryFactory" style="stroke:#181818;stroke-width:1.0;"/><polygon fill="#181818" points="1191.66,214,1182.66,210,1186.66,214,1182.66,218,1191.66,214" style="stroke:#181818;stroke-width:1.0;"/></g><!--link RepositoryFactory to TeacherAssignmentRepository--><g id="link_RepositoryFactory_TeacherAssignmentRepository"><path codeLine="63" d="M1269.05,272.05 C1252.31,299.01 1232.66,330.64 1217.2,355.53 " fill="none" id="RepositoryFactory-to-TeacherAssignmentRepository" style="stroke:#181818;stroke-width:1.0;"/><polygon fill="#181818" points="1214.56,359.78,1222.7136,354.2557,1217.2036,355.536,1215.9232,350.0259,1214.56,359.78" style="stroke:#181818;stroke-width:1.0;"/></g><!--link RepositoryFactory to CourseRepository--><g id="link_RepositoryFactory_CourseRepository"><path codeLine="64" d="M1340.26,272.05 C1357.15,299.01 1376.97,330.64 1392.57,355.53 " fill="none" id="RepositoryFactory-to-CourseRepository" style="stroke:#181818;stroke-width:1.0;"/><polygon fill="#181818" points="1395.23,359.78,1393.8284,350.0314,1392.5697,355.5464,1387.0547,354.2878,1395.23,359.78" style="stroke:#181818;stroke-width:1.0;"/></g><!--link RepositoryFactory to TeacherRepository--><g id="link_RepositoryFactory_TeacherRepository"><path codeLine="65" d="M1403.06,272.05 C1450.68,299.62 1506.77,332.08 1550.18,357.22 " fill="none" id="RepositoryFactory-to-TeacherRepository" style="stroke:#181818;stroke-width:1.0;"/><polygon fill="#181818" points="1554.61,359.78,1548.8367,351.8007,1550.2865,357.2686,1544.8185,358.7184,1554.61,359.78" style="stroke:#181818;stroke-width:1.0;"/></g><!--link AuthenticationService to Session--><g id="link_AuthenticationService_Session"><path codeLine="68" d="M176.09,399.5 C186.09,399.5 196.08,399.5 206.08,399.5 " fill="none" id="AuthenticationService-to-Session" style="stroke:#181818;stroke-width:1.0;stroke-dasharray:7.0,7.0;"/><polygon fill="#181818" points="211.31,399.5,202.31,395.5,206.31,399.5,202.31,403.5,211.31,399.5" style="stroke:#181818;stroke-width:1.0;"/></g><!--link AuthenticationService to User--><g id="link_AuthenticationService_User"><path codeLine="69" d="M123.97,430.19 C145.35,449.74 173.36,475.35 195.44,495.53 " fill="none" id="AuthenticationService-to-User" style="stroke:#181818;stroke-width:1.0;stroke-dasharray:7.0,7.0;"/><polygon fill="#181818" points="199.21,498.97,195.288,489.9357,195.5278,495.5875,189.876,495.8273,199.21,498.97" style="stroke:#181818;stroke-width:1.0;"/></g><!--link Session to Manager--><g id="link_Session_Manager"><path codeLine="71" d="M293.75,399.5 C305.23,399.5 316.72,399.5 328.2,399.5 " fill="none" id="Session-Manager" style="stroke:#181818;stroke-width:1.0;"/></g><!--link Manager to User--><g id="link_Manager_User"><path codeLine="73" d="M339.8,430.19 C317.02,450.87 286.77,478.33 264.03,498.97 " fill="none" id="Manager-User" style="stroke:#181818;stroke-width:1.0;"/><text fill="#000000" font-family="sans-serif" font-size="13" lengthAdjust="spacing" textLength="5" x="328.31" y="451.5093">*</text><text fill="#000000" font-family="sans-serif" font-size="13" lengthAdjust="spacing" textLength="7" x="263.3803" y="487.5381">1</text></g><!--SRC=[bLHBRy8m3BxdLqGzTHj5sXrLgfWsE6nCFBHp5Wn42ccL13Q4-E_BeoL07sAdjFRtEPyTsvGJfN2sqniGcb6YMIvc8FUC0XuCbFzAKtp49qGTTWPA6P3nxWdVNVlUYI1haCQtpBU42UkiV0lLufY17kOxgM0EX6v0gc4kjCmvTtXI5BpKbQP7zBIkq2f-S7yLo_wgoXbJTtZJ2CYoHCNQdzxHO2JxiupCvBaMMrCN6nktobsCZSn2WZB8iqvqGcWiDCWLCPNyD32cD0WADZdurPOIZ2up2KMkcCubSxcP0Fx2QMK_l19g3yDT-I_7ywa6b2r4cP5gj8R4hjpd2-VjC7FrMQQ_tLOi5l1J8xcIbH67DnBhOLPCB3FE9mM8yBotYku8a57DmXDUnl1XBphmM8lVwGoPNS6UQkwgdNhOlqmFczueSg7OD-DC7vmcX9hwgFyo-VhefrqZWRh6fUANSuWwmOa59sazl_-mxi9w0BfBUkCgwcQc3VE56aREAAdD4gfFLz9Kam1hOTosU7VW2nn2pTktFns_ZUQk6Tp2ROCPX5sjjhf-CIUEc8GcgBPoz1WP3JXwZZpZ3m00]--></g></svg>