<?xml version="1.0" encoding="us-ascii" standalone="no"?><svg xmlns="http://www.w3.org/2000/svg" xmlns:xlink="http://www.w3.org/1999/xlink" contentStyleType="text/css" height="1219px" preserveAspectRatio="none" style="width:1381px;height:1219px;background:#FFFFFF;" version="1.1" viewBox="0 0 1381 1219" width="1381px" zoomAndPan="magnify"><defs/><g><rect fill="#FFFFFF" height="1086.2754" style="stroke:#181818;stroke-width:1.0;" width="10" x="93.5" y="67.2422"/><rect fill="#FFFFFF" height="30" style="stroke:#181818;stroke-width:1.0;" width="10" x="285.5" y="90.5332"/><rect fill="#FFFFFF" height="216.4551" style="stroke:#181818;stroke-width:1.0;" width="10" x="285.5" y="151.8242"/><rect fill="#FFFFFF" height="30" style="stroke:#181818;stroke-width:1.0;" width="10" x="285.5" y="399.5703"/><rect fill="#FFFFFF" height="216.4551" style="stroke:#181818;stroke-width:1.0;" width="10" x="285.5" y="460.8613"/><rect fill="#FFFFFF" height="38.291" style="stroke:#181818;stroke-width:1.0;" width="10" x="285.5" y="734.8984"/><rect fill="#FFFFFF" height="30" style="stroke:#181818;stroke-width:1.0;" width="10" x="285.5" y="804.4805"/><rect fill="#FFFFFF" height="288.7461" style="stroke:#181818;stroke-width:1.0;" width="10" x="285.5" y="865.7715"/><rect fill="#FFFFFF" height="92.582" style="stroke:#181818;stroke-width:1.0;" width="10" x="469" y="183.1152"/><rect fill="#FFFFFF" height="92.582" style="stroke:#181818;stroke-width:1.0;" width="10" x="469" y="492.1523"/><rect fill="#FFFFFF" height="92.582" style="stroke:#181818;stroke-width:1.0;" width="10" x="469" y="897.0625"/><rect fill="#FFFFFF" height="61.291" style="stroke:#181818;stroke-width:1.0;" width="10" x="616" y="214.4063"/><rect fill="#FFFFFF" height="61.291" style="stroke:#181818;stroke-width:1.0;" width="10" x="616" y="523.4434"/><rect fill="#FFFFFF" height="61.291" style="stroke:#181818;stroke-width:1.0;" width="10" x="616" y="928.3535"/><rect fill="#FFFFFF" height="30" style="stroke:#181818;stroke-width:1.0;" width="10" x="762.5" y="245.6973"/><rect fill="#FFFFFF" height="30" style="stroke:#181818;stroke-width:1.0;" width="10" x="762.5" y="306.9883"/><rect fill="#FFFFFF" height="30" style="stroke:#181818;stroke-width:1.0;" width="10" x="915" y="554.7344"/><rect fill="#FFFFFF" height="30" style="stroke:#181818;stroke-width:1.0;" width="10" x="915" y="616.0254"/><rect fill="#FFFFFF" height="30" style="stroke:#181818;stroke-width:1.0;" width="10" x="1104" y="959.6445"/><rect fill="#FFFFFF" height="30" style="stroke:#181818;stroke-width:1.0;" width="10" x="1104" y="1108.5176"/><rect fill="#FFFFFF" height="30" style="stroke:#181818;stroke-width:1.0;" width="10" x="1290" y="1047.2266"/><rect fill="none" height="50.582" style="stroke:#000000;stroke-width:1.5;" width="394" x="10" y="692.3164"/><rect fill="none" height="141.873" style="stroke:#000000;stroke-width:1.5;" width="1198" x="177" y="1004.6445"/><line style="stroke:#181818;stroke-width:0.5;stroke-dasharray:5.0,5.0;" x1="98" x2="98" y1="57.2422" y2="1163.5176"/><line style="stroke:#181818;stroke-width:0.5;stroke-dasharray:5.0,5.0;" x1="290" x2="290" y1="57.2422" y2="1163.5176"/><line style="stroke:#181818;stroke-width:0.5;stroke-dasharray:5.0,5.0;" x1="474" x2="474" y1="57.2422" y2="1163.5176"/><line style="stroke:#181818;stroke-width:0.5;stroke-dasharray:5.0,5.0;" x1="621" x2="621" y1="57.2422" y2="1163.5176"/><line style="stroke:#181818;stroke-width:0.5;stroke-dasharray:5.0,5.0;" x1="767" x2="767" y1="57.2422" y2="1163.5176"/><line style="stroke:#181818;stroke-width:0.5;stroke-dasharray:5.0,5.0;" x1="920" x2="920" y1="57.2422" y2="1163.5176"/><line style="stroke:#181818;stroke-width:0.5;stroke-dasharray:5.0,5.0;" x1="1109" x2="1109" y1="57.2422" y2="1163.5176"/><line style="stroke:#181818;stroke-width:0.5;stroke-dasharray:5.0,5.0;" x1="1295" x2="1295" y1="57.2422" y2="1163.5176"/><rect fill="#E2E2F0" height="51.2422" rx="2.5" ry="2.5" style="stroke:#181818;stroke-width:0.5;" width="157" x="20" y="5"/><text fill="#000000" font-family="sans-serif" font-size="14" lengthAdjust="spacing" textLength="95" x="51" y="27.1074">&#171;presentation&#187;</text><text fill="#000000" font-family="sans-serif" font-size="14" lengthAdjust="spacing" textLength="143" x="27" y="45.7285">:SetCourseTeachersUI</text><rect fill="#E2E2F0" height="51.2422" rx="2.5" ry="2.5" style="stroke:#181818;stroke-width:0.5;" width="157" x="20" y="1162.5176"/><text fill="#000000" font-family="sans-serif" font-size="14" lengthAdjust="spacing" textLength="95" x="51" y="1184.625">&#171;presentation&#187;</text><text fill="#000000" font-family="sans-serif" font-size="14" lengthAdjust="spacing" textLength="143" x="27" y="1203.2461">:SetCourseTeachersUI</text><rect fill="#E2E2F0" height="51.2422" rx="2.5" ry="2.5" style="stroke:#181818;stroke-width:0.5;" width="207" x="187" y="5"/><text fill="#000000" font-family="sans-serif" font-size="14" lengthAdjust="spacing" textLength="84" x="248.5" y="27.1074">&#171;application&#187;</text><text fill="#000000" font-family="sans-serif" font-size="14" lengthAdjust="spacing" textLength="193" x="194" y="45.7285">:SetCourseTeachersController</text><rect fill="#E2E2F0" height="51.2422" rx="2.5" ry="2.5" style="stroke:#181818;stroke-width:0.5;" width="207" x="187" y="1162.5176"/><text fill="#000000" font-family="sans-serif" font-size="14" lengthAdjust="spacing" textLength="84" x="248.5" y="1184.625">&#171;application&#187;</text><text fill="#000000" font-family="sans-serif" font-size="14" lengthAdjust="spacing" textLength="193" x="194" y="1203.2461">:SetCourseTeachersController</text><rect fill="#E2E2F0" height="51.2422" rx="2.5" ry="2.5" style="stroke:#181818;stroke-width:0.5;" width="140" x="404" y="5"/><text fill="#000000" font-family="sans-serif" font-size="14" lengthAdjust="spacing" textLength="89" x="429.5" y="27.1074">&#171;persistence&#187;</text><text fill="#000000" font-family="sans-serif" font-size="14" lengthAdjust="spacing" textLength="126" x="411" y="45.7285">:PersistenceContext</text><rect fill="#E2E2F0" height="51.2422" rx="2.5" ry="2.5" style="stroke:#181818;stroke-width:0.5;" width="140" x="404" y="1162.5176"/><text fill="#000000" font-family="sans-serif" font-size="14" lengthAdjust="spacing" textLength="89" x="429.5" y="1184.625">&#171;persistence&#187;</text><text fill="#000000" font-family="sans-serif" font-size="14" lengthAdjust="spacing" textLength="126" x="411" y="1203.2461">:PersistenceContext</text><rect fill="#E2E2F0" height="51.2422" rx="2.5" ry="2.5" style="stroke:#181818;stroke-width:0.5;" width="134" x="554" y="5"/><text fill="#000000" font-family="sans-serif" font-size="14" lengthAdjust="spacing" textLength="59" x="591.5" y="27.1074">&#171;factory&#187;</text><text fill="#000000" font-family="sans-serif" font-size="14" lengthAdjust="spacing" textLength="120" x="561" y="45.7285">:RepositoryFactory</text><rect fill="#E2E2F0" height="51.2422" rx="2.5" ry="2.5" style="stroke:#181818;stroke-width:0.5;" width="134" x="554" y="1162.5176"/><text fill="#000000" font-family="sans-serif" font-size="14" lengthAdjust="spacing" textLength="59" x="591.5" y="1184.625">&#171;factory&#187;</text><text fill="#000000" font-family="sans-serif" font-size="14" lengthAdjust="spacing" textLength="120" x="561" y="1203.2461">:RepositoryFactory</text><rect fill="#E2E2F0" height="51.2422" rx="2.5" ry="2.5" style="stroke:#181818;stroke-width:0.5;" width="139" x="698" y="5"/><text fill="#000000" font-family="sans-serif" font-size="14" lengthAdjust="spacing" textLength="79" x="728" y="27.1074">&#171;repository&#187;</text><text fill="#000000" font-family="sans-serif" font-size="14" lengthAdjust="spacing" textLength="125" x="705" y="45.7285">:CoursesRepository</text><rect fill="#E2E2F0" height="51.2422" rx="2.5" ry="2.5" style="stroke:#181818;stroke-width:0.5;" width="139" x="698" y="1162.5176"/><text fill="#000000" font-family="sans-serif" font-size="14" lengthAdjust="spacing" textLength="79" x="728" y="1184.625">&#171;repository&#187;</text><text fill="#000000" font-family="sans-serif" font-size="14" lengthAdjust="spacing" textLength="125" x="705" y="1203.2461">:CoursesRepository</text><rect fill="#E2E2F0" height="51.2422" rx="2.5" ry="2.5" style="stroke:#181818;stroke-width:0.5;" width="146" x="847" y="5"/><text fill="#000000" font-family="sans-serif" font-size="14" lengthAdjust="spacing" textLength="79" x="880.5" y="27.1074">&#171;repository&#187;</text><text fill="#000000" font-family="sans-serif" font-size="14" lengthAdjust="spacing" textLength="132" x="854" y="45.7285">:TeachersRepository</text><rect fill="#E2E2F0" height="51.2422" rx="2.5" ry="2.5" style="stroke:#181818;stroke-width:0.5;" width="146" x="847" y="1162.5176"/><text fill="#000000" font-family="sans-serif" font-size="14" lengthAdjust="spacing" textLength="79" x="880.5" y="1184.625">&#171;repository&#187;</text><text fill="#000000" font-family="sans-serif" font-size="14" lengthAdjust="spacing" textLength="132" x="854" y="1203.2461">:TeachersRepository</text><rect fill="#E2E2F0" height="51.2422" rx="2.5" ry="2.5" style="stroke:#181818;stroke-width:0.5;" width="212" x="1003" y="5"/><text fill="#000000" font-family="sans-serif" font-size="14" lengthAdjust="spacing" textLength="79" x="1069.5" y="27.1074">&#171;repository&#187;</text><text fill="#000000" font-family="sans-serif" font-size="14" lengthAdjust="spacing" textLength="198" x="1010" y="45.7285">:TeacherAssignmentRepository</text><rect fill="#E2E2F0" height="51.2422" rx="2.5" ry="2.5" style="stroke:#181818;stroke-width:0.5;" width="212" x="1003" y="1162.5176"/><text fill="#000000" font-family="sans-serif" font-size="14" lengthAdjust="spacing" textLength="79" x="1069.5" y="1184.625">&#171;repository&#187;</text><text fill="#000000" font-family="sans-serif" font-size="14" lengthAdjust="spacing" textLength="198" x="1010" y="1203.2461">:TeacherAssignmentRepository</text><rect fill="#E2E2F0" height="51.2422" rx="2.5" ry="2.5" style="stroke:#181818;stroke-width:0.5;" width="140" x="1225" y="5"/><text fill="#000000" font-family="sans-serif" font-size="14" lengthAdjust="spacing" textLength="62" x="1262" y="27.1074">&#171;domain&#187;</text><text fill="#000000" font-family="sans-serif" font-size="14" lengthAdjust="spacing" textLength="126" x="1232" y="45.7285">TeacherAssignment</text><rect fill="#E2E2F0" height="51.2422" rx="2.5" ry="2.5" style="stroke:#181818;stroke-width:0.5;" width="140" x="1225" y="1162.5176"/><text fill="#000000" font-family="sans-serif" font-size="14" lengthAdjust="spacing" textLength="62" x="1262" y="1184.625">&#171;domain&#187;</text><text fill="#000000" font-family="sans-serif" font-size="14" lengthAdjust="spacing" textLength="126" x="1232" y="1203.2461">TeacherAssignment</text><rect fill="#FFFFFF" height="1086.2754" style="stroke:#181818;stroke-width:1.0;" width="10" x="93.5" y="67.2422"/><rect fill="#FFFFFF" height="30" style="stroke:#181818;stroke-width:1.0;" width="10" x="285.5" y="90.5332"/><rect fill="#FFFFFF" height="216.4551" style="stroke:#181818;stroke-width:1.0;" width="10" x="285.5" y="151.8242"/><rect fill="#FFFFFF" height="30" style="stroke:#181818;stroke-width:1.0;" width="10" x="285.5" y="399.5703"/><rect fill="#FFFFFF" height="216.4551" style="stroke:#181818;stroke-width:1.0;" width="10" x="285.5" y="460.8613"/><rect fill="#FFFFFF" height="38.291" style="stroke:#181818;stroke-width:1.0;" width="10" x="285.5" y="734.8984"/><rect fill="#FFFFFF" height="30" style="stroke:#181818;stroke-width:1.0;" width="10" x="285.5" y="804.4805"/><rect fill="#FFFFFF" height="288.7461" style="stroke:#181818;stroke-width:1.0;" width="10" x="285.5" y="865.7715"/><rect fill="#FFFFFF" height="92.582" style="stroke:#181818;stroke-width:1.0;" width="10" x="469" y="183.1152"/><rect fill="#FFFFFF" height="92.582" style="stroke:#181818;stroke-width:1.0;" width="10" x="469" y="492.1523"/><rect fill="#FFFFFF" height="92.582" style="stroke:#181818;stroke-width:1.0;" width="10" x="469" y="897.0625"/><rect fill="#FFFFFF" height="61.291" style="stroke:#181818;stroke-width:1.0;" width="10" x="616" y="214.4063"/><rect fill="#FFFFFF" height="61.291" style="stroke:#181818;stroke-width:1.0;" width="10" x="616" y="523.4434"/><rect fill="#FFFFFF" height="61.291" style="stroke:#181818;stroke-width:1.0;" width="10" x="616" y="928.3535"/><rect fill="#FFFFFF" height="30" style="stroke:#181818;stroke-width:1.0;" width="10" x="762.5" y="245.6973"/><rect fill="#FFFFFF" height="30" style="stroke:#181818;stroke-width:1.0;" width="10" x="762.5" y="306.9883"/><rect fill="#FFFFFF" height="30" style="stroke:#181818;stroke-width:1.0;" width="10" x="915" y="554.7344"/><rect fill="#FFFFFF" height="30" style="stroke:#181818;stroke-width:1.0;" width="10" x="915" y="616.0254"/><rect fill="#FFFFFF" height="30" style="stroke:#181818;stroke-width:1.0;" width="10" x="1104" y="959.6445"/><rect fill="#FFFFFF" height="30" style="stroke:#181818;stroke-width:1.0;" width="10" x="1104" y="1108.5176"/><rect fill="#FFFFFF" height="30" style="stroke:#181818;stroke-width:1.0;" width="10" x="1290" y="1047.2266"/><polygon fill="#181818" points="273.5,86.5332,283.5,90.5332,273.5,94.5332,277.5,90.5332" style="stroke:#181818;stroke-width:1.0;"/><line style="stroke:#181818;stroke-width:1.0;" x1="103.5" x2="279.5" y1="90.5332" y2="90.5332"/><text fill="#000000" font-family="sans-serif" font-size="13" lengthAdjust="spacing" textLength="36" x="110.5" y="85.2705">create</text><polygon fill="#181818" points="273.5,147.8242,283.5,151.8242,273.5,155.8242,277.5,151.8242" style="stroke:#181818;stroke-width:1.0;"/><line style="stroke:#181818;stroke-width:1.0;" x1="103.5" x2="279.5" y1="151.8242" y2="151.8242"/><text fill="#000000" font-family="sans-serif" font-size="13" lengthAdjust="spacing" textLength="74" x="110.5" y="146.5615">getCourses()</text><polygon fill="#181818" points="457,179.1152,467,183.1152,457,187.1152,461,183.1152" style="stroke:#181818;stroke-width:1.0;"/><line style="stroke:#181818;stroke-width:1.0;" x1="295.5" x2="463" y1="183.1152" y2="183.1152"/><text fill="#000000" font-family="sans-serif" font-size="13" lengthAdjust="spacing" textLength="75" x="302.5" y="177.8525">repositories()</text><polygon fill="#181818" points="604,210.4063,614,214.4063,604,218.4063,608,214.4063" style="stroke:#181818;stroke-width:1.0;"/><line style="stroke:#181818;stroke-width:1.0;" x1="479" x2="610" y1="214.4063" y2="214.4063"/><text fill="#000000" font-family="sans-serif" font-size="13" lengthAdjust="spacing" textLength="36" x="486" y="209.1436">create</text><polygon fill="#181818" points="750.5,241.6973,760.5,245.6973,750.5,249.6973,754.5,245.6973" style="stroke:#181818;stroke-width:1.0;"/><line style="stroke:#181818;stroke-width:1.0;" x1="626" x2="756.5" y1="245.6973" y2="245.6973"/><text fill="#000000" font-family="sans-serif" font-size="13" lengthAdjust="spacing" textLength="36" x="633" y="240.4346">create</text><polygon fill="#181818" points="750.5,302.9883,760.5,306.9883,750.5,310.9883,754.5,306.9883" style="stroke:#181818;stroke-width:1.0;"/><line style="stroke:#181818;stroke-width:1.0;" x1="295.5" x2="756.5" y1="306.9883" y2="306.9883"/><text fill="#000000" font-family="sans-serif" font-size="13" lengthAdjust="spacing" textLength="151" x="302.5" y="301.7256">findAllCoursesNotClosed()</text><polygon fill="#181818" points="114.5,364.2793,104.5,368.2793,114.5,372.2793,110.5,368.2793" style="stroke:#181818;stroke-width:1.0;"/><line style="stroke:#181818;stroke-width:1.0;stroke-dasharray:2.0,2.0;" x1="108.5" x2="289.5" y1="368.2793" y2="368.2793"/><text fill="#000000" font-family="sans-serif" font-size="13" lengthAdjust="spacing" textLength="48" x="120.5" y="363.0166">Courses</text><polygon fill="#181818" points="273.5,395.5703,283.5,399.5703,273.5,403.5703,277.5,399.5703" style="stroke:#181818;stroke-width:1.0;"/><line style="stroke:#181818;stroke-width:1.0;" x1="103.5" x2="279.5" y1="399.5703" y2="399.5703"/><text fill="#000000" font-family="sans-serif" font-size="13" lengthAdjust="spacing" textLength="106" x="110.5" y="394.3076">setCourse(course)</text><polygon fill="#181818" points="273.5,456.8613,283.5,460.8613,273.5,464.8613,277.5,460.8613" style="stroke:#181818;stroke-width:1.0;"/><line style="stroke:#181818;stroke-width:1.0;" x1="103.5" x2="279.5" y1="460.8613" y2="460.8613"/><text fill="#000000" font-family="sans-serif" font-size="13" lengthAdjust="spacing" textLength="79" x="110.5" y="455.5986">getTeachers()</text><polygon fill="#181818" points="457,488.1523,467,492.1523,457,496.1523,461,492.1523" style="stroke:#181818;stroke-width:1.0;"/><line style="stroke:#181818;stroke-width:1.0;" x1="295.5" x2="463" y1="492.1523" y2="492.1523"/><text fill="#000000" font-family="sans-serif" font-size="13" lengthAdjust="spacing" textLength="75" x="302.5" y="486.8896">repositories()</text><polygon fill="#181818" points="604,519.4434,614,523.4434,604,527.4434,608,523.4434" style="stroke:#181818;stroke-width:1.0;"/><line style="stroke:#181818;stroke-width:1.0;" x1="479" x2="610" y1="523.4434" y2="523.4434"/><text fill="#000000" font-family="sans-serif" font-size="13" lengthAdjust="spacing" textLength="36" x="486" y="518.1807">create</text><polygon fill="#181818" points="903,550.7344,913,554.7344,903,558.7344,907,554.7344" style="stroke:#181818;stroke-width:1.0;"/><line style="stroke:#181818;stroke-width:1.0;" x1="626" x2="909" y1="554.7344" y2="554.7344"/><text fill="#000000" font-family="sans-serif" font-size="13" lengthAdjust="spacing" textLength="36" x="633" y="549.4717">create</text><polygon fill="#181818" points="903,612.0254,913,616.0254,903,620.0254,907,616.0254" style="stroke:#181818;stroke-width:1.0;"/><line style="stroke:#181818;stroke-width:1.0;" x1="295.5" x2="909" y1="616.0254" y2="616.0254"/><text fill="#000000" font-family="sans-serif" font-size="13" lengthAdjust="spacing" textLength="131" x="302.5" y="610.7627">findAllActiveTeachers()</text><polygon fill="#181818" points="114.5,673.3164,104.5,677.3164,114.5,681.3164,110.5,677.3164" style="stroke:#181818;stroke-width:1.0;"/><line style="stroke:#181818;stroke-width:1.0;stroke-dasharray:2.0,2.0;" x1="108.5" x2="289.5" y1="677.3164" y2="677.3164"/><text fill="#000000" font-family="sans-serif" font-size="13" lengthAdjust="spacing" textLength="53" x="120.5" y="672.0537">Teachers</text><path d="M10,692.3164 L83,692.3164 L83,701.6074 L73,711.6074 L10,711.6074 L10,692.3164 " fill="#EEEEEE" style="stroke:#000000;stroke-width:1.5;"/><rect fill="none" height="50.582" style="stroke:#000000;stroke-width:1.5;" width="394" x="10" y="692.3164"/><text fill="#000000" font-family="sans-serif" font-size="13" font-weight="bold" lengthAdjust="spacing" textLength="28" x="25" y="707.3447">loop</text><polygon fill="#181818" points="273.5,730.8984,283.5,734.8984,273.5,738.8984,277.5,734.8984" style="stroke:#181818;stroke-width:1.0;"/><line style="stroke:#181818;stroke-width:1.0;" x1="103.5" x2="279.5" y1="734.8984" y2="734.8984"/><text fill="#000000" font-family="sans-serif" font-size="13" lengthAdjust="spacing" textLength="115" x="110.5" y="729.6357">setTeacher(teacher)</text><polygon fill="#181818" points="114.5,769.1895,104.5,773.1895,114.5,777.1895,110.5,773.1895" style="stroke:#181818;stroke-width:1.0;"/><line style="stroke:#181818;stroke-width:1.0;stroke-dasharray:2.0,2.0;" x1="108.5" x2="289.5" y1="773.1895" y2="773.1895"/><text fill="#000000" font-family="sans-serif" font-size="13" lengthAdjust="spacing" textLength="107" x="120.5" y="767.9268">TeachersAssigned</text><polygon fill="#181818" points="273.5,800.4805,283.5,804.4805,273.5,808.4805,277.5,804.4805" style="stroke:#181818;stroke-width:1.0;"/><line style="stroke:#181818;stroke-width:1.0;" x1="103.5" x2="279.5" y1="804.4805" y2="804.4805"/><text fill="#000000" font-family="sans-serif" font-size="13" lengthAdjust="spacing" textLength="145" x="110.5" y="799.2178">setHeadTeacher(teacher)</text><polygon fill="#181818" points="273.5,861.7715,283.5,865.7715,273.5,869.7715,277.5,865.7715" style="stroke:#181818;stroke-width:1.0;"/><line style="stroke:#181818;stroke-width:1.0;" x1="103.5" x2="279.5" y1="865.7715" y2="865.7715"/><text fill="#000000" font-family="sans-serif" font-size="13" lengthAdjust="spacing" textLength="156" x="110.5" y="860.5088">saveTeacherAssignments()</text><polygon fill="#181818" points="457,893.0625,467,897.0625,457,901.0625,461,897.0625" style="stroke:#181818;stroke-width:1.0;"/><line style="stroke:#181818;stroke-width:1.0;" x1="295.5" x2="463" y1="897.0625" y2="897.0625"/><text fill="#000000" font-family="sans-serif" font-size="13" lengthAdjust="spacing" textLength="75" x="302.5" y="891.7998">repositories()</text><polygon fill="#181818" points="604,924.3535,614,928.3535,604,932.3535,608,928.3535" style="stroke:#181818;stroke-width:1.0;"/><line style="stroke:#181818;stroke-width:1.0;" x1="479" x2="610" y1="928.3535" y2="928.3535"/><text fill="#000000" font-family="sans-serif" font-size="13" lengthAdjust="spacing" textLength="36" x="486" y="923.0908">create</text><polygon fill="#181818" points="1092,955.6445,1102,959.6445,1092,963.6445,1096,959.6445" style="stroke:#181818;stroke-width:1.0;"/><line style="stroke:#181818;stroke-width:1.0;" x1="626" x2="1098" y1="959.6445" y2="959.6445"/><text fill="#000000" font-family="sans-serif" font-size="13" lengthAdjust="spacing" textLength="36" x="633" y="954.3818">create</text><path d="M177,1004.6445 L250,1004.6445 L250,1013.9355 L240,1023.9355 L177,1023.9355 L177,1004.6445 " fill="#EEEEEE" style="stroke:#000000;stroke-width:1.5;"/><rect fill="none" height="141.873" style="stroke:#000000;stroke-width:1.5;" width="1198" x="177" y="1004.6445"/><text fill="#000000" font-family="sans-serif" font-size="13" font-weight="bold" lengthAdjust="spacing" textLength="28" x="192" y="1019.6729">loop</text><polygon fill="#181818" points="1278,1043.2266,1288,1047.2266,1278,1051.2266,1282,1047.2266" style="stroke:#181818;stroke-width:1.0;"/><line style="stroke:#181818;stroke-width:1.0;" x1="295.5" x2="1284" y1="1047.2266" y2="1047.2266"/><text fill="#000000" font-family="sans-serif" font-size="13" lengthAdjust="spacing" textLength="396" x="302.5" y="1041.9639">newTeacherAssignment = create(teacherID, courseID, responsibility)</text><polygon fill="#181818" points="1092,1104.5176,1102,1108.5176,1092,1112.5176,1096,1108.5176" style="stroke:#181818;stroke-width:1.0;"/><line style="stroke:#181818;stroke-width:1.0;" x1="295.5" x2="1098" y1="1108.5176" y2="1108.5176"/><text fill="#000000" font-family="sans-serif" font-size="13" lengthAdjust="spacing" textLength="172" x="302.5" y="1103.2549">save(newTeacherAssignment)</text><!--SRC=[jPN9JiCm48RlVGghfrOYBn2LI5KHeXU48DnwCSwaZEJQbkq0VNjifzdTvG2N9EFnFyitJgAejiXGKM79VBLI6Wm8IorAaMKxaRw1tSXA6yY1ia_Gvdqx9zIG2cTgAALASMGNb1ifh9QSWmuHcDLy74EvRMWi20OXnajdUpNys21LR2miARDI7uFe5PGqwCt7UZLeT3dMw7PVaDN5cavTovovkQ9i6en8yzkaQsDmBmwEV2J6E4GX3nGTOx8J4taGMJfpZUCNjU3dL66IUTWfq-2MEb-OG053kzk-RmPe5ikHo5-IJB6qRGU7k_o4M9BfSfBKpK6NpkEvJfs1Tg-awKBPjroQKorrl195iURyLFQpj1ik3HJzoiwa256IhCBc74p0j5nCmsN1mcrvZUW0QNDO_ebf7cMQZnlERsMQDqpNtW-nwiyaw8WseWYP6PTI3T2UDYziVHzJ0b6Ge8d4hry3A2wSQPVW2MXn9KcapYu2RIbqhzrqcdyqpkWqnwmlppBGyjMG97EVXfG8-9uqGEv9dQb1idsu8_Nnza_khw2aCFY17EsnruJxrFJIEQixEO7K8fPiUQMTTiOzHuM_]--></g></svg>