<?xml version="1.0" encoding="us-ascii" standalone="no"?><svg xmlns="http://www.w3.org/2000/svg" xmlns:xlink="http://www.w3.org/1999/xlink" contentStyleType="text/css" height="782px" preserveAspectRatio="none" style="width:761px;height:782px;background:#FFFFFF;" version="1.1" viewBox="0 0 761 782" width="761px" zoomAndPan="magnify"><defs/><g><!--cluster ui--><g id="cluster_ui"><path d="M401.5,6.0137 L415.5,6.0137 A3.75,3.75 0 0 1 418,8.5137 L425,30.6348 L596.5,30.6348 A2.5,2.5 0 0 1 599,33.1348 L599,141.5137 A2.5,2.5 0 0 1 596.5,144.0137 L401.5,144.0137 A2.5,2.5 0 0 1 399,141.5137 L399,8.5137 A2.5,2.5 0 0 1 401.5,6.0137 " fill="none" style="stroke:#000000;stroke-width:1.5;"/><line style="stroke:#000000;stroke-width:1.5;" x1="399" x2="425" y1="30.6348" y2="30.6348"/><text fill="#000000" font-family="sans-serif" font-size="14" font-weight="bold" lengthAdjust="spacing" textLength="13" x="403" y="23.1211">ui</text></g><!--cluster controller--><g id="cluster_controller"><path d="M411.5,168.0137 L481.5,168.0137 A3.75,3.75 0 0 1 484,170.5137 L491,192.6348 L586.5,192.6348 A2.5,2.5 0 0 1 589,195.1348 L589,303.5137 A2.5,2.5 0 0 1 586.5,306.0137 L411.5,306.0137 A2.5,2.5 0 0 1 409,303.5137 L409,170.5137 A2.5,2.5 0 0 1 411.5,168.0137 " fill="none" style="stroke:#000000;stroke-width:1.5;"/><line style="stroke:#000000;stroke-width:1.5;" x1="409" x2="491" y1="192.6348" y2="192.6348"/><text fill="#000000" font-family="sans-serif" font-size="14" font-weight="bold" lengthAdjust="spacing" textLength="69" x="413" y="185.1211">controller</text></g><!--cluster service--><g id="cluster_service"><path d="M531.5,348.5137 L585.5,348.5137 A3.75,3.75 0 0 1 588,351.0137 L595,373.1348 L748.5,373.1348 A2.5,2.5 0 0 1 751,375.6348 L751,466.0137 A2.5,2.5 0 0 1 748.5,468.5137 L531.5,468.5137 A2.5,2.5 0 0 1 529,466.0137 L529,351.0137 A2.5,2.5 0 0 1 531.5,348.5137 " fill="none" style="stroke:#000000;stroke-width:1.5;"/><line style="stroke:#000000;stroke-width:1.5;" x1="529" x2="595" y1="373.1348" y2="373.1348"/><text fill="#000000" font-family="sans-serif" font-size="14" font-weight="bold" lengthAdjust="spacing" textLength="53" x="533" y="365.6211">service</text></g><!--cluster repositories--><g id="cluster_repositories"><path d="M533.5,511.0137 L620.5,511.0137 A3.75,3.75 0 0 1 623,513.5137 L630,535.6348 L746.5,535.6348 A2.5,2.5 0 0 1 749,538.1348 L749,628.5137 A2.5,2.5 0 0 1 746.5,631.0137 L533.5,631.0137 A2.5,2.5 0 0 1 531,628.5137 L531,513.5137 A2.5,2.5 0 0 1 533.5,511.0137 " fill="none" style="stroke:#000000;stroke-width:1.5;"/><line style="stroke:#000000;stroke-width:1.5;" x1="531" x2="630" y1="535.6348" y2="535.6348"/><text fill="#000000" font-family="sans-serif" font-size="14" font-weight="bold" lengthAdjust="spacing" textLength="86" x="535" y="528.1211">repositories</text></g><!--cluster persistence--><g id="cluster_persistence"><path d="M528.5,655.0137 L613.5,655.0137 A3.75,3.75 0 0 1 616,657.5137 L623,679.6348 L751.5,679.6348 A2.5,2.5 0 0 1 754,682.1348 L754,772.5137 A2.5,2.5 0 0 1 751.5,775.0137 L528.5,775.0137 A2.5,2.5 0 0 1 526,772.5137 L526,657.5137 A2.5,2.5 0 0 1 528.5,655.0137 " fill="none" style="stroke:#000000;stroke-width:1.5;"/><line style="stroke:#000000;stroke-width:1.5;" x1="526" x2="623" y1="679.6348" y2="679.6348"/><text fill="#000000" font-family="sans-serif" font-size="14" font-weight="bold" lengthAdjust="spacing" textLength="84" x="530" y="672.1211">persistence</text></g><!--cluster infrastructure--><g id="cluster_infrastructure"><path d="M8.5,330.0137 L106.5,330.0137 A3.75,3.75 0 0 1 109,332.5137 L116,354.6348 L502.5,354.6348 A2.5,2.5 0 0 1 505,357.1348 L505,484.5137 A2.5,2.5 0 0 1 502.5,487.0137 L8.5,487.0137 A2.5,2.5 0 0 1 6,484.5137 L6,332.5137 A2.5,2.5 0 0 1 8.5,330.0137 " fill="none" style="stroke:#000000;stroke-width:1.5;"/><line style="stroke:#000000;stroke-width:1.5;" x1="6" x2="116" y1="354.6348" y2="354.6348"/><text fill="#000000" font-family="sans-serif" font-size="14" font-weight="bold" lengthAdjust="spacing" textLength="97" x="10" y="347.1211">infrastructure</text></g><!--class AddUserUI--><g id="elem_AddUserUI"><rect codeLine="2" fill="#F1F1F1" height="85.2422" id="AddUserUI" rx="2.5" ry="2.5" style="stroke:#181818;stroke-width:0.5;" width="168" x="415" y="43.0137"/><ellipse cx="461.75" cy="59.0137" fill="#ADD1B2" rx="11" ry="11" style="stroke:#181818;stroke-width:1.0;"/><path d="M464.5156,54.8887 Q464.6719,54.6699 464.8594,54.5605 Q465.0469,54.4512 465.2656,54.4512 Q465.6406,54.4512 465.875,54.7168 Q466.1094,54.9668 466.1094,55.5762 L466.1094,57.0293 Q466.1094,57.6387 465.875,57.9043 Q465.6406,58.1699 465.2656,58.1699 Q464.9219,58.1699 464.7188,57.9668 Q464.5156,57.7793 464.4063,57.2637 Q464.3594,56.9043 464.1719,56.7168 Q463.8438,56.3418 463.2344,56.123 Q462.625,55.9043 462,55.9043 Q461.2344,55.9043 460.5938,56.2324 Q459.9688,56.5605 459.4688,57.3105 Q458.9844,58.0605 458.9844,59.0918 L458.9844,60.1855 Q458.9844,61.4199 459.875,62.248 Q460.7656,63.0605 462.3594,63.0605 Q463.2969,63.0605 463.9531,62.8105 Q464.3438,62.6543 464.7656,62.2168 Q465.0313,61.9512 465.1719,61.873 Q465.3281,61.7949 465.5313,61.7949 Q465.8594,61.7949 466.1094,62.0605 Q466.375,62.3105 466.375,62.6543 Q466.375,62.998 466.0313,63.4043 Q465.5313,63.9824 464.7344,64.3105 Q463.6563,64.7637 462.3594,64.7637 Q460.8438,64.7637 459.6406,64.1387 Q458.6563,63.6387 457.9688,62.5762 Q457.2813,61.498 457.2813,60.2168 L457.2813,59.0605 Q457.2813,57.7324 457.8906,56.5918 Q458.5156,55.4355 459.6094,54.8262 Q460.7031,54.2012 461.9375,54.2012 Q462.6719,54.2012 463.3125,54.373 Q463.9688,54.5293 464.5156,54.8887 Z " fill="#000000"/><text fill="#000000" font-family="sans-serif" font-size="14" lengthAdjust="spacing" textLength="66" x="482.25" y="64.8105">AddUserUI</text><line style="stroke:#181818;stroke-width:0.5;" x1="416" x2="582" y1="75.0137" y2="75.0137"/><line style="stroke:#181818;stroke-width:0.5;" x1="416" x2="582" y1="83.0137" y2="83.0137"/><ellipse cx="426" cy="97.8242" fill="#84BE84" rx="3" ry="3" style="stroke:#038048;stroke-width:1.0;"/><text fill="#000000" font-family="sans-serif" font-size="14" lengthAdjust="spacing" textLength="109" x="435" y="102.1211">showRoles(roles)</text><ellipse cx="426" cy="116.4453" fill="#84BE84" rx="3" ry="3" style="stroke:#038048;stroke-width:1.0;"/><text fill="#000000" font-family="sans-serif" font-size="14" lengthAdjust="spacing" textLength="142" x="435" y="120.7422">buildRolesMenu(roles)</text></g><!--class AddUserController--><g id="elem_AddUserController"><rect codeLine="9" fill="#F1F1F1" height="85.2422" id="AddUserController" rx="2.5" ry="2.5" style="stroke:#181818;stroke-width:0.5;" width="148" x="425" y="205.0137"/><ellipse cx="440" cy="221.0137" fill="#ADD1B2" rx="11" ry="11" style="stroke:#181818;stroke-width:1.0;"/><path d="M442.7656,216.8887 Q442.9219,216.6699 443.1094,216.5605 Q443.2969,216.4512 443.5156,216.4512 Q443.8906,216.4512 444.125,216.7168 Q444.3594,216.9668 444.3594,217.5762 L444.3594,219.0293 Q444.3594,219.6387 444.125,219.9043 Q443.8906,220.1699 443.5156,220.1699 Q443.1719,220.1699 442.9688,219.9668 Q442.7656,219.7793 442.6563,219.2637 Q442.6094,218.9043 442.4219,218.7168 Q442.0938,218.3418 441.4844,218.123 Q440.875,217.9043 440.25,217.9043 Q439.4844,217.9043 438.8438,218.2324 Q438.2188,218.5605 437.7188,219.3105 Q437.2344,220.0605 437.2344,221.0918 L437.2344,222.1855 Q437.2344,223.4199 438.125,224.248 Q439.0156,225.0605 440.6094,225.0605 Q441.5469,225.0605 442.2031,224.8105 Q442.5938,224.6543 443.0156,224.2168 Q443.2813,223.9512 443.4219,223.873 Q443.5781,223.7949 443.7813,223.7949 Q444.1094,223.7949 444.3594,224.0605 Q444.625,224.3105 444.625,224.6543 Q444.625,224.998 444.2813,225.4043 Q443.7813,225.9824 442.9844,226.3105 Q441.9063,226.7637 440.6094,226.7637 Q439.0938,226.7637 437.8906,226.1387 Q436.9063,225.6387 436.2188,224.5762 Q435.5313,223.498 435.5313,222.2168 L435.5313,221.0605 Q435.5313,219.7324 436.1406,218.5918 Q436.7656,217.4355 437.8594,216.8262 Q438.9531,216.2012 440.1875,216.2012 Q440.9219,216.2012 441.5625,216.373 Q442.2188,216.5293 442.7656,216.8887 Z " fill="#000000"/><text fill="#000000" font-family="sans-serif" font-size="14" lengthAdjust="spacing" textLength="116" x="454" y="226.8105">AddUserController</text><line style="stroke:#181818;stroke-width:0.5;" x1="426" x2="572" y1="237.0137" y2="237.0137"/><line style="stroke:#181818;stroke-width:0.5;" x1="426" x2="572" y1="245.0137" y2="245.0137"/><ellipse cx="436" cy="259.8242" fill="#84BE84" rx="3" ry="3" style="stroke:#038048;stroke-width:1.0;"/><text fill="#000000" font-family="sans-serif" font-size="14" lengthAdjust="spacing" textLength="91" x="445" y="264.1211">addUser(data)</text><ellipse cx="436" cy="278.4453" fill="#84BE84" rx="3" ry="3" style="stroke:#038048;stroke-width:1.0;"/><text fill="#000000" font-family="sans-serif" font-size="14" lengthAdjust="spacing" textLength="98" x="445" y="282.7422">getRoleTypes()</text></g><!--class UserManagementService--><g id="elem_UserManagementService"><rect codeLine="16" fill="#F1F1F1" height="66.6211" id="UserManagementService" rx="2.5" ry="2.5" style="stroke:#181818;stroke-width:0.5;" width="190" x="545" y="385.5137"/><ellipse cx="560" cy="401.5137" fill="#ADD1B2" rx="11" ry="11" style="stroke:#181818;stroke-width:1.0;"/><path d="M562.7656,397.3887 Q562.9219,397.1699 563.1094,397.0605 Q563.2969,396.9512 563.5156,396.9512 Q563.8906,396.9512 564.125,397.2168 Q564.3594,397.4668 564.3594,398.0762 L564.3594,399.5293 Q564.3594,400.1387 564.125,400.4043 Q563.8906,400.6699 563.5156,400.6699 Q563.1719,400.6699 562.9688,400.4668 Q562.7656,400.2793 562.6563,399.7637 Q562.6094,399.4043 562.4219,399.2168 Q562.0938,398.8418 561.4844,398.623 Q560.875,398.4043 560.25,398.4043 Q559.4844,398.4043 558.8438,398.7324 Q558.2188,399.0605 557.7188,399.8105 Q557.2344,400.5605 557.2344,401.5918 L557.2344,402.6855 Q557.2344,403.9199 558.125,404.748 Q559.0156,405.5605 560.6094,405.5605 Q561.5469,405.5605 562.2031,405.3105 Q562.5938,405.1543 563.0156,404.7168 Q563.2813,404.4512 563.4219,404.373 Q563.5781,404.2949 563.7813,404.2949 Q564.1094,404.2949 564.3594,404.5605 Q564.625,404.8105 564.625,405.1543 Q564.625,405.498 564.2813,405.9043 Q563.7813,406.4824 562.9844,406.8105 Q561.9063,407.2637 560.6094,407.2637 Q559.0938,407.2637 557.8906,406.6387 Q556.9063,406.1387 556.2188,405.0762 Q555.5313,403.998 555.5313,402.7168 L555.5313,401.5605 Q555.5313,400.2324 556.1406,399.0918 Q556.7656,397.9355 557.8594,397.3262 Q558.9531,396.7012 560.1875,396.7012 Q560.9219,396.7012 561.5625,396.873 Q562.2188,397.0293 562.7656,397.3887 Z " fill="#000000"/><text fill="#000000" font-family="sans-serif" font-size="14" lengthAdjust="spacing" textLength="158" x="574" y="407.3105">UserManagementService</text><line style="stroke:#181818;stroke-width:0.5;" x1="546" x2="734" y1="417.5137" y2="417.5137"/><line style="stroke:#181818;stroke-width:0.5;" x1="546" x2="734" y1="425.5137" y2="425.5137"/><ellipse cx="556" cy="440.3242" fill="#84BE84" rx="3" ry="3" style="stroke:#038048;stroke-width:1.0;"/><text fill="#000000" font-family="sans-serif" font-size="14" lengthAdjust="spacing" textLength="141" x="565" y="444.6211">registerNewUser(data)</text></g><!--class UserRepository--><g id="elem_UserRepository"><rect codeLine="22" fill="#F1F1F1" height="66.6211" id="UserRepository" rx="2.5" ry="2.5" style="stroke:#181818;stroke-width:0.5;" width="185" x="547.5" y="548.0137"/><ellipse cx="587.7" cy="564.0137" fill="#ADD1B2" rx="11" ry="11" style="stroke:#181818;stroke-width:1.0;"/><path d="M590.4656,559.8887 Q590.6219,559.6699 590.8094,559.5605 Q590.9969,559.4512 591.2156,559.4512 Q591.5906,559.4512 591.825,559.7168 Q592.0594,559.9668 592.0594,560.5762 L592.0594,562.0293 Q592.0594,562.6387 591.825,562.9043 Q591.5906,563.1699 591.2156,563.1699 Q590.8719,563.1699 590.6688,562.9668 Q590.4656,562.7793 590.3563,562.2637 Q590.3094,561.9043 590.1219,561.7168 Q589.7938,561.3418 589.1844,561.123 Q588.575,560.9043 587.95,560.9043 Q587.1844,560.9043 586.5438,561.2324 Q585.9188,561.5605 585.4188,562.3105 Q584.9344,563.0605 584.9344,564.0918 L584.9344,565.1855 Q584.9344,566.4199 585.825,567.248 Q586.7156,568.0605 588.3094,568.0605 Q589.2469,568.0605 589.9031,567.8105 Q590.2938,567.6543 590.7156,567.2168 Q590.9813,566.9512 591.1219,566.873 Q591.2781,566.7949 591.4813,566.7949 Q591.8094,566.7949 592.0594,567.0605 Q592.325,567.3105 592.325,567.6543 Q592.325,567.998 591.9813,568.4043 Q591.4813,568.9824 590.6844,569.3105 Q589.6063,569.7637 588.3094,569.7637 Q586.7938,569.7637 585.5906,569.1387 Q584.6063,568.6387 583.9188,567.5762 Q583.2313,566.498 583.2313,565.2168 L583.2313,564.0605 Q583.2313,562.7324 583.8406,561.5918 Q584.4656,560.4355 585.5594,559.8262 Q586.6531,559.2012 587.8875,559.2012 Q588.6219,559.2012 589.2625,559.373 Q589.9188,559.5293 590.4656,559.8887 Z " fill="#000000"/><text fill="#000000" font-family="sans-serif" font-size="14" lengthAdjust="spacing" textLength="97" x="607.3" y="569.8105">UserRepository</text><line style="stroke:#181818;stroke-width:0.5;" x1="548.5" x2="731.5" y1="580.0137" y2="580.0137"/><line style="stroke:#181818;stroke-width:0.5;" x1="548.5" x2="731.5" y1="588.0137" y2="588.0137"/><ellipse cx="558.5" cy="602.8242" fill="#84BE84" rx="3" ry="3" style="stroke:#038048;stroke-width:1.0;"/><text fill="#000000" font-family="sans-serif" font-size="14" lengthAdjust="spacing" textLength="159" x="567.5" y="607.1211">findCourseByState(state)</text></g><!--class JpaAutoTxUserRepository--><g id="elem_JpaAutoTxUserRepository"><rect codeLine="28" fill="#F1F1F1" height="66.6211" id="JpaAutoTxUserRepository" rx="2.5" ry="2.5" style="stroke:#181818;stroke-width:0.5;" width="195" x="542.5" y="692.0137"/><ellipse cx="557.5" cy="708.0137" fill="#ADD1B2" rx="11" ry="11" style="stroke:#181818;stroke-width:1.0;"/><path d="M560.2656,703.8887 Q560.4219,703.6699 560.6094,703.5605 Q560.7969,703.4512 561.0156,703.4512 Q561.3906,703.4512 561.625,703.7168 Q561.8594,703.9668 561.8594,704.5762 L561.8594,706.0293 Q561.8594,706.6387 561.625,706.9043 Q561.3906,707.1699 561.0156,707.1699 Q560.6719,707.1699 560.4688,706.9668 Q560.2656,706.7793 560.1563,706.2637 Q560.1094,705.9043 559.9219,705.7168 Q559.5938,705.3418 558.9844,705.123 Q558.375,704.9043 557.75,704.9043 Q556.9844,704.9043 556.3438,705.2324 Q555.7188,705.5605 555.2188,706.3105 Q554.7344,707.0605 554.7344,708.0918 L554.7344,709.1855 Q554.7344,710.4199 555.625,711.248 Q556.5156,712.0605 558.1094,712.0605 Q559.0469,712.0605 559.7031,711.8105 Q560.0938,711.6543 560.5156,711.2168 Q560.7813,710.9512 560.9219,710.873 Q561.0781,710.7949 561.2813,710.7949 Q561.6094,710.7949 561.8594,711.0605 Q562.125,711.3105 562.125,711.6543 Q562.125,711.998 561.7813,712.4043 Q561.2813,712.9824 560.4844,713.3105 Q559.4063,713.7637 558.1094,713.7637 Q556.5938,713.7637 555.3906,713.1387 Q554.4063,712.6387 553.7188,711.5762 Q553.0313,710.498 553.0313,709.2168 L553.0313,708.0605 Q553.0313,706.7324 553.6406,705.5918 Q554.2656,704.4355 555.3594,703.8262 Q556.4531,703.2012 557.6875,703.2012 Q558.4219,703.2012 559.0625,703.373 Q559.7188,703.5293 560.2656,703.8887 Z " fill="#000000"/><text fill="#000000" font-family="sans-serif" font-size="14" lengthAdjust="spacing" textLength="163" x="571.5" y="713.8105">JpaAutoTxUserRepository</text><line style="stroke:#181818;stroke-width:0.5;" x1="543.5" x2="736.5" y1="724.0137" y2="724.0137"/><line style="stroke:#181818;stroke-width:0.5;" x1="543.5" x2="736.5" y1="732.0137" y2="732.0137"/><ellipse cx="553.5" cy="746.8242" fill="#84BE84" rx="3" ry="3" style="stroke:#038048;stroke-width:1.0;"/><text fill="#000000" font-family="sans-serif" font-size="14" lengthAdjust="spacing" textLength="68" x="562.5" y="751.1211">save(user)</text></g><!--class AuthorizationService--><g id="elem_AuthorizationService"><rect codeLine="35" fill="#F1F1F1" height="66.6211" id="AuthorizationService" rx="2.5" ry="2.5" style="stroke:#181818;stroke-width:0.5;" width="259" x="229.5" y="385.5137"/><ellipse cx="290.25" cy="401.5137" fill="#ADD1B2" rx="11" ry="11" style="stroke:#181818;stroke-width:1.0;"/><path d="M293.0156,397.3887 Q293.1719,397.1699 293.3594,397.0605 Q293.5469,396.9512 293.7656,396.9512 Q294.1406,396.9512 294.375,397.2168 Q294.6094,397.4668 294.6094,398.0762 L294.6094,399.5293 Q294.6094,400.1387 294.375,400.4043 Q294.1406,400.6699 293.7656,400.6699 Q293.4219,400.6699 293.2188,400.4668 Q293.0156,400.2793 292.9063,399.7637 Q292.8594,399.4043 292.6719,399.2168 Q292.3438,398.8418 291.7344,398.623 Q291.125,398.4043 290.5,398.4043 Q289.7344,398.4043 289.0938,398.7324 Q288.4688,399.0605 287.9688,399.8105 Q287.4844,400.5605 287.4844,401.5918 L287.4844,402.6855 Q287.4844,403.9199 288.375,404.748 Q289.2656,405.5605 290.8594,405.5605 Q291.7969,405.5605 292.4531,405.3105 Q292.8438,405.1543 293.2656,404.7168 Q293.5313,404.4512 293.6719,404.373 Q293.8281,404.2949 294.0313,404.2949 Q294.3594,404.2949 294.6094,404.5605 Q294.875,404.8105 294.875,405.1543 Q294.875,405.498 294.5313,405.9043 Q294.0313,406.4824 293.2344,406.8105 Q292.1563,407.2637 290.8594,407.2637 Q289.3438,407.2637 288.1406,406.6387 Q287.1563,406.1387 286.4688,405.0762 Q285.7813,403.998 285.7813,402.7168 L285.7813,401.5605 Q285.7813,400.2324 286.3906,399.0918 Q287.0156,397.9355 288.1094,397.3262 Q289.2031,396.7012 290.4375,396.7012 Q291.1719,396.7012 291.8125,396.873 Q292.4688,397.0293 293.0156,397.3887 Z " fill="#000000"/><text fill="#000000" font-family="sans-serif" font-size="14" lengthAdjust="spacing" textLength="129" x="310.75" y="407.3105">AuthorizationService</text><line style="stroke:#181818;stroke-width:0.5;" x1="230.5" x2="487.5" y1="417.5137" y2="417.5137"/><line style="stroke:#181818;stroke-width:0.5;" x1="230.5" x2="487.5" y1="425.5137" y2="425.5137"/><ellipse cx="240.5" cy="440.3242" fill="#84BE84" rx="3" ry="3" style="stroke:#038048;stroke-width:1.0;"/><text fill="#000000" font-family="sans-serif" font-size="14" lengthAdjust="spacing" textLength="233" x="249.5" y="444.6211">ensureAuthenticatedUserHasAnyOf()</text></g><!--class AuthzRegistry--><g id="elem_AuthzRegistry"><rect codeLine="38" fill="#F1F1F1" height="103.8633" id="AuthzRegistry" rx="2.5" ry="2.5" style="stroke:#181818;stroke-width:0.5;" width="172" x="22" y="367.0137"/><ellipse cx="60.85" cy="383.0137" fill="#ADD1B2" rx="11" ry="11" style="stroke:#181818;stroke-width:1.0;"/><path d="M63.6156,378.8887 Q63.7719,378.6699 63.9594,378.5605 Q64.1469,378.4512 64.3656,378.4512 Q64.7406,378.4512 64.975,378.7168 Q65.2094,378.9668 65.2094,379.5762 L65.2094,381.0293 Q65.2094,381.6387 64.975,381.9043 Q64.7406,382.1699 64.3656,382.1699 Q64.0219,382.1699 63.8188,381.9668 Q63.6156,381.7793 63.5063,381.2637 Q63.4594,380.9043 63.2719,380.7168 Q62.9438,380.3418 62.3344,380.123 Q61.725,379.9043 61.1,379.9043 Q60.3344,379.9043 59.6938,380.2324 Q59.0688,380.5605 58.5688,381.3105 Q58.0844,382.0605 58.0844,383.0918 L58.0844,384.1855 Q58.0844,385.4199 58.975,386.248 Q59.8656,387.0605 61.4594,387.0605 Q62.3969,387.0605 63.0531,386.8105 Q63.4438,386.6543 63.8656,386.2168 Q64.1313,385.9512 64.2719,385.873 Q64.4281,385.7949 64.6313,385.7949 Q64.9594,385.7949 65.2094,386.0605 Q65.475,386.3105 65.475,386.6543 Q65.475,386.998 65.1313,387.4043 Q64.6313,387.9824 63.8344,388.3105 Q62.7563,388.7637 61.4594,388.7637 Q59.9438,388.7637 58.7406,388.1387 Q57.7563,387.6387 57.0688,386.5762 Q56.3813,385.498 56.3813,384.2168 L56.3813,383.0605 Q56.3813,381.7324 56.9906,380.5918 Q57.6156,379.4355 58.7094,378.8262 Q59.8031,378.2012 61.0375,378.2012 Q61.7719,378.2012 62.4125,378.373 Q63.0688,378.5293 63.6156,378.8887 Z " fill="#000000"/><text fill="#000000" font-family="sans-serif" font-size="14" lengthAdjust="spacing" textLength="87" x="80.15" y="388.8105">AuthzRegistry</text><line style="stroke:#181818;stroke-width:0.5;" x1="23" x2="193" y1="399.0137" y2="399.0137"/><line style="stroke:#181818;stroke-width:0.5;" x1="23" x2="193" y1="407.0137" y2="407.0137"/><ellipse cx="33" cy="421.8242" fill="#84BE84" rx="3" ry="3" style="stroke:#038048;stroke-width:1.0;"/><text fill="#000000" font-family="sans-serif" font-size="14" lengthAdjust="spacing" textLength="85" x="42" y="426.1211">userService()</text><ellipse cx="33" cy="440.4453" fill="#84BE84" rx="3" ry="3" style="stroke:#038048;stroke-width:1.0;"/><text fill="#000000" font-family="sans-serif" font-size="14" lengthAdjust="spacing" textLength="146" x="42" y="444.7422">authenticationService()</text><ellipse cx="33" cy="459.0664" fill="#84BE84" rx="3" ry="3" style="stroke:#038048;stroke-width:1.0;"/><text fill="#000000" font-family="sans-serif" font-size="14" lengthAdjust="spacing" textLength="138" x="42" y="463.3633">authorizationService()</text></g><!--link AddUserUI to AddUserController--><g id="link_AddUserUI_AddUserController"><path codeLine="46" d="M499,128.1337 C499,150.0837 499,177.0837 499,199.7537 " fill="none" id="AddUserUI-to-AddUserController" style="stroke:#181818;stroke-width:1.0;stroke-dasharray:7.0,7.0;"/><polygon fill="#181818" points="499,204.8237,503,195.8237,499,199.8237,495,195.8237,499,204.8237" style="stroke:#181818;stroke-width:1.0;"/></g><!--link AddUserController to UserManagementService--><g id="link_AddUserController_UserManagementService"><path codeLine="47" d="M533.85,290.4137 C557.09,318.3537 587.35,354.7237 609.61,381.4837 " fill="none" id="AddUserController-to-UserManagementService" style="stroke:#181818;stroke-width:1.0;"/><polygon fill="#181818" points="612.83,385.3537,610.1447,375.878,609.6305,381.5114,603.997,380.9972,612.83,385.3537" style="stroke:#181818;stroke-width:1.0;"/></g><!--link UserManagementService to UserRepository--><g id="link_UserManagementService_UserRepository"><path codeLine="48" d="M640,452.8837 C640,478.9337 640,515.3637 640,542.6337 " fill="none" id="UserManagementService-to-UserRepository" style="stroke:#181818;stroke-width:1.0;"/><polygon fill="#181818" points="640,547.9637,644,538.9637,640,542.9637,636,538.9637,640,547.9637" style="stroke:#181818;stroke-width:1.0;"/></g><!--link AddUserController to AuthorizationService--><g id="link_AddUserController_AuthorizationService"><path codeLine="49" d="M464.39,290.4137 C441.32,318.3537 411.28,354.7237 389.18,381.4837 " fill="none" id="AddUserController-to-AuthorizationService" style="stroke:#181818;stroke-width:1.0;"/><polygon fill="#181818" points="385.97,385.3537,394.7854,380.9617,389.154,381.4986,388.6172,375.8672,385.97,385.3537" style="stroke:#181818;stroke-width:1.0;"/></g><!--link AuthzRegistry to AuthorizationService--><g id="link_AuthzRegistry_AuthorizationService"><path codeLine="50" d="M194.28,419.0137 C204.24,419.0137 214.19,419.0137 224.14,419.0137 " fill="none" id="AuthzRegistry-to-AuthorizationService" style="stroke:#181818;stroke-width:1.0;"/><polygon fill="#181818" points="229.35,419.0137,220.35,415.0137,224.35,419.0137,220.35,423.0137,229.35,419.0137" style="stroke:#181818;stroke-width:1.0;"/></g><!--link UserRepository to JpaAutoTxUserRepository--><g id="link_UserRepository_JpaAutoTxUserRepository"><path codeLine="51" d="M640,615.0937 C640,636.3137 640,664.0937 640,686.3537 " fill="none" id="UserRepository-to-JpaAutoTxUserRepository" style="stroke:#181818;stroke-width:1.0;"/><polygon fill="#181818" points="640,691.5937,644,682.5937,640,686.5937,636,682.5937,640,691.5937" style="stroke:#181818;stroke-width:1.0;"/></g><!--SRC=[TP9DRi8m48NtFeMNgI8u0bBAfgr4A_5pW6ao1Al1ZZmsD5JSlJO9pdyMNioRVEzvnYMaFv0ZjuB_CUw-j00YdcJPWL0VtkjYJ2TrtQe2ATB-VAchtrOKsQEyGMcxqftT6IiRTggaSLg1UifZ7TJ62-fwb861nYX7ustsLUaIJ3Yuzej8iOVtZ0r89vzHcbtTKJTufCPSa47zYTU1sn2kiLGaZD82QUImVOfLa_uePBPMLXE-LZi31YFovqJe4ZNv278G_AE4n1gr_-tp-NCLSC78Egc334mXZnh8Q9iQg_jOnpovEzp022LtlO75ACcr-mutAf6wl8yLl04bilewXf7tQRVjOuRXwZvK0sx-YA55jgvTSPWeMFbhXLV8bylL-BsmKOKl5glfnRF9QkXlnpm3dPeUwms1ptKDrkXfCojc_m00]--></g></svg>