<?xml version="1.0" encoding="us-ascii" standalone="no"?><svg xmlns="http://www.w3.org/2000/svg" xmlns:xlink="http://www.w3.org/1999/xlink" contentStyleType="text/css" height="838px" preserveAspectRatio="none" style="width:1471px;height:838px;background:#FFFFFF;" version="1.1" viewBox="0 0 1471 838" width="1471px" zoomAndPan="magnify"><defs/><g><rect fill="#FFFFFF" height="652.8203" style="stroke:#181818;stroke-width:1.0;" width="10" x="36" y="93.6211"/><rect fill="#FFFFFF" height="652.8203" style="stroke:#181818;stroke-width:1.0;" width="10" x="36" y="93.6211"/><rect fill="#FFFFFF" height="31.291" style="stroke:#181818;stroke-width:1.0;" width="10" x="488" y="116.9121"/><rect fill="#FFFFFF" height="245.0371" style="stroke:#181818;stroke-width:1.0;" width="10" x="488" y="179.4941"/><rect fill="#FFFFFF" height="281.6191" style="stroke:#181818;stroke-width:1.0;" width="10" x="488" y="455.8223"/><rect fill="#FFFFFF" height="93.873" style="stroke:#181818;stroke-width:1.0;" width="10" x="683" y="299.3672"/><rect fill="#FFFFFF" height="219.0371" style="stroke:#181818;stroke-width:1.0;" width="10" x="683" y="487.1133"/><rect fill="#FFFFFF" height="31.291" style="stroke:#181818;stroke-width:1.0;" width="10" x="819" y="330.6582"/><rect fill="#FFFFFF" height="31.291" style="stroke:#181818;stroke-width:1.0;" width="10" x="1076" y="518.4043"/><rect fill="#FFFFFF" height="93.873" style="stroke:#181818;stroke-width:1.0;" width="10" x="1247.5" y="580.9863"/><rect fill="#FFFFFF" height="31.291" style="stroke:#181818;stroke-width:1.0;" width="10" x="1403" y="612.2773"/><line style="stroke:#181818;stroke-width:0.5;stroke-dasharray:5.0,5.0;" x1="36" x2="36" y1="83.6211" y2="755.4414"/><line style="stroke:#181818;stroke-width:0.5;stroke-dasharray:5.0,5.0;" x1="493" x2="493" y1="83.6211" y2="755.4414"/><line style="stroke:#181818;stroke-width:0.5;stroke-dasharray:5.0,5.0;" x1="688" x2="688" y1="83.6211" y2="755.4414"/><line style="stroke:#181818;stroke-width:0.5;stroke-dasharray:5.0,5.0;" x1="824" x2="824" y1="83.6211" y2="755.4414"/><line style="stroke:#181818;stroke-width:0.5;stroke-dasharray:5.0,5.0;" x1="1080.5" x2="1080.5" y1="83.6211" y2="755.4414"/><line style="stroke:#181818;stroke-width:0.5;stroke-dasharray:5.0,5.0;" x1="1252.5" x2="1252.5" y1="83.6211" y2="755.4414"/><line style="stroke:#181818;stroke-width:0.5;stroke-dasharray:5.0,5.0;" x1="1407.5" x2="1407.5" y1="83.6211" y2="755.4414"/><text fill="#000000" font-family="sans-serif" font-size="14" lengthAdjust="spacing" textLength="56" x="5" y="80.1074">Manager</text><ellipse cx="36" cy="13.5" fill="#E2E2F0" rx="8" ry="8" style="stroke:#181818;stroke-width:0.5;"/><path d="M36,21.5 L36,48.5 M23,29.5 L49,29.5 M36,48.5 L23,63.5 M36,48.5 L49,63.5 " fill="none" style="stroke:#181818;stroke-width:0.5;"/><text fill="#000000" font-family="sans-serif" font-size="14" lengthAdjust="spacing" textLength="56" x="5" y="769.5488">Manager</text><ellipse cx="36" cy="781.5625" fill="#E2E2F0" rx="8" ry="8" style="stroke:#181818;stroke-width:0.5;"/><path d="M36,789.5625 L36,816.5625 M23,797.5625 L49,797.5625 M36,816.5625 L23,831.5625 M36,816.5625 L49,831.5625 " fill="none" style="stroke:#181818;stroke-width:0.5;"/><rect fill="#E2E2F0" height="32.6211" rx="2.5" ry="2.5" style="stroke:#181818;stroke-width:0.5;" width="84" x="451" y="50"/><text fill="#000000" font-family="sans-serif" font-size="14" lengthAdjust="spacing" textLength="70" x="458" y="72.1074">:AddUserUI</text><rect fill="#E2E2F0" height="32.6211" rx="2.5" ry="2.5" style="stroke:#181818;stroke-width:0.5;" width="84" x="451" y="754.4414"/><text fill="#000000" font-family="sans-serif" font-size="14" lengthAdjust="spacing" textLength="70" x="458" y="776.5488">:AddUserUI</text><rect fill="#E2E2F0" height="32.6211" rx="2.5" ry="2.5" style="stroke:#181818;stroke-width:0.5;" width="134" x="621" y="50"/><text fill="#000000" font-family="sans-serif" font-size="14" lengthAdjust="spacing" textLength="120" x="628" y="72.1074">:AddUserController</text><rect fill="#E2E2F0" height="32.6211" rx="2.5" ry="2.5" style="stroke:#181818;stroke-width:0.5;" width="134" x="621" y="754.4414"/><text fill="#000000" font-family="sans-serif" font-size="14" lengthAdjust="spacing" textLength="120" x="628" y="776.5488">:AddUserController</text><rect fill="#E2E2F0" height="32.6211" rx="2.5" ry="2.5" style="stroke:#181818;stroke-width:0.5;" width="86" x="781" y="50"/><text fill="#000000" font-family="sans-serif" font-size="14" lengthAdjust="spacing" textLength="72" x="788" y="72.1074">:BaseRoles</text><rect fill="#E2E2F0" height="32.6211" rx="2.5" ry="2.5" style="stroke:#181818;stroke-width:0.5;" width="86" x="781" y="754.4414"/><text fill="#000000" font-family="sans-serif" font-size="14" lengthAdjust="spacing" textLength="72" x="788" y="776.5488">:BaseRoles</text><rect fill="#E2E2F0" height="32.6211" rx="2.5" ry="2.5" style="stroke:#181818;stroke-width:0.5;" width="147" x="1007.5" y="50"/><text fill="#000000" font-family="sans-serif" font-size="14" lengthAdjust="spacing" textLength="133" x="1014.5" y="72.1074">:AuthorizationService</text><rect fill="#E2E2F0" height="32.6211" rx="2.5" ry="2.5" style="stroke:#181818;stroke-width:0.5;" width="147" x="1007.5" y="754.4414"/><text fill="#000000" font-family="sans-serif" font-size="14" lengthAdjust="spacing" textLength="133" x="1014.5" y="776.5488">:AuthorizationService</text><rect fill="#E2E2F0" height="32.6211" rx="2.5" ry="2.5" style="stroke:#181818;stroke-width:0.5;" width="176" x="1164.5" y="50"/><text fill="#000000" font-family="sans-serif" font-size="14" lengthAdjust="spacing" textLength="162" x="1171.5" y="72.1074">:UserManagementService</text><rect fill="#E2E2F0" height="32.6211" rx="2.5" ry="2.5" style="stroke:#181818;stroke-width:0.5;" width="176" x="1164.5" y="754.4414"/><text fill="#000000" font-family="sans-serif" font-size="14" lengthAdjust="spacing" textLength="162" x="1171.5" y="776.5488">:UserManagementService</text><rect fill="#E2E2F0" height="32.6211" rx="2.5" ry="2.5" style="stroke:#181818;stroke-width:0.5;" width="115" x="1350.5" y="50"/><text fill="#000000" font-family="sans-serif" font-size="14" lengthAdjust="spacing" textLength="101" x="1357.5" y="72.1074">:UserRepository</text><rect fill="#E2E2F0" height="32.6211" rx="2.5" ry="2.5" style="stroke:#181818;stroke-width:0.5;" width="115" x="1350.5" y="754.4414"/><text fill="#000000" font-family="sans-serif" font-size="14" lengthAdjust="spacing" textLength="101" x="1357.5" y="776.5488">:UserRepository</text><rect fill="#FFFFFF" height="652.8203" style="stroke:#181818;stroke-width:1.0;" width="10" x="36" y="93.6211"/><rect fill="#FFFFFF" height="652.8203" style="stroke:#181818;stroke-width:1.0;" width="10" x="36" y="93.6211"/><rect fill="#FFFFFF" height="31.291" style="stroke:#181818;stroke-width:1.0;" width="10" x="488" y="116.9121"/><rect fill="#FFFFFF" height="245.0371" style="stroke:#181818;stroke-width:1.0;" width="10" x="488" y="179.4941"/><rect fill="#FFFFFF" height="281.6191" style="stroke:#181818;stroke-width:1.0;" width="10" x="488" y="455.8223"/><rect fill="#FFFFFF" height="93.873" style="stroke:#181818;stroke-width:1.0;" width="10" x="683" y="299.3672"/><rect fill="#FFFFFF" height="219.0371" style="stroke:#181818;stroke-width:1.0;" width="10" x="683" y="487.1133"/><rect fill="#FFFFFF" height="31.291" style="stroke:#181818;stroke-width:1.0;" width="10" x="819" y="330.6582"/><rect fill="#FFFFFF" height="31.291" style="stroke:#181818;stroke-width:1.0;" width="10" x="1076" y="518.4043"/><rect fill="#FFFFFF" height="93.873" style="stroke:#181818;stroke-width:1.0;" width="10" x="1247.5" y="580.9863"/><rect fill="#FFFFFF" height="31.291" style="stroke:#181818;stroke-width:1.0;" width="10" x="1403" y="612.2773"/><polygon fill="#181818" points="476,112.9121,486,116.9121,476,120.9121,480,116.9121" style="stroke:#181818;stroke-width:1.0;"/><line style="stroke:#181818;stroke-width:1.0;" x1="46" x2="482" y1="116.9121" y2="116.9121"/><text fill="#000000" font-family="sans-serif" font-size="13" font-weight="bold" lengthAdjust="spacing" textLength="7" x="185.5" y="111.6494">1</text><text fill="#000000" font-family="sans-serif" font-size="13" lengthAdjust="spacing" textLength="152" x="196.5" y="111.6494">asks to create a new User</text><polygon fill="#181818" points="57,144.2031,47,148.2031,57,152.2031,53,148.2031" style="stroke:#181818;stroke-width:1.0;"/><line style="stroke:#181818;stroke-width:1.0;" x1="51" x2="492" y1="148.2031" y2="148.2031"/><text fill="#000000" font-family="sans-serif" font-size="13" font-weight="bold" lengthAdjust="spacing" textLength="7" x="60.5" y="142.9404">2</text><text fill="#000000" font-family="sans-serif" font-size="13" lengthAdjust="spacing" textLength="407" x="71.5" y="142.9404">requests data (Username, Password, First Name, Last Name, E-Mail )</text><polygon fill="#181818" points="476,175.4941,486,179.4941,476,183.4941,480,179.4941" style="stroke:#181818;stroke-width:1.0;"/><line style="stroke:#181818;stroke-width:1.0;" x1="46" x2="482" y1="179.4941" y2="179.4941"/><text fill="#000000" font-family="sans-serif" font-size="13" font-weight="bold" lengthAdjust="spacing" textLength="7" x="204" y="174.2314">3</text><text fill="#000000" font-family="sans-serif" font-size="13" lengthAdjust="spacing" textLength="115" x="215" y="174.2314">type requested data</text><line style="stroke:#181818;stroke-width:1.0;" x1="498" x2="540" y1="210.7852" y2="210.7852"/><line style="stroke:#181818;stroke-width:1.0;" x1="540" x2="540" y1="210.7852" y2="223.7852"/><line style="stroke:#181818;stroke-width:1.0;" x1="499" x2="540" y1="223.7852" y2="223.7852"/><polygon fill="#181818" points="509,219.7852,499,223.7852,509,227.7852,505,223.7852" style="stroke:#181818;stroke-width:1.0;"/><text fill="#000000" font-family="sans-serif" font-size="13" font-weight="bold" lengthAdjust="spacing" textLength="7" x="505" y="205.5225">4</text><text fill="#000000" font-family="sans-serif" font-size="13" lengthAdjust="spacing" textLength="127" x="516" y="205.5225">showRoles(roleTypes)</text><line style="stroke:#181818;stroke-width:1.0;" x1="498" x2="540" y1="255.0762" y2="255.0762"/><line style="stroke:#181818;stroke-width:1.0;" x1="540" x2="540" y1="255.0762" y2="268.0762"/><line style="stroke:#181818;stroke-width:1.0;" x1="499" x2="540" y1="268.0762" y2="268.0762"/><polygon fill="#181818" points="509,264.0762,499,268.0762,509,272.0762,505,268.0762" style="stroke:#181818;stroke-width:1.0;"/><text fill="#000000" font-family="sans-serif" font-size="13" font-weight="bold" lengthAdjust="spacing" textLength="7" x="505" y="249.8135">5</text><text fill="#000000" font-family="sans-serif" font-size="13" lengthAdjust="spacing" textLength="160" x="516" y="249.8135">buildRolesMenu(roleTypes);</text><polygon fill="#181818" points="671,295.3672,681,299.3672,671,303.3672,675,299.3672" style="stroke:#181818;stroke-width:1.0;"/><line style="stroke:#181818;stroke-width:1.0;" x1="498" x2="677" y1="299.3672" y2="299.3672"/><text fill="#000000" font-family="sans-serif" font-size="13" font-weight="bold" lengthAdjust="spacing" textLength="7" x="541.5" y="294.1045">6</text><text fill="#000000" font-family="sans-serif" font-size="13" lengthAdjust="spacing" textLength="87" x="552.5" y="294.1045">getRoleTypes()</text><polygon fill="#181818" points="807,326.6582,817,330.6582,807,334.6582,811,330.6582" style="stroke:#181818;stroke-width:1.0;"/><line style="stroke:#181818;stroke-width:1.0;" x1="693" x2="813" y1="330.6582" y2="330.6582"/><text fill="#000000" font-family="sans-serif" font-size="13" font-weight="bold" lengthAdjust="spacing" textLength="7" x="702.5" y="325.3955">7</text><text fill="#000000" font-family="sans-serif" font-size="13" lengthAdjust="spacing" textLength="96" x="713.5" y="325.3955">nonUserValues()</text><polygon fill="#181818" points="704,357.9492,694,361.9492,704,365.9492,700,361.9492" style="stroke:#181818;stroke-width:1.0;"/><line style="stroke:#181818;stroke-width:1.0;" x1="698" x2="823" y1="361.9492" y2="361.9492"/><text fill="#000000" font-family="sans-serif" font-size="13" font-weight="bold" lengthAdjust="spacing" textLength="7" x="732" y="356.6865">8</text><text fill="#000000" font-family="sans-serif" font-size="13" lengthAdjust="spacing" textLength="42" x="743" y="356.6865">roleList</text><polygon fill="#181818" points="509,389.2402,499,393.2402,509,397.2402,505,393.2402" style="stroke:#181818;stroke-width:1.0;"/><line style="stroke:#181818;stroke-width:1.0;" x1="503" x2="687" y1="393.2402" y2="393.2402"/><text fill="#000000" font-family="sans-serif" font-size="13" font-weight="bold" lengthAdjust="spacing" textLength="7" x="566.5" y="387.9775">9</text><text fill="#000000" font-family="sans-serif" font-size="13" lengthAdjust="spacing" textLength="42" x="577.5" y="387.9775">roleList</text><polygon fill="#181818" points="57,420.5313,47,424.5313,57,428.5313,53,424.5313" style="stroke:#181818;stroke-width:1.0;"/><line style="stroke:#181818;stroke-width:1.0;" x1="51" x2="492" y1="424.5313" y2="424.5313"/><text fill="#000000" font-family="sans-serif" font-size="13" font-weight="bold" lengthAdjust="spacing" textLength="14" x="223" y="419.2686">10</text><text fill="#000000" font-family="sans-serif" font-size="13" lengthAdjust="spacing" textLength="75" x="241" y="419.2686">requests role</text><polygon fill="#181818" points="476,451.8223,486,455.8223,476,459.8223,480,455.8223" style="stroke:#181818;stroke-width:1.0;"/><line style="stroke:#181818;stroke-width:1.0;" x1="46" x2="482" y1="455.8223" y2="455.8223"/><text fill="#000000" font-family="sans-serif" font-size="13" font-weight="bold" lengthAdjust="spacing" textLength="14" x="222.5" y="450.5596">11</text><text fill="#000000" font-family="sans-serif" font-size="13" lengthAdjust="spacing" textLength="71" x="240.5" y="450.5596">select a role</text><polygon fill="#181818" points="671,483.1133,681,487.1133,671,491.1133,675,487.1133" style="stroke:#181818;stroke-width:1.0;"/><line style="stroke:#181818;stroke-width:1.0;" x1="498" x2="677" y1="487.1133" y2="487.1133"/><text fill="#000000" font-family="sans-serif" font-size="13" font-weight="bold" lengthAdjust="spacing" textLength="14" x="541" y="481.8506">12</text><text fill="#000000" font-family="sans-serif" font-size="13" lengthAdjust="spacing" textLength="81" x="559" y="481.8506">addUser(data)</text><polygon fill="#181818" points="1064,514.4043,1074,518.4043,1064,522.4043,1068,518.4043" style="stroke:#181818;stroke-width:1.0;"/><line style="stroke:#181818;stroke-width:1.0;" x1="693" x2="1070" y1="518.4043" y2="518.4043"/><text fill="#000000" font-family="sans-serif" font-size="13" font-weight="bold" lengthAdjust="spacing" textLength="14" x="702.5" y="513.1416">13</text><text fill="#000000" font-family="sans-serif" font-size="13" lengthAdjust="spacing" textLength="346" x="720.5" y="513.1416">ensureAuthenticatedUserHasAnyOf(BaseRoles.MANAGER)</text><polygon fill="#181818" points="704,545.6953,694,549.6953,704,553.6953,700,549.6953" style="stroke:#181818;stroke-width:1.0;"/><line style="stroke:#181818;stroke-width:1.0;" x1="698" x2="1080" y1="549.6953" y2="549.6953"/><text fill="#000000" font-family="sans-serif" font-size="13" font-weight="bold" lengthAdjust="spacing" textLength="14" x="859.5" y="544.4326">14</text><text fill="#000000" font-family="sans-serif" font-size="13" lengthAdjust="spacing" textLength="37" x="877.5" y="544.4326">Result</text><polygon fill="#181818" points="1235.5,576.9863,1245.5,580.9863,1235.5,584.9863,1239.5,580.9863" style="stroke:#181818;stroke-width:1.0;"/><line style="stroke:#181818;stroke-width:1.0;" x1="693" x2="1241.5" y1="580.9863" y2="580.9863"/><text fill="#000000" font-family="sans-serif" font-size="13" font-weight="bold" lengthAdjust="spacing" textLength="14" x="897.25" y="575.7236">15</text><text fill="#000000" font-family="sans-serif" font-size="13" lengthAdjust="spacing" textLength="128" x="915.25" y="575.7236">registerNewUser(data)</text><polygon fill="#181818" points="1391,608.2773,1401,612.2773,1391,616.2773,1395,612.2773" style="stroke:#181818;stroke-width:1.0;"/><line style="stroke:#181818;stroke-width:1.0;" x1="1257.5" x2="1397" y1="612.2773" y2="612.2773"/><text fill="#000000" font-family="sans-serif" font-size="13" font-weight="bold" lengthAdjust="spacing" textLength="14" x="1279.25" y="607.0146">16</text><text fill="#000000" font-family="sans-serif" font-size="13" lengthAdjust="spacing" textLength="84" x="1297.25" y="607.0146">save(newUser)</text><polygon fill="#181818" points="1268.5,639.5684,1258.5,643.5684,1268.5,647.5684,1264.5,643.5684" style="stroke:#181818;stroke-width:1.0;"/><line style="stroke:#181818;stroke-width:1.0;" x1="1262.5" x2="1407" y1="643.5684" y2="643.5684"/><text fill="#000000" font-family="sans-serif" font-size="13" font-weight="bold" lengthAdjust="spacing" textLength="14" x="1305.25" y="638.3057">17</text><text fill="#000000" font-family="sans-serif" font-size="13" lengthAdjust="spacing" textLength="37" x="1323.25" y="638.3057">Result</text><polygon fill="#181818" points="704,670.8594,694,674.8594,704,678.8594,700,674.8594" style="stroke:#181818;stroke-width:1.0;"/><line style="stroke:#181818;stroke-width:1.0;" x1="698" x2="1251.5" y1="674.8594" y2="674.8594"/><text fill="#000000" font-family="sans-serif" font-size="13" font-weight="bold" lengthAdjust="spacing" textLength="14" x="945.25" y="669.5967">18</text><text fill="#000000" font-family="sans-serif" font-size="13" lengthAdjust="spacing" textLength="37" x="963.25" y="669.5967">Result</text><polygon fill="#181818" points="509,702.1504,499,706.1504,509,710.1504,505,706.1504" style="stroke:#181818;stroke-width:1.0;"/><line style="stroke:#181818;stroke-width:1.0;" x1="503" x2="687" y1="706.1504" y2="706.1504"/><text fill="#000000" font-family="sans-serif" font-size="13" font-weight="bold" lengthAdjust="spacing" textLength="14" x="565.5" y="700.8877">19</text><text fill="#000000" font-family="sans-serif" font-size="13" lengthAdjust="spacing" textLength="37" x="583.5" y="700.8877">Result</text><polygon fill="#181818" points="57,733.4414,47,737.4414,57,741.4414,53,737.4414" style="stroke:#181818;stroke-width:1.0;"/><line style="stroke:#181818;stroke-width:1.0;" x1="51" x2="492" y1="737.4414" y2="737.4414"/><text fill="#000000" font-family="sans-serif" font-size="13" font-weight="bold" lengthAdjust="spacing" textLength="14" x="208.5" y="732.1787">20</text><text fill="#000000" font-family="sans-serif" font-size="13" lengthAdjust="spacing" textLength="104" x="226.5" y="732.1787">Operation Sucess</text><!--SRC=[XPJ1Rfj048RlFCNA9ombUG1NgaGZ9urax0f23xrDOEgiWdVfpgujz-axku31cBONj6A_cNzc_W7waAe10mUHuo-7giGKYM2FIIttwe3AYf8VQ29mLYjtUFF7qceZ5Yae1ir208aqsIRFwooAE9cLfMo08nUhfAeAGbEy1AXucRz-rCeQNTTThiViTJC1lm1Xfcka06IxpJgVfdBsNHlv6wpKAaTpb2K6E2b-J50lsTRk-nkpHJw3PjXeajpnkMEuIvw0F8B5eU-PLzr1t7_cpiMAWpz8M2rAWvu3eV0alC8GonEAcEM8FdWbZ3U6B8aAB8ZO1oWuu9tu1aGdRQexyIGDMR4DRpTmEQxlKv2rM4OLZXMcTTbpWxqALa7cggAse83Ikpu57sBs2ryva9RZ-pSdwoe0AIetWZvrbFUMkJtQhB-BbuDQiDu_60qkCwkqyZr_XzfTm-qQjDYGscjk9DbnqoqPWBxIEIoe_tNyFk8_aoIiiRJiR61lPzYL2EtQntxISyrxbDUMILJa3FhTvasL9LCXyYjGeiwxd_7bktZeIXcbyullimow6PAhhphsp6KiUUXspqD1iyNJN8dyWHHv2_lP41mnLYrwHMMH1_gajxejyS_IYebXjyIiNRi6JVW7YDoL_2kRE1P5Vm00]--></g></svg>