<?xml version="1.0" encoding="us-ascii" standalone="no"?><svg xmlns="http://www.w3.org/2000/svg" xmlns:xlink="http://www.w3.org/1999/xlink" contentStyleType="text/css" height="806px" preserveAspectRatio="none" style="width:1044px;height:806px;background:#FFFFFF;" version="1.1" viewBox="0 0 1044 806" width="1044px" zoomAndPan="magnify"><defs/><g><!--cluster ui--><g id="cluster_ui"><path d="M529.5,6.0137 L543.5,6.0137 A3.75,3.75 0 0 1 546,8.5137 L553,30.6348 L750.5,30.6348 A2.5,2.5 0 0 1 753,33.1348 L753,197.5137 A2.5,2.5 0 0 1 750.5,200.0137 L529.5,200.0137 A2.5,2.5 0 0 1 527,197.5137 L527,8.5137 A2.5,2.5 0 0 1 529.5,6.0137 " fill="none" style="stroke:#000000;stroke-width:1.5;"/><line style="stroke:#000000;stroke-width:1.5;" x1="527" x2="553" y1="30.6348" y2="30.6348"/><text fill="#000000" font-family="sans-serif" font-size="14" font-weight="bold" lengthAdjust="spacing" textLength="13" x="531" y="23.1211">ui</text></g><!--cluster controller--><g id="cluster_controller"><path d="M545.5,224.0137 L615.5,224.0137 A3.75,3.75 0 0 1 618,226.5137 L625,248.6348 L734.5,248.6348 A2.5,2.5 0 0 1 737,251.1348 L737,434.5137 A2.5,2.5 0 0 1 734.5,437.0137 L545.5,437.0137 A2.5,2.5 0 0 1 543,434.5137 L543,226.5137 A2.5,2.5 0 0 1 545.5,224.0137 " fill="none" style="stroke:#000000;stroke-width:1.5;"/><line style="stroke:#000000;stroke-width:1.5;" x1="543" x2="625" y1="248.6348" y2="248.6348"/><text fill="#000000" font-family="sans-serif" font-size="14" font-weight="bold" lengthAdjust="spacing" textLength="69" x="547" y="241.1211">controller</text></g><!--cluster service--><g id="cluster_service"><path d="M531.5,479.5137 L585.5,479.5137 A3.75,3.75 0 0 1 588,482.0137 L595,504.1348 L748.5,504.1348 A2.5,2.5 0 0 1 751,506.6348 L751,597.0137 A2.5,2.5 0 0 1 748.5,599.5137 L531.5,599.5137 A2.5,2.5 0 0 1 529,597.0137 L529,482.0137 A2.5,2.5 0 0 1 531.5,479.5137 " fill="none" style="stroke:#000000;stroke-width:1.5;"/><line style="stroke:#000000;stroke-width:1.5;" x1="529" x2="595" y1="504.1348" y2="504.1348"/><text fill="#000000" font-family="sans-serif" font-size="14" font-weight="bold" lengthAdjust="spacing" textLength="53" x="533" y="496.6211">service</text></g><!--cluster repositories--><g id="cluster_repositories"><path d="M777.5,461.0137 L864.5,461.0137 A3.75,3.75 0 0 1 867,463.5137 L874,485.6348 L1034.5,485.6348 A2.5,2.5 0 0 1 1037,488.1348 L1037,615.5137 A2.5,2.5 0 0 1 1034.5,618.0137 L777.5,618.0137 A2.5,2.5 0 0 1 775,615.5137 L775,463.5137 A2.5,2.5 0 0 1 777.5,461.0137 " fill="none" style="stroke:#000000;stroke-width:1.5;"/><line style="stroke:#000000;stroke-width:1.5;" x1="775" x2="874" y1="485.6348" y2="485.6348"/><text fill="#000000" font-family="sans-serif" font-size="14" font-weight="bold" lengthAdjust="spacing" textLength="86" x="779" y="478.1211">repositories</text></g><!--cluster persistence--><g id="cluster_persistence"><path d="M787.5,642.0137 L872.5,642.0137 A3.75,3.75 0 0 1 875,644.5137 L882,666.6348 L1024.5,666.6348 A2.5,2.5 0 0 1 1027,669.1348 L1027,796.5137 A2.5,2.5 0 0 1 1024.5,799.0137 L787.5,799.0137 A2.5,2.5 0 0 1 785,796.5137 L785,644.5137 A2.5,2.5 0 0 1 787.5,642.0137 " fill="none" style="stroke:#000000;stroke-width:1.5;"/><line style="stroke:#000000;stroke-width:1.5;" x1="785" x2="882" y1="666.6348" y2="666.6348"/><text fill="#000000" font-family="sans-serif" font-size="14" font-weight="bold" lengthAdjust="spacing" textLength="84" x="789" y="659.1211">persistence</text></g><!--cluster infrastructure--><g id="cluster_infrastructure"><path d="M8.5,461.0137 L106.5,461.0137 A3.75,3.75 0 0 1 109,463.5137 L116,485.6348 L502.5,485.6348 A2.5,2.5 0 0 1 505,488.1348 L505,615.5137 A2.5,2.5 0 0 1 502.5,618.0137 L8.5,618.0137 A2.5,2.5 0 0 1 6,615.5137 L6,463.5137 A2.5,2.5 0 0 1 8.5,461.0137 " fill="none" style="stroke:#000000;stroke-width:1.5;"/><line style="stroke:#000000;stroke-width:1.5;" x1="6" x2="116" y1="485.6348" y2="485.6348"/><text fill="#000000" font-family="sans-serif" font-size="14" font-weight="bold" lengthAdjust="spacing" textLength="97" x="10" y="478.1211">infrastructure</text></g><!--class ScheduleMeetingUI--><g id="elem_ScheduleMeetingUI"><rect codeLine="2" fill="#F1F1F1" height="141.1055" id="ScheduleMeetingUI" rx="2.5" ry="2.5" style="stroke:#181818;stroke-width:0.5;" width="193" x="543.5" y="43.0137"/><ellipse cx="576.5" cy="59.0137" fill="#ADD1B2" rx="11" ry="11" style="stroke:#181818;stroke-width:1.0;"/><path d="M579.2656,54.8887 Q579.4219,54.6699 579.6094,54.5605 Q579.7969,54.4512 580.0156,54.4512 Q580.3906,54.4512 580.625,54.7168 Q580.8594,54.9668 580.8594,55.5762 L580.8594,57.0293 Q580.8594,57.6387 580.625,57.9043 Q580.3906,58.1699 580.0156,58.1699 Q579.6719,58.1699 579.4688,57.9668 Q579.2656,57.7793 579.1563,57.2637 Q579.1094,56.9043 578.9219,56.7168 Q578.5938,56.3418 577.9844,56.123 Q577.375,55.9043 576.75,55.9043 Q575.9844,55.9043 575.3438,56.2324 Q574.7188,56.5605 574.2188,57.3105 Q573.7344,58.0605 573.7344,59.0918 L573.7344,60.1855 Q573.7344,61.4199 574.625,62.248 Q575.5156,63.0605 577.1094,63.0605 Q578.0469,63.0605 578.7031,62.8105 Q579.0938,62.6543 579.5156,62.2168 Q579.7813,61.9512 579.9219,61.873 Q580.0781,61.7949 580.2813,61.7949 Q580.6094,61.7949 580.8594,62.0605 Q581.125,62.3105 581.125,62.6543 Q581.125,62.998 580.7813,63.4043 Q580.2813,63.9824 579.4844,64.3105 Q578.4063,64.7637 577.1094,64.7637 Q575.5938,64.7637 574.3906,64.1387 Q573.4063,63.6387 572.7188,62.5762 Q572.0313,61.498 572.0313,60.2168 L572.0313,59.0605 Q572.0313,57.7324 572.6406,56.5918 Q573.2656,55.4355 574.3594,54.8262 Q575.4531,54.2012 576.6875,54.2012 Q577.4219,54.2012 578.0625,54.373 Q578.7188,54.5293 579.2656,54.8887 Z " fill="#000000"/><text fill="#000000" font-family="sans-serif" font-size="14" lengthAdjust="spacing" textLength="121" x="594.5" y="64.8105">ScheduleMeetingUI</text><line style="stroke:#181818;stroke-width:0.5;" x1="544.5" x2="735.5" y1="75.0137" y2="75.0137"/><line style="stroke:#181818;stroke-width:0.5;" x1="544.5" x2="735.5" y1="83.0137" y2="83.0137"/><ellipse cx="554.5" cy="97.8242" fill="#84BE84" rx="3" ry="3" style="stroke:#038048;stroke-width:1.0;"/><text fill="#000000" font-family="sans-serif" font-size="14" lengthAdjust="spacing" textLength="108" x="563.5" y="102.1211">selectValidDate()</text><ellipse cx="554.5" cy="116.4453" fill="#84BE84" rx="3" ry="3" style="stroke:#038048;stroke-width:1.0;"/><text fill="#000000" font-family="sans-serif" font-size="14" lengthAdjust="spacing" textLength="108" x="563.5" y="120.7422">selectValidHour()</text><ellipse cx="554.5" cy="135.0664" fill="#84BE84" rx="3" ry="3" style="stroke:#038048;stroke-width:1.0;"/><text fill="#000000" font-family="sans-serif" font-size="14" lengthAdjust="spacing" textLength="167" x="563.5" y="139.3633">scheduleMeeting(Meeting)</text><ellipse cx="554.5" cy="153.6875" fill="#84BE84" rx="3" ry="3" style="stroke:#038048;stroke-width:1.0;"/><text fill="#000000" font-family="sans-serif" font-size="14" lengthAdjust="spacing" textLength="144" x="563.5" y="157.9844">selectParticipants(day)</text><ellipse cx="554.5" cy="172.3086" fill="#84BE84" rx="3" ry="3" style="stroke:#038048;stroke-width:1.0;"/><text fill="#000000" font-family="sans-serif" font-size="14" lengthAdjust="spacing" textLength="132" x="563.5" y="176.6055">selectValidDuration()</text></g><!--class MyMeetingController--><g id="elem_MyMeetingController"><rect codeLine="12" fill="#F1F1F1" height="159.7266" id="MyMeetingController" rx="2.5" ry="2.5" style="stroke:#181818;stroke-width:0.5;" width="162" x="559" y="261.0137"/><ellipse cx="574" cy="277.0137" fill="#ADD1B2" rx="11" ry="11" style="stroke:#181818;stroke-width:1.0;"/><path d="M576.7656,272.8887 Q576.9219,272.6699 577.1094,272.5605 Q577.2969,272.4512 577.5156,272.4512 Q577.8906,272.4512 578.125,272.7168 Q578.3594,272.9668 578.3594,273.5762 L578.3594,275.0293 Q578.3594,275.6387 578.125,275.9043 Q577.8906,276.1699 577.5156,276.1699 Q577.1719,276.1699 576.9688,275.9668 Q576.7656,275.7793 576.6563,275.2637 Q576.6094,274.9043 576.4219,274.7168 Q576.0938,274.3418 575.4844,274.123 Q574.875,273.9043 574.25,273.9043 Q573.4844,273.9043 572.8438,274.2324 Q572.2188,274.5605 571.7188,275.3105 Q571.2344,276.0605 571.2344,277.0918 L571.2344,278.1855 Q571.2344,279.4199 572.125,280.248 Q573.0156,281.0605 574.6094,281.0605 Q575.5469,281.0605 576.2031,280.8105 Q576.5938,280.6543 577.0156,280.2168 Q577.2813,279.9512 577.4219,279.873 Q577.5781,279.7949 577.7813,279.7949 Q578.1094,279.7949 578.3594,280.0605 Q578.625,280.3105 578.625,280.6543 Q578.625,280.998 578.2813,281.4043 Q577.7813,281.9824 576.9844,282.3105 Q575.9063,282.7637 574.6094,282.7637 Q573.0938,282.7637 571.8906,282.1387 Q570.9063,281.6387 570.2188,280.5762 Q569.5313,279.498 569.5313,278.2168 L569.5313,277.0605 Q569.5313,275.7324 570.1406,274.5918 Q570.7656,273.4355 571.8594,272.8262 Q572.9531,272.2012 574.1875,272.2012 Q574.9219,272.2012 575.5625,272.373 Q576.2188,272.5293 576.7656,272.8887 Z " fill="#000000"/><text fill="#000000" font-family="sans-serif" font-size="14" lengthAdjust="spacing" textLength="130" x="588" y="282.8105">MyMeetingController</text><line style="stroke:#181818;stroke-width:0.5;" x1="560" x2="720" y1="293.0137" y2="293.0137"/><line style="stroke:#181818;stroke-width:0.5;" x1="560" x2="720" y1="301.0137" y2="301.0137"/><ellipse cx="570" cy="315.8242" fill="#84BE84" rx="3" ry="3" style="stroke:#038048;stroke-width:1.0;"/><text fill="#000000" font-family="sans-serif" font-size="14" lengthAdjust="spacing" textLength="83" x="579" y="320.1211">activeUsers()</text><ellipse cx="570" cy="334.4453" fill="#84BE84" rx="3" ry="3" style="stroke:#038048;stroke-width:1.0;"/><text fill="#000000" font-family="sans-serif" font-size="14" lengthAdjust="spacing" textLength="84" x="579" y="338.7422">currentUser()</text><ellipse cx="570" cy="353.0664" fill="#84BE84" rx="3" ry="3" style="stroke:#038048;stroke-width:1.0;"/><text fill="#000000" font-family="sans-serif" font-size="14" lengthAdjust="spacing" textLength="100" x="579" y="357.3633">myMeetingFor()</text><ellipse cx="570" cy="371.6875" fill="#84BE84" rx="3" ry="3" style="stroke:#038048;stroke-width:1.0;"/><text fill="#000000" font-family="sans-serif" font-size="14" lengthAdjust="spacing" textLength="132" x="579" y="375.9844">inviteParticipantFor()</text><ellipse cx="570" cy="390.3086" fill="#84BE84" rx="3" ry="3" style="stroke:#038048;stroke-width:1.0;"/><text fill="#000000" font-family="sans-serif" font-size="14" lengthAdjust="spacing" textLength="117" x="579" y="394.6055">scheduleMeeting()</text><ellipse cx="570" cy="408.9297" fill="#84BE84" rx="3" ry="3" style="stroke:#038048;stroke-width:1.0;"/><text fill="#000000" font-family="sans-serif" font-size="14" lengthAdjust="spacing" textLength="101" x="579" y="413.2266">listParticipants()</text></g><!--class UserManagementService--><g id="elem_UserManagementService"><rect codeLine="23" fill="#F1F1F1" height="66.6211" id="UserManagementService" rx="2.5" ry="2.5" style="stroke:#181818;stroke-width:0.5;" width="190" x="545" y="516.5137"/><ellipse cx="560" cy="532.5137" fill="#ADD1B2" rx="11" ry="11" style="stroke:#181818;stroke-width:1.0;"/><path d="M562.7656,528.3887 Q562.9219,528.1699 563.1094,528.0605 Q563.2969,527.9512 563.5156,527.9512 Q563.8906,527.9512 564.125,528.2168 Q564.3594,528.4668 564.3594,529.0762 L564.3594,530.5293 Q564.3594,531.1387 564.125,531.4043 Q563.8906,531.6699 563.5156,531.6699 Q563.1719,531.6699 562.9688,531.4668 Q562.7656,531.2793 562.6563,530.7637 Q562.6094,530.4043 562.4219,530.2168 Q562.0938,529.8418 561.4844,529.623 Q560.875,529.4043 560.25,529.4043 Q559.4844,529.4043 558.8438,529.7324 Q558.2188,530.0605 557.7188,530.8105 Q557.2344,531.5605 557.2344,532.5918 L557.2344,533.6855 Q557.2344,534.9199 558.125,535.748 Q559.0156,536.5605 560.6094,536.5605 Q561.5469,536.5605 562.2031,536.3105 Q562.5938,536.1543 563.0156,535.7168 Q563.2813,535.4512 563.4219,535.373 Q563.5781,535.2949 563.7813,535.2949 Q564.1094,535.2949 564.3594,535.5605 Q564.625,535.8105 564.625,536.1543 Q564.625,536.498 564.2813,536.9043 Q563.7813,537.4824 562.9844,537.8105 Q561.9063,538.2637 560.6094,538.2637 Q559.0938,538.2637 557.8906,537.6387 Q556.9063,537.1387 556.2188,536.0762 Q555.5313,534.998 555.5313,533.7168 L555.5313,532.5605 Q555.5313,531.2324 556.1406,530.0918 Q556.7656,528.9355 557.8594,528.3262 Q558.9531,527.7012 560.1875,527.7012 Q560.9219,527.7012 561.5625,527.873 Q562.2188,528.0293 562.7656,528.3887 Z " fill="#000000"/><text fill="#000000" font-family="sans-serif" font-size="14" lengthAdjust="spacing" textLength="158" x="574" y="538.3105">UserManagementService</text><line style="stroke:#181818;stroke-width:0.5;" x1="546" x2="734" y1="548.5137" y2="548.5137"/><line style="stroke:#181818;stroke-width:0.5;" x1="546" x2="734" y1="556.5137" y2="556.5137"/><ellipse cx="556" cy="571.3242" fill="#84BE84" rx="3" ry="3" style="stroke:#038048;stroke-width:1.0;"/><text fill="#000000" font-family="sans-serif" font-size="14" lengthAdjust="spacing" textLength="141" x="565" y="575.6211">registerNewUser(data)</text></g><!--class MeetingRepository--><g id="elem_MeetingRepository"><rect codeLine="29" fill="#F1F1F1" height="103.8633" id="MeetingRepository" rx="2.5" ry="2.5" style="stroke:#181818;stroke-width:0.5;" width="229" x="791.5" y="498.0137"/><ellipse cx="842.75" cy="514.0137" fill="#ADD1B2" rx="11" ry="11" style="stroke:#181818;stroke-width:1.0;"/><path d="M845.5156,509.8887 Q845.6719,509.6699 845.8594,509.5605 Q846.0469,509.4512 846.2656,509.4512 Q846.6406,509.4512 846.875,509.7168 Q847.1094,509.9668 847.1094,510.5762 L847.1094,512.0293 Q847.1094,512.6387 846.875,512.9043 Q846.6406,513.1699 846.2656,513.1699 Q845.9219,513.1699 845.7188,512.9668 Q845.5156,512.7793 845.4063,512.2637 Q845.3594,511.9043 845.1719,511.7168 Q844.8438,511.3418 844.2344,511.123 Q843.625,510.9043 843,510.9043 Q842.2344,510.9043 841.5938,511.2324 Q840.9688,511.5605 840.4688,512.3105 Q839.9844,513.0605 839.9844,514.0918 L839.9844,515.1855 Q839.9844,516.4199 840.875,517.248 Q841.7656,518.0605 843.3594,518.0605 Q844.2969,518.0605 844.9531,517.8105 Q845.3438,517.6543 845.7656,517.2168 Q846.0313,516.9512 846.1719,516.873 Q846.3281,516.7949 846.5313,516.7949 Q846.8594,516.7949 847.1094,517.0605 Q847.375,517.3105 847.375,517.6543 Q847.375,517.998 847.0313,518.4043 Q846.5313,518.9824 845.7344,519.3105 Q844.6563,519.7637 843.3594,519.7637 Q841.8438,519.7637 840.6406,519.1387 Q839.6563,518.6387 838.9688,517.5762 Q838.2813,516.498 838.2813,515.2168 L838.2813,514.0605 Q838.2813,512.7324 838.8906,511.5918 Q839.5156,510.4355 840.6094,509.8262 Q841.7031,509.2012 842.9375,509.2012 Q843.6719,509.2012 844.3125,509.373 Q844.9688,509.5293 845.5156,509.8887 Z " fill="#000000"/><text fill="#000000" font-family="sans-serif" font-size="14" lengthAdjust="spacing" textLength="118" x="863.25" y="519.8105">MeetingRepository</text><line style="stroke:#181818;stroke-width:0.5;" x1="792.5" x2="1019.5" y1="530.0137" y2="530.0137"/><line style="stroke:#181818;stroke-width:0.5;" x1="792.5" x2="1019.5" y1="538.0137" y2="538.0137"/><ellipse cx="802.5" cy="552.8242" fill="#84BE84" rx="3" ry="3" style="stroke:#038048;stroke-width:1.0;"/><text fill="#000000" font-family="sans-serif" font-size="14" lengthAdjust="spacing" textLength="163" x="811.5" y="557.1211">findMeetingsByUser(user)</text><ellipse cx="802.5" cy="571.4453" fill="#84BE84" rx="3" ry="3" style="stroke:#038048;stroke-width:1.0;"/><text fill="#000000" font-family="sans-serif" font-size="14" lengthAdjust="spacing" textLength="188" x="811.5" y="575.7422">findByDayAndUser(date,user)</text><ellipse cx="802.5" cy="590.0664" fill="#84BE84" rx="3" ry="3" style="stroke:#038048;stroke-width:1.0;"/><text fill="#000000" font-family="sans-serif" font-size="14" lengthAdjust="spacing" textLength="203" x="811.5" y="594.3633">findParticipantsByDay(day,user)</text></g><!--class JpaMeetingRepository--><g id="elem_JpaMeetingRepository"><rect codeLine="37" fill="#F1F1F1" height="103.8633" id="JpaMeetingRepository" rx="2.5" ry="2.5" style="stroke:#181818;stroke-width:0.5;" width="209" x="801.5" y="679.0137"/><ellipse cx="833.15" cy="695.0137" fill="#ADD1B2" rx="11" ry="11" style="stroke:#181818;stroke-width:1.0;"/><path d="M835.9156,690.8887 Q836.0719,690.6699 836.2594,690.5605 Q836.4469,690.4512 836.6656,690.4512 Q837.0406,690.4512 837.275,690.7168 Q837.5094,690.9668 837.5094,691.5762 L837.5094,693.0293 Q837.5094,693.6387 837.275,693.9043 Q837.0406,694.1699 836.6656,694.1699 Q836.3219,694.1699 836.1188,693.9668 Q835.9156,693.7793 835.8063,693.2637 Q835.7594,692.9043 835.5719,692.7168 Q835.2438,692.3418 834.6344,692.123 Q834.025,691.9043 833.4,691.9043 Q832.6344,691.9043 831.9938,692.2324 Q831.3688,692.5605 830.8688,693.3105 Q830.3844,694.0605 830.3844,695.0918 L830.3844,696.1855 Q830.3844,697.4199 831.275,698.248 Q832.1656,699.0605 833.7594,699.0605 Q834.6969,699.0605 835.3531,698.8105 Q835.7438,698.6543 836.1656,698.2168 Q836.4313,697.9512 836.5719,697.873 Q836.7281,697.7949 836.9313,697.7949 Q837.2594,697.7949 837.5094,698.0605 Q837.775,698.3105 837.775,698.6543 Q837.775,698.998 837.4313,699.4043 Q836.9313,699.9824 836.1344,700.3105 Q835.0563,700.7637 833.7594,700.7637 Q832.2438,700.7637 831.0406,700.1387 Q830.0563,699.6387 829.3688,698.5762 Q828.6813,697.498 828.6813,696.2168 L828.6813,695.0605 Q828.6813,693.7324 829.2906,692.5918 Q829.9156,691.4355 831.0094,690.8262 Q832.1031,690.2012 833.3375,690.2012 Q834.0719,690.2012 834.7125,690.373 Q835.3688,690.5293 835.9156,690.8887 Z " fill="#000000"/><text fill="#000000" font-family="sans-serif" font-size="14" lengthAdjust="spacing" textLength="140" x="850.85" y="700.8105">JpaMeetingRepository</text><line style="stroke:#181818;stroke-width:0.5;" x1="802.5" x2="1009.5" y1="711.0137" y2="711.0137"/><line style="stroke:#181818;stroke-width:0.5;" x1="802.5" x2="1009.5" y1="719.0137" y2="719.0137"/><ellipse cx="812.5" cy="733.8242" fill="#84BE84" rx="3" ry="3" style="stroke:#038048;stroke-width:1.0;"/><text fill="#000000" font-family="sans-serif" font-size="14" lengthAdjust="spacing" textLength="90" x="821.5" y="738.1211">save(meeting)</text><ellipse cx="812.5" cy="752.4453" fill="#84BE84" rx="3" ry="3" style="stroke:#038048;stroke-width:1.0;"/><text fill="#000000" font-family="sans-serif" font-size="14" lengthAdjust="spacing" textLength="163" x="821.5" y="756.7422">findMeetingsByUser(user)</text><ellipse cx="812.5" cy="771.0664" fill="#84BE84" rx="3" ry="3" style="stroke:#038048;stroke-width:1.0;"/><text fill="#000000" font-family="sans-serif" font-size="14" lengthAdjust="spacing" textLength="183" x="821.5" y="775.3633">findByDayAndUser(day,user)</text></g><!--class AuthorizationService--><g id="elem_AuthorizationService"><rect codeLine="47" fill="#F1F1F1" height="85.2422" id="AuthorizationService" rx="2.5" ry="2.5" style="stroke:#181818;stroke-width:0.5;" width="259" x="229.5" y="507.5137"/><ellipse cx="290.25" cy="523.5137" fill="#ADD1B2" rx="11" ry="11" style="stroke:#181818;stroke-width:1.0;"/><path d="M293.0156,519.3887 Q293.1719,519.1699 293.3594,519.0605 Q293.5469,518.9512 293.7656,518.9512 Q294.1406,518.9512 294.375,519.2168 Q294.6094,519.4668 294.6094,520.0762 L294.6094,521.5293 Q294.6094,522.1387 294.375,522.4043 Q294.1406,522.6699 293.7656,522.6699 Q293.4219,522.6699 293.2188,522.4668 Q293.0156,522.2793 292.9063,521.7637 Q292.8594,521.4043 292.6719,521.2168 Q292.3438,520.8418 291.7344,520.623 Q291.125,520.4043 290.5,520.4043 Q289.7344,520.4043 289.0938,520.7324 Q288.4688,521.0605 287.9688,521.8105 Q287.4844,522.5605 287.4844,523.5918 L287.4844,524.6855 Q287.4844,525.9199 288.375,526.748 Q289.2656,527.5605 290.8594,527.5605 Q291.7969,527.5605 292.4531,527.3105 Q292.8438,527.1543 293.2656,526.7168 Q293.5313,526.4512 293.6719,526.373 Q293.8281,526.2949 294.0313,526.2949 Q294.3594,526.2949 294.6094,526.5605 Q294.875,526.8105 294.875,527.1543 Q294.875,527.498 294.5313,527.9043 Q294.0313,528.4824 293.2344,528.8105 Q292.1563,529.2637 290.8594,529.2637 Q289.3438,529.2637 288.1406,528.6387 Q287.1563,528.1387 286.4688,527.0762 Q285.7813,525.998 285.7813,524.7168 L285.7813,523.5605 Q285.7813,522.2324 286.3906,521.0918 Q287.0156,519.9355 288.1094,519.3262 Q289.2031,518.7012 290.4375,518.7012 Q291.1719,518.7012 291.8125,518.873 Q292.4688,519.0293 293.0156,519.3887 Z " fill="#000000"/><text fill="#000000" font-family="sans-serif" font-size="14" lengthAdjust="spacing" textLength="129" x="310.75" y="529.3105">AuthorizationService</text><line style="stroke:#181818;stroke-width:0.5;" x1="230.5" x2="487.5" y1="539.5137" y2="539.5137"/><line style="stroke:#181818;stroke-width:0.5;" x1="230.5" x2="487.5" y1="547.5137" y2="547.5137"/><ellipse cx="240.5" cy="562.3242" fill="#84BE84" rx="3" ry="3" style="stroke:#038048;stroke-width:1.0;"/><text fill="#000000" font-family="sans-serif" font-size="14" lengthAdjust="spacing" textLength="233" x="249.5" y="566.6211">ensureAuthenticatedUserHasAnyOf()</text><ellipse cx="240.5" cy="580.9453" fill="#84BE84" rx="3" ry="3" style="stroke:#038048;stroke-width:1.0;"/><text fill="#000000" font-family="sans-serif" font-size="14" lengthAdjust="spacing" textLength="58" x="249.5" y="585.2422">session()</text></g><!--class AuthzRegistry--><g id="elem_AuthzRegistry"><rect codeLine="51" fill="#F1F1F1" height="103.8633" id="AuthzRegistry" rx="2.5" ry="2.5" style="stroke:#181818;stroke-width:0.5;" width="172" x="22" y="498.0137"/><ellipse cx="60.85" cy="514.0137" fill="#ADD1B2" rx="11" ry="11" style="stroke:#181818;stroke-width:1.0;"/><path d="M63.6156,509.8887 Q63.7719,509.6699 63.9594,509.5605 Q64.1469,509.4512 64.3656,509.4512 Q64.7406,509.4512 64.975,509.7168 Q65.2094,509.9668 65.2094,510.5762 L65.2094,512.0293 Q65.2094,512.6387 64.975,512.9043 Q64.7406,513.1699 64.3656,513.1699 Q64.0219,513.1699 63.8188,512.9668 Q63.6156,512.7793 63.5063,512.2637 Q63.4594,511.9043 63.2719,511.7168 Q62.9438,511.3418 62.3344,511.123 Q61.725,510.9043 61.1,510.9043 Q60.3344,510.9043 59.6938,511.2324 Q59.0688,511.5605 58.5688,512.3105 Q58.0844,513.0605 58.0844,514.0918 L58.0844,515.1855 Q58.0844,516.4199 58.975,517.248 Q59.8656,518.0605 61.4594,518.0605 Q62.3969,518.0605 63.0531,517.8105 Q63.4438,517.6543 63.8656,517.2168 Q64.1313,516.9512 64.2719,516.873 Q64.4281,516.7949 64.6313,516.7949 Q64.9594,516.7949 65.2094,517.0605 Q65.475,517.3105 65.475,517.6543 Q65.475,517.998 65.1313,518.4043 Q64.6313,518.9824 63.8344,519.3105 Q62.7563,519.7637 61.4594,519.7637 Q59.9438,519.7637 58.7406,519.1387 Q57.7563,518.6387 57.0688,517.5762 Q56.3813,516.498 56.3813,515.2168 L56.3813,514.0605 Q56.3813,512.7324 56.9906,511.5918 Q57.6156,510.4355 58.7094,509.8262 Q59.8031,509.2012 61.0375,509.2012 Q61.7719,509.2012 62.4125,509.373 Q63.0688,509.5293 63.6156,509.8887 Z " fill="#000000"/><text fill="#000000" font-family="sans-serif" font-size="14" lengthAdjust="spacing" textLength="87" x="80.15" y="519.8105">AuthzRegistry</text><line style="stroke:#181818;stroke-width:0.5;" x1="23" x2="193" y1="530.0137" y2="530.0137"/><line style="stroke:#181818;stroke-width:0.5;" x1="23" x2="193" y1="538.0137" y2="538.0137"/><ellipse cx="33" cy="552.8242" fill="#84BE84" rx="3" ry="3" style="stroke:#038048;stroke-width:1.0;"/><text fill="#000000" font-family="sans-serif" font-size="14" lengthAdjust="spacing" textLength="85" x="42" y="557.1211">userService()</text><ellipse cx="33" cy="571.4453" fill="#84BE84" rx="3" ry="3" style="stroke:#038048;stroke-width:1.0;"/><text fill="#000000" font-family="sans-serif" font-size="14" lengthAdjust="spacing" textLength="146" x="42" y="575.7422">authenticationService()</text><ellipse cx="33" cy="590.0664" fill="#84BE84" rx="3" ry="3" style="stroke:#038048;stroke-width:1.0;"/><text fill="#000000" font-family="sans-serif" font-size="14" lengthAdjust="spacing" textLength="138" x="42" y="594.3633">authorizationService()</text></g><!--link ScheduleMeetingUI to MyMeetingController--><g id="link_ScheduleMeetingUI_MyMeetingController"><path codeLine="59" d="M640,184.3237 C640,206.8037 640,231.9737 640,255.4037 " fill="none" id="ScheduleMeetingUI-to-MyMeetingController" style="stroke:#181818;stroke-width:1.0;stroke-dasharray:7.0,7.0;"/><polygon fill="#181818" points="640,260.6937,644,251.6937,640,255.6937,636,251.6937,640,260.6937" style="stroke:#181818;stroke-width:1.0;"/></g><!--link MyMeetingController to UserManagementService--><g id="link_MyMeetingController_UserManagementService"><path codeLine="60" d="M640,421.1537 C640,452.0537 640,486.0337 640,511.1837 " fill="none" id="MyMeetingController-to-UserManagementService" style="stroke:#181818;stroke-width:1.0;"/><polygon fill="#181818" points="640,516.4137,644,507.4137,640,511.4137,636,507.4137,640,516.4137" style="stroke:#181818;stroke-width:1.0;"/></g><!--link MyMeetingController to MeetingRepository--><g id="link_MyMeetingController_MeetingRepository"><path codeLine="61" d="M721.25,405.2437 C757.96,433.8037 800.89,467.2237 836.13,494.6437 " fill="none" id="MyMeetingController-to-MeetingRepository" style="stroke:#181818;stroke-width:1.0;"/><polygon fill="#181818" points="840.39,497.9537,835.7285,489.2778,836.4386,494.8899,830.8265,495.6,840.39,497.9537" style="stroke:#181818;stroke-width:1.0;"/></g><!--link MyMeetingController to AuthorizationService--><g id="link_MyMeetingController_AuthorizationService"><path codeLine="62" d="M558.72,401.8837 C514.46,434.4937 460.61,474.1637 419.98,504.0937 " fill="none" id="MyMeetingController-to-AuthorizationService" style="stroke:#181818;stroke-width:1.0;"/><polygon fill="#181818" points="415.59,507.3237,425.2037,505.1841,419.6088,504.3489,420.444,498.754,415.59,507.3237" style="stroke:#181818;stroke-width:1.0;"/></g><!--link AuthzRegistry to AuthorizationService--><g id="link_AuthzRegistry_AuthorizationService"><path codeLine="63" d="M194.28,550.0137 C204.24,550.0137 214.19,550.0137 224.14,550.0137 " fill="none" id="AuthzRegistry-to-AuthorizationService" style="stroke:#181818;stroke-width:1.0;"/><polygon fill="#181818" points="229.35,550.0137,220.35,546.0137,224.35,550.0137,220.35,554.0137,229.35,550.0137" style="stroke:#181818;stroke-width:1.0;"/></g><!--link MeetingRepository to JpaMeetingRepository--><g id="link_MeetingRepository_JpaMeetingRepository"><path codeLine="64" d="M906,602.3037 C906,624.5937 906,650.7637 906,673.5937 " fill="none" id="MeetingRepository-to-JpaMeetingRepository" style="stroke:#181818;stroke-width:1.0;"/><polygon fill="#181818" points="906,678.7137,910,669.7137,906,673.7137,902,669.7137,906,678.7137" style="stroke:#181818;stroke-width:1.0;"/></g><!--SRC=[bPFRRe9048RlUGekDLOVmKHh6jl4jj7O-yaowgIua3tGOEExTnTsWGMyg1UOpFpyyys17DWtd37M5Fz6iVcn5AIC3-o2YKvnXwY8du-lTN8cCKMclY2bP0CA9zD1U9jfqOH3budx3rxw1A68KGvSoKa2vT1nemKeohXplKVtACeTDiku4bcQeWZmTwKhzTpaNGF051Lub2YafsHQ2EJAndpewjz_oPeOyO8KTd0xkNwZBfoI3FiRwS1KBOXXW6zHTi1D-ch03hMY5bXRWMTZZE8TVohe11HCVJOm5vXdabGc26Kue1fqx_Eb6y-9UE9oSbrMxjeyfcrsNMwWNF74LyQddg3RS2MsM-s80i3SxC7smdiJUCjXW1Zx6uG29zVWbFwDxO5QeWQ9-4c0L48pfKL8jTBgOcPvgyxn42nkXbmQkLMObH4pWwbgRK6kUFbnQhyKARkt79hVzjLgctLOI5V76q1ReONe9lk0JIdRvU2xZXUBvTZd4et4ulbyENwR3zM39JvKZiqs2cOIFr8DByKQZfrGz0S0]--></g></svg>