<?xml version="1.0" encoding="us-ascii" standalone="no"?>
<svg xmlns="http://www.w3.org/2000/svg" contentStyleType="text/css"
     height="425px" preserveAspectRatio="none" style="width:791px;height:425px;background:#FFFFFF;" version="1.1"
     viewBox="0 0 791 425" width="791px" zoomAndPan="magnify">
    <defs/>
    <g>
        <text fill="#000000" font-family="sans-serif" font-size="14" font-weight="bold" lengthAdjust="spacing"
              textLength="298" x="245.75" y="28.5352">List Available Courses Sequence Diagram
        </text>
        <rect fill="#FFFFFF" height="175.8633" style="stroke:#181818;stroke-width:1.0;" width="10" x="135.5"
              y="150.2871"/>
        <rect fill="#FFFFFF" height="146.5527" style="stroke:#181818;stroke-width:1.0;" width="10" x="350.5"
              y="179.5977"/>
        <rect fill="#FFFFFF" height="29.3105" style="stroke:#181818;stroke-width:1.0;" width="10" x="712.5"
              y="238.2188"/>
        <line style="stroke:#181818;stroke-width:0.5;stroke-dasharray:5.0,5.0;" x1="23" x2="23" y1="118.9766"
              y2="344.1504"/>
        <line style="stroke:#181818;stroke-width:0.5;stroke-dasharray:5.0,5.0;" x1="140" x2="140" y1="118.9766"
              y2="344.1504"/>
        <line style="stroke:#181818;stroke-width:0.5;stroke-dasharray:5.0,5.0;" x1="355" x2="355" y1="118.9766"
              y2="344.1504"/>
        <line style="stroke:#181818;stroke-width:0.5;stroke-dasharray:5.0,5.0;" x1="552" x2="552" y1="118.9766"
              y2="344.1504"/>
        <line style="stroke:#181818;stroke-width:0.5;stroke-dasharray:5.0,5.0;" x1="717.5" x2="717.5" y1="118.9766"
              y2="344.1504"/>
        <text fill="#000000" font-family="sans-serif" font-size="14" lengthAdjust="spacing" textLength="31" x="5"
              y="116.0234">User
        </text>
        <ellipse cx="23.5" cy="50.9883" fill="#E2E2F0" rx="8" ry="8" style="stroke:#181818;stroke-width:0.5;"/>
        <path d="M23.5,58.9883 L23.5,85.9883 M10.5,66.9883 L36.5,66.9883 M23.5,85.9883 L10.5,100.9883 M23.5,85.9883 L36.5,100.9883 "
              fill="none" style="stroke:#181818;stroke-width:0.5;"/>
        <text fill="#000000" font-family="sans-serif" font-size="14" lengthAdjust="spacing" textLength="31" x="5"
              y="356.6855">User
        </text>
        <ellipse cx="23.5" cy="368.1387" fill="#E2E2F0" rx="8" ry="8" style="stroke:#181818;stroke-width:0.5;"/>
        <path d="M23.5,376.1387 L23.5,403.1387 M10.5,384.1387 L36.5,384.1387 M23.5,403.1387 L10.5,418.1387 M23.5,403.1387 L36.5,418.1387 "
              fill="none" style="stroke:#181818;stroke-width:0.5;"/>
        <rect fill="#E2E2F0" height="30.4883" rx="2.5" ry="2.5" style="stroke:#181818;stroke-width:0.5;" width="177"
              x="52" y="87.4883"/>
        <text fill="#000000" font-family="sans-serif" font-size="14" lengthAdjust="spacing" textLength="163" x="59"
              y="108.0234">CourseAvailableToMeUI
        </text>
        <rect fill="#E2E2F0" height="30.4883" rx="2.5" ry="2.5" style="stroke:#181818;stroke-width:0.5;" width="177"
              x="52" y="343.1504"/>
        <text fill="#000000" font-family="sans-serif" font-size="14" lengthAdjust="spacing" textLength="163" x="59"
              y="363.6855">CourseAvailableToMeUI
        </text>
        <rect fill="#E2E2F0" height="30.4883" rx="2.5" ry="2.5" style="stroke:#181818;stroke-width:0.5;" width="233"
              x="239" y="87.4883"/>
        <text fill="#000000" font-family="sans-serif" font-size="14" lengthAdjust="spacing" textLength="219" x="246"
              y="108.0234">CourseAvailableToMeController
        </text>
        <rect fill="#E2E2F0" height="30.4883" rx="2.5" ry="2.5" style="stroke:#181818;stroke-width:0.5;" width="233"
              x="239" y="343.1504"/>
        <text fill="#000000" font-family="sans-serif" font-size="14" lengthAdjust="spacing" textLength="219" x="246"
              y="363.6855">CourseAvailableToMeController
        </text>
        <rect fill="#E2E2F0" height="30.4883" rx="2.5" ry="2.5" style="stroke:#181818;stroke-width:0.5;" width="141"
              x="482" y="87.4883"/>
        <text fill="#000000" font-family="sans-serif" font-size="14" lengthAdjust="spacing" textLength="127" x="489"
              y="108.0234">CoursesListService
        </text>
        <rect fill="#E2E2F0" height="30.4883" rx="2.5" ry="2.5" style="stroke:#181818;stroke-width:0.5;" width="141"
              x="482" y="343.1504"/>
        <text fill="#000000" font-family="sans-serif" font-size="14" lengthAdjust="spacing" textLength="127" x="489"
              y="363.6855">CoursesListService
        </text>
        <rect fill="#E2E2F0" height="30.4883" rx="2.5" ry="2.5" style="stroke:#181818;stroke-width:0.5;" width="136"
              x="649.5" y="87.4883"/>
        <text fill="#000000" font-family="sans-serif" font-size="14" lengthAdjust="spacing" textLength="122" x="656.5"
              y="108.0234">CourseRepository
        </text>
        <rect fill="#E2E2F0" height="30.4883" rx="2.5" ry="2.5" style="stroke:#181818;stroke-width:0.5;" width="136"
              x="649.5" y="343.1504"/>
        <text fill="#000000" font-family="sans-serif" font-size="14" lengthAdjust="spacing" textLength="122" x="656.5"
              y="363.6855">CourseRepository
        </text>
        <rect fill="#FFFFFF" height="175.8633" style="stroke:#181818;stroke-width:1.0;" width="10" x="135.5"
              y="150.2871"/>
        <rect fill="#FFFFFF" height="146.5527" style="stroke:#181818;stroke-width:1.0;" width="10" x="350.5"
              y="179.5977"/>
        <rect fill="#FFFFFF" height="29.3105" style="stroke:#181818;stroke-width:1.0;" width="10" x="712.5"
              y="238.2188"/>
        <polygon fill="#181818" points="123.5,146.2871,133.5,150.2871,123.5,154.2871,127.5,150.2871"
                 style="stroke:#181818;stroke-width:1.0;"/>
        <line style="stroke:#181818;stroke-width:1.0;" x1="23.5" x2="129.5" y1="150.2871" y2="150.2871"/>
        <text fill="#000000" font-family="sans-serif" font-size="13" lengthAdjust="spacing" textLength="41" x="30.5"
              y="145.5449">show()
        </text>
        <polygon fill="#181818" points="338.5,175.5977,348.5,179.5977,338.5,183.5977,342.5,179.5977"
                 style="stroke:#181818;stroke-width:1.0;"/>
        <line style="stroke:#181818;stroke-width:1.0;" x1="145.5" x2="344.5" y1="179.5977" y2="179.5977"/>
        <text fill="#000000" font-family="sans-serif" font-size="13" lengthAdjust="spacing" textLength="153" x="152.5"
              y="174.8555">listAllCoursesAvailable()
        </text>
        <polygon fill="#181818" points="540.5,204.9082,550.5,208.9082,540.5,212.9082,544.5,208.9082"
                 style="stroke:#181818;stroke-width:1.0;"/>
        <line style="stroke:#181818;stroke-width:1.0;" x1="360.5" x2="546.5" y1="208.9082" y2="208.9082"/>
        <text fill="#000000" font-family="sans-serif" font-size="13" lengthAdjust="spacing" textLength="136" x="367.5"
              y="204.166">getAvailableCourses()
        </text>
        <polygon fill="#181818" points="700.5,234.2188,710.5,238.2188,700.5,242.2188,704.5,238.2188"
                 style="stroke:#181818;stroke-width:1.0;"/>
        <line style="stroke:#181818;stroke-width:1.0;" x1="552.5" x2="706.5" y1="238.2188" y2="238.2188"/>
        <text fill="#000000" font-family="sans-serif" font-size="13" lengthAdjust="spacing" textLength="136" x="559.5"
              y="233.4766">getAvailableCourses()
        </text>
        <polygon fill="#181818" points="563.5,263.5293,553.5,267.5293,563.5,271.5293,559.5,267.5293"
                 style="stroke:#181818;stroke-width:1.0;"/>
        <line style="stroke:#181818;stroke-width:1.0;stroke-dasharray:2.0,2.0;" x1="557.5" x2="716.5" y1="267.5293"
              y2="267.5293"/>
        <text fill="#000000" font-family="sans-serif" font-size="13" lengthAdjust="spacing" textLength="136" x="569.5"
              y="262.7871">getAvailableCourses()
        </text>
        <polygon fill="#181818" points="371.5,292.8398,361.5,296.8398,371.5,300.8398,367.5,296.8398"
                 style="stroke:#181818;stroke-width:1.0;"/>
        <line style="stroke:#181818;stroke-width:1.0;stroke-dasharray:2.0,2.0;" x1="365.5" x2="551.5" y1="296.8398"
              y2="296.8398"/>
        <text fill="#000000" font-family="sans-serif" font-size="13" lengthAdjust="spacing" textLength="73" x="377.5"
              y="292.0977">courses list
        </text>
        <polygon fill="#181818" points="151.5,322.1504,141.5,326.1504,151.5,330.1504,147.5,326.1504"
                 style="stroke:#181818;stroke-width:1.0;"/>
        <line style="stroke:#181818;stroke-width:1.0;stroke-dasharray:2.0,2.0;" x1="145.5" x2="354.5" y1="326.1504"
              y2="326.1504"/>
        <text fill="#000000" font-family="sans-serif" font-size="13" lengthAdjust="spacing" textLength="73" x="157.5"
              y="321.4082">courses list
        </text><!--SRC=[bP913e8m44NtFSKiTU45M9WGt9ZeHlG0jKvqaagn7J3Utf8GGA0qBjlvy-VrTvXO8np8CQIr92sl_fYPoZfqaEEhma8Xx4ZUhNmA8HKR2nU7LfJICYagPS5jGsTmDaUyx6EAp1HiZTQpNgv1oj7Mf72cVCBIEF8i7o4Q6jXivo4IS0_pNgqRSgebOu1rzZRWseCde3rcgdKBtSaY0mTFNwps0CCy4hWZTnrjtK-SAll-Fh1GzuXtaF3u0ZP_OTqmPlsB70zTjVlPX3-r_rcTIBpXjLcU4VhDPQ7Vioy0]-->
    </g>
</svg>