<?xml version="1.0" encoding="us-ascii" standalone="no"?>
<svg xmlns="http://www.w3.org/2000/svg" contentStyleType="text/css" height="1408px" preserveAspectRatio="none"
     style="width:1328px;height:1408px;background:#FFFFFF;" version="1.1" viewBox="0 0 1328 1408" width="1328px"
     zoomAndPan="magnify">
    <defs/>
    <g>
        <rect fill="#FFFFFF" height="32.3105" style="stroke:#181818;stroke-width:1.0;" width="10" x="242.5"
              y="140.1094"/>
        <rect fill="#FFFFFF" height="29.3105" style="stroke:#181818;stroke-width:1.0;" width="10" x="242.5"
              y="677.7676"/>
        <rect fill="#FFFFFF" height="32.3105" style="stroke:#181818;stroke-width:1.0;" width="10" x="242.5"
              y="763.6992"/>
        <rect fill="#FFFFFF" height="29.3105" style="stroke:#181818;stroke-width:1.0;" width="10" x="242.5"
              y="1280.668"/>
        <rect fill="#FFFFFF" height="293.1738" style="stroke:#181818;stroke-width:1.0;" width="10" x="380.5"
              y="91.4883"/>
        <rect fill="#FFFFFF" height="28" style="stroke:#181818;stroke-width:1.0;" width="10" x="385.5" y="241.041"/>
        <rect fill="#FFFFFF" height="28" style="stroke:#181818;stroke-width:1.0;" width="10" x="385.5" y="313.3516"/>
        <rect fill="#FFFFFF" height="29.3105" style="stroke:#181818;stroke-width:1.0;" width="10" x="380.5"
              y="413.9727"/>
        <rect fill="#FFFFFF" height="29.3105" style="stroke:#181818;stroke-width:1.0;" width="10" x="380.5"
              y="589.8359"/>
        <rect fill="#FFFFFF" height="29.3105" style="stroke:#181818;stroke-width:1.0;" width="10" x="380.5"
              y="648.457"/>
        <rect fill="#FFFFFF" height="132.9316" style="stroke:#181818;stroke-width:1.0;" width="10" x="380.5"
              y="796.0098"/>
        <rect fill="#FFFFFF" height="28" style="stroke:#181818;stroke-width:1.0;" width="10" x="385.5" y="864.6309"/>
        <rect fill="#FFFFFF" height="29.3105" style="stroke:#181818;stroke-width:1.0;" width="10" x="380.5"
              y="958.252"/>
        <rect fill="#FFFFFF" height="29.3105" style="stroke:#181818;stroke-width:1.0;" width="10" x="380.5"
              y="1192.7363"/>
        <rect fill="#FFFFFF" height="29.3105" style="stroke:#181818;stroke-width:1.0;" width="10" x="380.5"
              y="1251.3574"/>
        <rect fill="#FFFFFF" height="29.3105" style="stroke:#181818;stroke-width:1.0;" width="10" x="714.5"
              y="384.6621"/>
        <rect fill="#FFFFFF" height="29.3105" style="stroke:#181818;stroke-width:1.0;" width="10" x="714.5"
              y="619.1465"/>
        <rect fill="#FFFFFF" height="29.3105" style="stroke:#181818;stroke-width:1.0;" width="10" x="714.5"
              y="928.9414"/>
        <rect fill="#FFFFFF" height="29.3105" style="stroke:#181818;stroke-width:1.0;" width="10" x="714.5"
              y="1222.0469"/>
        <rect fill="#FFFFFF" height="29.3105" style="stroke:#181818;stroke-width:1.0;" width="10" x="838" y="443.2832"/>
        <rect fill="#FFFFFF" height="29.3105" style="stroke:#181818;stroke-width:1.0;" width="10" x="838" y="560.5254"/>
        <rect fill="#FFFFFF" height="29.3105" style="stroke:#181818;stroke-width:1.0;" width="10" x="838" y="987.5625"/>
        <rect fill="#FFFFFF" height="29.3105" style="stroke:#181818;stroke-width:1.0;" width="10" x="838"
              y="1104.8047"/>
        <rect fill="#FFFFFF" height="29.3105" style="stroke:#181818;stroke-width:1.0;" width="10" x="838"
              y="1163.4258"/>
        <rect fill="#FFFFFF" height="29.3105" style="stroke:#181818;stroke-width:1.0;" width="10" x="1008"
              y="472.5938"/>
        <rect fill="#FFFFFF" height="29.3105" style="stroke:#181818;stroke-width:1.0;" width="10" x="1008"
              y="531.2148"/>
        <rect fill="#FFFFFF" height="29.3105" style="stroke:#181818;stroke-width:1.0;" width="10" x="1008"
              y="1016.873"/>
        <rect fill="#FFFFFF" height="29.3105" style="stroke:#181818;stroke-width:1.0;" width="10" x="1008"
              y="1075.4941"/>
        <rect fill="#FFFFFF" height="29.3105" style="stroke:#181818;stroke-width:1.0;" width="10" x="1140.5"
              y="501.9043"/>
        <rect fill="#FFFFFF" height="29.3105" style="stroke:#181818;stroke-width:1.0;" width="10" x="1140.5"
              y="1046.1836"/>
        <rect fill="#FFFFFF" height="29.3105" style="stroke:#181818;stroke-width:1.0;" width="10" x="1262"
              y="1134.1152"/>
        <rect fill="none" height="81.9316" style="stroke:#000000;stroke-width:1.5;" width="528.5" x="10" y="98.4883"/>
        <rect fill="none" height="161.9316" style="stroke:#000000;stroke-width:1.5;" width="300" x="336.5"
              y="194.4199"/>
        <rect fill="none" height="81.9316" style="stroke:#000000;stroke-width:1.5;" width="528.5" x="10" y="722.0781"/>
        <line style="stroke:#181818;stroke-width:0.5;stroke-dasharray:5.0,5.0;" x1="38" x2="38" y1="81.4883"
              y2="1327.9785"/>
        <line style="stroke:#181818;stroke-width:0.5;stroke-dasharray:5.0,5.0;" x1="247.5" x2="247.5" y1="81.4883"
              y2="1327.9785"/>
        <line style="stroke:#181818;stroke-width:0.5;stroke-dasharray:5.0,5.0;" x1="385.5" x2="385.5" y1="81.4883"
              y2="1327.9785"/>
        <line style="stroke:#181818;stroke-width:0.5;stroke-dasharray:5.0,5.0;" x1="719.5" x2="719.5" y1="81.4883"
              y2="1327.9785"/>
        <line style="stroke:#181818;stroke-width:0.5;stroke-dasharray:5.0,5.0;" x1="842.5" x2="842.5" y1="81.4883"
              y2="1327.9785"/>
        <line style="stroke:#181818;stroke-width:0.5;stroke-dasharray:5.0,5.0;" x1="1013" x2="1013" y1="81.4883"
              y2="1327.9785"/>
        <line style="stroke:#181818;stroke-width:0.5;stroke-dasharray:5.0,5.0;" x1="1145" x2="1145" y1="81.4883"
              y2="1327.9785"/>
        <line style="stroke:#181818;stroke-width:0.5;stroke-dasharray:5.0,5.0;" x1="1267" x2="1267" y1="81.4883"
              y2="1327.9785"/>
        <text fill="#000000" font-family="sans-serif" font-size="14" lengthAdjust="spacing" textLength="31" x="20"
              y="78.5352">User
        </text>
        <ellipse cx="38.5" cy="13.5" fill="#E2E2F0" rx="8" ry="8" style="stroke:#181818;stroke-width:0.5;"/>
        <path d="M38.5,21.5 L38.5,48.5 M25.5,29.5 L51.5,29.5 M38.5,48.5 L25.5,63.5 M38.5,48.5 L51.5,63.5 " fill="none"
              style="stroke:#181818;stroke-width:0.5;"/>
        <text fill="#000000" font-family="sans-serif" font-size="14" lengthAdjust="spacing" textLength="31" x="20"
              y="1340.5137">User
        </text>
        <ellipse cx="38.5" cy="1351.9668" fill="#E2E2F0" rx="8" ry="8" style="stroke:#181818;stroke-width:0.5;"/>
        <path d="M38.5,1359.9668 L38.5,1386.9668 M25.5,1367.9668 L51.5,1367.9668 M38.5,1386.9668 L25.5,1401.9668 M38.5,1386.9668 L51.5,1401.9668 "
              fill="none" style="stroke:#181818;stroke-width:0.5;"/>
        <rect fill="#E2E2F0" height="30.4883" rx="2.5" ry="2.5" style="stroke:#181818;stroke-width:0.5;" width="54"
              x="220.5" y="50"/>
        <text fill="#000000" font-family="sans-serif" font-size="14" lengthAdjust="spacing" textLength="40" x="227.5"
              y="70.5352">Client
        </text>
        <rect fill="#E2E2F0" height="30.4883" rx="2.5" ry="2.5" style="stroke:#181818;stroke-width:0.5;" width="54"
              x="220.5" y="1326.9785"/>
        <text fill="#000000" font-family="sans-serif" font-size="14" lengthAdjust="spacing" textLength="40" x="227.5"
              y="1347.5137">Client
        </text>
        <rect fill="#E2E2F0" height="30.4883" rx="2.5" ry="2.5" style="stroke:#181818;stroke-width:0.5;" width="78"
              x="346.5" y="50"/>
        <text fill="#000000" font-family="sans-serif" font-size="14" lengthAdjust="spacing" textLength="64" x="353.5"
              y="70.5352">SBPClient
        </text>
        <rect fill="#E2E2F0" height="30.4883" rx="2.5" ry="2.5" style="stroke:#181818;stroke-width:0.5;" width="78"
              x="346.5" y="1326.9785"/>
        <text fill="#000000" font-family="sans-serif" font-size="14" lengthAdjust="spacing" textLength="64" x="353.5"
              y="1347.5137">SBPClient
        </text>
        <rect fill="#E2E2F0" height="30.4883" rx="2.5" ry="2.5" style="stroke:#181818;stroke-width:0.5;" width="146"
              x="646.5" y="50"/>
        <text fill="#000000" font-family="sans-serif" font-size="14" lengthAdjust="spacing" textLength="132" x="653.5"
              y="70.5352">SBPMessageFormat
        </text>
        <rect fill="#E2E2F0" height="30.4883" rx="2.5" ry="2.5" style="stroke:#181818;stroke-width:0.5;" width="146"
              x="646.5" y="1326.9785"/>
        <text fill="#000000" font-family="sans-serif" font-size="14" lengthAdjust="spacing" textLength="132" x="653.5"
              y="1347.5137">SBPMessageFormat
        </text>
        <rect fill="#E2E2F0" height="30.4883" rx="2.5" ry="2.5" style="stroke:#181818;stroke-width:0.5;" width="81"
              x="802.5" y="50"/>
        <text fill="#000000" font-family="sans-serif" font-size="14" lengthAdjust="spacing" textLength="67" x="809.5"
              y="70.5352">SBPServer
        </text>
        <rect fill="#E2E2F0" height="30.4883" rx="2.5" ry="2.5" style="stroke:#181818;stroke-width:0.5;" width="81"
              x="802.5" y="1326.9785"/>
        <text fill="#000000" font-family="sans-serif" font-size="14" lengthAdjust="spacing" textLength="67" x="809.5"
              y="1347.5137">SBPServer
        </text>
        <rect fill="#E2E2F0" height="30.4883" rx="2.5" ry="2.5" style="stroke:#181818;stroke-width:0.5;" width="132"
              x="947" y="50"/>
        <text fill="#000000" font-family="sans-serif" font-size="14" lengthAdjust="spacing" textLength="118" x="954"
              y="70.5352">SBPClientHandler
        </text>
        <rect fill="#E2E2F0" height="30.4883" rx="2.5" ry="2.5" style="stroke:#181818;stroke-width:0.5;" width="132"
              x="947" y="1326.9785"/>
        <text fill="#000000" font-family="sans-serif" font-size="14" lengthAdjust="spacing" textLength="118" x="954"
              y="1347.5137">SBPClientHandler
        </text>
        <rect fill="#E2E2F0" height="30.4883" rx="2.5" ry="2.5" style="stroke:#181818;stroke-width:0.5;" width="113"
              x="1089" y="50"/>
        <text fill="#000000" font-family="sans-serif" font-size="14" lengthAdjust="spacing" textLength="99" x="1096"
              y="70.5352">SBPCodeEnum
        </text>
        <rect fill="#E2E2F0" height="30.4883" rx="2.5" ry="2.5" style="stroke:#181818;stroke-width:0.5;" width="113"
              x="1089" y="1326.9785"/>
        <text fill="#000000" font-family="sans-serif" font-size="14" lengthAdjust="spacing" textLength="99" x="1096"
              y="1347.5137">SBPCodeEnum
        </text>
        <rect fill="#E2E2F0" height="30.4883" rx="2.5" ry="2.5" style="stroke:#181818;stroke-width:0.5;" width="110"
              x="1212" y="50"/>
        <text fill="#000000" font-family="sans-serif" font-size="14" lengthAdjust="spacing" textLength="96" x="1219"
              y="70.5352">AuthzRegistry
        </text>
        <rect fill="#E2E2F0" height="30.4883" rx="2.5" ry="2.5" style="stroke:#181818;stroke-width:0.5;" width="110"
              x="1212" y="1326.9785"/>
        <text fill="#000000" font-family="sans-serif" font-size="14" lengthAdjust="spacing" textLength="96" x="1219"
              y="1347.5137">AuthzRegistry
        </text>
        <rect fill="#FFFFFF" height="32.3105" style="stroke:#181818;stroke-width:1.0;" width="10" x="242.5"
              y="140.1094"/>
        <rect fill="#FFFFFF" height="29.3105" style="stroke:#181818;stroke-width:1.0;" width="10" x="242.5"
              y="677.7676"/>
        <rect fill="#FFFFFF" height="32.3105" style="stroke:#181818;stroke-width:1.0;" width="10" x="242.5"
              y="763.6992"/>
        <rect fill="#FFFFFF" height="29.3105" style="stroke:#181818;stroke-width:1.0;" width="10" x="242.5"
              y="1280.668"/>
        <rect fill="#FFFFFF" height="293.1738" style="stroke:#181818;stroke-width:1.0;" width="10" x="380.5"
              y="91.4883"/>
        <rect fill="#FFFFFF" height="28" style="stroke:#181818;stroke-width:1.0;" width="10" x="385.5" y="241.041"/>
        <rect fill="#FFFFFF" height="28" style="stroke:#181818;stroke-width:1.0;" width="10" x="385.5" y="313.3516"/>
        <rect fill="#FFFFFF" height="29.3105" style="stroke:#181818;stroke-width:1.0;" width="10" x="380.5"
              y="413.9727"/>
        <rect fill="#FFFFFF" height="29.3105" style="stroke:#181818;stroke-width:1.0;" width="10" x="380.5"
              y="589.8359"/>
        <rect fill="#FFFFFF" height="29.3105" style="stroke:#181818;stroke-width:1.0;" width="10" x="380.5"
              y="648.457"/>
        <rect fill="#FFFFFF" height="132.9316" style="stroke:#181818;stroke-width:1.0;" width="10" x="380.5"
              y="796.0098"/>
        <rect fill="#FFFFFF" height="28" style="stroke:#181818;stroke-width:1.0;" width="10" x="385.5" y="864.6309"/>
        <rect fill="#FFFFFF" height="29.3105" style="stroke:#181818;stroke-width:1.0;" width="10" x="380.5"
              y="958.252"/>
        <rect fill="#FFFFFF" height="29.3105" style="stroke:#181818;stroke-width:1.0;" width="10" x="380.5"
              y="1192.7363"/>
        <rect fill="#FFFFFF" height="29.3105" style="stroke:#181818;stroke-width:1.0;" width="10" x="380.5"
              y="1251.3574"/>
        <rect fill="#FFFFFF" height="29.3105" style="stroke:#181818;stroke-width:1.0;" width="10" x="714.5"
              y="384.6621"/>
        <rect fill="#FFFFFF" height="29.3105" style="stroke:#181818;stroke-width:1.0;" width="10" x="714.5"
              y="619.1465"/>
        <rect fill="#FFFFFF" height="29.3105" style="stroke:#181818;stroke-width:1.0;" width="10" x="714.5"
              y="928.9414"/>
        <rect fill="#FFFFFF" height="29.3105" style="stroke:#181818;stroke-width:1.0;" width="10" x="714.5"
              y="1222.0469"/>
        <rect fill="#FFFFFF" height="29.3105" style="stroke:#181818;stroke-width:1.0;" width="10" x="838" y="443.2832"/>
        <rect fill="#FFFFFF" height="29.3105" style="stroke:#181818;stroke-width:1.0;" width="10" x="838" y="560.5254"/>
        <rect fill="#FFFFFF" height="29.3105" style="stroke:#181818;stroke-width:1.0;" width="10" x="838" y="987.5625"/>
        <rect fill="#FFFFFF" height="29.3105" style="stroke:#181818;stroke-width:1.0;" width="10" x="838"
              y="1104.8047"/>
        <rect fill="#FFFFFF" height="29.3105" style="stroke:#181818;stroke-width:1.0;" width="10" x="838"
              y="1163.4258"/>
        <rect fill="#FFFFFF" height="29.3105" style="stroke:#181818;stroke-width:1.0;" width="10" x="1008"
              y="472.5938"/>
        <rect fill="#FFFFFF" height="29.3105" style="stroke:#181818;stroke-width:1.0;" width="10" x="1008"
              y="531.2148"/>
        <rect fill="#FFFFFF" height="29.3105" style="stroke:#181818;stroke-width:1.0;" width="10" x="1008"
              y="1016.873"/>
        <rect fill="#FFFFFF" height="29.3105" style="stroke:#181818;stroke-width:1.0;" width="10" x="1008"
              y="1075.4941"/>
        <rect fill="#FFFFFF" height="29.3105" style="stroke:#181818;stroke-width:1.0;" width="10" x="1140.5"
              y="501.9043"/>
        <rect fill="#FFFFFF" height="29.3105" style="stroke:#181818;stroke-width:1.0;" width="10" x="1140.5"
              y="1046.1836"/>
        <rect fill="#FFFFFF" height="29.3105" style="stroke:#181818;stroke-width:1.0;" width="10" x="1262"
              y="1134.1152"/>
        <path d="M10,98.4883 L72,98.4883 L72,105.7988 L62,115.7988 L10,115.7988 L10,98.4883 " fill="#EEEEEE"
              style="stroke:#000000;stroke-width:1.5;"/>
        <rect fill="none" height="81.9316" style="stroke:#000000;stroke-width:1.5;" width="528.5" x="10" y="98.4883"/>
        <text fill="#000000" font-family="sans-serif" font-size="13" font-weight="bold" lengthAdjust="spacing"
              textLength="17" x="25" y="112.0566">alt
        </text>
        <polygon fill="#181818" points="230.5,136.1094,240.5,140.1094,230.5,144.1094,234.5,140.1094"
                 style="stroke:#181818;stroke-width:1.0;"/>
        <line style="stroke:#181818;stroke-width:1.0;" x1="38.5" x2="236.5" y1="140.1094" y2="140.1094"/>
        <text fill="#000000" font-family="sans-serif" font-size="13" lengthAdjust="spacing" textLength="45" x="45.5"
              y="135.3672">choose
        </text>
        <path d="M257,120.7988 L257,145.7988 L533,145.7988 L533,130.7988 L523,120.7988 L257,120.7988 " fill="#FEFFDD"
              style="stroke:#181818;stroke-width:0.5;"/>
        <path d="M523,120.7988 L523,130.7988 L533,130.7988 L523,120.7988 " fill="#FEFFDD"
              style="stroke:#181818;stroke-width:0.5;"/>
        <text fill="#000000" font-family="sans-serif" font-size="13" lengthAdjust="spacing" textLength="255" x="263"
              y="138.3672">"test connection" | "login" | "disconnect"
        </text>
        <polygon fill="#181818" points="368.5,168.4199,378.5,172.4199,368.5,176.4199,372.5,172.4199"
                 style="stroke:#181818;stroke-width:1.0;"/>
        <line style="stroke:#181818;stroke-width:1.0;" x1="247.5" x2="374.5" y1="172.4199" y2="172.4199"/>
        <text fill="#000000" font-family="sans-serif" font-size="13" lengthAdjust="spacing" textLength="109" x="254.5"
              y="167.6777">startConnection()
        </text>
        <path d="M336.5,194.4199 L398.5,194.4199 L398.5,201.7305 L388.5,211.7305 L336.5,211.7305 L336.5,194.4199 "
              fill="#EEEEEE" style="stroke:#000000;stroke-width:1.5;"/>
        <rect fill="none" height="161.9316" style="stroke:#000000;stroke-width:1.5;" width="300" x="336.5"
              y="194.4199"/>
        <text fill="#000000" font-family="sans-serif" font-size="13" font-weight="bold" lengthAdjust="spacing"
              textLength="17" x="351.5" y="207.9883">alt
        </text>
        <line style="stroke:#181818;stroke-width:1.0;" x1="395.5" x2="437.5" y1="233.041" y2="233.041"/>
        <line style="stroke:#181818;stroke-width:1.0;" x1="437.5" x2="437.5" y1="233.041" y2="246.041"/>
        <line style="stroke:#181818;stroke-width:1.0;" x1="396.5" x2="437.5" y1="246.041" y2="246.041"/>
        <polygon fill="#181818" points="406.5,242.041,396.5,246.041,406.5,250.041,402.5,246.041"
                 style="stroke:#181818;stroke-width:1.0;"/>
        <text fill="#000000" font-family="sans-serif" font-size="13" lengthAdjust="spacing" textLength="222" x="402.5"
              y="228.2988">sendCommunicationsTestRequest()
        </text>
        <line style="stroke:#181818;stroke-width:1.0;" x1="395.5" x2="437.5" y1="305.3516" y2="305.3516"/>
        <line style="stroke:#181818;stroke-width:1.0;" x1="437.5" x2="437.5" y1="305.3516" y2="318.3516"/>
        <line style="stroke:#181818;stroke-width:1.0;" x1="396.5" x2="437.5" y1="318.3516" y2="318.3516"/>
        <polygon fill="#181818" points="406.5,314.3516,396.5,318.3516,406.5,322.3516,402.5,318.3516"
                 style="stroke:#181818;stroke-width:1.0;"/>
        <text fill="#000000" font-family="sans-serif" font-size="13" lengthAdjust="spacing" textLength="171" x="402.5"
              y="300.6094">sendEndOfSessionrequest()
        </text>
        <polygon fill="#181818" points="702.5,380.6621,712.5,384.6621,702.5,388.6621,706.5,384.6621"
                 style="stroke:#181818;stroke-width:1.0;"/>
        <line style="stroke:#181818;stroke-width:1.0;" x1="385.5" x2="708.5" y1="384.6621" y2="384.6621"/>
        <text fill="#000000" font-family="sans-serif" font-size="13" lengthAdjust="spacing" textLength="80" x="392.5"
              y="379.9199">toByteArray()
        </text>
        <polygon fill="#181818" points="401.5,409.9727,391.5,413.9727,401.5,417.9727,397.5,413.9727"
                 style="stroke:#181818;stroke-width:1.0;"/>
        <line style="stroke:#181818;stroke-width:1.0;" x1="395.5" x2="718.5" y1="413.9727" y2="413.9727"/>
        <text fill="#000000" font-family="sans-serif" font-size="13" lengthAdjust="spacing" textLength="81" x="407.5"
              y="409.2305">requestbytes
        </text>
        <polygon fill="#181818" points="826,439.2832,836,443.2832,826,447.2832,830,443.2832"
                 style="stroke:#181818;stroke-width:1.0;"/>
        <line style="stroke:#181818;stroke-width:1.0;" x1="385.5" x2="832" y1="443.2832" y2="443.2832"/>
        <text fill="#000000" font-family="sans-serif" font-size="13" lengthAdjust="spacing" textLength="88" x="392.5"
              y="438.541">sendRequest()
        </text>
        <polygon fill="#181818" points="996,468.5938,1006,472.5938,996,476.5938,1000,472.5938"
                 style="stroke:#181818;stroke-width:1.0;"/>
        <line style="stroke:#181818;stroke-width:1.0;" x1="843" x2="1002" y1="472.5938" y2="472.5938"/>
        <text fill="#000000" font-family="sans-serif" font-size="13" lengthAdjust="spacing" textLength="125" x="850"
              y="467.8516">communicationTest
        </text>
        <polygon fill="#181818" points="1128.5,497.9043,1138.5,501.9043,1128.5,505.9043,1132.5,501.9043"
                 style="stroke:#181818;stroke-width:1.0;"/>
        <line style="stroke:#181818;stroke-width:1.0;" x1="1013" x2="1134.5" y1="501.9043" y2="501.9043"/>
        <text fill="#000000" font-family="sans-serif" font-size="13" lengthAdjust="spacing" textLength="58" x="1020"
              y="497.1621">getcode()
        </text>
        <polygon fill="#181818" points="1029,527.2148,1019,531.2148,1029,535.2148,1025,531.2148"
                 style="stroke:#181818;stroke-width:1.0;"/>
        <line style="stroke:#181818;stroke-width:1.0;" x1="1023" x2="1144.5" y1="531.2148" y2="531.2148"/>
        <text fill="#000000" font-family="sans-serif" font-size="13" lengthAdjust="spacing" textLength="30" x="1035"
              y="526.4727">code
        </text>
        <polygon fill="#181818" points="859,556.5254,849,560.5254,859,564.5254,855,560.5254"
                 style="stroke:#181818;stroke-width:1.0;"/>
        <line style="stroke:#181818;stroke-width:1.0;" x1="853" x2="1012" y1="560.5254" y2="560.5254"/>
        <text fill="#000000" font-family="sans-serif" font-size="13" lengthAdjust="spacing" textLength="30" x="865"
              y="555.7832">code
        </text>
        <polygon fill="#181818" points="401.5,585.8359,391.5,589.8359,401.5,593.8359,397.5,589.8359"
                 style="stroke:#181818;stroke-width:1.0;"/>
        <line style="stroke:#181818;stroke-width:1.0;" x1="395.5" x2="842" y1="589.8359" y2="589.8359"/>
        <text fill="#000000" font-family="sans-serif" font-size="13" lengthAdjust="spacing" textLength="38" x="407.5"
              y="585.0938">return
        </text>
        <polygon fill="#181818" points="702.5,615.1465,712.5,619.1465,702.5,623.1465,706.5,619.1465"
                 style="stroke:#181818;stroke-width:1.0;"/>
        <line style="stroke:#181818;stroke-width:1.0;" x1="385.5" x2="708.5" y1="619.1465" y2="619.1465"/>
        <text fill="#000000" font-family="sans-serif" font-size="13" lengthAdjust="spacing" textLength="188" x="392.5"
              y="614.4043">fromByteArray(responsebytes)
        </text>
        <polygon fill="#181818" points="401.5,644.457,391.5,648.457,401.5,652.457,397.5,648.457"
                 style="stroke:#181818;stroke-width:1.0;"/>
        <line style="stroke:#181818;stroke-width:1.0;" x1="395.5" x2="718.5" y1="648.457" y2="648.457"/>
        <text fill="#000000" font-family="sans-serif" font-size="13" lengthAdjust="spacing" textLength="91" x="407.5"
              y="643.7148">responsebytes
        </text>
        <polygon fill="#181818" points="263.5,673.7676,253.5,677.7676,263.5,681.7676,259.5,677.7676"
                 style="stroke:#181818;stroke-width:1.0;"/>
        <line style="stroke:#181818;stroke-width:1.0;" x1="257.5" x2="384.5" y1="677.7676" y2="677.7676"/>
        <text fill="#000000" font-family="sans-serif" font-size="13" lengthAdjust="spacing" textLength="97" x="269.5"
              y="673.0254">return message
        </text>
        <polygon fill="#181818" points="49.5,703.0781,39.5,707.0781,49.5,711.0781,45.5,707.0781"
                 style="stroke:#181818;stroke-width:1.0;"/>
        <line style="stroke:#181818;stroke-width:1.0;" x1="43.5" x2="246.5" y1="707.0781" y2="707.0781"/>
        <text fill="#000000" font-family="sans-serif" font-size="13" lengthAdjust="spacing" textLength="180" x="55.5"
              y="702.3359">display appropriate message
        </text>
        <path d="M10,722.0781 L72,722.0781 L72,729.3887 L62,739.3887 L10,739.3887 L10,722.0781 " fill="#EEEEEE"
              style="stroke:#000000;stroke-width:1.5;"/>
        <rect fill="none" height="81.9316" style="stroke:#000000;stroke-width:1.5;" width="528.5" x="10" y="722.0781"/>
        <text fill="#000000" font-family="sans-serif" font-size="13" font-weight="bold" lengthAdjust="spacing"
              textLength="17" x="25" y="735.6465">alt
        </text>
        <polygon fill="#181818" points="230.5,759.6992,240.5,763.6992,230.5,767.6992,234.5,763.6992"
                 style="stroke:#181818;stroke-width:1.0;"/>
        <line style="stroke:#181818;stroke-width:1.0;" x1="38.5" x2="236.5" y1="763.6992" y2="763.6992"/>
        <text fill="#000000" font-family="sans-serif" font-size="13" lengthAdjust="spacing" textLength="45" x="45.5"
              y="758.957">choose
        </text>
        <path d="M257,744.3887 L257,769.3887 L533,769.3887 L533,754.3887 L523,744.3887 L257,744.3887 " fill="#FEFFDD"
              style="stroke:#181818;stroke-width:0.5;"/>
        <path d="M523,744.3887 L523,754.3887 L533,754.3887 L523,744.3887 " fill="#FEFFDD"
              style="stroke:#181818;stroke-width:0.5;"/>
        <text fill="#000000" font-family="sans-serif" font-size="13" lengthAdjust="spacing" textLength="255" x="263"
              y="761.957">"test connection" | "login" | "disconnect"
        </text>
        <polygon fill="#181818" points="368.5,792.0098,378.5,796.0098,368.5,800.0098,372.5,796.0098"
                 style="stroke:#181818;stroke-width:1.0;"/>
        <line style="stroke:#181818;stroke-width:1.0;" x1="247.5" x2="374.5" y1="796.0098" y2="796.0098"/>
        <text fill="#000000" font-family="sans-serif" font-size="13" lengthAdjust="spacing" textLength="109" x="254.5"
              y="791.2676">startConnection()
        </text>
        <line style="stroke:#181818;stroke-width:1.0;" x1="395.5" x2="437.5" y1="856.6309" y2="856.6309"/>
        <line style="stroke:#181818;stroke-width:1.0;" x1="437.5" x2="437.5" y1="856.6309" y2="869.6309"/>
        <line style="stroke:#181818;stroke-width:1.0;" x1="396.5" x2="437.5" y1="869.6309" y2="869.6309"/>
        <polygon fill="#181818" points="406.5,865.6309,396.5,869.6309,406.5,873.6309,402.5,869.6309"
                 style="stroke:#181818;stroke-width:1.0;"/>
        <text fill="#000000" font-family="sans-serif" font-size="13" lengthAdjust="spacing" textLength="310" x="402.5"
              y="851.8887">sendAuthenticationRequest(username, password)
        </text>
        <polygon fill="#181818" points="702.5,924.9414,712.5,928.9414,702.5,932.9414,706.5,928.9414"
                 style="stroke:#181818;stroke-width:1.0;"/>
        <line style="stroke:#181818;stroke-width:1.0;" x1="385.5" x2="708.5" y1="928.9414" y2="928.9414"/>
        <text fill="#000000" font-family="sans-serif" font-size="13" lengthAdjust="spacing" textLength="80" x="392.5"
              y="924.1992">toByteArray()
        </text>
        <polygon fill="#181818" points="401.5,954.252,391.5,958.252,401.5,962.252,397.5,958.252"
                 style="stroke:#181818;stroke-width:1.0;"/>
        <line style="stroke:#181818;stroke-width:1.0;" x1="395.5" x2="718.5" y1="958.252" y2="958.252"/>
        <text fill="#000000" font-family="sans-serif" font-size="13" lengthAdjust="spacing" textLength="81" x="407.5"
              y="953.5098">requestbytes
        </text>
        <polygon fill="#181818" points="826,983.5625,836,987.5625,826,991.5625,830,987.5625"
                 style="stroke:#181818;stroke-width:1.0;"/>
        <line style="stroke:#181818;stroke-width:1.0;" x1="385.5" x2="832" y1="987.5625" y2="987.5625"/>
        <text fill="#000000" font-family="sans-serif" font-size="13" lengthAdjust="spacing" textLength="88" x="392.5"
              y="982.8203">sendRequest()
        </text>
        <polygon fill="#181818" points="996,1012.873,1006,1016.873,996,1020.873,1000,1016.873"
                 style="stroke:#181818;stroke-width:1.0;"/>
        <line style="stroke:#181818;stroke-width:1.0;" x1="843" x2="1002" y1="1016.873" y2="1016.873"/>
        <text fill="#000000" font-family="sans-serif" font-size="13" lengthAdjust="spacing" textLength="141" x="850"
              y="1012.1309">authenticationRequest
        </text>
        <polygon fill="#181818" points="1128.5,1042.1836,1138.5,1046.1836,1128.5,1050.1836,1132.5,1046.1836"
                 style="stroke:#181818;stroke-width:1.0;"/>
        <line style="stroke:#181818;stroke-width:1.0;" x1="1013" x2="1134.5" y1="1046.1836" y2="1046.1836"/>
        <text fill="#000000" font-family="sans-serif" font-size="13" lengthAdjust="spacing" textLength="58" x="1020"
              y="1041.4414">getcode()
        </text>
        <polygon fill="#181818" points="1029,1071.4941,1019,1075.4941,1029,1079.4941,1025,1075.4941"
                 style="stroke:#181818;stroke-width:1.0;"/>
        <line style="stroke:#181818;stroke-width:1.0;" x1="1023" x2="1144.5" y1="1075.4941" y2="1075.4941"/>
        <text fill="#000000" font-family="sans-serif" font-size="13" lengthAdjust="spacing" textLength="30" x="1035"
              y="1070.752">code
        </text>
        <polygon fill="#181818" points="859,1100.8047,849,1104.8047,859,1108.8047,855,1104.8047"
                 style="stroke:#181818;stroke-width:1.0;"/>
        <line style="stroke:#181818;stroke-width:1.0;" x1="853" x2="1012" y1="1104.8047" y2="1104.8047"/>
        <text fill="#000000" font-family="sans-serif" font-size="13" lengthAdjust="spacing" textLength="30" x="865"
              y="1100.0625">code
        </text>
        <polygon fill="#181818" points="1250,1130.1152,1260,1134.1152,1250,1138.1152,1254,1134.1152"
                 style="stroke:#181818;stroke-width:1.0;"/>
        <line style="stroke:#181818;stroke-width:1.0;" x1="843" x2="1256" y1="1134.1152" y2="1134.1152"/>
        <text fill="#000000" font-family="sans-serif" font-size="13" lengthAdjust="spacing" textLength="143" x="850"
              y="1129.373">authenticationService()
        </text>
        <polygon fill="#181818" points="859,1159.4258,849,1163.4258,859,1167.4258,855,1163.4258"
                 style="stroke:#181818;stroke-width:1.0;"/>
        <line style="stroke:#181818;stroke-width:1.0;" x1="853" x2="1266" y1="1163.4258" y2="1163.4258"/>
        <text fill="#000000" font-family="sans-serif" font-size="13" lengthAdjust="spacing" textLength="38" x="865"
              y="1158.6836">return
        </text>
        <polygon fill="#181818" points="401.5,1188.7363,391.5,1192.7363,401.5,1196.7363,397.5,1192.7363"
                 style="stroke:#181818;stroke-width:1.0;"/>
        <line style="stroke:#181818;stroke-width:1.0;" x1="395.5" x2="842" y1="1192.7363" y2="1192.7363"/>
        <text fill="#000000" font-family="sans-serif" font-size="13" lengthAdjust="spacing" textLength="38" x="407.5"
              y="1187.9941">return
        </text>
        <polygon fill="#181818" points="702.5,1218.0469,712.5,1222.0469,702.5,1226.0469,706.5,1222.0469"
                 style="stroke:#181818;stroke-width:1.0;"/>
        <line style="stroke:#181818;stroke-width:1.0;" x1="385.5" x2="708.5" y1="1222.0469" y2="1222.0469"/>
        <text fill="#000000" font-family="sans-serif" font-size="13" lengthAdjust="spacing" textLength="188" x="392.5"
              y="1217.3047">fromByteArray(responsebytes)
        </text>
        <polygon fill="#181818" points="401.5,1247.3574,391.5,1251.3574,401.5,1255.3574,397.5,1251.3574"
                 style="stroke:#181818;stroke-width:1.0;"/>
        <line style="stroke:#181818;stroke-width:1.0;" x1="395.5" x2="718.5" y1="1251.3574" y2="1251.3574"/>
        <text fill="#000000" font-family="sans-serif" font-size="13" lengthAdjust="spacing" textLength="91" x="407.5"
              y="1246.6152">responsebytes
        </text>
        <polygon fill="#181818" points="263.5,1276.668,253.5,1280.668,263.5,1284.668,259.5,1280.668"
                 style="stroke:#181818;stroke-width:1.0;"/>
        <line style="stroke:#181818;stroke-width:1.0;" x1="257.5" x2="384.5" y1="1280.668" y2="1280.668"/>
        <text fill="#000000" font-family="sans-serif" font-size="13" lengthAdjust="spacing" textLength="97" x="269.5"
              y="1275.9258">return message
        </text>
        <polygon fill="#181818" points="49.5,1305.9785,39.5,1309.9785,49.5,1313.9785,45.5,1309.9785"
                 style="stroke:#181818;stroke-width:1.0;"/>
        <line style="stroke:#181818;stroke-width:1.0;" x1="43.5" x2="246.5" y1="1309.9785" y2="1309.9785"/>
        <text fill="#000000" font-family="sans-serif" font-size="13" lengthAdjust="spacing" textLength="180" x="55.5"
              y="1305.2363">display appropriate message
        </text><!--SRC=[xLJBJiCm4BpxAwoUG88Vo049AX0N1ABm0Okpf9OIEwmTK14VpxfvD77Vb4CFFSMlcHrFrWFAMvAl3acKG5uhNOBnSfnhv0yuMMaX8FSY796NLpnFf9fQwr0Owr6IpgO-6NbqNYfh32glhHd97pdARQRhKQfTipSIm0S-WP7CNEb0ERbvgkibqdaMCUvepiv5Ydq0cbG6DTrQXvsBx6OnBUF6jYWgenK4OlV2Uf_ne-8F5rb1rwkxMDp4VslIn_S9EiVqj3TpUx6umWCJGePtbWhWGjxUp3nU4y5iw4tFXzxI02tYXUWIZUWtBk0YwY7F3iPCa3wHQcCMDc_LMyD4Dneel0UJve5KzVza-94HSSEoNAjX4F52MyQcU6kg8f4PUiMJDP9Rci5EWnMzyJhrASQqBNXloQtFgqZNQjteSkW3Nv7PrTDj7VjEjbZqBA4h-VNXlCd-lu5xv0TrS0YvsWPPrC0jKhii2p6PICwxCeUPXB8aMv8EHrOG7LUsRaYb_U8sFFhhoazvt3pIDW8glgY10Yza2SvzMKh_dhsdP5pE5bZb-YaT3qx7qCtVpvXfvsaMsnoEQRLiHspqW4GCPf7UvGGUOazXVfnX_Wi0]-->
    </g>
</svg>