<?xml version="1.0" encoding="us-ascii" standalone="no"?><svg xmlns="http://www.w3.org/2000/svg" xmlns:xlink="http://www.w3.org/1999/xlink" contentStyleType="text/css" height="596px" preserveAspectRatio="none" style="width:1034px;height:596px;background:#FFFFFF;" version="1.1" viewBox="0 0 1034 596" width="1034px" zoomAndPan="magnify"><defs/><g><rect fill="#FFFFFF" height="173.7461" style="stroke:#181818;stroke-width:1.0;" width="10" x="280.5" y="134.2031"/><rect fill="#FFFFFF" height="156.4551" style="stroke:#181818;stroke-width:1.0;" width="10" x="280.5" y="339.2402"/><rect fill="#FFFFFF" height="93.873" style="stroke:#181818;stroke-width:1.0;" width="10" x="506.5" y="165.4941"/><rect fill="#FFFFFF" height="93.873" style="stroke:#181818;stroke-width:1.0;" width="10" x="506.5" y="370.5313"/><rect fill="#FFFFFF" height="31.291" style="stroke:#181818;stroke-width:1.0;" width="10" x="742.5" y="196.7852"/><rect fill="#FFFFFF" height="31.291" style="stroke:#181818;stroke-width:1.0;" width="10" x="922" y="401.8223"/><line style="stroke:#181818;stroke-width:0.5;stroke-dasharray:5.0,5.0;" x1="22" x2="22" y1="83.6211" y2="513.6953"/><line style="stroke:#181818;stroke-width:0.5;stroke-dasharray:5.0,5.0;" x1="285.5" x2="285.5" y1="83.6211" y2="513.6953"/><line style="stroke:#181818;stroke-width:0.5;stroke-dasharray:5.0,5.0;" x1="511.5" x2="511.5" y1="83.6211" y2="513.6953"/><line style="stroke:#181818;stroke-width:0.5;stroke-dasharray:5.0,5.0;" x1="747.5" x2="747.5" y1="83.6211" y2="513.6953"/><line style="stroke:#181818;stroke-width:0.5;stroke-dasharray:5.0,5.0;" x1="926.5" x2="926.5" y1="83.6211" y2="513.6953"/><text fill="#000000" font-family="sans-serif" font-size="14" lengthAdjust="spacing" textLength="29" x="5" y="80.1074">User</text><ellipse cx="22.5" cy="13.5" fill="#E2E2F0" rx="8" ry="8" style="stroke:#181818;stroke-width:0.5;"/><path d="M22.5,21.5 L22.5,48.5 M9.5,29.5 L35.5,29.5 M22.5,48.5 L9.5,63.5 M22.5,48.5 L35.5,63.5 " fill="none" style="stroke:#181818;stroke-width:0.5;"/><text fill="#000000" font-family="sans-serif" font-size="14" lengthAdjust="spacing" textLength="29" x="5" y="527.8027">User</text><ellipse cx="22.5" cy="539.8164" fill="#E2E2F0" rx="8" ry="8" style="stroke:#181818;stroke-width:0.5;"/><path d="M22.5,547.8164 L22.5,574.8164 M9.5,555.8164 L35.5,555.8164 M22.5,574.8164 L9.5,589.8164 M22.5,574.8164 L35.5,589.8164 " fill="none" style="stroke:#181818;stroke-width:0.5;"/><rect fill="#E2E2F0" height="32.6211" rx="2.5" ry="2.5" style="stroke:#181818;stroke-width:0.5;" width="176" x="197.5" y="50"/><text fill="#000000" font-family="sans-serif" font-size="14" lengthAdjust="spacing" textLength="162" x="204.5" y="72.1074">:ListMeetingParticipantsUI</text><rect fill="#E2E2F0" height="32.6211" rx="2.5" ry="2.5" style="stroke:#181818;stroke-width:0.5;" width="176" x="197.5" y="512.6953"/><text fill="#000000" font-family="sans-serif" font-size="14" lengthAdjust="spacing" textLength="162" x="204.5" y="534.8027">:ListMeetingParticipantsUI</text><rect fill="#E2E2F0" height="32.6211" rx="2.5" ry="2.5" style="stroke:#181818;stroke-width:0.5;" width="152" x="435.5" y="50"/><text fill="#000000" font-family="sans-serif" font-size="14" lengthAdjust="spacing" textLength="138" x="442.5" y="72.1074">:ListMeetingController</text><rect fill="#E2E2F0" height="32.6211" rx="2.5" ry="2.5" style="stroke:#181818;stroke-width:0.5;" width="152" x="435.5" y="512.6953"/><text fill="#000000" font-family="sans-serif" font-size="14" lengthAdjust="spacing" textLength="138" x="442.5" y="534.8027">:ListMeetingController</text><rect fill="#E2E2F0" height="32.6211" rx="2.5" ry="2.5" style="stroke:#181818;stroke-width:0.5;" width="136" x="679.5" y="50"/><text fill="#000000" font-family="sans-serif" font-size="14" lengthAdjust="spacing" textLength="122" x="686.5" y="72.1074">:MeetingRepository</text><rect fill="#E2E2F0" height="32.6211" rx="2.5" ry="2.5" style="stroke:#181818;stroke-width:0.5;" width="136" x="679.5" y="512.6953"/><text fill="#000000" font-family="sans-serif" font-size="14" lengthAdjust="spacing" textLength="122" x="686.5" y="534.8027">:MeetingRepository</text><rect fill="#E2E2F0" height="32.6211" rx="2.5" ry="2.5" style="stroke:#181818;stroke-width:0.5;" width="203" x="825.5" y="50"/><text fill="#000000" font-family="sans-serif" font-size="14" lengthAdjust="spacing" textLength="189" x="832.5" y="72.1074">:MeetingParticipantRepository</text><rect fill="#E2E2F0" height="32.6211" rx="2.5" ry="2.5" style="stroke:#181818;stroke-width:0.5;" width="203" x="825.5" y="512.6953"/><text fill="#000000" font-family="sans-serif" font-size="14" lengthAdjust="spacing" textLength="189" x="832.5" y="534.8027">:MeetingParticipantRepository</text><rect fill="#FFFFFF" height="173.7461" style="stroke:#181818;stroke-width:1.0;" width="10" x="280.5" y="134.2031"/><rect fill="#FFFFFF" height="156.4551" style="stroke:#181818;stroke-width:1.0;" width="10" x="280.5" y="339.2402"/><rect fill="#FFFFFF" height="93.873" style="stroke:#181818;stroke-width:1.0;" width="10" x="506.5" y="165.4941"/><rect fill="#FFFFFF" height="93.873" style="stroke:#181818;stroke-width:1.0;" width="10" x="506.5" y="370.5313"/><rect fill="#FFFFFF" height="31.291" style="stroke:#181818;stroke-width:1.0;" width="10" x="742.5" y="196.7852"/><rect fill="#FFFFFF" height="31.291" style="stroke:#181818;stroke-width:1.0;" width="10" x="922" y="401.8223"/><polygon fill="#181818" points="268.5,130.2031,278.5,134.2031,268.5,138.2031,272.5,134.2031" style="stroke:#181818;stroke-width:1.0;"/><line style="stroke:#181818;stroke-width:1.0;" x1="22.5" x2="274.5" y1="134.2031" y2="134.2031"/><text fill="#000000" font-family="sans-serif" font-size="13" font-weight="bold" lengthAdjust="spacing" textLength="7" x="48" y="120.2949">1</text><text fill="#000000" font-family="sans-serif" font-size="13" lengthAdjust="spacing" textLength="188" x="59" y="111.6494">asks to view a list of participants</text><text fill="#000000" font-family="sans-serif" font-size="13" lengthAdjust="spacing" textLength="176" x="71" y="128.9404">in my meeting and their status</text><polygon fill="#181818" points="494.5,161.4941,504.5,165.4941,494.5,169.4941,498.5,165.4941" style="stroke:#181818;stroke-width:1.0;"/><line style="stroke:#181818;stroke-width:1.0;" x1="290.5" x2="500.5" y1="165.4941" y2="165.4941"/><text fill="#000000" font-family="sans-serif" font-size="13" font-weight="bold" lengthAdjust="spacing" textLength="7" x="345" y="160.2314">2</text><text fill="#000000" font-family="sans-serif" font-size="13" lengthAdjust="spacing" textLength="96" x="356" y="160.2314">listMyMeetings()</text><polygon fill="#181818" points="730.5,192.7852,740.5,196.7852,730.5,200.7852,734.5,196.7852" style="stroke:#181818;stroke-width:1.0;"/><line style="stroke:#181818;stroke-width:1.0;" x1="516.5" x2="736.5" y1="196.7852" y2="196.7852"/><text fill="#000000" font-family="sans-serif" font-size="13" font-weight="bold" lengthAdjust="spacing" textLength="7" x="526" y="191.5225">3</text><text fill="#000000" font-family="sans-serif" font-size="13" lengthAdjust="spacing" textLength="196" x="537" y="191.5225">findMeetingsByUser(SystemUser)</text><polygon fill="#181818" points="527.5,224.0762,517.5,228.0762,527.5,232.0762,523.5,228.0762" style="stroke:#181818;stroke-width:1.0;"/><line style="stroke:#181818;stroke-width:1.0;" x1="521.5" x2="746.5" y1="228.0762" y2="228.0762"/><text fill="#000000" font-family="sans-serif" font-size="13" font-weight="bold" lengthAdjust="spacing" textLength="7" x="608" y="222.8135">4</text><text fill="#000000" font-family="sans-serif" font-size="13" lengthAdjust="spacing" textLength="37" x="619" y="222.8135">Result</text><polygon fill="#181818" points="301.5,255.3672,291.5,259.3672,301.5,263.3672,297.5,259.3672" style="stroke:#181818;stroke-width:1.0;"/><line style="stroke:#181818;stroke-width:1.0;" x1="295.5" x2="510.5" y1="259.3672" y2="259.3672"/><text fill="#000000" font-family="sans-serif" font-size="13" font-weight="bold" lengthAdjust="spacing" textLength="7" x="377" y="254.1045">5</text><text fill="#000000" font-family="sans-serif" font-size="13" lengthAdjust="spacing" textLength="37" x="388" y="254.1045">Result</text><polygon fill="#181818" points="33.5,303.9492,23.5,307.9492,33.5,311.9492,29.5,307.9492" style="stroke:#181818;stroke-width:1.0;"/><line style="stroke:#181818;stroke-width:1.0;" x1="27.5" x2="284.5" y1="307.9492" y2="307.9492"/><text fill="#000000" font-family="sans-serif" font-size="13" font-weight="bold" lengthAdjust="spacing" textLength="7" x="80.5" y="294.041">6</text><text fill="#000000" font-family="sans-serif" font-size="13" lengthAdjust="spacing" textLength="108" x="103.5" y="285.3955">show meetings list</text><text fill="#000000" font-family="sans-serif" font-size="13" lengthAdjust="spacing" textLength="132" x="95.5" y="302.6865">and asks to select one</text><polygon fill="#181818" points="268.5,335.2402,278.5,339.2402,268.5,343.2402,272.5,339.2402" style="stroke:#181818;stroke-width:1.0;"/><line style="stroke:#181818;stroke-width:1.0;" x1="22.5" x2="274.5" y1="339.2402" y2="339.2402"/><text fill="#000000" font-family="sans-serif" font-size="13" font-weight="bold" lengthAdjust="spacing" textLength="7" x="98" y="333.9775">7</text><text fill="#000000" font-family="sans-serif" font-size="13" lengthAdjust="spacing" textLength="96" x="109" y="333.9775">select a meeting</text><polygon fill="#181818" points="494.5,366.5313,504.5,370.5313,494.5,374.5313,498.5,370.5313" style="stroke:#181818;stroke-width:1.0;"/><line style="stroke:#181818;stroke-width:1.0;" x1="290.5" x2="500.5" y1="370.5313" y2="370.5313"/><text fill="#000000" font-family="sans-serif" font-size="13" font-weight="bold" lengthAdjust="spacing" textLength="7" x="300" y="365.2686">8</text><text fill="#000000" font-family="sans-serif" font-size="13" lengthAdjust="spacing" textLength="186" x="311" y="365.2686">listMeetingParticipants(Meeting)</text><polygon fill="#181818" points="910,397.8223,920,401.8223,910,405.8223,914,401.8223" style="stroke:#181818;stroke-width:1.0;"/><line style="stroke:#181818;stroke-width:1.0;" x1="516.5" x2="916" y1="401.8223" y2="401.8223"/><text fill="#000000" font-family="sans-serif" font-size="13" font-weight="bold" lengthAdjust="spacing" textLength="7" x="588.25" y="396.5596">9</text><text fill="#000000" font-family="sans-serif" font-size="13" lengthAdjust="spacing" textLength="251" x="599.25" y="396.5596">findMeetingParticipantsByMeeting(Meeting)</text><polygon fill="#181818" points="527.5,429.1133,517.5,433.1133,527.5,437.1133,523.5,433.1133" style="stroke:#181818;stroke-width:1.0;"/><line style="stroke:#181818;stroke-width:1.0;" x1="521.5" x2="926" y1="433.1133" y2="433.1133"/><text fill="#000000" font-family="sans-serif" font-size="13" font-weight="bold" lengthAdjust="spacing" textLength="14" x="694.25" y="427.8506">10</text><text fill="#000000" font-family="sans-serif" font-size="13" lengthAdjust="spacing" textLength="37" x="712.25" y="427.8506">Result</text><polygon fill="#181818" points="301.5,460.4043,291.5,464.4043,301.5,468.4043,297.5,464.4043" style="stroke:#181818;stroke-width:1.0;"/><line style="stroke:#181818;stroke-width:1.0;" x1="295.5" x2="510.5" y1="464.4043" y2="464.4043"/><text fill="#000000" font-family="sans-serif" font-size="13" font-weight="bold" lengthAdjust="spacing" textLength="14" x="373.5" y="459.1416">11</text><text fill="#000000" font-family="sans-serif" font-size="13" lengthAdjust="spacing" textLength="37" x="391.5" y="459.1416">Result</text><polygon fill="#181818" points="33.5,491.6953,23.5,495.6953,33.5,499.6953,29.5,495.6953" style="stroke:#181818;stroke-width:1.0;"/><line style="stroke:#181818;stroke-width:1.0;" x1="27.5" x2="284.5" y1="495.6953" y2="495.6953"/><text fill="#000000" font-family="sans-serif" font-size="13" font-weight="bold" lengthAdjust="spacing" textLength="14" x="37" y="490.4326">12</text><text fill="#000000" font-family="sans-serif" font-size="13" lengthAdjust="spacing" textLength="216" x="55" y="490.4326">show participants list and their status</text><!--SRC=[dPBDRi8m48JlUOeL9the2-HGgI0EI5YAGhdrueO5B1ARPZUWl7tNJY8SVbgfXqIMCpkU-M8w6dlIjQvWZTyDsW8L4kazlfTcRokq38Myi4vqmyusrPTV5kngc6m8wmbeWirwaIU9sB0fp4dBp2HT6MA5oCRki-i7sYoxYULp-TnPhbrPzkRp_6Dr8-w5EPuS6OdI1c6-o1xhelDlHbIM93uylBv994XbxqZ03iu6Bw2Xb5JWTX3P4i2d1MEXQg7g_47RBV01JGt4cXloWCnPC_gUuYlkleNuUqFLzhbe-d9LXff19MgfaiBEsEsWdBKUzdJT4cFbbz6axorFT4gEr9ISR76a6Sn3qNj92D253KXIe8Ex31sfOo7LVTa14s69XH2o63lvqZ7KNgK7hp_mt5-QQR_t39VAO8GhdfqDj1-OoEzNltDJ_yKskZ41tTqb6HFx0G00]--></g></svg>