<?xml version="1.0" encoding="us-ascii" standalone="no"?><svg xmlns="http://www.w3.org/2000/svg" xmlns:xlink="http://www.w3.org/1999/xlink" contentStyleType="text/css" height="713px" preserveAspectRatio="none" style="width:714px;height:713px;background:#FFFFFF;" version="1.1" viewBox="0 0 714 713" width="714px" zoomAndPan="magnify"><defs/><g><text fill="#000000" font-family="sans-serif" font-size="14" font-weight="bold" lengthAdjust="spacing" textLength="202" x="258.25" y="28.5352">SD - Shared Board Use Case</text><rect fill="#FFFFFF" height="29.3105" style="stroke:#181818;stroke-width:1.0;" width="10" x="150.5" y="150.2871"/><rect fill="#FFFFFF" height="29.3105" style="stroke:#181818;stroke-width:1.0;" width="10" x="150.5" y="585.3926"/><rect fill="#FFFFFF" height="29.3105" style="stroke:#181818;stroke-width:1.0;" width="10" x="331.5" y="179.5977"/><rect fill="#FFFFFF" height="29.3105" style="stroke:#181818;stroke-width:1.0;" width="10" x="331.5" y="556.082"/><rect fill="#FFFFFF" height="347.1738" style="stroke:#181818;stroke-width:1.0;" width="10" x="442.5" y="208.9082"/><rect fill="#FFFFFF" height="28" style="stroke:#181818;stroke-width:1.0;" width="10" x="447.5" y="246.2188"/><rect fill="#FFFFFF" height="28" style="stroke:#181818;stroke-width:1.0;" width="10" x="447.5" y="318.5293"/><rect fill="#FFFFFF" height="28" style="stroke:#181818;stroke-width:1.0;" width="10" x="447.5" y="462.4609"/><rect fill="#FFFFFF" height="143.9316" style="stroke:#181818;stroke-width:1.0;" width="10" x="584.5" y="382.8398"/><line style="stroke:#181818;stroke-width:0.5;stroke-dasharray:5.0,5.0;" x1="23" x2="23" y1="118.9766" y2="632.7031"/><line style="stroke:#181818;stroke-width:0.5;stroke-dasharray:5.0,5.0;" x1="155" x2="155" y1="118.9766" y2="632.7031"/><line style="stroke:#181818;stroke-width:0.5;stroke-dasharray:5.0,5.0;" x1="336" x2="336" y1="118.9766" y2="632.7031"/><line style="stroke:#181818;stroke-width:0.5;stroke-dasharray:5.0,5.0;" x1="447" x2="447" y1="118.9766" y2="632.7031"/><line style="stroke:#181818;stroke-width:0.5;stroke-dasharray:5.0,5.0;" x1="589.5" x2="589.5" y1="118.9766" y2="632.7031"/><text fill="#000000" font-family="sans-serif" font-size="14" lengthAdjust="spacing" textLength="31" x="5" y="116.0234">User</text><ellipse cx="23.5" cy="50.9883" fill="#E2E2F0" rx="8" ry="8" style="stroke:#181818;stroke-width:0.5;"/><path d="M23.5,58.9883 L23.5,85.9883 M10.5,66.9883 L36.5,66.9883 M23.5,85.9883 L10.5,100.9883 M23.5,85.9883 L36.5,100.9883 " fill="none" style="stroke:#181818;stroke-width:0.5;"/><text fill="#000000" font-family="sans-serif" font-size="14" lengthAdjust="spacing" textLength="31" x="5" y="645.2383">User</text><ellipse cx="23.5" cy="656.6914" fill="#E2E2F0" rx="8" ry="8" style="stroke:#181818;stroke-width:0.5;"/><path d="M23.5,664.6914 L23.5,691.6914 M10.5,672.6914 L36.5,672.6914 M23.5,691.6914 L10.5,706.6914 M23.5,691.6914 L36.5,706.6914 " fill="none" style="stroke:#181818;stroke-width:0.5;"/><rect fill="#E2E2F0" height="30.4883" rx="2.5" ry="2.5" style="stroke:#181818;stroke-width:0.5;" width="27" x="142" y="87.4883"/><text fill="#000000" font-family="sans-serif" font-size="14" lengthAdjust="spacing" textLength="13" x="149" y="108.0234">ui</text><rect fill="#E2E2F0" height="30.4883" rx="2.5" ry="2.5" style="stroke:#181818;stroke-width:0.5;" width="27" x="142" y="631.7031"/><text fill="#000000" font-family="sans-serif" font-size="14" lengthAdjust="spacing" textLength="13" x="149" y="652.2383">ui</text><rect fill="#E2E2F0" height="30.4883" rx="2.5" ry="2.5" style="stroke:#181818;stroke-width:0.5;" width="81" x="296" y="87.4883"/><text fill="#000000" font-family="sans-serif" font-size="14" lengthAdjust="spacing" textLength="67" x="303" y="108.0234">controller</text><rect fill="#E2E2F0" height="30.4883" rx="2.5" ry="2.5" style="stroke:#181818;stroke-width:0.5;" width="81" x="296" y="631.7031"/><text fill="#000000" font-family="sans-serif" font-size="14" lengthAdjust="spacing" textLength="67" x="303" y="652.2383">controller</text><rect fill="#E2E2F0" height="30.4883" rx="2.5" ry="2.5" style="stroke:#181818;stroke-width:0.5;" width="61" x="417" y="87.4883"/><text fill="#000000" font-family="sans-serif" font-size="14" lengthAdjust="spacing" textLength="47" x="424" y="108.0234">service</text><rect fill="#E2E2F0" height="30.4883" rx="2.5" ry="2.5" style="stroke:#181818;stroke-width:0.5;" width="61" x="417" y="631.7031"/><text fill="#000000" font-family="sans-serif" font-size="14" lengthAdjust="spacing" textLength="47" x="424" y="652.2383">service</text><rect fill="#E2E2F0" height="30.4883" rx="2.5" ry="2.5" style="stroke:#181818;stroke-width:0.5;" width="70" x="554.5" y="87.4883"/><text fill="#000000" font-family="sans-serif" font-size="14" lengthAdjust="spacing" textLength="56" x="561.5" y="108.0234">memory</text><rect fill="#E2E2F0" height="30.4883" rx="2.5" ry="2.5" style="stroke:#181818;stroke-width:0.5;" width="70" x="554.5" y="631.7031"/><text fill="#000000" font-family="sans-serif" font-size="14" lengthAdjust="spacing" textLength="56" x="561.5" y="652.2383">memory</text><rect fill="#FFFFFF" height="29.3105" style="stroke:#181818;stroke-width:1.0;" width="10" x="150.5" y="150.2871"/><rect fill="#FFFFFF" height="29.3105" style="stroke:#181818;stroke-width:1.0;" width="10" x="150.5" y="585.3926"/><rect fill="#FFFFFF" height="29.3105" style="stroke:#181818;stroke-width:1.0;" width="10" x="331.5" y="179.5977"/><rect fill="#FFFFFF" height="29.3105" style="stroke:#181818;stroke-width:1.0;" width="10" x="331.5" y="556.082"/><rect fill="#FFFFFF" height="347.1738" style="stroke:#181818;stroke-width:1.0;" width="10" x="442.5" y="208.9082"/><rect fill="#FFFFFF" height="28" style="stroke:#181818;stroke-width:1.0;" width="10" x="447.5" y="246.2188"/><rect fill="#FFFFFF" height="28" style="stroke:#181818;stroke-width:1.0;" width="10" x="447.5" y="318.5293"/><rect fill="#FFFFFF" height="28" style="stroke:#181818;stroke-width:1.0;" width="10" x="447.5" y="462.4609"/><rect fill="#FFFFFF" height="143.9316" style="stroke:#181818;stroke-width:1.0;" width="10" x="584.5" y="382.8398"/><polygon fill="#181818" points="138.5,146.2871,148.5,150.2871,138.5,154.2871,142.5,150.2871" style="stroke:#181818;stroke-width:1.0;"/><line style="stroke:#181818;stroke-width:1.0;" x1="23.5" x2="144.5" y1="150.2871" y2="150.2871"/><text fill="#000000" font-family="sans-serif" font-size="13" lengthAdjust="spacing" textLength="108" x="30.5" y="145.5449">use shared board</text><polygon fill="#181818" points="319.5,175.5977,329.5,179.5977,319.5,183.5977,323.5,179.5977" style="stroke:#181818;stroke-width:1.0;"/><line style="stroke:#181818;stroke-width:1.0;" x1="155.5" x2="325.5" y1="179.5977" y2="179.5977"/><text fill="#000000" font-family="sans-serif" font-size="13" lengthAdjust="spacing" textLength="152" x="162.5" y="174.8555">require process creation</text><polygon fill="#181818" points="430.5,204.9082,440.5,208.9082,430.5,212.9082,434.5,208.9082" style="stroke:#181818;stroke-width:1.0;"/><line style="stroke:#181818;stroke-width:1.0;" x1="336.5" x2="436.5" y1="208.9082" y2="208.9082"/><text fill="#000000" font-family="sans-serif" font-size="13" lengthAdjust="spacing" textLength="82" x="343.5" y="204.166">start process</text><line style="stroke:#181818;stroke-width:1.0;" x1="457.5" x2="499.5" y1="238.2188" y2="238.2188"/><line style="stroke:#181818;stroke-width:1.0;" x1="499.5" x2="499.5" y1="238.2188" y2="251.2188"/><line style="stroke:#181818;stroke-width:1.0;" x1="458.5" x2="499.5" y1="251.2188" y2="251.2188"/><polygon fill="#181818" points="468.5,247.2188,458.5,251.2188,468.5,255.2188,464.5,251.2188" style="stroke:#181818;stroke-width:1.0;"/><text fill="#000000" font-family="sans-serif" font-size="13" lengthAdjust="spacing" textLength="118" x="464.5" y="233.4766">create semaphores</text><line style="stroke:#181818;stroke-width:1.0;" x1="457.5" x2="499.5" y1="310.5293" y2="310.5293"/><line style="stroke:#181818;stroke-width:1.0;" x1="499.5" x2="499.5" y1="310.5293" y2="323.5293"/><line style="stroke:#181818;stroke-width:1.0;" x1="458.5" x2="499.5" y1="323.5293" y2="323.5293"/><polygon fill="#181818" points="468.5,319.5293,458.5,323.5293,468.5,327.5293,464.5,323.5293" style="stroke:#181818;stroke-width:1.0;"/><text fill="#000000" font-family="sans-serif" font-size="13" lengthAdjust="spacing" textLength="105" x="464.5" y="305.7871">create processes</text><polygon fill="#181818" points="572.5,378.8398,582.5,382.8398,572.5,386.8398,576.5,382.8398" style="stroke:#181818;stroke-width:1.0;"/><line style="stroke:#181818;stroke-width:1.0;" x1="452.5" x2="578.5" y1="382.8398" y2="382.8398"/><text fill="#000000" font-family="sans-serif" font-size="13" lengthAdjust="spacing" textLength="73" x="459.5" y="378.0977">write / read</text><line style="stroke:#181818;stroke-width:1.0;" x1="594.5" x2="636.5" y1="412.1504" y2="412.1504"/><line style="stroke:#181818;stroke-width:1.0;" x1="636.5" x2="636.5" y1="412.1504" y2="425.1504"/><line style="stroke:#181818;stroke-width:1.0;" x1="595.5" x2="636.5" y1="425.1504" y2="425.1504"/><polygon fill="#181818" points="605.5,421.1504,595.5,425.1504,605.5,429.1504,601.5,425.1504" style="stroke:#181818;stroke-width:1.0;"/><text fill="#000000" font-family="sans-serif" font-size="13" lengthAdjust="spacing" textLength="106" x="601.5" y="407.4082">write / read each</text><line style="stroke:#181818;stroke-width:1.0;" x1="457.5" x2="499.5" y1="454.4609" y2="454.4609"/><line style="stroke:#181818;stroke-width:1.0;" x1="499.5" x2="499.5" y1="454.4609" y2="467.4609"/><line style="stroke:#181818;stroke-width:1.0;" x1="458.5" x2="499.5" y1="467.4609" y2="467.4609"/><polygon fill="#181818" points="468.5,463.4609,458.5,467.4609,468.5,471.4609,464.5,467.4609" style="stroke:#181818;stroke-width:1.0;"/><text fill="#000000" font-family="sans-serif" font-size="13" lengthAdjust="spacing" textLength="26" x="464.5" y="449.7188">wait</text><polygon fill="#181818" points="463.5,522.7715,453.5,526.7715,463.5,530.7715,459.5,526.7715" style="stroke:#181818;stroke-width:1.0;"/><line style="stroke:#181818;stroke-width:1.0;" x1="457.5" x2="588.5" y1="526.7715" y2="526.7715"/><text fill="#000000" font-family="sans-serif" font-size="13" lengthAdjust="spacing" textLength="43" x="469.5" y="522.0293">results</text><polygon fill="#181818" points="352.5,552.082,342.5,556.082,352.5,560.082,348.5,556.082" style="stroke:#181818;stroke-width:1.0;"/><line style="stroke:#181818;stroke-width:1.0;" x1="346.5" x2="446.5" y1="556.082" y2="556.082"/><text fill="#000000" font-family="sans-serif" font-size="13" lengthAdjust="spacing" textLength="80" x="358.5" y="551.3398">show results</text><polygon fill="#181818" points="171.5,581.3926,161.5,585.3926,171.5,589.3926,167.5,585.3926" style="stroke:#181818;stroke-width:1.0;"/><line style="stroke:#181818;stroke-width:1.0;" x1="165.5" x2="335.5" y1="585.3926" y2="585.3926"/><text fill="#000000" font-family="sans-serif" font-size="13" lengthAdjust="spacing" textLength="80" x="177.5" y="580.6504">show results</text><polygon fill="#181818" points="34.5,610.7031,24.5,614.7031,34.5,618.7031,30.5,614.7031" style="stroke:#181818;stroke-width:1.0;"/><line style="stroke:#181818;stroke-width:1.0;" x1="28.5" x2="154.5" y1="614.7031" y2="614.7031"/><text fill="#000000" font-family="sans-serif" font-size="13" lengthAdjust="spacing" textLength="80" x="40.5" y="609.9609">show results</text><!--SRC=[bL99RiCm3Bph5Vn0qBiFFJJvGT07i3812x33XA9YzFUXl2geZIQwI1HdXWEI6hGbE9_W0ES6XMhuOfGQlYF14ICvXrvPSYo04OPe_ZnyGWeL9CF6aVoJoJaRxgXaMPT2Xdc-g73RabGWT4j12Ax2dc84BuGQ-E9gAedBU-MwzPb5pT8zUAeWAehEUgLCGLt-9fQRxYUXmKg6T7XjM2Z-fHNgBoXDdapeNQMEEfRV2de91lYmhc7Hs37hnciF3bQWsNJNOz2N3Aq55gvr9RNwrER9JL6fd7TikDzYpJN-7tHUiZsLhH4lQpUiwJxNS7OU]--></g></svg>