<?xml version="1.0" encoding="us-ascii" standalone="no"?><svg xmlns="http://www.w3.org/2000/svg" xmlns:xlink="http://www.w3.org/1999/xlink" contentStyleType="text/css" height="601px" preserveAspectRatio="none" style="width:1040px;height:601px;background:#FFFFFF;" version="1.1" viewBox="0 0 1040 601" width="1040px" zoomAndPan="magnify"><defs/><g><!--cluster ui--><g id="cluster_ui"><path d="M569.5,6.0137 L583.5,6.0137 A3.75,3.75 0 0 1 586,8.5137 L593,30.6348 L710.5,30.6348 A2.5,2.5 0 0 1 713,33.1348 L713,104.5137 A2.5,2.5 0 0 1 710.5,107.0137 L569.5,107.0137 A2.5,2.5 0 0 1 567,104.5137 L567,8.5137 A2.5,2.5 0 0 1 569.5,6.0137 " fill="none" style="stroke:#000000;stroke-width:1.5;"/><line style="stroke:#000000;stroke-width:1.5;" x1="567" x2="593" y1="30.6348" y2="30.6348"/><text fill="#000000" font-family="sans-serif" font-size="14" font-weight="bold" lengthAdjust="spacing" textLength="13" x="571" y="23.1211">ui</text></g><!--cluster controller--><g id="cluster_controller"><path d="M544.5,131.0137 L614.5,131.0137 A3.75,3.75 0 0 1 617,133.5137 L624,155.6348 L735.5,155.6348 A2.5,2.5 0 0 1 738,158.1348 L738,266.5137 A2.5,2.5 0 0 1 735.5,269.0137 L544.5,269.0137 A2.5,2.5 0 0 1 542,266.5137 L542,133.5137 A2.5,2.5 0 0 1 544.5,131.0137 " fill="none" style="stroke:#000000;stroke-width:1.5;"/><line style="stroke:#000000;stroke-width:1.5;" x1="542" x2="624" y1="155.6348" y2="155.6348"/><text fill="#000000" font-family="sans-serif" font-size="14" font-weight="bold" lengthAdjust="spacing" textLength="69" x="546" y="148.1211">controller</text></g><!--cluster service--><g id="cluster_service"><path d="M531.5,302.5137 L585.5,302.5137 A3.75,3.75 0 0 1 588,305.0137 L595,327.1348 L748.5,327.1348 A2.5,2.5 0 0 1 751,329.6348 L751,438.0137 A2.5,2.5 0 0 1 748.5,440.5137 L531.5,440.5137 A2.5,2.5 0 0 1 529,438.0137 L529,305.0137 A2.5,2.5 0 0 1 531.5,302.5137 " fill="none" style="stroke:#000000;stroke-width:1.5;"/><line style="stroke:#000000;stroke-width:1.5;" x1="529" x2="595" y1="327.1348" y2="327.1348"/><text fill="#000000" font-family="sans-serif" font-size="14" font-weight="bold" lengthAdjust="spacing" textLength="53" x="533" y="319.6211">service</text></g><!--cluster repositories--><g id="cluster_repositories"><path d="M777.5,311.5137 L864.5,311.5137 A3.75,3.75 0 0 1 867,314.0137 L874,336.1348 L1030.5,336.1348 A2.5,2.5 0 0 1 1033,338.6348 L1033,429.0137 A2.5,2.5 0 0 1 1030.5,431.5137 L777.5,431.5137 A2.5,2.5 0 0 1 775,429.0137 L775,314.0137 A2.5,2.5 0 0 1 777.5,311.5137 " fill="none" style="stroke:#000000;stroke-width:1.5;"/><line style="stroke:#000000;stroke-width:1.5;" x1="775" x2="874" y1="336.1348" y2="336.1348"/><text fill="#000000" font-family="sans-serif" font-size="14" font-weight="bold" lengthAdjust="spacing" textLength="86" x="779" y="328.6211">repositories</text></g><!--cluster persistence--><g id="cluster_persistence"><path d="M777.5,474.0137 L862.5,474.0137 A3.75,3.75 0 0 1 865,476.5137 L872,498.6348 L1030.5,498.6348 A2.5,2.5 0 0 1 1033,501.1348 L1033,591.5137 A2.5,2.5 0 0 1 1030.5,594.0137 L777.5,594.0137 A2.5,2.5 0 0 1 775,591.5137 L775,476.5137 A2.5,2.5 0 0 1 777.5,474.0137 " fill="none" style="stroke:#000000;stroke-width:1.5;"/><line style="stroke:#000000;stroke-width:1.5;" x1="775" x2="872" y1="498.6348" y2="498.6348"/><text fill="#000000" font-family="sans-serif" font-size="14" font-weight="bold" lengthAdjust="spacing" textLength="84" x="779" y="491.1211">persistence</text></g><!--cluster infrastructure--><g id="cluster_infrastructure"><path d="M8.5,293.0137 L106.5,293.0137 A3.75,3.75 0 0 1 109,295.5137 L116,317.6348 L502.5,317.6348 A2.5,2.5 0 0 1 505,320.1348 L505,447.5137 A2.5,2.5 0 0 1 502.5,450.0137 L8.5,450.0137 A2.5,2.5 0 0 1 6,447.5137 L6,295.5137 A2.5,2.5 0 0 1 8.5,293.0137 " fill="none" style="stroke:#000000;stroke-width:1.5;"/><line style="stroke:#000000;stroke-width:1.5;" x1="6" x2="116" y1="317.6348" y2="317.6348"/><text fill="#000000" font-family="sans-serif" font-size="14" font-weight="bold" lengthAdjust="spacing" textLength="97" x="10" y="310.1211">infrastructure</text></g><!--class ListGradesUI--><g id="elem_ListGradesUI"><rect codeLine="2" fill="#F1F1F1" height="48" id="ListGradesUI" rx="2.5" ry="2.5" style="stroke:#181818;stroke-width:0.5;" width="113" x="583.5" y="43.0137"/><ellipse cx="598.5" cy="59.0137" fill="#ADD1B2" rx="11" ry="11" style="stroke:#181818;stroke-width:1.0;"/><path d="M601.2656,54.8887 Q601.4219,54.6699 601.6094,54.5605 Q601.7969,54.4512 602.0156,54.4512 Q602.3906,54.4512 602.625,54.7168 Q602.8594,54.9668 602.8594,55.5762 L602.8594,57.0293 Q602.8594,57.6387 602.625,57.9043 Q602.3906,58.1699 602.0156,58.1699 Q601.6719,58.1699 601.4688,57.9668 Q601.2656,57.7793 601.1563,57.2637 Q601.1094,56.9043 600.9219,56.7168 Q600.5938,56.3418 599.9844,56.123 Q599.375,55.9043 598.75,55.9043 Q597.9844,55.9043 597.3438,56.2324 Q596.7188,56.5605 596.2188,57.3105 Q595.7344,58.0605 595.7344,59.0918 L595.7344,60.1855 Q595.7344,61.4199 596.625,62.248 Q597.5156,63.0605 599.1094,63.0605 Q600.0469,63.0605 600.7031,62.8105 Q601.0938,62.6543 601.5156,62.2168 Q601.7813,61.9512 601.9219,61.873 Q602.0781,61.7949 602.2813,61.7949 Q602.6094,61.7949 602.8594,62.0605 Q603.125,62.3105 603.125,62.6543 Q603.125,62.998 602.7813,63.4043 Q602.2813,63.9824 601.4844,64.3105 Q600.4063,64.7637 599.1094,64.7637 Q597.5938,64.7637 596.3906,64.1387 Q595.4063,63.6387 594.7188,62.5762 Q594.0313,61.498 594.0313,60.2168 L594.0313,59.0605 Q594.0313,57.7324 594.6406,56.5918 Q595.2656,55.4355 596.3594,54.8262 Q597.4531,54.2012 598.6875,54.2012 Q599.4219,54.2012 600.0625,54.373 Q600.7188,54.5293 601.2656,54.8887 Z " fill="#000000"/><text fill="#000000" font-family="sans-serif" font-size="14" lengthAdjust="spacing" textLength="81" x="612.5" y="64.8105">ListGradesUI</text><line style="stroke:#181818;stroke-width:0.5;" x1="584.5" x2="695.5" y1="75.0137" y2="75.0137"/><line style="stroke:#181818;stroke-width:0.5;" x1="584.5" x2="695.5" y1="83.0137" y2="83.0137"/></g><!--class ListGradesController--><g id="elem_ListGradesController"><rect codeLine="7" fill="#F1F1F1" height="85.2422" id="ListGradesController" rx="2.5" ry="2.5" style="stroke:#181818;stroke-width:0.5;" width="163" x="558.5" y="168.0137"/><ellipse cx="573.5" cy="184.0137" fill="#ADD1B2" rx="11" ry="11" style="stroke:#181818;stroke-width:1.0;"/><path d="M576.2656,179.8887 Q576.4219,179.6699 576.6094,179.5605 Q576.7969,179.4512 577.0156,179.4512 Q577.3906,179.4512 577.625,179.7168 Q577.8594,179.9668 577.8594,180.5762 L577.8594,182.0293 Q577.8594,182.6387 577.625,182.9043 Q577.3906,183.1699 577.0156,183.1699 Q576.6719,183.1699 576.4688,182.9668 Q576.2656,182.7793 576.1563,182.2637 Q576.1094,181.9043 575.9219,181.7168 Q575.5938,181.3418 574.9844,181.123 Q574.375,180.9043 573.75,180.9043 Q572.9844,180.9043 572.3438,181.2324 Q571.7188,181.5605 571.2188,182.3105 Q570.7344,183.0605 570.7344,184.0918 L570.7344,185.1855 Q570.7344,186.4199 571.625,187.248 Q572.5156,188.0605 574.1094,188.0605 Q575.0469,188.0605 575.7031,187.8105 Q576.0938,187.6543 576.5156,187.2168 Q576.7813,186.9512 576.9219,186.873 Q577.0781,186.7949 577.2813,186.7949 Q577.6094,186.7949 577.8594,187.0605 Q578.125,187.3105 578.125,187.6543 Q578.125,187.998 577.7813,188.4043 Q577.2813,188.9824 576.4844,189.3105 Q575.4063,189.7637 574.1094,189.7637 Q572.5938,189.7637 571.3906,189.1387 Q570.4063,188.6387 569.7188,187.5762 Q569.0313,186.498 569.0313,185.2168 L569.0313,184.0605 Q569.0313,182.7324 569.6406,181.5918 Q570.2656,180.4355 571.3594,179.8262 Q572.4531,179.2012 573.6875,179.2012 Q574.4219,179.2012 575.0625,179.373 Q575.7188,179.5293 576.2656,179.8887 Z " fill="#000000"/><text fill="#000000" font-family="sans-serif" font-size="14" lengthAdjust="spacing" textLength="131" x="587.5" y="189.8105">ListGradesController</text><line style="stroke:#181818;stroke-width:0.5;" x1="559.5" x2="720.5" y1="200.0137" y2="200.0137"/><line style="stroke:#181818;stroke-width:0.5;" x1="559.5" x2="720.5" y1="208.0137" y2="208.0137"/><ellipse cx="569.5" cy="222.8242" fill="#84BE84" rx="3" ry="3" style="stroke:#038048;stroke-width:1.0;"/><text fill="#000000" font-family="sans-serif" font-size="14" lengthAdjust="spacing" textLength="84" x="578.5" y="227.1211">currentUser()</text><ellipse cx="569.5" cy="241.4453" fill="#84BE84" rx="3" ry="3" style="stroke:#038048;stroke-width:1.0;"/><text fill="#000000" font-family="sans-serif" font-size="14" lengthAdjust="spacing" textLength="92" x="578.5" y="245.7422">listMyGrades()</text></g><!--class UserManagementService--><g id="elem_UserManagementService"><rect codeLine="14" fill="#F1F1F1" height="85.2422" id="UserManagementService" rx="2.5" ry="2.5" style="stroke:#181818;stroke-width:0.5;" width="190" x="545" y="339.5137"/><ellipse cx="560" cy="355.5137" fill="#ADD1B2" rx="11" ry="11" style="stroke:#181818;stroke-width:1.0;"/><path d="M562.7656,351.3887 Q562.9219,351.1699 563.1094,351.0605 Q563.2969,350.9512 563.5156,350.9512 Q563.8906,350.9512 564.125,351.2168 Q564.3594,351.4668 564.3594,352.0762 L564.3594,353.5293 Q564.3594,354.1387 564.125,354.4043 Q563.8906,354.6699 563.5156,354.6699 Q563.1719,354.6699 562.9688,354.4668 Q562.7656,354.2793 562.6563,353.7637 Q562.6094,353.4043 562.4219,353.2168 Q562.0938,352.8418 561.4844,352.623 Q560.875,352.4043 560.25,352.4043 Q559.4844,352.4043 558.8438,352.7324 Q558.2188,353.0605 557.7188,353.8105 Q557.2344,354.5605 557.2344,355.5918 L557.2344,356.6855 Q557.2344,357.9199 558.125,358.748 Q559.0156,359.5605 560.6094,359.5605 Q561.5469,359.5605 562.2031,359.3105 Q562.5938,359.1543 563.0156,358.7168 Q563.2813,358.4512 563.4219,358.373 Q563.5781,358.2949 563.7813,358.2949 Q564.1094,358.2949 564.3594,358.5605 Q564.625,358.8105 564.625,359.1543 Q564.625,359.498 564.2813,359.9043 Q563.7813,360.4824 562.9844,360.8105 Q561.9063,361.2637 560.6094,361.2637 Q559.0938,361.2637 557.8906,360.6387 Q556.9063,360.1387 556.2188,359.0762 Q555.5313,357.998 555.5313,356.7168 L555.5313,355.5605 Q555.5313,354.2324 556.1406,353.0918 Q556.7656,351.9355 557.8594,351.3262 Q558.9531,350.7012 560.1875,350.7012 Q560.9219,350.7012 561.5625,350.873 Q562.2188,351.0293 562.7656,351.3887 Z " fill="#000000"/><text fill="#000000" font-family="sans-serif" font-size="14" lengthAdjust="spacing" textLength="158" x="574" y="361.3105">UserManagementService</text><line style="stroke:#181818;stroke-width:0.5;" x1="546" x2="734" y1="371.5137" y2="371.5137"/><line style="stroke:#181818;stroke-width:0.5;" x1="546" x2="734" y1="379.5137" y2="379.5137"/><ellipse cx="556" cy="394.3242" fill="#84BE84" rx="3" ry="3" style="stroke:#038048;stroke-width:1.0;"/><text fill="#000000" font-family="sans-serif" font-size="14" lengthAdjust="spacing" textLength="83" x="565" y="398.6211">activeUsers()</text><ellipse cx="556" cy="412.9453" fill="#84BE84" rx="3" ry="3" style="stroke:#038048;stroke-width:1.0;"/><text fill="#000000" font-family="sans-serif" font-size="14" lengthAdjust="spacing" textLength="98" x="565" y="417.2422">userOfIdentity()</text></g><!--class ExamTakenRepository--><g id="elem_ExamTakenRepository"><rect codeLine="21" fill="#F1F1F1" height="66.6211" id="ExamTakenRepository" rx="2.5" ry="2.5" style="stroke:#181818;stroke-width:0.5;" width="226" x="791" y="348.5137"/><ellipse cx="829.4" cy="364.5137" fill="#ADD1B2" rx="11" ry="11" style="stroke:#181818;stroke-width:1.0;"/><path d="M832.1656,360.3887 Q832.3219,360.1699 832.5094,360.0605 Q832.6969,359.9512 832.9156,359.9512 Q833.2906,359.9512 833.525,360.2168 Q833.7594,360.4668 833.7594,361.0762 L833.7594,362.5293 Q833.7594,363.1387 833.525,363.4043 Q833.2906,363.6699 832.9156,363.6699 Q832.5719,363.6699 832.3688,363.4668 Q832.1656,363.2793 832.0563,362.7637 Q832.0094,362.4043 831.8219,362.2168 Q831.4938,361.8418 830.8844,361.623 Q830.275,361.4043 829.65,361.4043 Q828.8844,361.4043 828.2438,361.7324 Q827.6188,362.0605 827.1188,362.8105 Q826.6344,363.5605 826.6344,364.5918 L826.6344,365.6855 Q826.6344,366.9199 827.525,367.748 Q828.4156,368.5605 830.0094,368.5605 Q830.9469,368.5605 831.6031,368.3105 Q831.9938,368.1543 832.4156,367.7168 Q832.6813,367.4512 832.8219,367.373 Q832.9781,367.2949 833.1813,367.2949 Q833.5094,367.2949 833.7594,367.5605 Q834.025,367.8105 834.025,368.1543 Q834.025,368.498 833.6813,368.9043 Q833.1813,369.4824 832.3844,369.8105 Q831.3063,370.2637 830.0094,370.2637 Q828.4938,370.2637 827.2906,369.6387 Q826.3063,369.1387 825.6188,368.0762 Q824.9313,366.998 824.9313,365.7168 L824.9313,364.5605 Q824.9313,363.2324 825.5406,362.0918 Q826.1656,360.9355 827.2594,360.3262 Q828.3531,359.7012 829.5875,359.7012 Q830.3219,359.7012 830.9625,359.873 Q831.6188,360.0293 832.1656,360.3887 Z " fill="#000000"/><text fill="#000000" font-family="sans-serif" font-size="14" lengthAdjust="spacing" textLength="142" x="848.6" y="370.3105">ExamTakenRepository</text><line style="stroke:#181818;stroke-width:0.5;" x1="792" x2="1016" y1="380.5137" y2="380.5137"/><line style="stroke:#181818;stroke-width:0.5;" x1="792" x2="1016" y1="388.5137" y2="388.5137"/><ellipse cx="802" cy="403.3242" fill="#84BE84" rx="3" ry="3" style="stroke:#038048;stroke-width:1.0;"/><text fill="#000000" font-family="sans-serif" font-size="14" lengthAdjust="spacing" textLength="200" x="811" y="407.6211">findGradesByUser(SystemUser)</text></g><!--class JpaExamTakenRepository--><g id="elem_JpaExamTakenRepository"><rect codeLine="27" fill="#F1F1F1" height="66.6211" id="JpaExamTakenRepository" rx="2.5" ry="2.5" style="stroke:#181818;stroke-width:0.5;" width="226" x="791" y="511.0137"/><ellipse cx="819.5" cy="527.0137" fill="#ADD1B2" rx="11" ry="11" style="stroke:#181818;stroke-width:1.0;"/><path d="M822.2656,522.8887 Q822.4219,522.6699 822.6094,522.5605 Q822.7969,522.4512 823.0156,522.4512 Q823.3906,522.4512 823.625,522.7168 Q823.8594,522.9668 823.8594,523.5762 L823.8594,525.0293 Q823.8594,525.6387 823.625,525.9043 Q823.3906,526.1699 823.0156,526.1699 Q822.6719,526.1699 822.4688,525.9668 Q822.2656,525.7793 822.1563,525.2637 Q822.1094,524.9043 821.9219,524.7168 Q821.5938,524.3418 820.9844,524.123 Q820.375,523.9043 819.75,523.9043 Q818.9844,523.9043 818.3438,524.2324 Q817.7188,524.5605 817.2188,525.3105 Q816.7344,526.0605 816.7344,527.0918 L816.7344,528.1855 Q816.7344,529.4199 817.625,530.248 Q818.5156,531.0605 820.1094,531.0605 Q821.0469,531.0605 821.7031,530.8105 Q822.0938,530.6543 822.5156,530.2168 Q822.7813,529.9512 822.9219,529.873 Q823.0781,529.7949 823.2813,529.7949 Q823.6094,529.7949 823.8594,530.0605 Q824.125,530.3105 824.125,530.6543 Q824.125,530.998 823.7813,531.4043 Q823.2813,531.9824 822.4844,532.3105 Q821.4063,532.7637 820.1094,532.7637 Q818.5938,532.7637 817.3906,532.1387 Q816.4063,531.6387 815.7188,530.5762 Q815.0313,529.498 815.0313,528.2168 L815.0313,527.0605 Q815.0313,525.7324 815.6406,524.5918 Q816.2656,523.4355 817.3594,522.8262 Q818.4531,522.2012 819.6875,522.2012 Q820.4219,522.2012 821.0625,522.373 Q821.7188,522.5293 822.2656,522.8887 Z " fill="#000000"/><text fill="#000000" font-family="sans-serif" font-size="14" lengthAdjust="spacing" textLength="164" x="836.5" y="532.8105">JpaExamTakenRepository</text><line style="stroke:#181818;stroke-width:0.5;" x1="792" x2="1016" y1="543.0137" y2="543.0137"/><line style="stroke:#181818;stroke-width:0.5;" x1="792" x2="1016" y1="551.0137" y2="551.0137"/><ellipse cx="802" cy="565.8242" fill="#84BE84" rx="3" ry="3" style="stroke:#038048;stroke-width:1.0;"/><text fill="#000000" font-family="sans-serif" font-size="14" lengthAdjust="spacing" textLength="200" x="811" y="570.1211">findGradesByUser(SystemUser)</text></g><!--class AuthorizationService--><g id="elem_AuthorizationService"><rect codeLine="34" fill="#F1F1F1" height="85.2422" id="AuthorizationService" rx="2.5" ry="2.5" style="stroke:#181818;stroke-width:0.5;" width="259" x="229.5" y="339.5137"/><ellipse cx="290.25" cy="355.5137" fill="#ADD1B2" rx="11" ry="11" style="stroke:#181818;stroke-width:1.0;"/><path d="M293.0156,351.3887 Q293.1719,351.1699 293.3594,351.0605 Q293.5469,350.9512 293.7656,350.9512 Q294.1406,350.9512 294.375,351.2168 Q294.6094,351.4668 294.6094,352.0762 L294.6094,353.5293 Q294.6094,354.1387 294.375,354.4043 Q294.1406,354.6699 293.7656,354.6699 Q293.4219,354.6699 293.2188,354.4668 Q293.0156,354.2793 292.9063,353.7637 Q292.8594,353.4043 292.6719,353.2168 Q292.3438,352.8418 291.7344,352.623 Q291.125,352.4043 290.5,352.4043 Q289.7344,352.4043 289.0938,352.7324 Q288.4688,353.0605 287.9688,353.8105 Q287.4844,354.5605 287.4844,355.5918 L287.4844,356.6855 Q287.4844,357.9199 288.375,358.748 Q289.2656,359.5605 290.8594,359.5605 Q291.7969,359.5605 292.4531,359.3105 Q292.8438,359.1543 293.2656,358.7168 Q293.5313,358.4512 293.6719,358.373 Q293.8281,358.2949 294.0313,358.2949 Q294.3594,358.2949 294.6094,358.5605 Q294.875,358.8105 294.875,359.1543 Q294.875,359.498 294.5313,359.9043 Q294.0313,360.4824 293.2344,360.8105 Q292.1563,361.2637 290.8594,361.2637 Q289.3438,361.2637 288.1406,360.6387 Q287.1563,360.1387 286.4688,359.0762 Q285.7813,357.998 285.7813,356.7168 L285.7813,355.5605 Q285.7813,354.2324 286.3906,353.0918 Q287.0156,351.9355 288.1094,351.3262 Q289.2031,350.7012 290.4375,350.7012 Q291.1719,350.7012 291.8125,350.873 Q292.4688,351.0293 293.0156,351.3887 Z " fill="#000000"/><text fill="#000000" font-family="sans-serif" font-size="14" lengthAdjust="spacing" textLength="129" x="310.75" y="361.3105">AuthorizationService</text><line style="stroke:#181818;stroke-width:0.5;" x1="230.5" x2="487.5" y1="371.5137" y2="371.5137"/><line style="stroke:#181818;stroke-width:0.5;" x1="230.5" x2="487.5" y1="379.5137" y2="379.5137"/><ellipse cx="240.5" cy="394.3242" fill="#84BE84" rx="3" ry="3" style="stroke:#038048;stroke-width:1.0;"/><text fill="#000000" font-family="sans-serif" font-size="14" lengthAdjust="spacing" textLength="233" x="249.5" y="398.6211">ensureAuthenticatedUserHasAnyOf()</text><ellipse cx="240.5" cy="412.9453" fill="#84BE84" rx="3" ry="3" style="stroke:#038048;stroke-width:1.0;"/><text fill="#000000" font-family="sans-serif" font-size="14" lengthAdjust="spacing" textLength="58" x="249.5" y="417.2422">session()</text></g><!--class AuthzRegistry--><g id="elem_AuthzRegistry"><rect codeLine="38" fill="#F1F1F1" height="103.8633" id="AuthzRegistry" rx="2.5" ry="2.5" style="stroke:#181818;stroke-width:0.5;" width="172" x="22" y="330.0137"/><ellipse cx="60.85" cy="346.0137" fill="#ADD1B2" rx="11" ry="11" style="stroke:#181818;stroke-width:1.0;"/><path d="M63.6156,341.8887 Q63.7719,341.6699 63.9594,341.5605 Q64.1469,341.4512 64.3656,341.4512 Q64.7406,341.4512 64.975,341.7168 Q65.2094,341.9668 65.2094,342.5762 L65.2094,344.0293 Q65.2094,344.6387 64.975,344.9043 Q64.7406,345.1699 64.3656,345.1699 Q64.0219,345.1699 63.8188,344.9668 Q63.6156,344.7793 63.5063,344.2637 Q63.4594,343.9043 63.2719,343.7168 Q62.9438,343.3418 62.3344,343.123 Q61.725,342.9043 61.1,342.9043 Q60.3344,342.9043 59.6938,343.2324 Q59.0688,343.5605 58.5688,344.3105 Q58.0844,345.0605 58.0844,346.0918 L58.0844,347.1855 Q58.0844,348.4199 58.975,349.248 Q59.8656,350.0605 61.4594,350.0605 Q62.3969,350.0605 63.0531,349.8105 Q63.4438,349.6543 63.8656,349.2168 Q64.1313,348.9512 64.2719,348.873 Q64.4281,348.7949 64.6313,348.7949 Q64.9594,348.7949 65.2094,349.0605 Q65.475,349.3105 65.475,349.6543 Q65.475,349.998 65.1313,350.4043 Q64.6313,350.9824 63.8344,351.3105 Q62.7563,351.7637 61.4594,351.7637 Q59.9438,351.7637 58.7406,351.1387 Q57.7563,350.6387 57.0688,349.5762 Q56.3813,348.498 56.3813,347.2168 L56.3813,346.0605 Q56.3813,344.7324 56.9906,343.5918 Q57.6156,342.4355 58.7094,341.8262 Q59.8031,341.2012 61.0375,341.2012 Q61.7719,341.2012 62.4125,341.373 Q63.0688,341.5293 63.6156,341.8887 Z " fill="#000000"/><text fill="#000000" font-family="sans-serif" font-size="14" lengthAdjust="spacing" textLength="87" x="80.15" y="351.8105">AuthzRegistry</text><line style="stroke:#181818;stroke-width:0.5;" x1="23" x2="193" y1="362.0137" y2="362.0137"/><line style="stroke:#181818;stroke-width:0.5;" x1="23" x2="193" y1="370.0137" y2="370.0137"/><ellipse cx="33" cy="384.8242" fill="#84BE84" rx="3" ry="3" style="stroke:#038048;stroke-width:1.0;"/><text fill="#000000" font-family="sans-serif" font-size="14" lengthAdjust="spacing" textLength="85" x="42" y="389.1211">userService()</text><ellipse cx="33" cy="403.4453" fill="#84BE84" rx="3" ry="3" style="stroke:#038048;stroke-width:1.0;"/><text fill="#000000" font-family="sans-serif" font-size="14" lengthAdjust="spacing" textLength="146" x="42" y="407.7422">authenticationService()</text><ellipse cx="33" cy="422.0664" fill="#84BE84" rx="3" ry="3" style="stroke:#038048;stroke-width:1.0;"/><text fill="#000000" font-family="sans-serif" font-size="14" lengthAdjust="spacing" textLength="138" x="42" y="426.3633">authorizationService()</text></g><!--link ListGradesUI to ListGradesController--><g id="link_ListGradesUI_ListGradesController"><path codeLine="46" d="M640,91.0637 C640,110.4337 640,138.7437 640,162.8337 " fill="none" id="ListGradesUI-to-ListGradesController" style="stroke:#181818;stroke-width:1.0;stroke-dasharray:7.0,7.0;"/><polygon fill="#181818" points="640,167.9037,644,158.9037,640,162.9037,636,158.9037,640,167.9037" style="stroke:#181818;stroke-width:1.0;"/></g><!--link ListGradesController to UserManagementService--><g id="link_ListGradesController_UserManagementService"><path codeLine="47" d="M640,253.4137 C640,277.8537 640,308.7337 640,334.0037 " fill="none" id="ListGradesController-to-UserManagementService" style="stroke:#181818;stroke-width:1.0;"/><polygon fill="#181818" points="640,339.3037,644,330.3037,640,334.3037,636,330.3037,640,339.3037" style="stroke:#181818;stroke-width:1.0;"/></g><!--link ListGradesController to ExamTakenRepository--><g id="link_ListGradesController_ExamTakenRepository"><path codeLine="48" d="M704.92,253.1937 C749.05,281.5337 806.81,318.6137 848.74,345.5337 " fill="none" id="ListGradesController-to-ExamTakenRepository" style="stroke:#181818;stroke-width:1.0;"/><polygon fill="#181818" points="853,348.2737,847.5797,340.0505,848.7899,345.5764,843.2641,346.7866,853,348.2737" style="stroke:#181818;stroke-width:1.0;"/></g><!--link ListGradesController to AuthorizationService--><g id="link_ListGradesController_AuthorizationService"><path codeLine="49" d="M570.9,253.1937 C528.8,278.5937 475.04,311.0237 432.21,336.8537 " fill="none" id="ListGradesController-to-AuthorizationService" style="stroke:#181818;stroke-width:1.0;"/><polygon fill="#181818" points="427.83,339.4937,437.6025,338.2693,432.1112,336.9107,433.4697,331.4194,427.83,339.4937" style="stroke:#181818;stroke-width:1.0;"/></g><!--link AuthzRegistry to AuthorizationService--><g id="link_AuthzRegistry_AuthorizationService"><path codeLine="50" d="M194.28,382.0137 C204.24,382.0137 214.19,382.0137 224.14,382.0137 " fill="none" id="AuthzRegistry-to-AuthorizationService" style="stroke:#181818;stroke-width:1.0;"/><polygon fill="#181818" points="229.35,382.0137,220.35,378.0137,224.35,382.0137,220.35,386.0137,229.35,382.0137" style="stroke:#181818;stroke-width:1.0;"/></g><!--link ExamTakenRepository to JpaExamTakenRepository--><g id="link_ExamTakenRepository_JpaExamTakenRepository"><path codeLine="51" d="M904,415.8837 C904,441.9337 904,478.3637 904,505.6337 " fill="none" id="ExamTakenRepository-to-JpaExamTakenRepository" style="stroke:#181818;stroke-width:1.0;"/><polygon fill="#181818" points="904,510.9637,908,501.9637,904,505.9637,900,501.9637,904,510.9637" style="stroke:#181818;stroke-width:1.0;"/></g><!--SRC=[bPBTRi8m38NlynIvt8JW4P3OD6rCGqWm7i1ANHRHfbMSefM9Tv-pz8UWz69S5VkpZu-T6jG9ZYWRBN-4v9ygW4X-Q7Al5ZAamph4h-8gHDtHgZBELaM1TgBgUG12VgOQQz6u0w5zU0oXWkbD6_Wk5eamUjOA8mLVlm73wPAxxGCH0DyIbDDdz53VqKSR_h_DrnbNQDUEYKZDObsHTfNLI97aopUKdt12i-k9jlEKQvE5yP_QFsFxbXoM_ZDXf-QXs36QEqllDIGavByq1X5jSWlaRADSOsETLUE-sDq5dAxCFjhj30qnxWc_8mKECw_m1hGoxJRlBqP8nCN3iUBcbnqUsU2m7h_sJgTl0AF2ECHjydx0GSgxl7sKSh5O9j-RI0NbVBvClvrfF76KQJYrN14jHKvHgUFxbkbt8Nu1]--></g></svg>