<?xml version="1.0" encoding="us-ascii" standalone="no"?><svg xmlns="http://www.w3.org/2000/svg" xmlns:xlink="http://www.w3.org/1999/xlink" contentStyleType="text/css" height="1909px" preserveAspectRatio="none" style="width:797px;height:1909px;background:#FFFFFF;" version="1.1" viewBox="0 0 797 1909" width="797px" zoomAndPan="magnify"><defs/><g><!--entity U--><g id="elem_U"><ellipse cx="34" cy="1749" fill="#F1F1F1" rx="8" ry="8" style="stroke:#181818;stroke-width:0.5;"/><path d="M34,1757 L34,1784 M21,1765 L47,1765 M34,1784 L21,1799 M34,1784 L47,1799 " fill="none" style="stroke:#181818;stroke-width:0.5;"/><text fill="#000000" font-family="sans-serif" font-size="14" lengthAdjust="spacing" textLength="29" x="19.5" y="1815.6074">User</text></g><!--entity M--><g id="elem_M"><ellipse cx="34" cy="1204" fill="#F1F1F1" rx="8" ry="8" style="stroke:#181818;stroke-width:0.5;"/><path d="M34,1212 L34,1239 M21,1220 L47,1220 M34,1239 L21,1254 M34,1239 L47,1254 " fill="none" style="stroke:#181818;stroke-width:0.5;"/><text fill="#000000" font-family="sans-serif" font-size="14" lengthAdjust="spacing" textLength="56" x="6" y="1270.6074">Manager</text></g><!--entity T--><g id="elem_T"><ellipse cx="34" cy="438" fill="#F1F1F1" rx="8" ry="8" style="stroke:#181818;stroke-width:0.5;"/><path d="M34,446 L34,473 M21,454 L47,454 M34,473 L21,488 M34,473 L47,488 " fill="none" style="stroke:#181818;stroke-width:0.5;"/><text fill="#000000" font-family="sans-serif" font-size="14" lengthAdjust="spacing" textLength="53" x="7.5" y="504.6074">Teacher</text></g><!--entity S--><g id="elem_S"><ellipse cx="34" cy="57" fill="#F1F1F1" rx="8" ry="8" style="stroke:#181818;stroke-width:0.5;"/><path d="M34,65 L34,92 M21,73 L47,73 M34,92 L21,107 M34,92 L47,107 " fill="none" style="stroke:#181818;stroke-width:0.5;"/><text fill="#000000" font-family="sans-serif" font-size="14" lengthAdjust="spacing" textLength="49" x="9.5" y="123.6074">Student</text></g><g id="elem_US1001\n Register, disable/enable, and list users of the system:Teachers and Students, as well as Managers"><ellipse cx="456.8296" cy="900.8659" fill="#F1F1F1" rx="334.8296" ry="69.3659" style="stroke:#181818;stroke-width:0.5;"/><text fill="#000000" font-family="sans-serif" font-size="14" lengthAdjust="spacing" textLength="50" x="431.8296" y="895.3522">US1001</text><text fill="#000000" font-family="sans-serif" font-size="14" lengthAdjust="spacing" textLength="621" x="148.3296" y="913.9733">Register, disable/enable, and list users of the system:Teachers and Students, as well as Managers</text></g><g id="elem_US1002\n Create new course"><ellipse cx="456.9594" cy="1034.8342" fill="#F1F1F1" rx="98.4594" ry="29.3342" style="stroke:#181818;stroke-width:0.5;"/><text fill="#000000" font-family="sans-serif" font-size="14" lengthAdjust="spacing" textLength="50" x="431.9594" y="1029.3205">US1002</text><text fill="#000000" font-family="sans-serif" font-size="14" lengthAdjust="spacing" textLength="119" x="399.4594" y="1047.9416">Create new course</text></g><g id="elem_US1003\n Open and close enrollments in courses"><ellipse cx="457.216" cy="1135.1432" fill="#F1F1F1" rx="163.716" ry="35.1432" style="stroke:#181818;stroke-width:0.5;"/><text fill="#000000" font-family="sans-serif" font-size="14" lengthAdjust="spacing" textLength="50" x="432.216" y="1129.6295">US1003</text><text fill="#000000" font-family="sans-serif" font-size="14" lengthAdjust="spacing" textLength="246" x="336.216" y="1148.2506">Open and close enrollments in courses</text></g><g id="elem_US1004\n open and close courses"><ellipse cx="457.0868" cy="1234.8342" fill="#F1F1F1" rx="121.0868" ry="29.3342" style="stroke:#181818;stroke-width:0.5;"/><text fill="#000000" font-family="sans-serif" font-size="14" lengthAdjust="spacing" textLength="50" x="432.0868" y="1229.3205">US1004</text><text fill="#000000" font-family="sans-serif" font-size="14" lengthAdjust="spacing" textLength="151" x="383.5868" y="1247.9416">open and close courses</text></g><g id="elem_US1005\n Set the teachers of a course"><ellipse cx="456.8142" cy="1329.9628" fill="#F1F1F1" rx="137.8142" ry="29.9628" style="stroke:#181818;stroke-width:0.5;"/><text fill="#000000" font-family="sans-serif" font-size="14" lengthAdjust="spacing" textLength="50" x="431.8142" y="1324.4492">US1005</text><text fill="#000000" font-family="sans-serif" font-size="14" lengthAdjust="spacing" textLength="179" x="369.3142" y="1343.0703">Set the teachers of a course</text></g><g id="elem_US1007\n Enroll students in bulk by importing their data using a csv file"><ellipse cx="456.7507" cy="1441.8501" fill="#F1F1F1" rx="222.2507" ry="46.8501" style="stroke:#181818;stroke-width:0.5;"/><text fill="#000000" font-family="sans-serif" font-size="14" lengthAdjust="spacing" textLength="50" x="431.7507" y="1436.3365">US1007</text><text fill="#000000" font-family="sans-serif" font-size="14" lengthAdjust="spacing" textLength="381" x="268.2507" y="1454.9576">Enroll students in bulk by importing their data using a csv file</text></g><g id="elem_US1009\n Approve or reject students applications to courses"><ellipse cx="456.8277" cy="1565.0655" fill="#F1F1F1" rx="193.3277" ry="41.0655" style="stroke:#181818;stroke-width:0.5;"/><text fill="#000000" font-family="sans-serif" font-size="14" lengthAdjust="spacing" textLength="50" x="431.8277" y="1559.5519">US1009</text><text fill="#000000" font-family="sans-serif" font-size="14" lengthAdjust="spacing" textLength="316" x="300.8277" y="1578.173">Approve or reject students applications to courses</text></g><g id="elem_US1006\n List all the courses that are available to me"><ellipse cx="457.1389" cy="1678.1278" fill="#F1F1F1" rx="173.6389" ry="37.1278" style="stroke:#181818;stroke-width:0.5;"/><text fill="#000000" font-family="sans-serif" font-size="14" lengthAdjust="spacing" textLength="50" x="432.1389" y="1672.6141">US1006</text><text fill="#000000" font-family="sans-serif" font-size="14" lengthAdjust="spacing" textLength="270" x="324.1389" y="1691.2352">List all the courses that are available to me</text></g><g id="elem_US3002\n Create a board"><ellipse cx="457.196" cy="1779.8342" fill="#F1F1F1" rx="82.196" ry="29.3342" style="stroke:#181818;stroke-width:0.5;"/><text fill="#000000" font-family="sans-serif" font-size="14" lengthAdjust="spacing" textLength="50" x="432.196" y="1774.3205">US3002</text><text fill="#000000" font-family="sans-serif" font-size="14" lengthAdjust="spacing" textLength="96" x="411.196" y="1792.9416">Create a board</text></g><g id="elem_US4001\n Schedule a meeting"><ellipse cx="457.2021" cy="1873.8342" fill="#F1F1F1" rx="102.7021" ry="29.3342" style="stroke:#181818;stroke-width:0.5;"/><text fill="#000000" font-family="sans-serif" font-size="14" lengthAdjust="spacing" textLength="50" x="432.2021" y="1868.3205">US4001</text><text fill="#000000" font-family="sans-serif" font-size="14" lengthAdjust="spacing" textLength="125" x="396.7021" y="1886.9416">Schedule a meeting</text></g><g id="elem_US1008\n Request my enrollment in a course"><ellipse cx="456.9162" cy="38.9832" fill="#F1F1F1" rx="152.9162" ry="32.9832" style="stroke:#181818;stroke-width:0.5;"/><text fill="#000000" font-family="sans-serif" font-size="14" lengthAdjust="spacing" textLength="50" x="431.9162" y="33.4696">US1008</text><text fill="#000000" font-family="sans-serif" font-size="14" lengthAdjust="spacing" textLength="219" x="349.4162" y="52.0907">Request my enrollment in a course</text></g><g id="elem_US2002\n List all of my future exams"><ellipse cx="457.0721" cy="136.8342" fill="#F1F1F1" rx="129.5721" ry="29.3342" style="stroke:#181818;stroke-width:0.5;"/><text fill="#000000" font-family="sans-serif" font-size="14" lengthAdjust="spacing" textLength="50" x="432.0721" y="131.3205">US2002</text><text fill="#000000" font-family="sans-serif" font-size="14" lengthAdjust="spacing" textLength="163" x="377.5721" y="149.9416">List all of my future exams</text></g><g id="elem_US1010\n Schedule a class"><ellipse cx="456.9741" cy="230.8342" fill="#F1F1F1" rx="89.9741" ry="29.3342" style="stroke:#181818;stroke-width:0.5;"/><text fill="#000000" font-family="sans-serif" font-size="14" lengthAdjust="spacing" textLength="50" x="431.9741" y="225.3205">US1010</text><text fill="#000000" font-family="sans-serif" font-size="14" lengthAdjust="spacing" textLength="107" x="405.4741" y="243.9416">Schedule a class</text></g><g id="elem_US1011\n Schedule a extra class"><ellipse cx="457.2229" cy="324.8342" fill="#F1F1F1" rx="114.7229" ry="29.3342" style="stroke:#181818;stroke-width:0.5;"/><text fill="#000000" font-family="sans-serif" font-size="14" lengthAdjust="spacing" textLength="50" x="432.2229" y="319.3205">US1011</text><text fill="#000000" font-family="sans-serif" font-size="14" lengthAdjust="spacing" textLength="142" x="388.2229" y="337.9416">Schedule a extra class</text></g><g id="elem_US1012\n Update the schedule of a class"><ellipse cx="456.834" cy="421.0668" fill="#F1F1F1" rx="143.334" ry="31.0668" style="stroke:#181818;stroke-width:0.5;"/><text fill="#000000" font-family="sans-serif" font-size="14" lengthAdjust="spacing" textLength="50" x="431.834" y="415.5531">US1012</text><text fill="#000000" font-family="sans-serif" font-size="14" lengthAdjust="spacing" textLength="194" x="361.834" y="434.1742">Update the schedule of a class</text></g><g id="elem_US2001\n Create/Update an exam"><ellipse cx="457.1726" cy="516.8342" fill="#F1F1F1" rx="119.6726" ry="29.3342" style="stroke:#181818;stroke-width:0.5;"/><text fill="#000000" font-family="sans-serif" font-size="14" lengthAdjust="spacing" textLength="50" x="432.1726" y="511.3205">US2001</text><text fill="#000000" font-family="sans-serif" font-size="14" lengthAdjust="spacing" textLength="149" x="384.6726" y="529.9416">Create/Update an exam</text></g><g id="elem_US2007\n Add/update exam questions \n to a repository of exam questions to be used in automatic formative exams"><ellipse cx="457.0416" cy="640.2083" fill="#F1F1F1" rx="281.5416" ry="58.7083" style="stroke:#181818;stroke-width:0.5;"/><text fill="#000000" font-family="sans-serif" font-size="14" lengthAdjust="spacing" textLength="50" x="432.0416" y="625.3841">US2007</text><text fill="#000000" font-family="sans-serif" font-size="14" lengthAdjust="spacing" textLength="175" x="369.5416" y="644.0052">Add/update exam questions</text><text fill="#000000" font-family="sans-serif" font-size="14" lengthAdjust="spacing" textLength="466" x="226.0416" y="662.6263">to a repository of exam questions to be used in automatic formative exams</text></g><g id="elem_US2008\n Create/Update a formative exam"><ellipse cx="457.232" cy="765.2464" fill="#F1F1F1" rx="146.732" ry="31.7464" style="stroke:#181818;stroke-width:0.5;"/><text fill="#000000" font-family="sans-serif" font-size="14" lengthAdjust="spacing" textLength="50" x="432.232" y="759.7327">US2008</text><text fill="#000000" font-family="sans-serif" font-size="14" lengthAdjust="spacing" textLength="203" x="357.732" y="778.3538">Create/Update a formative exam</text></g><!--link M to US1001\n Register, disable/enable, and list users of the system:Teachers and Students, as well as Managers--><g id="link_M_US1001\n Register, disable/enable, and list users of the system:Teachers and Students, as well as Managers"><path d="M37.72,1195.44 C43.64,1140.79 62.43,1042.78 122,988 C140.82,970.7 162.63,956.75 185.93,945.51 " fill="none" id="M-to-US1001\n Register, disable/enable, and list users of the system:Teachers and Students, as well as Managers" style="stroke:#181818;stroke-width:1.0;"/><polygon fill="#181818" points="190.61,943.3,180.7642,943.5459,186.0931,945.4441,184.1948,950.773,190.61,943.3" style="stroke:#181818;stroke-width:1.0;"/></g><!--link M to US1002\n Create new course--><g id="link_M_US1002\n Create new course"><path d="M46.62,1195.4 C59.2,1159.95 82.89,1109.57 122,1083 C190.61,1036.38 285.51,1026.65 356.62,1027.26 " fill="none" id="M-to-US1002\n Create new course" style="stroke:#181818;stroke-width:1.0;"/><polygon fill="#181818" points="361.7,1027.32,352.7463,1023.2174,356.7003,1027.2629,352.6549,1031.2169,361.7,1027.32" style="stroke:#181818;stroke-width:1.0;"/></g><!--link M to US1003\n Open and close enrollments in courses--><g id="link_M_US1003\n Open and close enrollments in courses"><path d="M62.12,1217.25 C78.76,1207.16 100.86,1195.15 122,1188 C178.55,1168.86 242.87,1156.57 299.86,1148.69 " fill="none" id="M-to-US1003\n Open and close enrollments in courses" style="stroke:#181818;stroke-width:1.0;"/><polygon fill="#181818" points="305,1147.99,295.5357,1145.2647,300.0474,1148.6771,296.635,1153.1888,305,1147.99" style="stroke:#181818;stroke-width:1.0;"/></g><!--link M to US1004\n open and close courses--><g id="link_M_US1004\n open and close courses"><path d="M62.3,1235 C115.64,1235 236.71,1235 330.6,1235 " fill="none" id="M-to-US1004\n open and close courses" style="stroke:#181818;stroke-width:1.0;"/><polygon fill="#181818" points="335.62,1235,326.62,1231,330.62,1235,326.62,1239,335.62,1235" style="stroke:#181818;stroke-width:1.0;"/></g><!--link M to US1005\n Set the teachers of a course--><g id="link_M_US1005\n Set the teachers of a course"><path d="M62.08,1252.86 C78.7,1262.99 100.81,1275 122,1282 C184.9,1302.78 257.39,1314.56 318.73,1321.25 " fill="none" id="M-to-US1005\n Set the teachers of a course" style="stroke:#181818;stroke-width:1.0;"/><polygon fill="#181818" points="323.88,1321.8,315.3674,1316.8467,318.9095,1321.2572,314.499,1324.7994,323.88,1321.8" style="stroke:#181818;stroke-width:1.0;"/></g><!--link M to US1007\n Enroll students in bulk by importing their data using a csv file--><g id="link_M_US1007\n Enroll students in bulk by importing their data using a csv file"><path d="M48.71,1274.81 C62.16,1307.72 85.95,1352.98 122,1378 C156.37,1401.86 197.31,1417.41 238.55,1427.43 " fill="none" id="M-to-US1007\n Enroll students in bulk by importing their data using a csv file" style="stroke:#181818;stroke-width:1.0;"/><polygon fill="#181818" points="243.58,1428.63,235.7354,1422.675,238.7129,1427.4848,233.9031,1430.4623,243.58,1428.63" style="stroke:#181818;stroke-width:1.0;"/></g><!--link M to US1009\n Approve or reject students applications to courses--><g id="link_M_US1009\n Approve or reject students applications to courses"><path d="M35.52,1274.69 C38.61,1334.64 53.77,1447.57 122,1507 C159.65,1539.79 209.03,1557.22 258.22,1565.87 " fill="none" id="M-to-US1009\n Approve or reject students applications to courses" style="stroke:#181818;stroke-width:1.0;"/><polygon fill="#181818" points="263.29,1566.73,255.0777,1561.2933,258.3592,1565.9011,253.7514,1569.1825,263.29,1566.73" style="stroke:#181818;stroke-width:1.0;"/></g><!--link U to US1006\n List all the courses that are available to me--><g id="link_U_US1006\n List all the courses that are available to me"><path d="M48.51,1770.85 C65.08,1760.07 94.38,1742.44 122,1733 C176.39,1714.42 237.96,1702 293.3,1693.76 " fill="none" id="U-to-US1006\n List all the courses that are available to me" style="stroke:#181818;stroke-width:1.0;"/><polygon fill="#181818" points="298.29,1693.03,288.804,1690.3812,293.3431,1693.7571,289.9673,1698.2962,298.29,1693.03" style="stroke:#181818;stroke-width:1.0;"/></g><!--link U to US3002\n Create a board--><g id="link_U_US3002\n Create a board"><path d="M48.53,1780 C97.04,1780 264.9,1780 369.44,1780 " fill="none" id="U-to-US3002\n Create a board" style="stroke:#181818;stroke-width:1.0;"/><polygon fill="#181818" points="374.68,1780,365.68,1776,369.68,1780,365.68,1784,374.68,1780" style="stroke:#181818;stroke-width:1.0;"/></g><!--link U to US4001\n Schedule a meeting--><g id="link_U_US4001\n Schedule a meeting"><path d="M48.76,1789.46 C65.35,1800.36 94.44,1817.94 122,1827 C196.14,1851.37 283.61,1863.1 350.44,1868.75 " fill="none" id="U-to-US4001\n Schedule a meeting" style="stroke:#181818;stroke-width:1.0;"/><polygon fill="#181818" points="355.62,1869.18,346.9833,1864.4464,350.6373,1868.7648,346.3189,1872.4188,355.62,1869.18" style="stroke:#181818;stroke-width:1.0;"/></g><!--link S to US1008\n Request my enrollment in a course--><g id="link_S_US1008\n Request my enrollment in a course"><path d="M58.54,85.26 C107.36,79.58 222.95,66.12 316.96,55.18 " fill="none" id="S-to-US1008\n Request my enrollment in a course" style="stroke:#181818;stroke-width:1.0;"/><polygon fill="#181818" points="321.98,54.6,312.5728,51.6837,317.0145,55.1867,313.5115,59.6284,321.98,54.6" style="stroke:#181818;stroke-width:1.0;"/></g><!--link S to US2002\n List all of my future exams--><g id="link_S_US2002\n List all of my future exams"><path d="M58.54,90.74 C110.76,96.82 239.38,111.79 336.27,123.06 " fill="none" id="S-to-US2002\n List all of my future exams" style="stroke:#181818;stroke-width:1.0;"/><polygon fill="#181818" points="341.44,123.67,332.9556,118.6684,336.4727,123.099,332.0421,126.6161,341.44,123.67" style="stroke:#181818;stroke-width:1.0;"/></g><!--link T to US1010\n Schedule a class--><g id="link_T_US1010\n Schedule a class"><path d="M41.47,429.4 C50.95,385.02 73.1,314.53 122,278 C191.87,225.81 293.48,218.44 366.25,221.4 " fill="none" id="T-to-US1010\n Schedule a class" style="stroke:#181818;stroke-width:1.0;"/><polygon fill="#181818" points="371.44,221.63,362.6326,217.222,366.4452,221.401,362.2663,225.2136,371.44,221.63" style="stroke:#181818;stroke-width:1.0;"/></g><!--link T to US1011\n Schedule a extra class--><g id="link_T_US1011\n Schedule a extra class"><path d="M60.53,429.68 C75.85,409.4 97.17,386.2 122,373 C187.79,338.02 270.65,325.95 337.38,322.66 " fill="none" id="T-to-US1011\n Schedule a extra class" style="stroke:#181818;stroke-width:1.0;"/><polygon fill="#181818" points="342.56,322.42,333.3863,318.8364,337.5652,322.649,333.7526,326.828,342.56,322.42" style="stroke:#181818;stroke-width:1.0;"/></g><!--link T to US1012\n Update the schedule of a class--><g id="link_T_US1012\n Update the schedule of a class"><path d="M60.7,466.07 C112.09,460.21 230.64,446.69 324.59,435.98 " fill="none" id="T-to-US1012\n Update the schedule of a class" style="stroke:#181818;stroke-width:1.0;"/><polygon fill="#181818" points="329.61,435.41,320.2205,432.4372,324.6411,435.9669,321.1115,440.3875,329.61,435.41" style="stroke:#181818;stroke-width:1.0;"/></g><!--link T to US2001\n Create/Update an exam--><g id="link_T_US2001\n Create/Update an exam"><path d="M60.7,471.93 C115.51,478.18 246.72,493.14 343,504.12 " fill="none" id="T-to-US2001\n Create/Update an exam" style="stroke:#181818;stroke-width:1.0;"/><polygon fill="#181818" points="348.13,504.7,339.6331,499.7198,343.1613,504.1416,338.7396,507.6698,348.13,504.7" style="stroke:#181818;stroke-width:1.0;"/></g><!--link T to US2007\n Add/update exam questions \n to a repository of exam questions to be used in automatic formative exams--><g id="link_T_US2007\n Add/update exam questions \n to a repository of exam questions to be used in automatic formative exams"><path d="M60.67,506.66 C76.18,526.6 97.64,549.84 122,564 C152.01,581.45 185.71,594.89 219.84,605.24 " fill="none" id="T-to-US2007\n Add/update exam questions \n to a repository of exam questions to be used in automatic formative exams" style="stroke:#181818;stroke-width:1.0;"/><polygon fill="#181818" points="224.88,606.75,217.3949,600.3489,220.0877,605.3237,215.1129,608.0165,224.88,606.75" style="stroke:#181818;stroke-width:1.0;"/></g><!--link T to US2008\n Create/Update a formative exam--><g id="link_T_US2008\n Create/Update a formative exam"><path d="M36.83,508.55 C41.67,564.12 59.18,664.27 122,716 C175.02,759.66 249.5,773.62 314.67,775.91 " fill="none" id="T-to-US2008\n Create/Update a formative exam" style="stroke:#181818;stroke-width:1.0;"/><polygon fill="#181818" points="319.74,776.07,310.8701,771.7893,314.7425,775.9129,310.6188,779.7853,319.74,776.07" style="stroke:#181818;stroke-width:1.0;"/></g><!--SRC=[RLDDZvim4BtpA-ROIbdbOxVjjeTAgwgtHfLAkFKou25nQsngc-pcttV6i0JOd83nctbltZE6wWZHWTV7KmIbFLLHEvjbM4NdeGZa0GCKm_SUBHxxqdue7GYhKryw3AKyTefib5AUPNkuk_iAxufykzbiVrluHKST8laLqmKi3Qt9ocC5Q1KOFeEEQGEu6kA985mOtNmPU4923GnX9HpFP4nIr8iBxsUKEwRyvWaZWQLdg5pd0yqXzmpvsP9DeolZ0W5PxunfX0Eq7ReMan-upStRRk8-C2wdc9Q9hrlmSdXJp2T6Vq_i48OjHK7PcRzGNa0thVDHswECqnuKHcI_fC3pmXbgRHOJF_F4fxRrxap0wNZwmo5VXsFR6bsXn1xaAemxPCLao4SUyaEoGHOccmmmVaSkUW8yepOIf0nfMCFOVZzB0Q5qwDNa_A6_63axepeZY8P8TcGD-KJ3Oxez_pfY6Srbaf4OT7LpRDdrlADizfpRwYvsB9TUi94b3rU2xMQkeZ8O6395B7JII_GtSS9Rj4hsJNVujQMFVO7VzVlt_go7DhH9uXmcb-D9gNNNOmG0oOyK7X-ozSW9jove_XClmhS0CQ8a-SDKSgsBhk7iAwYTbvVpwCoKz_6jl4K3E_aV]--></g></svg>