<?xml version="1.0" encoding="us-ascii" standalone="no"?>
<svg xmlns="http://www.w3.org/2000/svg" contentStyleType="text/css"
     height="1049px" preserveAspectRatio="none" style="width:1398px;height:1049px;background:#FFFFFF;" version="1.1"
     viewBox="0 0 1398 1049" width="1398px" zoomAndPan="magnify">
    <defs/>
    <g>
        <rect fill="#FFFFFF" height="837.6504" style="stroke:#181818;stroke-width:1.0;" width="10" x="222"
              y="112.7988"/>
        <rect fill="#FFFFFF" height="779.0293" style="stroke:#181818;stroke-width:1.0;" width="10" x="511"
              y="142.1094"/>
        <rect fill="#FFFFFF" height="87.9316" style="stroke:#181818;stroke-width:1.0;" width="10" x="755" y="171.4199"/>
        <rect fill="#FFFFFF" height="87.9316" style="stroke:#181818;stroke-width:1.0;" width="10" x="755" y="371.5938"/>
        <rect fill="#FFFFFF" height="87.9316" style="stroke:#181818;stroke-width:1.0;" width="10" x="755" y="679.6543"/>
        <rect fill="#FFFFFF" height="29.3105" style="stroke:#181818;stroke-width:1.0;" width="10" x="993" y="200.7305"/>
        <rect fill="#FFFFFF" height="29.3105" style="stroke:#181818;stroke-width:1.0;" width="10" x="993" y="400.9043"/>
        <rect fill="#FFFFFF" height="29.3105" style="stroke:#181818;stroke-width:1.0;" width="10" x="993" y="547.457"/>
        <rect fill="#FFFFFF" height="29.3105" style="stroke:#181818;stroke-width:1.0;" width="10" x="993" y="708.9648"/>
        <rect fill="#FFFFFF" height="29.3105" style="stroke:#181818;stroke-width:1.0;" width="10" x="993" y="855.5176"/>
        <rect fill="#FFFFFF" height="29.3105" style="stroke:#181818;stroke-width:1.0;" width="10" x="1145"
              y="312.9727"/>
        <rect fill="#FFFFFF" height="29.3105" style="stroke:#181818;stroke-width:1.0;" width="10" x="1145"
              y="488.8359"/>
        <rect fill="#FFFFFF" height="29.3105" style="stroke:#181818;stroke-width:1.0;" width="10" x="1302.5"
              y="621.0332"/>
        <rect fill="#FFFFFF" height="29.3105" style="stroke:#181818;stroke-width:1.0;" width="10" x="1302.5"
              y="796.8965"/>
        <rect fill="none" height="618.4766" style="stroke:#000000;stroke-width:1.5;" width="1005.5" x="385.5"
              y="274.3516"/>
        <line style="stroke:#181818;stroke-width:0.5;stroke-dasharray:5.0,5.0;" x1="38" x2="38" y1="81.4883"
              y2="968.4492"/>
        <line style="stroke:#181818;stroke-width:0.5;stroke-dasharray:5.0,5.0;" x1="226.5" x2="226.5" y1="81.4883"
              y2="968.4492"/>
        <line style="stroke:#181818;stroke-width:0.5;stroke-dasharray:5.0,5.0;" x1="515.5" x2="515.5" y1="81.4883"
              y2="968.4492"/>
        <line style="stroke:#181818;stroke-width:0.5;stroke-dasharray:5.0,5.0;" x1="759.5" x2="759.5" y1="81.4883"
              y2="968.4492"/>
        <line style="stroke:#181818;stroke-width:0.5;stroke-dasharray:5.0,5.0;" x1="998" x2="998" y1="81.4883"
              y2="968.4492"/>
        <line style="stroke:#181818;stroke-width:0.5;stroke-dasharray:5.0,5.0;" x1="1150" x2="1150" y1="81.4883"
              y2="968.4492"/>
        <line style="stroke:#181818;stroke-width:0.5;stroke-dasharray:5.0,5.0;" x1="1307" x2="1307" y1="81.4883"
              y2="968.4492"/>
        <text fill="#000000" font-family="sans-serif" font-size="14" lengthAdjust="spacing" textLength="60" x="5"
              y="78.5352">Manager
        </text>
        <ellipse cx="38" cy="13.5" fill="#E2E2F0" rx="8" ry="8" style="stroke:#181818;stroke-width:0.5;"/>
        <path d="M38,21.5 L38,48.5 M25,29.5 L51,29.5 M38,48.5 L25,63.5 M38,48.5 L51,63.5 " fill="none"
              style="stroke:#181818;stroke-width:0.5;"/>
        <text fill="#000000" font-family="sans-serif" font-size="14" lengthAdjust="spacing" textLength="60" x="5"
              y="980.9844">Manager
        </text>
        <ellipse cx="38" cy="992.4375" fill="#E2E2F0" rx="8" ry="8" style="stroke:#181818;stroke-width:0.5;"/>
        <path d="M38,1000.4375 L38,1027.4375 M25,1008.4375 L51,1008.4375 M38,1027.4375 L25,1042.4375 M38,1027.4375 L51,1042.4375 "
              fill="none" style="stroke:#181818;stroke-width:0.5;"/>
        <rect fill="#E2E2F0" height="30.4883" rx="2.5" ry="2.5" style="stroke:#181818;stroke-width:0.5;" width="209"
              x="122.5" y="50"/>
        <text fill="#000000" font-family="sans-serif" font-size="14" lengthAdjust="spacing" textLength="195" x="129.5"
              y="70.5352">OpenCloseEnrollmentsMenu
        </text>
        <rect fill="#E2E2F0" height="30.4883" rx="2.5" ry="2.5" style="stroke:#181818;stroke-width:0.5;" width="209"
              x="122.5" y="967.4492"/>
        <text fill="#000000" font-family="sans-serif" font-size="14" lengthAdjust="spacing" textLength="195" x="129.5"
              y="987.9844">OpenCloseEnrollmentsMenu
        </text>
        <rect fill="#E2E2F0" height="30.4883" rx="2.5" ry="2.5" style="stroke:#181818;stroke-width:0.5;" width="241"
              x="395.5" y="50"/>
        <text fill="#000000" font-family="sans-serif" font-size="14" lengthAdjust="spacing" textLength="227" x="402.5"
              y="70.5352">OpenCloseEnrollmentsController
        </text>
        <rect fill="#E2E2F0" height="30.4883" rx="2.5" ry="2.5" style="stroke:#181818;stroke-width:0.5;" width="241"
              x="395.5" y="967.4492"/>
        <text fill="#000000" font-family="sans-serif" font-size="14" lengthAdjust="spacing" textLength="227" x="402.5"
              y="987.9844">OpenCloseEnrollmentsController
        </text>
        <rect fill="#E2E2F0" height="30.4883" rx="2.5" ry="2.5" style="stroke:#181818;stroke-width:0.5;" width="227"
              x="646.5" y="50"/>
        <text fill="#000000" font-family="sans-serif" font-size="14" lengthAdjust="spacing" textLength="213" x="653.5"
              y="70.5352">ListCourseToEnrollmentService
        </text>
        <rect fill="#E2E2F0" height="30.4883" rx="2.5" ry="2.5" style="stroke:#181818;stroke-width:0.5;" width="227"
              x="646.5" y="967.4492"/>
        <text fill="#000000" font-family="sans-serif" font-size="14" lengthAdjust="spacing" textLength="213" x="653.5"
              y="987.9844">ListCourseToEnrollmentService
        </text>
        <rect fill="#E2E2F0" height="30.4883" rx="2.5" ry="2.5" style="stroke:#181818;stroke-width:0.5;" width="136"
              x="930" y="50"/>
        <text fill="#000000" font-family="sans-serif" font-size="14" lengthAdjust="spacing" textLength="122" x="937"
              y="70.5352">CourseRepository
        </text>
        <rect fill="#E2E2F0" height="30.4883" rx="2.5" ry="2.5" style="stroke:#181818;stroke-width:0.5;" width="136"
              x="930" y="967.4492"/>
        <text fill="#000000" font-family="sans-serif" font-size="14" lengthAdjust="spacing" textLength="122" x="937"
              y="987.9844">CourseRepository
        </text>
        <rect fill="#E2E2F0" height="30.4883" rx="2.5" ry="2.5" style="stroke:#181818;stroke-width:0.5;" width="148"
              x="1076" y="50"/>
        <text fill="#000000" font-family="sans-serif" font-size="14" lengthAdjust="spacing" textLength="134" x="1083"
              y="70.5352">CloseEnrollmentsUI
        </text>
        <rect fill="#E2E2F0" height="30.4883" rx="2.5" ry="2.5" style="stroke:#181818;stroke-width:0.5;" width="148"
              x="1076" y="967.4492"/>
        <text fill="#000000" font-family="sans-serif" font-size="14" lengthAdjust="spacing" textLength="134" x="1083"
              y="987.9844">CloseEnrollmentsUI
        </text>
        <rect fill="#E2E2F0" height="30.4883" rx="2.5" ry="2.5" style="stroke:#181818;stroke-width:0.5;" width="147"
              x="1234" y="50"/>
        <text fill="#000000" font-family="sans-serif" font-size="14" lengthAdjust="spacing" textLength="133" x="1241"
              y="70.5352">OpenEnrollmentsUI
        </text>
        <rect fill="#E2E2F0" height="30.4883" rx="2.5" ry="2.5" style="stroke:#181818;stroke-width:0.5;" width="147"
              x="1234" y="967.4492"/>
        <text fill="#000000" font-family="sans-serif" font-size="14" lengthAdjust="spacing" textLength="133" x="1241"
              y="987.9844">OpenEnrollmentsUI
        </text>
        <rect fill="#FFFFFF" height="837.6504" style="stroke:#181818;stroke-width:1.0;" width="10" x="222"
              y="112.7988"/>
        <rect fill="#FFFFFF" height="779.0293" style="stroke:#181818;stroke-width:1.0;" width="10" x="511"
              y="142.1094"/>
        <rect fill="#FFFFFF" height="87.9316" style="stroke:#181818;stroke-width:1.0;" width="10" x="755" y="171.4199"/>
        <rect fill="#FFFFFF" height="87.9316" style="stroke:#181818;stroke-width:1.0;" width="10" x="755" y="371.5938"/>
        <rect fill="#FFFFFF" height="87.9316" style="stroke:#181818;stroke-width:1.0;" width="10" x="755" y="679.6543"/>
        <rect fill="#FFFFFF" height="29.3105" style="stroke:#181818;stroke-width:1.0;" width="10" x="993" y="200.7305"/>
        <rect fill="#FFFFFF" height="29.3105" style="stroke:#181818;stroke-width:1.0;" width="10" x="993" y="400.9043"/>
        <rect fill="#FFFFFF" height="29.3105" style="stroke:#181818;stroke-width:1.0;" width="10" x="993" y="547.457"/>
        <rect fill="#FFFFFF" height="29.3105" style="stroke:#181818;stroke-width:1.0;" width="10" x="993" y="708.9648"/>
        <rect fill="#FFFFFF" height="29.3105" style="stroke:#181818;stroke-width:1.0;" width="10" x="993" y="855.5176"/>
        <rect fill="#FFFFFF" height="29.3105" style="stroke:#181818;stroke-width:1.0;" width="10" x="1145"
              y="312.9727"/>
        <rect fill="#FFFFFF" height="29.3105" style="stroke:#181818;stroke-width:1.0;" width="10" x="1145"
              y="488.8359"/>
        <rect fill="#FFFFFF" height="29.3105" style="stroke:#181818;stroke-width:1.0;" width="10" x="1302.5"
              y="621.0332"/>
        <rect fill="#FFFFFF" height="29.3105" style="stroke:#181818;stroke-width:1.0;" width="10" x="1302.5"
              y="796.8965"/>
        <polygon fill="#181818" points="210,108.7988,220,112.7988,210,116.7988,214,112.7988"
                 style="stroke:#181818;stroke-width:1.0;"/>
        <line style="stroke:#181818;stroke-width:1.0;" x1="38" x2="216" y1="112.7988" y2="112.7988"/>
        <text fill="#000000" font-family="sans-serif" font-size="13" lengthAdjust="spacing" textLength="154" x="45"
              y="108.0566">Open/Close enrollments
        </text>
        <polygon fill="#181818" points="499,138.1094,509,142.1094,499,146.1094,503,142.1094"
                 style="stroke:#181818;stroke-width:1.0;"/>
        <line style="stroke:#181818;stroke-width:1.0;" x1="232" x2="505" y1="142.1094" y2="142.1094"/>
        <text fill="#000000" font-family="sans-serif" font-size="13" lengthAdjust="spacing" textLength="195" x="239"
              y="137.3672">Request to change enrollments
        </text>
        <polygon fill="#181818" points="743,167.4199,753,171.4199,743,175.4199,747,171.4199"
                 style="stroke:#181818;stroke-width:1.0;"/>
        <line style="stroke:#181818;stroke-width:1.0;" x1="521" x2="749" y1="171.4199" y2="171.4199"/>
        <text fill="#000000" font-family="sans-serif" font-size="13" lengthAdjust="spacing" textLength="74" x="528"
              y="166.6777">allCourses()
        </text>
        <polygon fill="#181818" points="981,196.7305,991,200.7305,981,204.7305,985,200.7305"
                 style="stroke:#181818;stroke-width:1.0;"/>
        <line style="stroke:#181818;stroke-width:1.0;" x1="765" x2="987" y1="200.7305" y2="200.7305"/>
        <text fill="#000000" font-family="sans-serif" font-size="13" lengthAdjust="spacing" textLength="74" x="772"
              y="195.9883">allCourses()
        </text>
        <polygon fill="#181818" points="776,226.041,766,230.041,776,234.041,772,230.041"
                 style="stroke:#181818;stroke-width:1.0;"/>
        <line style="stroke:#181818;stroke-width:1.0;stroke-dasharray:2.0,2.0;" x1="770" x2="997" y1="230.041"
              y2="230.041"/>
        <text fill="#000000" font-family="sans-serif" font-size="13" lengthAdjust="spacing" textLength="75" x="782"
              y="225.2988">Course data
        </text>
        <polygon fill="#181818" points="532,255.3516,522,259.3516,532,263.3516,528,259.3516"
                 style="stroke:#181818;stroke-width:1.0;"/>
        <line style="stroke:#181818;stroke-width:1.0;stroke-dasharray:2.0,2.0;" x1="526" x2="759" y1="259.3516"
              y2="259.3516"/>
        <text fill="#000000" font-family="sans-serif" font-size="13" lengthAdjust="spacing" textLength="93" x="538"
              y="254.6094">List of courses
        </text>
        <path d="M385.5,274.3516 L447.5,274.3516 L447.5,281.6621 L437.5,291.6621 L385.5,291.6621 L385.5,274.3516 "
              fill="#EEEEEE" style="stroke:#000000;stroke-width:1.5;"/>
        <rect fill="none" height="618.4766" style="stroke:#000000;stroke-width:1.5;" width="1005.5" x="385.5"
              y="274.3516"/>
        <text fill="#000000" font-family="sans-serif" font-size="13" font-weight="bold" lengthAdjust="spacing"
              textLength="17" x="400.5" y="287.9199">alt
        </text>
        <text fill="#000000" font-family="sans-serif" font-size="11" font-weight="bold" lengthAdjust="spacing"
              textLength="223" x="462.5" y="286.9863">[Manager chooses to close enrollments]
        </text>
        <polygon fill="#181818" points="1133,308.9727,1143,312.9727,1133,316.9727,1137,312.9727"
                 style="stroke:#181818;stroke-width:1.0;"/>
        <line style="stroke:#181818;stroke-width:1.0;" x1="521" x2="1139" y1="312.9727" y2="312.9727"/>
        <text fill="#000000" font-family="sans-serif" font-size="13" lengthAdjust="spacing" textLength="251" x="528"
              y="308.2305">Display courses for closing enrollments
        </text>
        <polygon fill="#181818" points="532,338.2832,522,342.2832,532,346.2832,528,342.2832"
                 style="stroke:#181818;stroke-width:1.0;"/>
        <line style="stroke:#181818;stroke-width:1.0;" x1="526" x2="1149" y1="342.2832" y2="342.2832"/>
        <text fill="#000000" font-family="sans-serif" font-size="13" lengthAdjust="spacing" textLength="231" x="538"
              y="337.541">Selected course to close enrollments
        </text>
        <polygon fill="#181818" points="743,367.5938,753,371.5938,743,375.5938,747,371.5938"
                 style="stroke:#181818;stroke-width:1.0;"/>
        <line style="stroke:#181818;stroke-width:1.0;" x1="521" x2="749" y1="371.5938" y2="371.5938"/>
        <text fill="#000000" font-family="sans-serif" font-size="13" lengthAdjust="spacing" textLength="209" x="528"
              y="366.8516">findCourseByStateInEnrollments()
        </text>
        <polygon fill="#181818" points="981,396.9043,991,400.9043,981,404.9043,985,400.9043"
                 style="stroke:#181818;stroke-width:1.0;"/>
        <line style="stroke:#181818;stroke-width:1.0;" x1="765" x2="987" y1="400.9043" y2="400.9043"/>
        <text fill="#000000" font-family="sans-serif" font-size="13" lengthAdjust="spacing" textLength="201" x="772"
              y="396.1621">findCourseByStateInEnrollments
        </text>
        <polygon fill="#181818" points="776,426.2148,766,430.2148,776,434.2148,772,430.2148"
                 style="stroke:#181818;stroke-width:1.0;"/>
        <line style="stroke:#181818;stroke-width:1.0;stroke-dasharray:2.0,2.0;" x1="770" x2="997" y1="430.2148"
              y2="430.2148"/>
        <text fill="#000000" font-family="sans-serif" font-size="13" lengthAdjust="spacing" textLength="75" x="782"
              y="425.4727">Course data
        </text>
        <polygon fill="#181818" points="532,455.5254,522,459.5254,532,463.5254,528,459.5254"
                 style="stroke:#181818;stroke-width:1.0;"/>
        <line style="stroke:#181818;stroke-width:1.0;stroke-dasharray:2.0,2.0;" x1="526" x2="759" y1="459.5254"
              y2="459.5254"/>
        <text fill="#000000" font-family="sans-serif" font-size="13" lengthAdjust="spacing" textLength="85" x="538"
              y="454.7832">Found course
        </text>
        <polygon fill="#181818" points="1133,484.8359,1143,488.8359,1133,492.8359,1137,488.8359"
                 style="stroke:#181818;stroke-width:1.0;"/>
        <line style="stroke:#181818;stroke-width:1.0;" x1="521" x2="1139" y1="488.8359" y2="488.8359"/>
        <text fill="#000000" font-family="sans-serif" font-size="13" lengthAdjust="spacing" textLength="265" x="528"
              y="484.0938">Display confirmation to close enrollments
        </text>
        <polygon fill="#181818" points="532,514.1465,522,518.1465,532,522.1465,528,518.1465"
                 style="stroke:#181818;stroke-width:1.0;"/>
        <line style="stroke:#181818;stroke-width:1.0;" x1="526" x2="1149" y1="518.1465" y2="518.1465"/>
        <text fill="#000000" font-family="sans-serif" font-size="13" lengthAdjust="spacing" textLength="216" x="538"
              y="513.4043">Confirmation to close enrollments
        </text>
        <polygon fill="#181818" points="981,543.457,991,547.457,981,551.457,985,547.457"
                 style="stroke:#181818;stroke-width:1.0;"/>
        <line style="stroke:#181818;stroke-width:1.0;" x1="521" x2="987" y1="547.457" y2="547.457"/>
        <text fill="#000000" font-family="sans-serif" font-size="13" lengthAdjust="spacing" textLength="128" x="528"
              y="542.7148">changeCourseState()
        </text>
        <polygon fill="#181818" points="532,572.7676,522,576.7676,532,580.7676,528,576.7676"
                 style="stroke:#181818;stroke-width:1.0;"/>
        <line style="stroke:#181818;stroke-width:1.0;stroke-dasharray:2.0,2.0;" x1="526" x2="997" y1="576.7676"
              y2="576.7676"/>
        <text fill="#000000" font-family="sans-serif" font-size="13" lengthAdjust="spacing" textLength="136" x="538"
              y="572.0254">Course state changed
        </text>
        <line style="stroke:#000000;stroke-width:1.0;stroke-dasharray:2.0,2.0;" x1="385.5" x2="1391" y1="585.7676"
              y2="585.7676"/>
        <text fill="#000000" font-family="sans-serif" font-size="11" font-weight="bold" lengthAdjust="spacing"
              textLength="221" x="390.5" y="596.4023">[Manager chooses to open enrollments]
        </text>
        <polygon fill="#181818" points="1290.5,617.0332,1300.5,621.0332,1290.5,625.0332,1294.5,621.0332"
                 style="stroke:#181818;stroke-width:1.0;"/>
        <line style="stroke:#181818;stroke-width:1.0;" x1="521" x2="1296.5" y1="621.0332" y2="621.0332"/>
        <text fill="#000000" font-family="sans-serif" font-size="13" lengthAdjust="spacing" textLength="256" x="528"
              y="616.291">Display courses for opening enrollments
        </text>
        <polygon fill="#181818" points="532,646.3438,522,650.3438,532,654.3438,528,650.3438"
                 style="stroke:#181818;stroke-width:1.0;"/>
        <line style="stroke:#181818;stroke-width:1.0;" x1="526" x2="1306.5" y1="650.3438" y2="650.3438"/>
        <text fill="#000000" font-family="sans-serif" font-size="13" lengthAdjust="spacing" textLength="229" x="538"
              y="645.6016">Selected course to open enrollments
        </text>
        <polygon fill="#181818" points="743,675.6543,753,679.6543,743,683.6543,747,679.6543"
                 style="stroke:#181818;stroke-width:1.0;"/>
        <line style="stroke:#181818;stroke-width:1.0;" x1="521" x2="749" y1="679.6543" y2="679.6543"/>
        <text fill="#000000" font-family="sans-serif" font-size="13" lengthAdjust="spacing" textLength="209" x="528"
              y="674.9121">findCourseByStateInEnrollments()
        </text>
        <polygon fill="#181818" points="981,704.9648,991,708.9648,981,712.9648,985,708.9648"
                 style="stroke:#181818;stroke-width:1.0;"/>
        <line style="stroke:#181818;stroke-width:1.0;" x1="765" x2="987" y1="708.9648" y2="708.9648"/>
        <text fill="#000000" font-family="sans-serif" font-size="13" lengthAdjust="spacing" textLength="209" x="772"
              y="704.2227">findCourseByStateInEnrollments()
        </text>
        <polygon fill="#181818" points="776,734.2754,766,738.2754,776,742.2754,772,738.2754"
                 style="stroke:#181818;stroke-width:1.0;"/>
        <line style="stroke:#181818;stroke-width:1.0;stroke-dasharray:2.0,2.0;" x1="770" x2="997" y1="738.2754"
              y2="738.2754"/>
        <text fill="#000000" font-family="sans-serif" font-size="13" lengthAdjust="spacing" textLength="75" x="782"
              y="733.5332">Course data
        </text>
        <polygon fill="#181818" points="532,763.5859,522,767.5859,532,771.5859,528,767.5859"
                 style="stroke:#181818;stroke-width:1.0;"/>
        <line style="stroke:#181818;stroke-width:1.0;stroke-dasharray:2.0,2.0;" x1="526" x2="759" y1="767.5859"
              y2="767.5859"/>
        <text fill="#000000" font-family="sans-serif" font-size="13" lengthAdjust="spacing" textLength="85" x="538"
              y="762.8438">Found course
        </text>
        <polygon fill="#181818" points="1290.5,792.8965,1300.5,796.8965,1290.5,800.8965,1294.5,796.8965"
                 style="stroke:#181818;stroke-width:1.0;"/>
        <line style="stroke:#181818;stroke-width:1.0;" x1="521" x2="1296.5" y1="796.8965" y2="796.8965"/>
        <text fill="#000000" font-family="sans-serif" font-size="13" lengthAdjust="spacing" textLength="263" x="528"
              y="792.1543">Display confirmation to open enrollments
        </text>
        <polygon fill="#181818" points="532,822.207,522,826.207,532,830.207,528,826.207"
                 style="stroke:#181818;stroke-width:1.0;"/>
        <line style="stroke:#181818;stroke-width:1.0;" x1="526" x2="1306.5" y1="826.207" y2="826.207"/>
        <text fill="#000000" font-family="sans-serif" font-size="13" lengthAdjust="spacing" textLength="214" x="538"
              y="821.4648">Confirmation to open enrollments
        </text>
        <polygon fill="#181818" points="981,851.5176,991,855.5176,981,859.5176,985,855.5176"
                 style="stroke:#181818;stroke-width:1.0;"/>
        <line style="stroke:#181818;stroke-width:1.0;" x1="521" x2="987" y1="855.5176" y2="855.5176"/>
        <text fill="#000000" font-family="sans-serif" font-size="13" lengthAdjust="spacing" textLength="128" x="528"
              y="850.7754">changeCourseState()
        </text>
        <polygon fill="#181818" points="532,880.8281,522,884.8281,532,888.8281,528,884.8281"
                 style="stroke:#181818;stroke-width:1.0;"/>
        <line style="stroke:#181818;stroke-width:1.0;stroke-dasharray:2.0,2.0;" x1="526" x2="997" y1="884.8281"
              y2="884.8281"/>
        <text fill="#000000" font-family="sans-serif" font-size="13" lengthAdjust="spacing" textLength="136" x="538"
              y="880.0859">Course state changed
        </text>
        <polygon fill="#181818" points="243,917.1387,233,921.1387,243,925.1387,239,921.1387"
                 style="stroke:#181818;stroke-width:1.0;"/>
        <line style="stroke:#181818;stroke-width:1.0;stroke-dasharray:2.0,2.0;" x1="237" x2="515" y1="921.1387"
              y2="921.1387"/>
        <text fill="#000000" font-family="sans-serif" font-size="13" lengthAdjust="spacing" textLength="255" x="249"
              y="916.3965">Enrollments opened/closed successfully
        </text>
        <polygon fill="#181818" points="49,946.4492,39,950.4492,49,954.4492,45,950.4492"
                 style="stroke:#181818;stroke-width:1.0;"/>
        <line style="stroke:#181818;stroke-width:1.0;stroke-dasharray:2.0,2.0;" x1="43" x2="226" y1="950.4492"
              y2="950.4492"/>
        <text fill="#000000" font-family="sans-serif" font-size="13" lengthAdjust="spacing" textLength="160" x="55"
              y="945.707">Display success message
        </text><!--SRC=[vLTBRnen4BxxLymn74WAYTfe3rN5Ame5DUAHdjtTWLeoDbrxaVZt7U-25lPTGWvLE23X6VpDVFFDsEQ-rI5CkU9h3DcMXrRuOikLXHzRL7sf3GvLgANSeB9cYYggTUfhPTsFp7uJOMnVHw71XKwzvnZkX8zddedN3BVQ28fkVsxCe2sVSm6TMzaXEMX_BSt9YortiGamjJ7kMx7Z5ilPO6MMChoK7Wzc-2T2Oy5gy7zpjVu7y1EMMRNT1L99lWTSoiHgRbefR7N5AgqECrl6CfXSkRCBqAxF8351m2rd0PRlNHDrWvgv7K2lm4yoEKMh9ennQO-THkNM167YokTK1_Ifhsc-4pmO2BELV7yC3bRKt6v_eTOvX9IaV4ivUtwvYQJdAD6t61n2A4_mj4hv01foKAEAbL11OkxjvvQWda-70udmZ8VgyZdN2pHV7KAc45crncLuOpTakIx2U7jNZ7IaZZNFGjQqnJNKhbOYt70hj2eNtFlelTy8-ofYpuihEJIIzLXSMKatLrHzdh6aZ4Cvu0Qrsc8ewJy5CqyJsWKZBtUw5qyyjtlbnClV4exurvXtXScTq5HmH_aOq-voTNwyULSfzVEHKwYtzz1wlmdmDOJ-7quwvu0gQ9PXvLFaP25c68Ex-509m4I-ZyQi8YdtHLnNl17AeafUAXJFOKYdAZk0mOQ-oD84BtaGESTlH4MqaOozI7gLBQSJs65ed6mwjzrFtVlRBpUZK13e7ZfTw3nwtNlleGi_X_C5E7kBtJozJC0GpTIG0JLKA7v5JdSjDkOx3hD8MR71vE4s7dm_BX1xEn5gvU9XuzTfwl3veTqJ5bmRKWbUfso0AnxHbNoeV1tGSU71SZ5gFx89LJoYZ3sgftkB48SamAVUNm00]-->
    </g>
</svg>